<?xml version="1.0" encoding="utf-8"?>
<!-- Generator: Adobe Illustrator 28.1.0, SVG Export Plug-In . SVG Version: 6.00 Build 0)  -->
<svg version="1.1" id="Layer_1" xmlns="http://www.w3.org/2000/svg" xmlns:xlink="http://www.w3.org/1999/xlink" x="0px" y="0px"
	 viewBox="0 0 799 809" style="enable-background:new 0 0 799 809;" xml:space="preserve">
<style type="text/css">
	.st0{fill:none;stroke:#B1B2B4;stroke-width:2;}
	.st1{fill:none;stroke:#918F90;stroke-width:2;}
	.st2{fill:#636569;}
	.st3{fill:#231F20;}
	.st4{fill:#FFFFFF;}
</style>
<g>
	<path vector-effect="non-scaling-stroke" class="st0" d="M309.5,303c13.2,23,26.5,46.2,39.9,69.5c4.1,7,13.6,7.7,18.9,1.9
		c4.7-5.2,2.7-11.3-0.4-16.7c-15-25.6-29.7-51.1-44.2-76.4c-0.6-1.1-0.3-2.4,0.8-3.1c0.4-0.2,0.9-0.3,1.3-0.3c1,0.1,1.8,0.8,2.6,2.2
		c15.6,27,30.9,53.6,46.1,80c2.5,4.4,5.4,10.4,8,13.7c6.5,8.3,20.6,4.2,20.6-6.9c0-2.5-0.4-4.5-1.3-6c-20.7-35.9-41.4-71.7-62-107.3
		c-0.6-1-0.4-2.1,0.5-3.2c0.2-0.2,0.4-0.4,0.8-0.4c1.1-0.1,1.9,0.4,2.4,1.3c21.9,37.5,43.2,74.5,64,110.9c3.1,5.4,5.5,8.8,7.3,10.2
		c5.1,4,10.8,6,17.1,5.9c3.8-0.1,6.7-0.5,8.8-1.2c8.4-3.1,13.8-9.2,16.2-18.2c2.1-7.8,0.2-14.5-3.8-21.5
		c-8.5-14.6-16.6-28.6-24.3-41.7c-1.2-2.1-0.8-3.8,1.3-5.1c0.3-0.2,0.6-0.2,0.9,0c1.1,0.9,2,1.9,2.7,3.1
		c14,24.1,27.5,47.6,40.5,70.4c1.9,3.4,5,5.3,9.1,5.7c7.1,0.7,12.7-2.9,13.6-10.1c0.4-3.2-1-6.4-2.6-9.1
		c-16.6-28.7-32.9-57-48.9-84.7c-1.1-1.8-3.7-5.9-1.1-7.6c0.5-0.3,1.2-0.3,1.6,0.2c1.3,1.5,2.4,3.1,3.5,4.8
		c12.4,21.3,25.4,44,39.1,68.1c4.2,7.3,12.4,8.6,18.6,3.4c3.2-2.8,3.5-7.6,2.9-11.5c-0.3-1.6-1.2-3.7-2.7-6.3
		c-7.1-12.2-14.2-24.4-21.3-36.7c-3.3-5.7-5.2-9.4-5.6-11c-1.2-4.3,0.1-8.7,3.8-13.3c1.8-2.2,4.4-3.9,7.8-5
		c12.8-4.2,18.6,10,23.4,18.3c2.2,3.8,5.7,6.1,10.4,6.8c7.9,1.3,14.7-0.4,18.8-7.8c0.9-1.7,1.5-3.7,1.5-6.1c0.2-5.7-1.4-9.8-4-15.6
		c-15.9-35.4-41.7-61.2-77.3-77.4c-17.1-7.8-35.6-11.9-54.8-13.3c-43.7-3.2-85.6,12.5-117.9,41.9c-6.9,6.2-13.6,13.9-20.2,23.1
		c-14.1,19.7-23.3,41.6-27.4,65.9c-1.9,11.1-1.8,22.7-1.6,34c0.1,8,1.3,17,3.5,27c1.3,6,10.7,4.2,9.2-2.7
		c-5.7-26.4-4.6-52.1,3.3-77.1c11.7-37.1,38.2-68.6,72.8-86.4c15.7-8.1,32.6-13.6,49.9-15.6c31.3-3.5,63,1.9,90.5,16.8
		c29.4,16,50.8,40.3,64,73c1.3,3.3,1.4,6.9-1.5,9.2c-4.1,3.3-7.6,2.6-10.5-2.2c-3.1-5-5.7-11.1-10-15.2c-7-6.8-15.6-8.8-25.6-6.2
		c-6,1.6-10.9,5.4-14.8,11.5c-4.4,6.8-3.7,18.9,0.2,25.8c3,5.3,6.2,10.4,9.2,15.6c5.7,9.9,11.5,20.1,17.6,30.4
		c0.5,0.9,0.4,1.8-0.3,2.6c-0.2,0.2-0.4,0.4-0.7,0.5c-1.3,0.7-2.4,0.4-3.1-0.9c-0.8-1.5-1.7-3-2.5-4.4
		c-13.3-23.1-26.6-46.1-39.9-69.1c-1.2-2-2.6-3.3-4.2-3.8c-6.6-2-14.3,0.3-16.2,7.8c-0.6,2.2-0.9,3.9,0,6c2,4.9,4.7,9.2,7.3,13.7
		c14.9,26,29.7,51.6,44.3,76.7c1,1.7,1.5,3.3,1.7,5c0.1,0.8-0.5,1.5-1.3,1.6c-0.1,0-0.2,0-0.3,0c-1.8-0.1-3.1-1-4-2.6
		c-13.8-23.8-27.4-47.4-40.8-70.7c-4.3-7.5-14.5-8.1-19.8-1.4c-3.4,4.2-2.2,11,0.3,15.4c6.5,11.2,13.4,23,20.6,35.4
		c3.1,5.4,5.1,9.2,5.7,11.5c2.4,8.1-2.3,17-10.4,19.4c-7.2,2.1-15.9-0.6-19.6-7c-13.1-22.9-26.4-46-39.8-69.1
		c-8.8-15.1-16.7-29.2-23.7-42.1c-1.4-2.6-3-4.6-4.7-6.3c-2.4-2.2-6.2-2-9.3-1.8c-4.5,0.2-7.8,3.3-8.9,7.6c-1,4-0.6,7.6,1.4,11
		c20.9,36.3,41.3,71.6,61.2,106c0.7,1.2,0.5,2.3-0.5,3.2c-0.5,0.5-1.1,0.5-1.7,0.1c-1.1-0.8-1.9-1.7-2.5-2.8
		c-16.2-27.9-34.1-58.8-53.5-92.8c-1.5-2.5-3.7-4-6.7-4.3c-7.5-0.9-12.2,1.9-14,8.4c-0.9,3.1-0.6,6,1,8.7
		c14.8,25.7,29.6,51.2,44.3,76.7c0.7,1.3,1.3,2.5,1.8,3.8c0.4,1.1,0.1,1.8-1,2.3l-0.5,0.2c-1.1,0.5-1.9,0.2-2.5-0.8
		c-14.7-25.6-29.3-51.1-44-76.5c-1.8-3.2-6.2-4.1-8.3-0.5c-2.8,5.1-5.9,10.7-9.2,16.8c-5,9.2-11,19.6-18.1,31.3
		c-1,1.5-1.4,3.1-1.2,4.9c0.1,1.1,1,1.9,2.1,1.9c6.9,0.2,13.9,0.2,21.2,0c0.9,0,1.7,0,2.6,0.1c1.8,0.2,4.2,0,4.4,2.6
		c0,0.7-0.3,1.1-1,1.2c-10.8,1.3-21,1.1-31.5,1.1c-2,0-3.5,0.9-4.5,2.6c-2.3,3.9-4.7,7.9-7.3,12.1c-3.8,6.1-5.5,11.8-2.3,18.2
		c9.3,18.7,22.9,36.2,39.4,49.5c24.3,19.5,51.6,31.1,82.1,34.8c48.9,5.9,95.9-11.3,130-46.2c16.4-16.8,28.4-36.2,36.1-58.5
		c5.8-16.8,8.5-34.6,8-53.3c-0.2-7.9-0.6-14.6-1.2-19.9c-0.4-3.1-2.1-4.5-5.2-4.2c-0.1,0-0.2,0-0.3,0c-3.1,0.2-4.5,1.9-4,5
		c15.3,105.8-84.1,193.1-186.8,162.7c-38.1-11.3-69.1-36.5-88.3-71.8c-1.8-3.3-1.7-6.8,0.3-10.4c1.8-3.2,3.7-6.4,5.8-9.5
		c0.8-1.2,2.2-1.9,3.7-2c7.4,0,14.9,0,22.3-0.1c8.1-0.1,15.5-5.9,13.5-14.7c-0.6-2.6-2.1-4.7-4.6-6.5c-1.7-1.2-4.1-1.8-7.2-1.9
		c-4,0-7.9,0.1-11.7,0.2c-1.2,0.1-1.5-0.4-0.9-1.5l17.9-32.6C309.3,303,309.3,302.9,309.5,303C309.4,303,309.4,303,309.5,303"/>
	<path vector-effect="non-scaling-stroke" class="st1" d="M240,530.1l0,60.8c0,0.5-0.4,1-0.9,1.1l-6.1,0.8c-0.6,0.1-0.9,0.4-1,1
		l-0.2,2.2c-0.1,0.7,0.2,1,0.9,1l26.2,0c0.3,0,0.6-0.1,0.8-0.4c0.3-0.4,0.4-0.9,0.3-1.5c-0.1-0.2-0.1-0.4,0-0.7
		c0.1-0.9-0.2-1.4-1-1.5c-2.2-0.4-4.3-0.8-6.3-1.1c-0.5-0.1-0.8-0.4-0.8-0.9l0-71.2c0-0.5-0.4-0.8-0.8-0.8c0,0-0.1,0-0.1,0
		c-5.4,0.7-10.8,1.1-16.2,1.2c-0.9,0-1.7,0.7-1.8,1.6c-0.2,1.8-0.2,3.5,0.2,5.1c0.1,0.4,0.4,0.7,0.8,0.8l5.2,1.5
		C239.7,529.3,240,529.6,240,530.1"/>
	<path vector-effect="non-scaling-stroke" class="st1" d="M433.6,592.2c3.6,2.8,7.2,4.5,10.7,5.3c15.5,3.4,32.8-4.6,31.9-22.5
		c-0.6-11.7-12.7-18.4-21.9-22.8c-7.2-3.5-22.4-9.5-15.9-20.5c1-1.7,2.5-2.9,4.5-3.5c5.5-1.8,11.8-1.6,16.5,1.8
		c4,2.9,6.4,6.4,7.3,10.6c0.2,0.9,1,1.6,1.9,1.5l3.4-0.1c0.6,0,1-0.5,1-1l-0.1-19.2c0-0.5-0.2-0.8-0.7-0.8c-1.1-0.1-2.2-0.1-3.3,0.1
		c-0.4,0.1-0.7,0.3-0.9,0.7l-1.4,2.8c-0.3,0.6-1,0.8-1.6,0.5c-0.1,0-0.1-0.1-0.2-0.1c-5.7-4.3-12.2-5.9-19.6-4.8
		c-9.9,1.5-17.9,7.5-18.5,17.9c-0.3,4.3,0.4,7.8,2,10.6c5.3,9.5,17.5,13.7,26.5,18.4c5.1,2.7,10.3,7.5,9.7,13.9
		c-0.9,10.3-13.3,11.4-21.2,9c-6.4-2-8.8-7.5-10.2-13.8c-0.1-0.4-0.4-0.8-0.8-0.9c-1.5-0.4-3.1-0.5-5-0.4c-0.5,0-0.8,0.3-0.8,0.8
		l0,20.2c0,0.5,0.2,0.8,0.6,0.9c3.5,1.2,4.7-1.9,5.4-4.5C433.1,592.1,433.3,592,433.6,592.2"/>
	<path vector-effect="non-scaling-stroke" class="st1" d="M376.8,576.8c-0.1,0.2-0.3,0.2-0.4,0.2c0,0-0.1,0-0.1-0.1
		c-2.2-2.3-4.4-4.5-6.7-6.4c-8.6-7.3-16.1-15.5-24-24.8c-4.4-5.2-11.1-13.3-5.3-19.4c3.8-4,10.7-2,14.3,1.2c3.8,3.5,6.4,7.8,7.7,13
		c0.6,2.3,4.1,1.6,5.8,1.6c0.6,0,0.9-0.3,0.9-0.9l0-19.3c0-0.4-0.2-0.7-0.7-0.8c-1.2-0.2-2.3-0.2-3.4,0.1c-0.4,0.1-0.7,0.3-0.8,0.7
		l-1.5,3.1c-0.2,0.3-0.5,0.5-0.9,0.3c0,0-0.1,0-0.1-0.1c-7.1-5.7-14.8-6.7-23-2.9c-7.5,3.4-8.8,9.8-7.3,17.6c0.5,2.5,2,4.6,2.8,7
		c0.1,0.4-0.1,0.8-0.4,0.9c0,0,0,0-0.1,0c-6.3,1.5-11.2,6.1-13.5,11.9c-7.6,19,5.7,37.4,25.4,38.5c11.2,0.6,21-2.7,28.9-10
		c0.3-0.3,0.6-0.3,0.9,0c2.4,2,4.9,3.9,7.3,5.8c5.7,4.3,12.1,5.4,19.3,3.1c1.4-0.4,2.1-1.4,2.1-2.9c0-0.7-0.3-1-1-1
		c-1.2,0-2.5-0.1-3.8-0.2c-6.4-0.5-13.3-8.7-17.9-12.4c-0.3-0.2-0.4-0.6-0.2-0.9c2.3-5.5,3.7-11.3,4.1-17.5c0.1-0.9,0.4-1.7,0.9-2.5
		c0.2-0.3,0.5-0.4,0.8-0.5c2.8-0.7,5.5-1.1,8.1-1.1c0.7,0,1-0.3,1-1l-0.1-4.2c0-0.5-0.4-0.8-0.9-0.8c0,0-0.1,0-0.1,0
		c-7.5,1.3-15.5,1.3-23.7,0c-0.8-0.1-1.2,0.2-1.2,1.1l-0.1,3.9c0,0.5,0.4,1,1,1c0,0,0.1,0,0.1,0c2.7-0.2,5.9-0.2,7,3
		C379.7,566.1,379.3,571.4,376.8,576.8"/>
	<path vector-effect="non-scaling-stroke" class="st1" d="M172.2,590.5l5.6-14.4c0.3-0.7,0.9-1.1,1.6-1.1l23.9,0
		c0.9,0,1.7,0.5,2,1.4l4.9,13.3c0.2,0.5-0.1,1.1-0.6,1.3c-1.8,0.7-3.7,1.1-5.5,1c-0.6,0-1,0.4-1,1c0,0,0,0,0,0l-0.1,2.8
		c0,0.8,0.3,1.2,1.1,1.2l25.9,0c0.8,0,1.2-0.4,1.2-1.2l-0.2-2.7c0-0.6-0.3-0.9-0.9-1l-5.9-1.1c-0.4-0.1-0.6-0.3-0.8-0.6l-25.5-67.7
		c-0.3-0.8-0.9-1.3-1.7-1.5c-1.9-0.4-3.9-0.4-6-0.1c-0.5,0.1-0.8,0.3-0.9,0.8c-4.7,13.8-9.8,27.1-14.8,40.9
		c-3.1,8.5-6.3,16.9-9.8,25.2c-1.6,3.8-4.3,4.2-7.8,4.2c-0.4,0-0.8,0.3-0.8,0.8c0,0,0,0,0,0l-0.1,3c0,0.8,0.4,1.2,1.1,1.2h22.2
		c0.5,0,0.8-0.3,0.8-0.8l-0.1-3.4c0-0.3-0.2-0.5-0.5-0.6l-7-1.2C172.1,591,172,590.8,172.2,590.5"/>
	<path vector-effect="non-scaling-stroke" class="st1" d="M281.7,526.5c-0.2-3-2.7-5.2-5.7-5.1l0,0l-3.2,0.2c-3,0.2-5.2,2.7-5.1,5.7
		c0,0,0,0,0,0l0.1,1c0.2,3,2.7,5.2,5.7,5.1l0,0l3.2-0.2c3-0.2,5.2-2.7,5.1-5.7L281.7,526.5"/>
	<path vector-effect="non-scaling-stroke" class="st1" d="M536.5,567.8c0-13.9-11.3-25.2-25.2-25.2h-5c-13.9,0-25.2,11.3-25.2,25.2
		l0,0v5c0,13.9,11.3,25.2,25.2,25.2l0,0h5c13.9,0,25.2-11.3,25.2-25.2V567.8"/>
	<path vector-effect="non-scaling-stroke" class="st1" d="M559.6,552.6c-1,1.1-1.5,0.9-1.5-0.6l0-7.6c0-1.1-0.6-1.6-1.7-1.5
		l-15.6,1.5c-0.8,0.1-1.5,0.6-1.6,1.4c-0.3,1.3-0.3,2.7,0,4.2c0.1,0.6,0.6,1.1,1.1,1.3l5.2,1.8c0.4,0.1,0.7,0.5,0.7,1l-0.1,37.2
		c0,0.4-0.3,0.7-0.6,0.7l-6.1,0.9c-1,0.1-1.4,0.7-1.3,1.7c0.1,1.6,1,2.3,2.6,2.4c8.8,0.1,17,0.1,24.6,0c0.4,0,0.7-0.2,0.8-0.6
		c0.2-0.9,0.2-1.7,0-2.6c-0.1-0.4-0.3-0.6-0.7-0.7l-6.7-1.2c-0.3-0.1-0.6-0.3-0.6-0.7c0-7.3,0-14.9,0-22.9c0-3.6,0.5-6.3,1.5-8.3
		c2.9-5.9,11.8-10.7,18.5-7.4c3.2,1.5,4,5.6,4,8.8c0,10.3,0,20.2-0.1,29.8c0,0.4-0.3,0.8-0.7,0.8l-6.1,0.9c-0.9,0.1-1.5,1-1.4,1.9
		c0,0.1,0,0.2,0.1,0.3c0.4,1.2,1.3,1.8,2.5,1.9c7,0.2,14.9,0.2,23.6,0c0.6,0,1.1-0.5,1.2-1c0.3-2.1-0.6-3.3-2.6-3.5
		c-1.5-0.2-3-0.3-4.6-0.4c-0.5,0-1-0.5-1-1c0.1-10.6,0.2-21.2,0.2-31.8c0-7.1-2.7-12-8-14.8c-3.9-2.1-8.5-2.5-13.6-1.4
		c-4.1,0.9-7.3,3.5-9.7,6.9C561.1,550.9,560.4,551.8,559.6,552.6"/>
	<path vector-effect="non-scaling-stroke" class="st1" d="M635.2,547.7c-2.5-2.9-6.4-4.5-11.6-4.9c-5.8-0.4-10.6,0.8-14.3,3.6
		c-7.1,5.3-6.9,15.2-0.4,21c5.1,4.5,11.8,7.1,17.9,10.7c4.3,2.5,7.7,6.3,4.5,11.5c-1.2,1.9-3.8,2.8-6,2.8c-7.8,0-13.3-3.8-16.3-11.5
		c-1-2.6-4.9-2.9-4.9,0.5c0,4.8-0.1,9.8-0.1,14.8c0,0.4,0.3,0.8,0.8,0.8c0,0,0,0,0,0l3.2,0c0.6,0,1-0.3,1-1l0.1-3.8
		c0-0.1,0.1-0.3,0.2-0.3c0.1,0,0.1,0,0.2,0.1c7,7.5,23.1,8.9,30.1,0.6c4.4-5.2,4.8-13,1.2-18.6c-3-4.8-10.2-8.3-15.7-10.5
		c-3.2-1.3-5.9-2.9-8.2-4.9c-3.1-2.8-2.9-7.8,1-9.8c3.7-1.8,9.6-0.1,12.5,2.2c2.9,2.3,5.2,5,6.7,8.2c0.2,0.3,0.4,0.6,0.8,0.7
		c0.9,0.2,1.7,0.2,2.4-0.1c0.4-0.1,0.6-0.5,0.6-0.9l-0.1-15.1c0-0.5-0.3-0.8-0.8-0.8l-3.1,0c-0.5,0-0.8,0.3-0.9,0.8l-0.2,3.7
		C635.9,548.1,635.6,548.2,635.2,547.7"/>
	<path vector-effect="non-scaling-stroke" class="st1" d="M268.6,591.8l-7.2,1c-0.4,0.1-0.6,0.3-0.6,0.7l0.1,2.4c0,0.6,0.4,1,1,1
		l27.3,0.1c0.3,0,0.5-0.2,0.6-0.4c0.3-0.9,0.3-1.9,0.1-3c-0.1-0.3-0.3-0.5-0.6-0.6l-7.7-1.2c-0.4-0.1-0.7-0.4-0.7-0.8
		c0.1-16.6,0.1-32.1,0-46.6c0-0.4-0.2-0.8-0.5-1.1c-0.2-0.2-0.6-0.4-0.9-0.3l-16,1.4c-0.4,0-0.7,0.3-0.7,0.7c-0.2,1.5-0.5,3-0.9,4.5
		c-0.2,0.7,0.2,1.4,0.9,1.7l5.1,1.7c0.6,0.2,1,0.7,1,1.4l-0.1,37.2C269,591.6,268.8,591.8,268.6,591.8"/>
	<path vector-effect="non-scaling-stroke" class="st1" d="M373.1,636.8c0.2-7.1-5.5-13-12.6-13.1l-2.4-0.1
		c-7.1-0.2-13,5.5-13.1,12.6l-0.1,4.1c-0.2,7.1,5.5,13,12.6,13.1l2.4,0.1c7.1,0.2,13-5.5,13.1-12.6L373.1,636.8"/>
	<path vector-effect="non-scaling-stroke" class="st1" d="M436.1,636.8c0-7.2-5.9-13-13.1-13l-2.6,0c-7.2,0-13,5.9-13,13.1l0,3.7
		c0,7.2,5.9,13,13.1,13l2.6,0c7.2,0,13-5.9,13-13.1L436.1,636.8"/>
	<path vector-effect="non-scaling-stroke" class="st1" d="M309.8,635.4c2.5,4.9,4.8,9.6,7.1,14.3c0.7,1.3,1.5,2.4,2.6,3.2
		c0.6,0.4,1.3,0.3,1.7-0.3c0-0.1,0.1-0.1,0.1-0.2l8.9-17.8c0.5-1,0.8-0.9,0.8,0.2c0.2,4,0.2,8.4,0,13.2c0,1.7-0.7,2.6-2,3
		c-0.5,0.1-0.8,0.4-1.1,0.8c-0.2,0.4,0.2,0.8,1.4,1.2c0,0,0.1,0,0.1,0l8.8-0.1c0.3,0,0.5-0.2,0.6-0.4c0.3-0.6,0.2-1.1-0.4-1.6
		c-0.6-0.5-1.3-0.9-2-1.2c-0.4-0.2-0.6-0.4-0.6-0.8l0.1-21.1c0-0.4,0.3-0.7,0.7-0.8l1.5-0.2c0.3,0,0.6-0.2,0.7-0.5
		c0.2-0.5,0.2-1.1,0-1.6c-0.1-0.3-0.3-0.5-0.6-0.5c-2.1-0.4-4.2-0.4-6.2-0.1c-0.5,0.1-1,0.4-1.2,0.9l-9.9,19.8
		c-0.1,0.3-0.4,0.4-0.7,0.2c-0.1-0.1-0.2-0.1-0.2-0.2c-2.8-6.2-6-12.6-9.4-19.2c-1.1-2.2-5.8-1.6-8-1.4c-0.4,0-0.6,0.3-0.7,0.6
		c-0.1,0.5-0.1,1,0,1.5c0.1,0.3,0.3,0.5,0.6,0.6l1.8,0.3c0.9,0.2,1.5,0.9,1.5,1.8c0.1,5.1,0.1,10.1,0.1,15c0,1.7-0.3,3.4-0.9,5.2
		c-0.4,1.3-1.5,1.7-2.6,2.2c-0.5,0.2-0.6,0.6-0.4,1.2c0.2,0.4,0.5,0.5,0.9,0.5l8.1,0c0.4,0,0.7-0.2,0.8-0.6c0.2-0.6,0.1-1.1-0.4-1.5
		c-0.6-0.4-1.2-0.8-1.8-1.2c-0.4-0.2-0.6-0.5-0.6-1l0.1-13.3c0-0.2,0.1-0.3,0.3-0.3C309.6,635.2,309.7,635.3,309.8,635.4"/>
	<path vector-effect="non-scaling-stroke" class="st1" d="M393.6,627.2c3.9-0.7,5.4,2,7,4.9c0.3,0.6,0.8,0.9,1.4,1
		c0.4,0.1,0.7-0.1,0.8-0.5c0,0,0-0.1,0-0.1c0.3-2.5,0.3-5.1,0.1-7.8c0-0.5-0.3-0.7-0.8-0.7c-8-0.2-15.8-0.2-23.5,0
		c-0.3,0-0.6,0.3-0.6,0.6c-0.2,2.1-0.1,4.5,0.1,7.2c0,0.5,0.3,0.9,0.7,1.1c0.7,0.4,1.5,0.1,1.9-0.5c1.8-3.2,2-5.5,6.5-5.3
		c0.5,0,0.8,0.4,0.8,0.8l-0.2,20.9c0,0.4-0.1,0.7-0.4,1c-0.4,0.6-1,0.9-1.8,1.1c-0.2,0-0.4,0.2-0.5,0.3c-0.6,0.9-0.1,1.4,1.5,1.6
		c0.3,0,0.6,0,1,0l8.3,0c0.3,0,0.6-0.2,0.8-0.4c0.4-0.5,0.3-0.9-0.2-1.1c-1-0.5-1.9-1-2.9-1.4c-0.4-0.2-0.7-0.6-0.7-1l-0.2-20.8
		C392.9,627.6,393.1,627.3,393.6,627.2"/>
	<path vector-effect="non-scaling-stroke" class="st1" d="M459.9,638.9c-0.8-0.1-0.9-0.3-0.2-0.7c1.7-1,3.1-2.3,4.1-3.9
		c3.5-5.5-1.9-9.8-6.9-10.2c-4-0.3-8.8-0.4-14.2,0c-0.6,0-0.9,0.4-0.9,1l0,0.7c0,0.5,0.4,0.9,0.9,0.9l1.5,0.1c0.4,0,0.6,0.3,0.6,0.7
		c0.3,7.2,0.4,14.4,0.1,21.5c0,0.4-0.2,0.6-0.6,0.8c-1,0.4-2.7,1.1-2.3,2.5c0.1,0.4,0.3,0.5,0.7,0.5h8.7c2,0,2.3-0.7,0.9-2.1
		c-0.5-0.5-1.1-0.9-1.8-1.1c-0.4-0.1-0.6-0.4-0.6-0.8l-0.1-7.5c0-1.1,0.5-1.6,1.6-1.6c1.5,0,2.9,0.1,4.2,0.3
		c2.1,0.3,3.2,1.5,3.2,3.7c0.1,3.3-0.4,8.9,4.1,9.3c1.6,0.1,3.6,0.1,5-0.6c1.2-0.7,1.2-1.3-0.1-1.8c-0.7-0.3-1.4-0.5-2.1-0.6
		c-0.4-0.1-0.6-0.3-0.8-0.7c-0.6-2-1-4-1.1-6.1C463.9,640.5,462.5,639.1,459.9,638.9"/>
	<path vector-effect="non-scaling-stroke" class="st1" d="M486.3,645.3c1.1,2.2-0.9,4.6-3.1,4.8c-4.1,0.3-6.4,0.2-7.5-4.4
		c-0.2-1.1-1.2-1.7-2.2-1.7c-0.9,0-1.4,0.4-1.4,1.3l-0.1,6.8c0,0.6,0.5,1.1,1,1.1c0.1,0,0.2,0,0.3,0l2-0.7c0.3-0.1,0.7-0.1,1,0
		c2,0.5,3.9,1.5,5.9,1.4c5.8-0.4,9.9-4,9.1-9.9c-0.8-5.9-8.5-7.9-12.7-10.6c-1.6-1.1-2.2-2.5-1.7-4.2c0.1-0.4,0.4-0.8,0.8-1
		c2.2-1.2,5.8-1.6,7.5,0.7c0.5,0.8,1.1,1.5,1.6,2.2c1.6,2.1,2.6,1.9,3.1-0.7c0.2-1.3,0.2-3.2-0.2-5.6c-0.1-0.3-0.4-0.5-0.7-0.5
		c-0.1,0-0.1,0-0.2,0c-1,0.4-1.9,0.5-2.9,0.3c-3.9-0.9-9.7-1.6-12.4,2.3c-3,4.3-1.3,9.3,3.1,11.8
		C479.7,640.2,484.7,642.2,486.3,645.3"/>
	<path vector-effect="non-scaling-stroke" class="st1" d="M348.8,590.5c6.7,1.3,14.9-1.7,20.6-5.2c0.6-0.4,0.6-0.8,0.1-1.2
		c-10.1-9.9-20.4-19.8-29.6-30.6c-2.6-3.1-5.5-3.3-8.6-0.8c-4.9,4-7.4,10.4-5.8,16.8C328.3,580.8,337.2,588.2,348.8,590.5"/>
	<path vector-effect="non-scaling-stroke" class="st1" d="M202.2,567.7l-10.6-29.2c-0.1-0.4-0.3-0.4-0.4,0
		c-3.1,8.5-6.1,16.8-8.8,24.9c-0.6,1.7-1.2,3.2-1.9,4.7c-0.3,0.6-0.1,1,0.6,1l20.2-0.1c0.5,0,1-0.4,1-1
		C202.2,567.9,202.2,567.8,202.2,567.7"/>
	<path vector-effect="non-scaling-stroke" class="st1" d="M522.9,579.6c3-10,1.5-29.4-13.4-29.9c-7.7-0.2-12.7,3.5-15.1,11.2
		c-3.5,11-1.1,31.4,15.4,30C516.5,590.4,520.8,586.6,522.9,579.6"/>
	<path vector-effect="non-scaling-stroke" class="st1" d="M358.7,650.4c4.7,0.1,8.6-5.2,8.7-11.7c0.1-6.6-3.6-11.9-8.3-12
		c0,0,0,0,0,0c-4.7-0.1-8.6,5.2-8.7,11.7C350.3,644.9,354,650.3,358.7,650.4C358.7,650.4,358.7,650.4,358.7,650.4"/>
	<path vector-effect="non-scaling-stroke" class="st1" d="M421.9,650.3c4.8-0.1,8.6-5.4,8.5-11.9l0,0c-0.1-6.5-4.1-11.7-8.9-11.6
		c-4.8,0.1-8.6,5.4-8.5,11.9c0,0,0,0,0,0C413.2,645.2,417.2,650.4,421.9,650.3"/>
	<path vector-effect="non-scaling-stroke" class="st1" d="M449.9,628.3l0.1,7.6c0,0.7,0.6,1.2,1.2,1.2c0,0,0,0,0,0l1.8,0
		c3.5,0,6.3-2.2,6.2-4.9v-0.4c0-2.6-2.9-4.8-6.3-4.7c0,0,0,0,0,0l-1.8,0C450.4,627.1,449.8,627.6,449.9,628.3
		C449.9,628.3,449.9,628.3,449.9,628.3"/>
</g>
<path class="st2" d="M309.5,303c0-0.1-0.1-0.1-0.2-0.1c0,0,0,0-0.1,0.1l-17.9,32.6c-0.6,1-0.3,1.5,0.9,1.5c3.8-0.2,7.7-0.2,11.7-0.2
	c3.1,0,5.5,0.6,7.2,1.9c2.5,1.8,4,3.9,4.6,6.5c2,8.8-5.4,14.7-13.5,14.7c-7.4,0.1-14.8,0.1-22.3,0.1c-1.5,0-2.8,0.7-3.7,2
	c-2.1,3.1-4,6.2-5.8,9.5c-2,3.6-2.1,7.1-0.3,10.4c19.2,35.4,50.2,60.5,88.3,71.8c102.7,30.4,202.1-56.9,186.8-162.7
	c-0.5-3.1,0.9-4.8,4-5c0.1,0,0.2,0,0.3,0c3.1-0.3,4.9,1,5.2,4.2c0.6,5.3,1,12,1.2,19.9c0.4,18.7-2.2,36.5-8,53.3
	c-7.7,22.2-19.7,41.7-36.1,58.5c-34.2,35-81.2,52.1-130,46.2c-30.4-3.7-57.8-15.2-82.1-34.8c-16.5-13.3-30.1-30.7-39.4-49.5
	c-3.2-6.4-1.5-12.1,2.3-18.2c2.6-4.1,5-8.2,7.3-12.1c1-1.7,2.5-2.5,4.5-2.6c10.5-0.1,20.7,0.2,31.5-1.1c0.7-0.1,1.1-0.5,1-1.2
	c-0.2-2.6-2.5-2.4-4.4-2.6c-0.9-0.1-1.7-0.1-2.6-0.1c-7.2,0.2-14.3,0.2-21.2,0c-1.1,0-1.9-0.8-2.1-1.9c-0.2-1.7,0.3-3.3,1.2-4.9
	c7.1-11.7,13.2-22.1,18.1-31.3c3.3-6.1,6.4-11.7,9.2-16.8c2-3.6,6.4-2.6,8.3,0.5c14.7,25.5,29.3,51,44,76.5c0.6,1,1.4,1.3,2.5,0.8
	l0.5-0.2c1-0.4,1.3-1.2,1-2.3c-0.5-1.3-1.1-2.5-1.8-3.8c-14.8-25.5-29.6-51-44.3-76.7c-1.5-2.7-1.9-5.6-1-8.7
	c1.9-6.5,6.5-9.3,14-8.4c3,0.4,5.2,1.8,6.7,4.3c19.5,33.9,37.3,64.9,53.5,92.8c0.6,1.1,1.5,2,2.5,2.8c0.6,0.4,1.2,0.4,1.7-0.1
	c1.1-0.9,1.3-2,0.5-3.2c-19.9-34.4-40.3-69.8-61.2-106c-1.9-3.4-2.4-7-1.4-11c1.1-4.3,4.4-7.4,8.9-7.6c3.1-0.2,6.9-0.4,9.3,1.8
	c1.7,1.6,3.3,3.7,4.7,6.3c7,12.9,14.9,27,23.7,42.1c13.5,23.1,26.7,46.2,39.8,69.1c3.7,6.4,12.4,9.2,19.6,7
	c8.1-2.4,12.8-11.3,10.4-19.4c-0.7-2.3-2.6-6.1-5.7-11.5c-7.2-12.3-14.1-24.1-20.6-35.4c-2.5-4.4-3.7-11.2-0.3-15.4
	c5.4-6.7,15.5-6.1,19.8,1.4c13.4,23.3,27,46.9,40.8,70.7c0.9,1.6,2.3,2.4,4,2.6c0.8,0.1,1.5-0.6,1.6-1.4c0-0.1,0-0.2,0-0.3
	c-0.2-1.7-0.7-3.3-1.7-5C470.8,328.5,456,303,441.1,277c-2.6-4.6-5.3-8.8-7.3-13.7c-0.8-2.1-0.5-3.7,0-6c1.9-7.5,9.6-9.8,16.2-7.8
	c1.6,0.5,3,1.7,4.2,3.8c13.3,23,26.5,46.1,39.9,69.1c0.8,1.5,1.7,2.9,2.5,4.4c0.7,1.3,1.8,1.6,3.1,0.9c0.2-0.1,0.4-0.3,0.7-0.5
	c0.7-0.8,0.8-1.7,0.3-2.6c-6-10.4-11.9-20.5-17.6-30.4c-3-5.2-6.2-10.4-9.2-15.6c-3.9-6.8-4.6-19-0.2-25.8
	c3.9-6.1,8.9-9.9,14.8-11.5c10-2.6,18.6-0.6,25.6,6.2c4.2,4.1,6.9,10.2,10,15.2c2.9,4.7,6.4,5.4,10.5,2.2c2.9-2.3,2.8-5.9,1.5-9.2
	c-13.3-32.7-34.6-57.1-64-73c-27.4-14.9-59.2-20.3-90.5-16.8c-17.3,1.9-34.2,7.5-49.9,15.6c-34.6,17.8-61.2,49.2-72.8,86.4
	c-7.9,25-8.9,50.7-3.3,77.1c1.5,6.8-7.9,8.7-9.2,2.7c-2.2-10-3.4-19-3.5-27c-0.2-11.3-0.3-22.9,1.6-34c4.1-24.3,13.3-46.3,27.4-65.9
	c6.6-9.2,13.3-16.9,20.2-23.1c32.3-29.4,74.2-45.1,117.9-41.9c19.2,1.4,37.6,5.4,54.8,13.3c35.6,16.2,61.4,42.1,77.3,77.4
	c2.6,5.8,4.2,9.9,4,15.6c-0.1,2.4-0.6,4.4-1.5,6.1c-4.2,7.4-11,9.1-18.8,7.8c-4.7-0.8-8.2-3-10.4-6.8c-4.8-8.3-10.6-22.6-23.4-18.3
	c-3.4,1.1-6.1,2.8-7.8,5c-3.7,4.6-4.9,9.1-3.8,13.3c0.4,1.6,2.3,5.3,5.6,11c7.1,12.2,14.1,24.5,21.3,36.7c1.5,2.6,2.4,4.7,2.7,6.3
	c0.6,3.8,0.4,8.7-2.9,11.5c-6.1,5.2-14.4,3.9-18.6-3.4c-13.7-24.1-26.8-46.8-39.1-68.1c-1-1.7-2.2-3.4-3.5-4.8
	c-0.4-0.5-1.1-0.6-1.6-0.2c-2.6,1.8,0,5.8,1.1,7.6c16,27.7,32.3,56,48.9,84.7c1.6,2.7,3,5.9,2.6,9.1c-0.9,7.3-6.6,10.8-13.6,10.1
	c-4.2-0.4-7.2-2.3-9.1-5.7c-13-22.8-26.4-46.3-40.5-70.4c-0.7-1.2-1.6-2.2-2.7-3.1c-0.3-0.2-0.6-0.2-0.9,0c-2.1,1.3-2.5,3.1-1.3,5.1
	c7.8,13.2,15.9,27.1,24.3,41.7c4,7,5.9,13.7,3.8,21.5c-2.4,9-7.9,15.1-16.2,18.2c-2.1,0.8-5,1.2-8.8,1.2c-6.4,0.1-12.1-1.9-17.1-5.9
	c-1.8-1.5-4.3-4.9-7.3-10.2c-20.8-36.4-42.1-73.3-64-110.9c-0.5-0.9-1.4-1.4-2.4-1.3c-0.3,0-0.6,0.2-0.8,0.4
	c-0.9,1.1-1.1,2.2-0.5,3.2c20.7,35.7,41.3,71.4,62,107.3c0.9,1.5,1.3,3.5,1.3,6c0,11.1-14.1,15.2-20.6,6.9c-2.6-3.3-5.5-9.3-8-13.7
	c-15.2-26.3-30.6-53-46.1-80c-0.8-1.3-1.6-2.1-2.6-2.2c-1.2-0.1-2.3,0.7-2.4,2c0,0.5,0.1,1,0.3,1.4c14.5,25.3,29.3,50.8,44.2,76.4
	c3.1,5.4,5.1,11.5,0.4,16.7c-5.3,5.8-14.9,5.1-18.9-1.9C336,349.2,322.7,326.1,309.5,303z"/>
<path class="st3" d="M239.3,529.2l-5.2-1.5c-0.4-0.1-0.7-0.4-0.8-0.8c-0.4-1.6-0.4-3.3-0.2-5.1c0.1-0.9,0.9-1.6,1.8-1.6
	c5.4-0.1,10.8-0.5,16.2-1.2c0.5-0.1,0.9,0.3,0.9,0.7c0,0,0,0.1,0,0.1l0,71.2c0,0.5,0.3,0.8,0.8,0.9c2,0.3,4,0.6,6.3,1.1
	c0.8,0.2,1.2,0.7,1,1.5c0,0.2,0,0.4,0,0.7c0.1,0.6,0,1.1-0.3,1.5c-0.2,0.3-0.5,0.4-0.8,0.4l-26.2,0c-0.7,0-1-0.3-0.9-1l0.2-2.2
	c0.1-0.6,0.4-0.9,1-1l6.1-0.8c0.5-0.1,0.9-0.5,0.9-1.1l0-60.8C240,529.6,239.7,529.3,239.3,529.2z"/>
<path class="st3" d="M433.1,592.4c-0.7,2.6-1.9,5.6-5.4,4.5c-0.4-0.1-0.6-0.4-0.6-0.9l0-20.2c0-0.5,0.3-0.8,0.8-0.8
	c1.8-0.2,3.5,0,5,0.4c0.4,0.1,0.8,0.5,0.8,0.9c1.4,6.3,3.9,11.8,10.2,13.8c7.8,2.4,20.2,1.3,21.2-9c0.6-6.4-4.5-11.2-9.7-13.9
	c-9-4.7-21.2-8.9-26.5-18.4c-1.6-2.8-2.2-6.3-2-10.6c0.6-10.4,8.6-16.4,18.5-17.9c7.4-1.1,13.9,0.5,19.6,4.8
	c0.5,0.4,1.3,0.3,1.7-0.2c0-0.1,0.1-0.1,0.1-0.2l1.4-2.8c0.2-0.4,0.5-0.6,0.9-0.7c1-0.2,2.1-0.2,3.3-0.1c0.5,0.1,0.7,0.3,0.7,0.8
	L473,541c0,0.6-0.5,1-1,1l-3.4,0.1c-0.9,0-1.7-0.6-1.9-1.5c-0.9-4.2-3.3-7.7-7.3-10.6c-4.7-3.4-11-3.6-16.5-1.8
	c-2,0.6-3.4,1.8-4.5,3.5c-6.5,10.9,8.7,17,15.9,20.5c9.2,4.5,21.3,11.1,21.9,22.8c0.9,17.9-16.4,25.9-31.9,22.5
	c-3.5-0.8-7.1-2.5-10.7-5.3C433.3,592,433.1,592.1,433.1,592.4z"/>
<path class="st3" d="M376.8,576.8c2.5-5.4,2.9-10.7,1.2-15.8c-1.1-3.1-4.2-3.2-7-3c-0.5,0-1-0.4-1-0.9c0,0,0-0.1,0-0.1l0.1-3.9
	c0-0.8,0.4-1.2,1.2-1.1c8.3,1.3,16.2,1.3,23.7,0c0.5-0.1,0.9,0.2,1,0.7c0,0,0,0.1,0,0.1l0.1,4.2c0,0.7-0.3,1-1,1
	c-2.7,0-5.4,0.4-8.1,1.1c-0.3,0.1-0.6,0.3-0.8,0.5c-0.6,0.7-0.9,1.6-0.9,2.5c-0.4,6.2-1.7,12-4.1,17.5c-0.2,0.4-0.1,0.7,0.2,0.9
	c4.6,3.8,11.6,11.9,17.9,12.4c1.3,0.1,2.5,0.2,3.8,0.2c0.7,0,1,0.4,1,1c0,1.5-0.7,2.4-2.1,2.9c-7.2,2.2-13.6,1.2-19.3-3.1
	c-2.5-1.9-4.9-3.8-7.3-5.8c-0.3-0.2-0.6-0.2-0.9,0c-7.9,7.3-17.7,10.6-28.9,10c-19.8-1.1-33-19.6-25.4-38.5
	c2.3-5.8,7.2-10.4,13.5-11.9c0.4-0.1,0.6-0.5,0.5-0.8c0,0,0,0,0-0.1c-0.8-2.4-2.4-4.5-2.8-7c-1.5-7.9-0.2-14.2,7.3-17.6
	c8.2-3.7,15.9-2.8,23,2.9c0.3,0.2,0.7,0.2,0.9-0.1c0,0,0.1-0.1,0.1-0.1l1.5-3.1c0.2-0.3,0.5-0.6,0.8-0.7c1.1-0.2,2.2-0.3,3.4-0.1
	c0.4,0.1,0.7,0.3,0.7,0.8l0,19.3c0,0.6-0.3,0.9-0.9,0.9c-1.7,0-5.2,0.7-5.8-1.6c-1.3-5.2-3.9-9.5-7.7-13c-3.5-3.2-10.5-5.2-14.3-1.2
	c-5.8,6.1,0.8,14.2,5.3,19.4c7.9,9.3,15.4,17.6,24,24.8c2.3,1.9,4.5,4.1,6.7,6.4C376.4,577,376.6,577,376.8,576.8
	C376.7,576.8,376.8,576.8,376.8,576.8z M348.8,590.5c6.7,1.3,14.9-1.7,20.6-5.2c0.6-0.4,0.6-0.8,0.1-1.2
	c-10.1-9.9-20.4-19.8-29.6-30.6c-2.6-3.1-5.5-3.3-8.6-0.8c-4.9,4-7.4,10.4-5.8,16.8C328.3,580.8,337.2,588.2,348.8,590.5z"/>
<path class="st3" d="M172.5,591l7,1.2c0.3,0.1,0.5,0.2,0.5,0.6l0.1,3.4c0,0.5-0.2,0.8-0.8,0.8h-22.2c-0.8,0-1.2-0.4-1.1-1.2l0.1-3
	c0-0.4,0.4-0.8,0.8-0.8c0,0,0,0,0,0c3.6,0.1,6.3-0.4,7.8-4.2c3.4-8.3,6.7-16.7,9.8-25.2c5-13.8,10.1-27.1,14.8-40.9
	c0.1-0.4,0.4-0.7,0.9-0.8c2.1-0.3,4.1-0.3,6,0.1c0.8,0.2,1.5,0.7,1.7,1.5l25.5,67.7c0.1,0.4,0.4,0.6,0.8,0.6l5.9,1.1
	c0.6,0.1,0.9,0.5,0.9,1l0.2,2.7c0,0.8-0.3,1.2-1.2,1.2l-25.9,0c-0.8,0-1.1-0.4-1.1-1.2l0.1-2.8c0-0.6,0.5-1,1-1c0,0,0,0,0,0
	c1.9,0.1,3.7-0.3,5.5-1c0.5-0.2,0.8-0.8,0.6-1.3l-4.9-13.3c-0.3-0.8-1.1-1.4-2-1.4l-23.9,0c-0.7,0-1.4,0.4-1.6,1.1l-5.6,14.4
	C172,590.8,172.1,591,172.5,591z M202.2,567.7l-10.6-29.2c-0.1-0.4-0.3-0.4-0.4,0c-3.1,8.5-6.1,16.8-8.8,24.9
	c-0.6,1.7-1.2,3.2-1.9,4.7c-0.3,0.6-0.1,1,0.6,1l20.2-0.1c0.5,0,1-0.4,1-1C202.2,567.9,202.2,567.8,202.2,567.7z"/>
<path class="st3" d="M272.8,521.6l3.2-0.2c3-0.2,5.5,2.1,5.7,5.1l0.1,1c0.2,3-2.1,5.5-5.1,5.7l-3.2,0.2c-3,0.2-5.5-2.1-5.7-5.1
	l-0.1-1C267.6,524.4,269.9,521.8,272.8,521.6z"/>
<path class="st4" d="M191.6,538.5l10.6,29.2c0.2,0.5-0.1,1.1-0.6,1.2c-0.1,0-0.2,0.1-0.3,0.1l-20.2,0.1c-0.7,0-0.9-0.3-0.6-1
	c0.7-1.5,1.4-3,1.9-4.7c2.7-8,5.6-16.3,8.8-24.9C191.3,538.1,191.5,538.1,191.6,538.5z"/>
<path class="st3" d="M536.5,572.8c0,13.9-11.3,25.2-25.2,25.2h-5c-13.9,0-25.2-11.3-25.2-25.2l0,0v-5c0-13.9,11.3-25.2,25.2-25.2
	l0,0h5c13.9,0,25.2,11.3,25.2,25.2V572.8z M522.9,579.6c3-10,1.5-29.4-13.4-29.9c-7.7-0.2-12.7,3.5-15.1,11.2
	c-3.5,11-1.1,31.4,15.4,30C516.5,590.4,520.8,586.6,522.9,579.6z"/>
<path class="st3" d="M559.6,552.6c0.8-0.8,1.5-1.7,2.2-2.7c2.4-3.4,5.5-6,9.7-6.9c5.1-1.1,9.6-0.7,13.6,1.4c5.3,2.8,8,7.7,8,14.8
	c0,10.6,0,21.1-0.2,31.8c0,0.5,0.4,1,1,1c1.6,0.1,3.1,0.2,4.6,0.4c2,0.2,2.9,1.4,2.6,3.5c-0.1,0.6-0.6,1-1.2,1
	c-8.7,0.1-16.5,0.1-23.6,0c-1.2,0-2.1-0.6-2.5-1.9c-0.3-0.9,0.1-1.8,1-2.1c0.1,0,0.2-0.1,0.3-0.1l6.1-0.9c0.4-0.1,0.7-0.4,0.7-0.8
	c0.1-9.5,0.1-19.5,0.1-29.8c0-3.2-0.8-7.3-4-8.8c-6.7-3.3-15.6,1.5-18.5,7.4c-1,2-1.5,4.8-1.5,8.3c-0.1,8-0.1,15.7,0,22.9
	c0,0.3,0.2,0.6,0.6,0.7l6.7,1.2c0.4,0.1,0.6,0.3,0.7,0.7c0.2,0.9,0.2,1.8,0,2.6c-0.1,0.4-0.3,0.6-0.8,0.6c-7.7,0.1-15.9,0.1-24.6,0
	c-1.6,0-2.4-0.8-2.6-2.4c-0.1-1,0.4-1.5,1.3-1.7l6.1-0.9c0.4-0.1,0.6-0.4,0.6-0.7l0.1-37.2c0-0.4-0.3-0.8-0.7-1l-5.2-1.8
	c-0.6-0.2-1-0.7-1.1-1.3c-0.3-1.4-0.3-2.8,0-4.2c0.2-0.8,0.9-1.3,1.6-1.4l15.6-1.5c1.1-0.1,1.7,0.4,1.7,1.5l0,7.6
	C558.1,553.5,558.6,553.7,559.6,552.6z"/>
<path class="st3" d="M635.9,547.5l0.2-3.7c0-0.5,0.3-0.8,0.9-0.8l3.1,0c0.5,0,0.8,0.3,0.8,0.8L641,559c0,0.4-0.2,0.8-0.6,0.9
	c-0.7,0.3-1.5,0.3-2.4,0.1c-0.4-0.1-0.6-0.3-0.8-0.7c-1.5-3.2-3.7-5.9-6.7-8.2c-2.9-2.2-8.8-4-12.5-2.2c-3.9,2-4.1,7-1,9.8
	c2.2,2,5,3.7,8.2,4.9c5.5,2.1,12.6,5.7,15.7,10.5c3.5,5.6,3.1,13.5-1.2,18.6c-7,8.4-23.1,6.9-30.1-0.6c-0.1-0.1-0.2-0.1-0.4,0
	c-0.1,0-0.1,0.1-0.1,0.2l-0.1,3.8c0,0.6-0.3,1-1,1l-3.2,0c-0.4,0-0.8-0.3-0.8-0.8c0,0,0,0,0,0c0.1-5,0.1-9.9,0.1-14.8
	c0-3.4,3.9-3.1,4.9-0.5c3,7.7,8.4,11.5,16.3,11.5c2.1,0,4.8-0.9,6-2.8c3.2-5.1-0.1-9-4.5-11.5c-6.1-3.5-12.8-6.1-17.9-10.7
	c-6.5-5.8-6.6-15.7,0.4-21c3.7-2.8,8.5-4,14.3-3.6c5.2,0.4,9.1,2,11.6,4.9C635.6,548.2,635.9,548.1,635.9,547.5z"/>
<path class="st3" d="M268.6,591.8c0.2,0,0.4-0.2,0.4-0.4l0.1-37.2c0-0.6-0.4-1.2-1-1.4l-5.1-1.7c-0.7-0.2-1.1-1-0.9-1.7
	c0.4-1.4,0.7-2.9,0.9-4.5c0-0.4,0.3-0.7,0.7-0.7l16-1.4c0.3,0,0.6,0.1,0.9,0.3c0.3,0.3,0.5,0.7,0.5,1.1c0,14.5,0,30.1,0,46.6
	c0,0.4,0.3,0.7,0.7,0.8l7.7,1.2c0.3,0.1,0.6,0.3,0.6,0.6c0.2,1.1,0.2,2.1-0.1,3c-0.1,0.3-0.3,0.4-0.6,0.4l-27.3-0.1
	c-0.6,0-1-0.3-1-1l-0.1-2.4c0-0.4,0.2-0.6,0.6-0.7L268.6,591.8z"/>
<path class="st4" d="M509.6,549.7c14.9,0.4,16.4,19.8,13.4,29.9c-2.1,7-6.4,10.8-13,11.3c-16.5,1.4-18.9-19-15.4-30
	C496.9,553.2,501.9,549.5,509.6,549.7z"/>
<path class="st4" d="M369.5,585.2c-5.7,3.6-13.9,6.6-20.6,5.2c-11.6-2.3-20.5-9.7-23.3-21.1c-1.6-6.4,0.9-12.8,5.8-16.8
	c3.1-2.5,6-2.3,8.6,0.8c9.2,10.8,19.5,20.7,29.6,30.6C370.1,584.5,370,584.9,369.5,585.2z"/>
<path class="st3" d="M373,641c-0.2,7.1-6,12.7-13.1,12.6l-2.4-0.1c-7.1-0.2-12.7-6-12.6-13.1l0.1-4.1c0.2-7.1,6-12.7,13.1-12.6
	l2.4,0.1c7.1,0.2,12.7,6,12.6,13.1L373,641z M358.7,650.4c4.7,0.1,8.6-5.2,8.7-11.7c0.1-6.6-3.6-11.9-8.3-12c0,0,0,0,0,0
	c-4.7-0.1-8.6,5.2-8.7,11.7C350.3,644.9,354,650.3,358.7,650.4C358.7,650.4,358.7,650.4,358.7,650.4z"/>
<path class="st3" d="M436.1,640.5c0,7.2-5.8,13.1-13,13.1l-2.6,0c-7.2,0-13.1-5.8-13.1-13l0-3.7c0-7.2,5.8-13.1,13-13.1l2.6,0
	c7.2,0,13.1,5.8,13.1,13L436.1,640.5z M421.9,650.3c4.8-0.1,8.6-5.4,8.5-11.9l0,0c-0.1-6.5-4.1-11.7-8.9-11.6
	c-4.8,0.1-8.6,5.4-8.5,11.9c0,0,0,0,0,0C413.2,645.2,417.2,650.4,421.9,650.3z"/>
<path class="st3" d="M309.8,635.4c-0.1-0.2-0.3-0.2-0.4-0.2c-0.1,0.1-0.2,0.2-0.2,0.3l-0.1,13.3c0,0.4,0.2,0.8,0.6,1
	c0.6,0.3,1.2,0.7,1.8,1.2c0.5,0.4,0.7,0.9,0.4,1.5c-0.1,0.3-0.5,0.6-0.8,0.6l-8.1,0c-0.4,0-0.7-0.2-0.9-0.5
	c-0.3-0.5-0.1-0.9,0.4-1.2c1.1-0.5,2.2-0.9,2.6-2.2c0.6-1.8,0.9-3.5,0.9-5.2c0.1-4.9,0-9.9-0.1-15c0-0.9-0.7-1.7-1.5-1.8l-1.8-0.3
	c-0.3-0.1-0.5-0.3-0.6-0.6c-0.1-0.5-0.1-1,0-1.5c0.1-0.4,0.3-0.6,0.7-0.6c2.2-0.2,6.9-0.8,8,1.4c3.4,6.6,6.6,13,9.4,19.2
	c0.1,0.3,0.4,0.4,0.7,0.3c0.1,0,0.2-0.1,0.2-0.2l9.9-19.8c0.2-0.5,0.7-0.8,1.2-0.9c2-0.3,4.1-0.2,6.2,0.1c0.3,0.1,0.5,0.2,0.6,0.5
	c0.2,0.5,0.2,1.1,0,1.6c-0.1,0.3-0.4,0.5-0.7,0.5l-1.5,0.2c-0.4,0-0.7,0.4-0.7,0.8l-0.1,21.1c0,0.4,0.2,0.7,0.6,0.8
	c0.7,0.3,1.4,0.7,2,1.2c0.6,0.5,0.7,1,0.4,1.6c-0.1,0.2-0.4,0.4-0.6,0.4l-8.8,0.1c0,0-0.1,0-0.1,0c-1.2-0.4-1.6-0.8-1.4-1.2
	c0.2-0.4,0.6-0.7,1.1-0.8c1.3-0.3,1.9-1.3,2-3c0.1-4.8,0.1-9.2,0-13.2c0-1.1-0.3-1.1-0.8-0.2l-8.9,17.8c-0.3,0.6-1,0.8-1.6,0.5
	c-0.1,0-0.1-0.1-0.2-0.1c-1.1-0.8-2-1.9-2.6-3.2C314.6,645,312.2,640.3,309.8,635.4z"/>
<path class="st3" d="M392.9,628.1l0.2,20.8c0,0.4,0.3,0.8,0.7,1c1,0.4,2,0.9,2.9,1.4c0.5,0.3,0.5,0.6,0.2,1.1
	c-0.2,0.3-0.5,0.4-0.8,0.4l-8.3,0c-0.3,0-0.6,0-1,0c-1.6-0.1-2.1-0.7-1.5-1.6c0.1-0.2,0.3-0.3,0.5-0.3c0.8-0.2,1.4-0.5,1.8-1.1
	c0.2-0.3,0.4-0.7,0.4-1l0.2-20.9c0-0.5-0.3-0.8-0.8-0.8c-4.6-0.2-4.7,2.1-6.5,5.3c-0.4,0.7-1.2,0.9-1.9,0.5
	c-0.4-0.2-0.7-0.6-0.7-1.1c-0.2-2.7-0.3-5.1-0.1-7.2c0-0.3,0.3-0.6,0.6-0.6c7.7-0.3,15.5-0.3,23.5,0c0.5,0,0.7,0.2,0.8,0.7
	c0.2,2.7,0.2,5.3-0.1,7.8c0,0.4-0.4,0.6-0.7,0.6c0,0-0.1,0-0.1,0c-0.6-0.1-1-0.5-1.4-1c-1.6-2.9-3.1-5.6-7-4.9
	C393.1,627.3,392.9,627.6,392.9,628.1z"/>
<path class="st3" d="M459.9,638.9c2.6,0.2,4,1.6,4.1,4.2c0.1,2.1,0.5,4.1,1.1,6.1c0.1,0.4,0.4,0.6,0.8,0.7c0.7,0.1,1.4,0.3,2.1,0.6
	c1.2,0.6,1.3,1.2,0.1,1.8c-1.4,0.8-3.4,0.8-5,0.6c-4.6-0.3-4.1-5.9-4.1-9.3c0-2.1-1.1-3.4-3.2-3.7c-1.3-0.2-2.7-0.3-4.2-0.3
	c-1.1,0-1.6,0.6-1.6,1.6l0.1,7.5c0,0.4,0.2,0.7,0.6,0.8c0.7,0.2,1.3,0.6,1.8,1.1c1.4,1.4,1.1,2.1-0.9,2.1h-8.7
	c-0.4,0-0.6-0.2-0.7-0.5c-0.4-1.4,1.3-2.1,2.3-2.5c0.4-0.1,0.5-0.4,0.6-0.8c0.3-7.1,0.2-14.3-0.1-21.5c0-0.4-0.2-0.6-0.6-0.7
	l-1.5-0.1c-0.5,0-0.8-0.4-0.9-0.9l0-0.7c0-0.6,0.3-0.9,0.9-1c5.5-0.3,10.2-0.3,14.2,0c5,0.4,10.4,4.7,6.9,10.2
	c-1,1.6-2.4,2.9-4.1,3.9C459,638.7,459,638.9,459.9,638.9z M449.9,628.3l0.1,7.6c0,0.7,0.6,1.2,1.2,1.2c0,0,0,0,0,0l1.8,0
	c3.5,0,6.3-2.2,6.2-4.9v-0.4c0-2.6-2.9-4.8-6.3-4.7c0,0,0,0,0,0l-1.8,0C450.4,627.1,449.8,627.6,449.9,628.3
	C449.9,628.3,449.9,628.3,449.9,628.3z"/>
<path class="st3" d="M486.3,645.3c-1.6-3.1-6.6-5-9.5-6.7c-4.4-2.5-6.1-7.5-3.1-11.8c2.7-3.9,8.5-3.2,12.4-2.3
	c1,0.2,1.9,0.1,2.9-0.3c0.3-0.1,0.7,0,0.8,0.3c0,0,0,0.1,0,0.2c0.4,2.4,0.5,4.2,0.2,5.6c-0.5,2.6-1.5,2.9-3.1,0.7
	c-0.5-0.7-1.1-1.4-1.6-2.2c-1.7-2.3-5.3-1.9-7.5-0.7c-0.4,0.2-0.7,0.6-0.8,1c-0.5,1.8,0.1,3.2,1.7,4.2c4.2,2.7,11.9,4.7,12.7,10.6
	c0.8,5.9-3.3,9.5-9.1,9.9c-2,0.1-4-0.8-5.9-1.4c-0.3-0.1-0.7-0.1-1,0l-2,0.7c-0.6,0.2-1.1-0.1-1.3-0.7c0-0.1-0.1-0.2,0-0.3l0.1-6.8
	c0-0.9,0.5-1.4,1.4-1.3c1,0,2,0.6,2.2,1.7c1.1,4.6,3.3,4.6,7.5,4.4C485.4,649.9,487.4,647.5,486.3,645.3z"/>
<ellipse transform="matrix(1.745241e-02 -0.9998 0.9998 1.745241e-02 -285.7668 986.2416)" class="st4" cx="358.9" cy="638.5" rx="11.9" ry="8.5"/>
<ellipse transform="matrix(0.9999 -1.570734e-02 1.570734e-02 0.9999 -9.9784 6.7035)" class="st4" cx="421.8" cy="638.6" rx="8.7" ry="11.7"/>
<path class="st4" d="M449.9,628.3c0-0.7,0.5-1.2,1.2-1.2c0,0,0,0,0,0l1.8,0c3.5-0.1,6.3,2.1,6.4,4.7c0,0,0,0,0,0v0.4
	c0,2.6-2.8,4.8-6.2,4.9l-1.8,0c-0.7,0-1.2-0.5-1.2-1.2c0,0,0,0,0,0L449.9,628.3z"/>
</svg>
