<?xml version="1.0" encoding="UTF-8" standalone="no" ?>
<!DOCTYPE svg PUBLIC "-//W3C//DTD SVG 1.1//EN" "http://www.w3.org/Graphics/SVG/1.1/DTD/svg11.dtd">
<svg xmlns="http://www.w3.org/2000/svg" xmlns:xlink="http://www.w3.org/1999/xlink" version="1.1" width="1080" height="1080" viewBox="0 0 1080 1080" xml:space="preserve">
<desc>Created with Fabric.js 5.2.4</desc>
<defs>
</defs>
<g transform="matrix(1 0 0 1 540 540)" id="ae32e1a6-ca3b-40ae-b4b8-533e3458064b"  >
</g>
<g transform="matrix(1 0 0 1 540 540)" id="31f3a1ac-8b86-468e-b33d-6e7ccf1ae6aa"  >
<rect style="stroke: none; stroke-width: 1; stroke-dasharray: none; stroke-linecap: butt; stroke-dashoffset: 0; stroke-linejoin: miter; stroke-miterlimit: 4; fill: rgb(255,255,255); fill-rule: nonzero; opacity: 1; visibility: hidden;" vector-effect="non-scaling-stroke"  x="-540" y="-540" rx="0" ry="0" width="1080" height="1080" />
</g>
<g transform="matrix(45 0 0 45 454.24 406.88)"  >
<path style="stroke: rgb(163,0,5); stroke-width: 2; stroke-dasharray: none; stroke-linecap: round; stroke-dashoffset: 0; stroke-linejoin: round; stroke-miterlimit: 4; fill: none; fill-rule: nonzero; opacity: 1;"  transform=" translate(-12, -12)" d="M 7 8 L 17 8 M 7 12 L 11 12 M 12 20 L 8 16 L 5 16 C 3.895430500338413 16 3 15.104569499661586 3 14 L 3 6 C 3 4.8954305003384135 3.895430500338413 4 5 4 L 19 4 C 20.104569499661586 4 21 4.895430500338413 21 6 L 21 14 C 21 15.104569499661586 20.104569499661586 16 19 16 L 16 16 L 12 20 z" stroke-linecap="round" />
</g>
<g transform="matrix(NaN NaN NaN NaN 0 0)"  >
<g style=""   >
</g>
</g>
</svg>