<?xml version="1.0" encoding="UTF-8"?><svg id="Layer_2" xmlns="http://www.w3.org/2000/svg" width="324.95" height="129.52" viewBox="0 0 324.95 129.52"><defs><style>.cls-1{fill:#033164;}.cls-2{fill:#bf9007;}</style></defs><g id="Layer_1-2"><g><path class="cls-1" d="m110.77,101.54c.78-.03,1.15.15.61.99-3.58,5.58-7.82,10.53-13.12,14.61-4.07,3.14-8.42,5.71-13.15,7.68-8.14,3.4-16.59,4.86-25.45,4.68-5.83-.12-11.46-.99-16.93-2.73-3.46-1.1-6.82-2.55-10.02-4.42-2.33-1.36-4.64-2.73-6.93-4.17-2.76-1.74-5.07-3.98-7.34-6.2-2.52-2.47-5.01-5.08-6.92-8.1-2.01-3.19-3.94-6.4-5.63-9.81-1.89-3.82-3.35-7.75-4.35-11.81C.16,76.71-.16,70.99.07,65.25c.28-7.08,1.94-13.86,4.63-20.36,2.99-7.25,7.3-13.73,12.92-19.2,6.39-6.21,13.8-10.93,22.37-13.62,4.76-1.5,9.58-2.67,14.61-3.07,11.54-.92,22.61.59,33.26,5.3,5.75,2.54,10.88,5.96,15.33,10.3,3.37,3.28,6.14,7.12,8.42,11.64-2.51,0-4.88-.04-7.25,0-2.75.06-5.72.6-6.45-3.28-5.56-7.22-12.55-12.34-21.31-15.18-5.65-1.83-11.41-2.44-17.2-1.95-7.33.62-14.18,2.87-20.36,7.12-7.3,5.02-12.24,11.8-15.84,19.72-2.44,5.36-3.84,10.98-4.81,16.8-1.01,6.03-.93,12.08-.49,18.05.43,5.88,2.37,11.52,5.09,16.85,3.01,5.92,6.84,11.19,11.61,15.79,4.15,4,8.86,7.29,14.18,9.46,8.94,3.64,18.08,4.01,27.43,1.25,5.14-1.52,10.01-3.44,14.17-6.83,3.27-2.67,6.2-5.68,8.19-9.5.56-1.08.93-2.38,2.19-2.99,3.34-.01,6.69-.03,10.04-.04Z"/><path class="cls-1" d="m177.24,39.53c-.99,1.86-.62,3.76-.62,5.61-.02,15.03-.02,30.07,0,45.1,0,2.05-.53,4.21,1.33,6.12h-13.47c1.41-1.65,1.29-3.46,1.29-5.24,0-12.79,0-25.59-.01-38.38,0-.81-.18-1.62-.25-2.43-.05-.54-.03-1.11-.71-1.25-.8-.17-1,.5-1.22,1.01-1.05,2.49-2.09,4.98-3.05,7.5-1.82,4.74-3.58,9.49-5.37,14.24-2.11,5.59-4.2,11.19-6.33,16.78-.9,2.36-1.88,4.69-2.75,7.06-.23.63-.54.83-1.14.83-3.72-.02-7.44-.07-11.16-.02-1.05.02-1.3-.67-1.55-1.34-1.87-5.08-4.28-9.92-6.42-14.88-1.71-3.95-3.3-7.94-5-11.9-1.54-3.6-3.16-7.18-4.73-10.77-.9-2.04-1.84-4.06-2.65-6.14-.25-.64-.47-1.02-1.19-1-1.01.04-.68.84-.68,1.31-.02,14.09,0,28.18.03,42.27,0,.74-.14,1.54.7,2.33h-8.22c.66-1.4.4-2.82.41-4.22.02-15.39.01-30.77.02-46.16,0-1.64-.4-3.24-.36-4.9.03-1.18.55-1.57,1.54-1.57,4.55,0,9.09.05,13.64.02.95,0,1.21.62,1.45,1.25,2.86,7.32,6.23,14.41,9.31,21.63,2.14,5.02,4.23,10.06,6.37,15.07,1.17,2.74,2.35,5.47,3.64,8.16.2.42.37,1.19,1.1,1.21.86.03,1.01-.8,1.22-1.32,1.6-4.05,3.11-8.13,4.65-12.19,2.79-7.34,5.6-14.68,8.39-22.02,1.36-3.59,2.7-7.18,4.07-10.77.19-.5.24-1.05,1.11-1.04,5.48.05,10.97.03,16.64.03Z"/><path class="cls-1" d="m61.33.04C76.79.04,92.26.06,107.72,0c1.44,0,1.87.28,1.82,1.79-.13,3.87-.04,3.87-3.95,3.6-.53-.04-1.06-.01-1.59-.01-28.57,0-57.13,0-85.7,0-.53,0-1.06-.02-1.59.01-3.94.26-3.86.26-3.97-3.57C12.69.33,13.14,0,14.59,0c15.58.05,31.16.03,46.74.03h0Z"/><path class="cls-1" d="m226.63,77.82c-1.49,2.67-2.12,5.18-3.06,7.55-1.35,3.43-2.7,6.86-4.01,10.3-.42,1.09-1.31.66-2.05.77-.86.12-1.24-.31-1.52-1.07-1.72-4.69-3.47-9.37-5.22-14.05-.36-.96-.75-1.91-1.38-2.83,0,2.67,0,5.33,0,8,0,2.48,0,4.95,0,7.43,0,2.39-1.21,3.23-3.52,2.53-.61-.18-.48-.58-.49-.96,0-7.13,0-14.27-.02-21.4,0-.86.32-1.18,1.14-1.08.06,0,.12,0,.18,0,5.46-.2,5.76.16,7.69,6.72.95,3.22,2.26,6.34,3.57,9.95.68-1.64,1.23-2.84,1.67-4.08,1.38-3.89,2.72-7.8,4.09-11.7.21-.59.54-1.03,1.27-.89.06.01.12,0,.18,0,1.81.07,4.14-.73,5.3.3,1.11.98.31,3.33.33,5.08.04,5.31.02,10.61.02,15.92,0,2.47-.02,2.29-2.26,2.51-2.31.23-1.9-1.21-1.9-2.52,0-5.31,0-10.61,0-16.48Z"/><path class="cls-1" d="m256.19,78.49c0,4.21,0,7.94,0,11.68,0,1.65-.12,3.3-.02,4.94.07,1.14-.32,1.5-1.38,1.33-.11-.02-.24,0-.35,0q-2.46,0-2.46-2.38c0-6.48.04-12.96-.03-19.44-.02-1.36.44-1.5,1.68-1.69,3.02-.45,4.62.91,6.02,3.39,2.48,4.42,5.24,8.68,7.87,13.01.22.36.38.71,1.05.79,0-1.59,0-3.14,0-4.7,0-3.71.02-7.42-.02-11.13,0-.88.18-1.22,1.16-1.24,3.07-.08,3.07-.12,3.07,2.87,0,6.24-.03,12.49.03,18.73.01,1.44-.45,1.76-1.89,1.96-3.03.4-4.33-1.06-5.68-3.52-2.68-4.86-5.82-9.47-9.03-14.61Z"/><path class="cls-2" d="m144.02,111.03c-.88,2.48-1.8,4.95-2.62,7.45-.79,2.4-2.08,4.61-2.61,7.11-.14.68-.9.99-1.71.95-.73-.04-1.15-.23-1.43-.99-1.6-4.51-3.27-9-4.9-13.5-.12-.33-.16-.68-.61-.91,0,4.56-.04,9.06.03,13.57.02,1.32-.55,1.73-1.74,1.84-1.22.11-1.61-.28-1.6-1.55.07-5.66.06-11.32,0-16.98-.01-1.11.34-1.47,1.4-1.4.79.05,1.57.11,2.38.05,1-.07,1.86.29,2.24,1.46.96,2.96,2,5.9,3.06,8.84.26.72.56,1.4.54,2.19-.01.36-.18.9.49.92.48.01.73-.28.88-.71.81-2.27,1.6-4.56,2.47-6.81.62-1.61,1.38-3.15,1.53-4.91.05-.55.46-1.04,1.22-1.02,1.24.04,2.48,0,3.72-.02.82-.01,1.12.34,1.12,1.17-.03,5.78-.05,11.56,0,17.33.02,1.92-1.44,1.17-2.3,1.38-1.21.29-1.1-.65-1.1-1.43,0-4.65,0-9.29,0-13.94-.16-.03-.32-.06-.48-.09Z"/><path class="cls-1" d="m320.69,63.18c0-2.9-.04-5.9.02-8.9.02-1.03-.19-1.45-1.34-1.42-2.77.09-5.55.08-8.32,0-1.1-.03-1.41.32-1.37,1.4.08,2.41-.08,4.84.07,7.25.09,1.48-.46,1.83-1.77,1.68-.79-.09-1.6-.02-2.51-.02,0-7.37,0-14.85-.01-22.33,0-.75.22-.99,1-1.05,3.26-.23,3.26-.26,3.26,3.01,0,1.77.04,3.54-.02,5.3-.03.93.31,1.22,1.23,1.2,2.83-.05,5.67-.07,8.5,0,1.04.02,1.32-.33,1.29-1.32-.06-2.24.04-4.48-.05-6.72-.04-1.15.3-1.63,1.47-1.46.4.06.83.06,1.24,0,1.23-.19,1.58.27,1.57,1.53-.07,6.72-.08,13.44,0,20.16.02,1.45-.44,1.85-1.77,1.69-.78-.09-1.59-.02-2.48-.02Z"/><path class="cls-1" d="m255.46,51.49c0-3.48.03-6.95-.02-10.43-.02-.99.25-1.32,1.27-1.31,4.3.05,8.61.06,12.92,0,1.97-.03,1.25,1.37,1.42,2.34.21,1.19-.41,1.32-1.4,1.3-2.89-.06-5.78.01-8.67-.04-.97-.02-1.31.23-1.34,1.27-.13,4.76-.17,4.75,4.59,4.75,1.53,0,3.08.12,4.6-.04,1.56-.17,1.57.65,1.52,1.77-.05.99.21,1.95-1.44,1.85-2.65-.15-5.31,0-7.96-.06-1.01-.02-1.37.3-1.29,1.3.13,1.69-.69,3.88.3,4.97,1.01,1.11,3.23.31,4.92.36,1.77.06,3.54.03,5.31,0,.79-.01,1.26.03,1.26,1.1-.01,2.61.07,2.61-2.56,2.61-3.95,0-7.9-.04-11.85.03-1.19.02-1.63-.25-1.6-1.54.09-3.41.03-6.83.03-10.25Z"/><path class="cls-1" d="m242.74,43.82c-3.77-.76-7.35-.4-10.91-.36-1.71.02-1.5-.86-1.55-1.96-.06-1.2.1-1.78,1.57-1.75,4.9.1,9.8.07,14.69.02,1.06-.01,1.38.18,1.55,1.38.32,2.24-.92,3.64-2.11,5.14-2.91,3.67-6.09,7.12-8.67,11.05-.45.69-1.38,1.03-1.6,2.23,2.66,0,5.27,0,7.89,0,.83,0,1.65,0,2.48,0,2.31.02,2.24.02,2.3,2.28.03,1.08-.25,1.39-1.36,1.38-5.13-.04-10.27-.02-15.4.06-1.15.02-1.23-.4-1.37-1.4-.38-2.69,1.53-4.19,2.88-5.94,3.09-4.02,6.3-7.95,9.62-12.12Z"/><path class="cls-1" d="m216.85,39.5c2.5-.36,4.8.47,6.99,1.74,1.76,1.02,1.66,1.26.23,2.59-1.27,1.19-2.03,1.18-3.46.1-2.88-2.19-8.36-.85-10.37,2.34-2.7,4.28-1.66,9.66,1.89,12.44,2.23,1.75,6.54,1.76,8.95-.02,1.39-1.03,3.61-.55,4.37.9.3.57-.26.67-.48.9-4.56,4.96-14.25,4.73-18.68-1.73-4.12-6.02-2.58-15.73,5.47-18.71,1.61-.6,3.27-.7,5.06-.56Z"/><path class="cls-1" d="m277.98,51.69c-.24-6.25,3.36-10.82,9.03-12.01,3.85-.8,7.77-.49,11.19,1.95.88.63,1.01,1.23.07,1.9-.57.4-1.12.82-1.69,1.21-.45.31-.83.48-1.34-.05-3.01-3.18-9.9-2.1-12.03,2.96-1.78,4.22-.49,8.54,2.78,11.42,2,1.77,6.9,1.34,9.13-.63.39-.34.64-1.27,1.32-.78.94.66,2.08,1.08,2.79,2.04.22.3-.2.47-.37.66-2.89,3.25-6.66,4-10.72,3.4-4.28-.64-7.3-3.1-9.23-7.02-.85-1.72-.74-3.48-.91-5.05Z"/><path class="cls-2" d="m163.99,116.45c0-2.82,0-5.65,0-8.47,0-.75.01-1.44,1.08-1.38,3.38.19,6.79-.38,10.12.75,3.71,1.26,6.19,3.69,6.26,7.73.04,2.47.03,4.93-1.47,7.03-2.2,3.08-5.42,4.18-9.05,4.29-1.88.06-3.77-.04-5.65.04-1.06.04-1.28-.38-1.27-1.34.05-2.88.02-5.77.02-8.65-.01,0-.02,0-.03,0Zm3.5-.03c0,1.7.06,3.41-.02,5.11-.06,1.3.22,1.98,1.72,1.8,1.2-.15,2.41-.16,3.63-.32,2.63-.34,4.08-1.84,4.72-4.18.68-2.47.7-4.95-1.14-7.02-1.98-2.22-4.72-2.18-7.4-2.3-1.12-.05-1.59.25-1.53,1.45.09,1.82.02,3.64.02,5.46Z"/><path class="cls-2" d="m204.46,114.5c-.33-3.62-3.15-6.32-6.7-7.25-3.09-.8-6.16-.48-9.25-.67-1.3-.07-1.59.48-1.56,1.64.06,2.77.02,5.53.02,8.3s.05,5.53-.02,8.29c-.02,1.17.26,1.7,1.56,1.63,3.06-.16,6.18.39,9.15-.68,1.22-.43,2.45-.88,3.5-1.77,3.01-2.54,3.62-5.86,3.3-9.49Zm-3.61,3.87c-.13,1.61-2.91,4.19-4.92,4.6-1.37.28-2.76.41-4.14.62-1.08.16-1.48-.3-1.46-1.36.05-1.88,0-3.76,0-5.64.01-1.93.01-3.87,0-5.81,0-.63.01-1.21.87-1.2,2.1.04,4.16-.1,6.21.8,3.25,1.43,3.7,4.55,3.43,7.99Z"/><path class="cls-2" d="m279.74,106.72c1.31-.16,1.89.21,2.34,1.42,1.32,3.56,2.63,7.16,4.42,10.5,1.17,2.19,1.38,4.78,3.03,6.71.27.31.33.58,0,.9-.71.71-3.75.25-3.95-.72-.68-3.27-2.7-4.22-5.78-3.71-.8.13-1.66.11-2.46-.01-1.86-.29-2.44.89-2.75,2.31-.52,2.37-1.38,2.93-3.77,2.39-1.16-.26-.8-.99-.45-1.55,1.38-2.28,2.04-4.86,3.12-7.26,1.41-3.17,2.75-6.37,4.08-9.57.45-1.08,1.01-1.86,2.17-1.4Zm.03,4.83c-1.41,1.99-1.77,4.25-2.69,6.27-.28.61.05.96.77.94,1.23-.03,2.46,0,3.7,0,.53,0,1.08-.17.84-.76-.86-2.1-1.36-4.36-2.62-6.45Z"/><path class="cls-2" d="m253.66,116.51c0-2.83.03-5.65-.01-8.48-.02-1.04.3-1.46,1.41-1.44,3.24.06,6.49.03,9.73.02,1.11,0,1.71.36,1.69,1.63-.02,1.28-.55,1.56-1.74,1.51-2.18-.1-4.36-.01-6.54-.04-.95-.01-1.36.3-1.34,1.33.1,4.22-.56,3.48,3.34,3.53,1.59.02,3.19.05,4.78-.01,1.26-.05,1.06.79,1.07,1.54,0,.76.15,1.58-1.08,1.55-2.18-.05-4.36.03-6.55-.03-.99-.03-1.3.32-1.35,1.3-.2,4.35-.23,4.35,4.15,4.35,1.36,0,2.72.08,4.07-.02,1.3-.1,1.54.44,1.56,1.62.02,1.23-.31,1.62-1.56,1.59-3.36-.08-6.72-.08-10.08,0-1.31.03-1.59-.49-1.56-1.64.05-2.77.02-5.54.02-8.3h0Z"/><path class="cls-2" d="m225.97,116.4c0-2.77.04-5.54-.02-8.31-.03-1.01.15-1.51,1.31-1.49,3.19.05,6.38,0,9.56.03,1.16.01,2.2.21,2.02,1.85-.11.98-.46,1.31-1.44,1.28-2.12-.07-4.25.04-6.37-.05-1.41-.06-1.87.47-1.81,1.86.16,3.47-.57,2.97,2.97,3.01,1.71.02,3.43.06,5.13-.01,1.24-.05,1.11.74,1.1,1.51,0,.76.18,1.58-1.07,1.55-2.24-.04-4.49.04-6.73,0-.89-.02-1.22.23-1.28,1.17-.31,4.47-.34,4.47,4.16,4.47,1.53,0,3.07.05,4.6-.02,1.09-.04,1.15.6,1.04,1.36-.1.7.47,1.81-.96,1.81-3.72,0-7.44,0-11.16.02-1.03,0-1.09-.56-1.09-1.37.03-2.89.01-5.78.01-8.66,0,0,0,0,0,0Z"/><path class="cls-1" d="m286,86.6c0-2.77-.1-5.54.04-8.3.08-1.5-.5-1.78-1.8-1.69-1.41.09-2.84-.09-4.24.05-1.53.16-1.57-.66-1.53-1.78.04-1.02-.16-1.87,1.46-1.84,5.3.09,10.61.07,15.9-.08,1.65-.05,1.45.83,1.42,1.83-.02.95.35,2.06-1.38,1.88-1.4-.15-2.83.05-4.24-.05-1.16-.08-1.49.29-1.48,1.46.06,5.53.04,11.06.02,16.6,0,.61.28,1.49-.56,1.66-1.13.23-2.33.31-3.45-.11-.18-.07-.17-.75-.17-1.14-.01-2.82,0-5.65-.01-8.47Z"/><path class="cls-2" d="m300.19,106.38c1.51-.37,2.87.29,4.24.75.62.21,1.69.58.98,1.53-.52.68-.65,2.44-2.32,1.35-.94-.61-1.97-1-3.15-.84-1.26.17-2.7.09-3.02,1.74-.37,1.93.4,2.92,2.43,3.56,1.32.41,2.67.81,3.88,1.45,3.69,1.95,3.99,6.92.65,9.44-3.02,2.28-8.4,1.92-10.73-.59-.79-.85-.32-1.24.25-1.64.59-.41.92-1.89,2.02-.75,1.46,1.51,3.29,1.48,5.09,1.24,1.36-.18,2-1.32,2.07-2.64.07-1.32-1.26-2.66-2.74-2.96-1.94-.4-3.77-.94-5.24-2.46-2.45-2.55-1.44-7.21,1.87-8.56,1.23-.5,2.42-.81,3.74-.61Z"/><path class="cls-2" d="m315.34,118.21c0-2.35-.04-4.71.02-7.06.02-1.05-.32-1.51-1.4-1.45-1,.06-2.01-.05-3,.04-1.26.11-1.74-.23-1.71-1.63.03-1.33.51-1.54,1.67-1.52,4.12.06,8.25.07,12.37,0,1.3-.02,1.55.47,1.55,1.65,0,1.17-.33,1.66-1.5,1.48-.06,0-.12,0-.18,0q-4.33.07-4.32,4.49c0,3.53-.05,7.06.03,10.59.04,1.7-1.11,1.57-2.18,1.73-1.34.19-1.37-.61-1.35-1.6.05-2.23.02-4.47.02-6.7h0Z"/><path class="cls-1" d="m243.44,84.8c0,3.41-.03,6.83.02,10.24.02,1.02-.17,1.43-1.33,1.42-2.9-.03-2.9.04-2.9-2.85,0-6.3.04-12.6-.03-18.89-.01-1.28.26-1.89,1.63-1.65.34.06.71.05,1.06,0,1.2-.19,1.62.21,1.58,1.5-.1,3.41-.03,6.83-.03,10.24Z"/><path class="cls-2" d="m209.86,116.42c0-2.77.09-5.53-.04-8.29-.07-1.46.65-1.45,1.69-1.44,1.07,0,1.88-.07,1.84,1.5-.11,4.47,0,8.94-.07,13.41-.02,1.3.35,1.79,1.69,1.7,1.76-.11,3.54.04,5.3-.05,1.33-.06,1.19.76,1.17,1.6-.02.8.22,1.65-1.16,1.61-3-.08-6.01-.06-9.01,0-1.2.02-1.47-.43-1.43-1.57.09-2.82.03-5.65.03-8.47h0Z"/><path class="cls-2" d="m157.69,116.62c0,2.83-.08,5.66.03,8.48.05,1.37-.65,1.37-1.62,1.34-.94-.03-1.89.22-1.87-1.32.06-5.77.05-11.54,0-17.31-.01-1.41.91-1.13,1.67-1.08.74.05,1.86-.53,1.83,1.07-.07,2.94-.02,5.89-.02,8.83h-.01Z"/><path class="cls-2" d="m110.77,101.54c-3.35.01-6.7.03-10.04.04,3.35-.01,6.7-.03,10.04-.04Z"/></g></g></svg>