<?xml version="1.0" encoding="UTF-8" standalone="no" ?>
<!DOCTYPE svg PUBLIC "-//W3C//DTD SVG 1.1//EN" "http://www.w3.org/Graphics/SVG/1.1/DTD/svg11.dtd">
<svg xmlns="http://www.w3.org/2000/svg" xmlns:xlink="http://www.w3.org/1999/xlink" version="1.1" width="1080" height="1080" viewBox="0 0 1080 1080" xml:space="preserve">
<desc>Created with Fabric.js 5.2.4</desc>
<defs>
</defs>
<g transform="matrix(1 0 0 1 540 540)" id="311167be-1d5b-4e3e-b070-61884418729f"  >
<rect style="stroke: none; stroke-width: 1; stroke-dasharray: none; stroke-linecap: butt; stroke-dashoffset: 0; stroke-linejoin: miter; stroke-miterlimit: 4; fill: rgb(255,255,255); fill-rule: nonzero; opacity: 1; visibility: hidden;" vector-effect="non-scaling-stroke"  x="-540" y="-540" rx="0" ry="0" width="1080" height="1080" />
</g>
<g transform="matrix(1 0 0 1 540 540)" id="9acfcf38-49ce-4957-8125-4b1406d9680e"  >
</g>
<g transform="matrix(54 0 0 54 540 540)"  >
<path style="stroke: none; stroke-width: 1; stroke-dasharray: none; stroke-linecap: butt; stroke-dashoffset: 0; stroke-linejoin: miter; stroke-miterlimit: 4; fill: rgb(17,69,126); fill-rule: nonzero; opacity: 1;"  transform=" translate(-10, -10)" d="M 10 2 C 6.686291501015239 2 4 4.686291501015239 4 8 L 4 11.586 L 3.293 12.293000000000001 C 3.0070920844224065 12.578994254372683 2.921578093992358 13.009036616119339 3.0763220218878566 13.382654558011298 C 3.2310659497833547 13.756272499903258 3.5956041020631746 13.999913651986247 3.9999999999999996 14 L 16 14 C 16.404395897936826 13.99991365198625 16.768934050216647 13.75627249990326 16.923677978112146 13.382654558011298 C 17.078421906007645 13.009036616119339 16.992907915577597 12.578994254372681 16.707 12.293 L 16 11.586 L 16 8 C 16 4.686291501015239 13.313708498984761 2 10 2 z M 10 18 C 8.34314575050762 18 7 16.65685424949238 7 15 L 13 15 C 13 16.65685424949238 11.65685424949238 18 10 18 z" stroke-linecap="round" />
</g>
<g transform="matrix(NaN NaN NaN NaN 0 0)"  >
<g style=""   >
</g>
</g>
</svg>