<?xml version="1.0" encoding="utf-8"?>
<!-- Generator: Adobe Illustrator 28.1.0, SVG Export Plug-In . SVG Version: 6.00 Build 0)  -->
<svg version="1.1" id="Layer_1" xmlns="http://www.w3.org/2000/svg" xmlns:xlink="http://www.w3.org/1999/xlink" x="0px" y="0px"
	 viewBox="0 0 224 224" style="enable-background:new 0 0 224 224;" xml:space="preserve">
<style type="text/css">
	.st0{fill:none;stroke:#EFA88C;stroke-width:2;}
	.st1{fill:none;stroke:#808080;stroke-width:2;}
	.st2{fill:none;stroke:#F3B987;stroke-width:2;}
	.st3{fill:none;stroke:#FAD287;stroke-width:2;}
	.st4{fill:none;stroke:#E36114;stroke-width:2;}
	.st5{fill:none;stroke:#EE8C0F;stroke-width:2;}
	.st6{fill:#FFFFFF;}
	.st7{fill:#DE5018;}
	.st8{fill:#010100;}
	.st9{fill:#F5A50F;}
	.st10{fill:#E7720F;}
</style>
<g>
	<path vector-effect="non-scaling-stroke" class="st0" d="M187.9,75.5c-2.7-7.8-6.5-15.3-11.4-22.7c-4.1-6.1-9-11-14.7-14.7
		C143.4,26.3,124.8,36.8,114,53c-12.6,18.8-18.4,42.5-19.9,65.6c0,0.4,0.2,0.6,0.6,0.6l13,0c0.5,0,0.9-0.4,0.9-0.9
		c0.4-8.4,1.7-17.1,3.9-26c3.9-15.7,12.1-33.2,25.6-41.8c18.4-11.7,36.2,1.3,45.4,17.6c1.4,2.4,2.7,4.9,4,7.5c0,0.1,0.1,0.1,0.2,0
		C187.9,75.6,187.9,75.6,187.9,75.5"/>
	<path vector-effect="non-scaling-stroke" class="st1" d="M48,45.5c2.5-1.7,3.2-4.2,2.1-7.5c-1.2-3.6-8-3-11.3-2.8
		c-0.3,0-0.5,0.3-0.5,0.5l0,21.5c0,0.3,0.1,0.4,0.4,0.4c4.7-0.2,11.7,1.4,12.6-5.2c0.4-3.2-0.7-5.4-3.3-6.5
		C47.7,45.8,47.7,45.7,48,45.5"/>
	<path vector-effect="non-scaling-stroke" class="st1" d="M61.2,53.5l-4.3-18c-0.1-0.5-0.5-0.7-1-0.6l-1,0.3
		c-0.7,0.2-0.9,0.6-0.7,1.3l5.5,21c0.1,0.4,0.3,0.6,0.7,0.6h2c0.4,0,0.6-0.2,0.7-0.5l5.6-21c0.2-0.6-0.2-1.2-0.8-1.3l-1-0.3
		c-0.4-0.1-0.8,0.1-0.9,0.5c0,0,0,0,0,0l-4.4,18C61.6,54.2,61.4,54.2,61.2,53.5"/>
	<path vector-effect="non-scaling-stroke" class="st1" d="M79.4,53.5l-4.3-18c-0.1-0.4-0.6-0.7-1-0.6c0,0-0.1,0-0.1,0l-1,0.4
		c-0.6,0.2-0.8,0.6-0.6,1.2l5.6,21c0.1,0.3,0.4,0.6,0.8,0.6h1.8c0.4,0,0.7-0.2,0.8-0.6l5.7-21c0.2-0.6,0-0.9-0.6-1.2L85.6,35
		c-0.7-0.3-1.2-0.1-1.4,0.7l-4.3,17.8C79.7,54.2,79.6,54.2,79.4,53.5"/>
	<path vector-effect="non-scaling-stroke" class="st2" d="M178.1,104.7l-0.3,0.3"/>
	<path vector-effect="non-scaling-stroke" class="st3" d="M177.8,104.9l-13.2,0c-0.3,0-0.5,0.2-0.5,0.5l0,13.2
		c0,0.2,0.2,0.4,0.4,0.4c0,0,0,0,0,0l13.3,0"/>
	<path vector-effect="non-scaling-stroke" class="st2" d="M177.9,119.1l14,0c0.3,0,0.5-0.2,0.5-0.5l0,0l-0.1-12.8"/>
	<path vector-effect="non-scaling-stroke" class="st0" d="M192.3,105.8l-0.1-14.2c0-0.4-0.2-0.7-0.7-0.7l-13,0
		c-0.3,0-0.5,0.2-0.5,0.5l0,13.3"/>
	<path vector-effect="non-scaling-stroke" class="st4" d="M192.3,105.8c-3.7-0.3-7.4-0.5-11-0.6c-1,0-2.2,0.7-3.2-0.5"/>
	<path vector-effect="non-scaling-stroke" class="st5" d="M177.8,104.9l0.1,14.2"/>
	<path vector-effect="non-scaling-stroke" class="st1" d="M73.8,153.7c-0.8,0-1.4-0.6-1.4-1.4l0,0v-19.8c0-0.5-0.4-0.9-0.8-0.9
		c0,0,0,0-0.1,0l-0.6,0c-0.6,0-1.1,0.5-1.1,1.1c0,7.6,0,14.1,0.1,19.5c0.1,3.6,3.1,3.7,5.7,3.1c0.5-0.1,0.7-0.4,0.6-0.9l-0.1-0.4
		c-0.1-0.6-0.5-0.8-1.1-0.6C74.7,153.6,74.2,153.7,73.8,153.7"/>
	<path vector-effect="non-scaling-stroke" class="st1" d="M124.6,140.5l0-8.2c0-0.5-0.2-0.7-0.7-0.6l-1.3,0.2
		c-0.4,0.1-0.6,0.3-0.6,0.7l0,22.4c0,0.2,0.1,0.3,0.3,0.3l2.2,0c0.1,0,0.2-0.1,0.2-0.2l-0.1-10.3c0-1.5,0.7-2.5,2.2-3l1.4-0.4
		c1.9-0.5,2.8,0.2,2.8,2.1l-0.1,11.2c0,0.3,0.2,0.5,0.5,0.5c0,0,0,0,0,0l1.5,0c0.4,0,0.7-0.2,0.7-0.7c0-4.3-0.1-8.5-0.1-12.6
		c0-1-0.5-1.8-1.4-2.3c-2.4-1.2-4.9-0.7-7,1C124.8,141.1,124.6,141,124.6,140.5"/>
	<path vector-effect="non-scaling-stroke" class="st1" d="M43.1,151.3l-4.4-18.5c0-0.1-0.1-0.1-0.2-0.1c-1.4,0.1-2.3,0.3-2.6,0.5
		c0,0-0.1,0.1-0.1,0.1l5.8,21.6c0.1,0.4,0.4,0.6,0.8,0.6l1.8,0c0.5,0,0.8-0.2,0.9-0.7l5.8-21.6c0-0.1,0-0.2-0.2-0.2l-2.5-0.3
		c-0.1,0-0.2,0-0.2,0.1l-4.5,18.5C43.4,152,43.3,152,43.1,151.3"/>
	<path vector-effect="non-scaling-stroke" class="st1" d="M96.9,139.7l-1-0.2c-0.5-0.1-0.8,0.1-1,0.6c-0.1,0.4-0.1,0.8,0,1.2
		c0.1,0.4,0.3,0.5,0.7,0.5l1.5-0.2c0.3,0,0.5,0.2,0.6,0.4c0,0,0,0,0,0.1c0,2.9,0,5.9-0.1,9.2c-0.1,5,4.1,5.1,7.6,3.8
		c0.4-0.2,0.7-0.6,0.6-1.1l-0.2-0.9c-0.1-0.5-0.3-0.6-0.8-0.4c-0.8,0.4-1.8,0.7-2.8,0.9c-0.9,0.1-1.7-0.5-1.8-1.3c0-0.1,0-0.1,0-0.2
		l0-9.8c0-0.4,0.2-0.6,0.7-0.6l3.1,0.1c0.6,0,1-0.3,1.2-0.9l0.1-0.3c0.2-0.6,0-1-0.7-1h-3.7c-0.4,0-0.7-0.2-0.7-0.7l0-3.9
		c0-0.8-0.4-1-1.1-0.8l-0.3,0.1c-0.7,0.2-1.1,0.9-1.1,1.6l0,3.2C97.6,139.6,97.3,139.8,96.9,139.7"/>
	<path vector-effect="non-scaling-stroke" class="st1" d="M55.5,148.1l8.5,0c0.4,0,0.7-0.2,0.7-0.7c0-3.5-0.5-7-4.4-8.2
		c-3.8-1.1-7,1.8-7.7,5.3c-0.5,2.5-0.3,4.8,0.5,7c1.7,4.4,6.8,4.9,10.4,3c0.6-0.3,0.8-0.8,0.7-1.4l-0.1-0.4c0-0.3-0.4-0.6-0.7-0.5
		c-0.1,0-0.1,0-0.1,0c-0.7,0.3-1.3,0.5-2,0.8c-3.6,1.4-5.8-1.1-6.3-4.5C54.9,148.3,55.1,148.1,55.5,148.1"/>
	<path vector-effect="non-scaling-stroke" class="st1" d="M82.2,148l8.5,0.1c0.3,0,0.4-0.1,0.5-0.4c0.3-3.8-0.8-8.2-5.4-8.6
		c-3.8-0.3-6.4,2.6-6.9,6.1c-1.1,7.2,2.7,12.4,10.7,9.7c0.6-0.2,1-0.7,1-1.3c0-0.4-0.1-0.8-0.4-1.1c-0.2-0.2-0.5-0.3-0.8-0.1
		c-1,0.6-2.1,1-3.2,1.1c-1.4,0.1-2.6-0.4-3.5-1.5c-0.6-0.8-1.1-1.8-1.3-3C81.3,148.4,81.6,148,82.2,148"/>
	<path vector-effect="non-scaling-stroke" class="st1" d="M112.3,141.2l-0.3-1.5c-0.1-0.6-0.5-0.8-1-0.5l-1,0.5
		c-0.4,0.2-0.5,0.5-0.4,0.9c0.4,1.2,0.8,2.3,0.8,3.6c0,3.5,0,7-0.1,10.5c0,0.5,0.2,0.7,0.7,0.6l1.5-0.2c0.4,0,0.6-0.3,0.6-0.7
		c-0.1-3-0.1-6.1-0.1-9.3c0-1.8,1.5-3.4,3.3-3.5c0.8,0,1.5-0.5,1.9-1.3c0.2-0.3-0.4-0.8-1.8-1.3c-0.4-0.2-0.9-0.1-1.3,0.2l-2.2,2.1
		c-0.1,0.1-0.3,0.1-0.4,0C112.3,141.3,112.3,141.3,112.3,141.2"/>
	<path vector-effect="non-scaling-stroke" class="st1" d="M145.2,153.2c-0.1,0.5-0.3,0.5-0.4,0l-4.4-13.4c-0.2-0.6-0.6-0.7-1.1-0.5
		l-0.9,0.4c-0.5,0.2-0.7,0.6-0.5,1.2c1.6,4.4,3.2,8.8,4.9,13.3c0.2,0.6,0.6,1,1.1,1.2c0.3,0.1,0.4,0.3,0.4,0.6
		c-0.4,1.7-0.9,3.8-3.1,3.8c-0.9,0-1.6-0.3-2.2-0.9c-0.2-0.2-0.6-0.3-0.8-0.1c0,0-0.1,0.1-0.1,0.1l-0.6,1c-0.3,0.4-0.2,0.7,0.2,1
		c3.7,2.1,7.1,1.4,8.4-2.8c1.7-5.2,3.4-11,5.1-17.2c0.2-0.5-0.1-1.1-0.6-1.3l-0.6-0.3c-0.7-0.3-1.1-0.1-1.3,0.6L145.2,153.2"/>
	<path vector-effect="non-scaling-stroke" class="st1" d="M48.1,176.8c0.1-0.1,0.2-0.1,0.3-0.2c3.5-1.8,2.9-9.4-1.6-9.8
		c-2.4-0.2-5.1-0.3-8-0.2c-0.4,0-0.6,0.2-0.6,0.6l0,21.3c0,0.5,0.2,0.7,0.7,0.7c4.8-0.1,11.5,1.1,12.4-5.6c0.4-2.9-0.7-4.9-3.1-5.9
		C47.7,177.4,47.7,177.1,48.1,176.8"/>
	<path vector-effect="non-scaling-stroke" class="st1" d="M58.7,174.4c-0.1-0.5-0.3-0.9-0.6-1.4c-0.3-0.4-0.6-0.4-1-0.1l-0.8,0.7
		c-0.3,0.3-0.4,0.7-0.2,1.1c0.4,0.6,0.6,1.3,0.6,1.9c0.1,3.6,0.1,7.6,0.1,12c0,0.3,0.1,0.4,0.5,0.4l1.5,0c0.4,0,0.6-0.2,0.6-0.6
		c0.1-3,0.1-6,0-9.2c-0.1-2.2,1.9-4.3,4-3.9c0.4,0.1,0.6-0.1,0.7-0.4l0.4-1.2c0.1-0.4,0-0.6-0.4-0.8c-1.5-0.5-3,0-4.3,1.7
		C59.2,175.5,58.8,175.4,58.7,174.4"/>
	<path vector-effect="non-scaling-stroke" class="st1" d="M70.8,174.1c0-0.5-0.2-0.9-0.7-1.1c-0.6-0.3-1.3-0.1-1.5,0.5
		c-0.1,0.2-0.1,0.4-0.1,0.6c0.4,4.8,0.4,9.5,0.2,14.3c0,0.5,0.2,0.7,0.7,0.7l1.4,0c0.4,0,0.6-0.2,0.6-0.6v-10.2
		c0-1.6,0.8-2.6,2.3-2.9l1.5-0.3c1.7-0.3,2.5,0.3,2.5,2.1l0,11.6c0,0.2,0.1,0.3,0.3,0.3l1.8,0c0.3,0,0.5-0.2,0.5-0.5
		c0-3.9,0-7.8,0-11.7c0-5.3-5.7-4.8-8.6-2.3C71.1,175.1,70.8,174.9,70.8,174.1"/>
	<path vector-effect="non-scaling-stroke" class="st1" d="M98.3,178.9c0.1-3.2-2.5-5.9-5.7-6l-1,0c-3.2-0.1-5.9,2.5-6,5.7l-0.1,4.7
		c-0.1,3.2,2.5,5.9,5.7,6l1,0c3.2,0.1,5.9-2.5,6-5.7L98.3,178.9"/>
	<path vector-effect="non-scaling-stroke" class="st1" d="M41.1,37.8l0.1,6.8c0,0.2,0.1,0.3,0.3,0.3l2.9,0c1.8,0,3.3-1.4,3.3-3.2
		l0-1.1c0-1.7-1.5-3.1-3.3-3.1l-2.9,0C41.2,37.5,41.1,37.7,41.1,37.8C41.1,37.8,41.1,37.8,41.1,37.8"/>
	<path vector-effect="non-scaling-stroke" class="st1" d="M41.1,47.7v7.2c0,0.2,0.2,0.4,0.4,0.4h3.2c2.1,0,3.7-1.6,3.7-3.6l0,0v-0.8
		c0-2-1.7-3.6-3.7-3.6l0,0h-3.2C41.3,47.3,41.1,47.5,41.1,47.7L41.1,47.7"/>
	<path vector-effect="non-scaling-stroke" class="st1" d="M55.4,145.9h6.2c0.2,0,0.4-0.2,0.4-0.4c0,0,0,0,0,0v-0.2
		c0-2.2-1.5-4.1-3.4-4.1h-0.2c-1.9,0-3.4,1.8-3.4,4.1v0.2C55,145.7,55.2,145.9,55.4,145.9C55.4,145.9,55.4,145.9,55.4,145.9"/>
	<path vector-effect="non-scaling-stroke" class="st1" d="M81.8,145.9l6.5,0c0.1,0,0.3-0.1,0.3-0.3l0,0v-0.2c0-2.3-1.5-4.2-3.4-4.2
		c0,0,0,0,0,0H85c-1.9,0-3.5,1.9-3.5,4.2v0.2C81.5,145.7,81.6,145.9,81.8,145.9"/>
	<path vector-effect="non-scaling-stroke" class="st1" d="M41.1,169.4l0,6.5c0,0.2,0.2,0.4,0.4,0.4l3.1,0c1.7,0,3.1-1.4,3.1-3
		c0,0,0,0,0,0v-1.3c0-1.7-1.4-3.1-3-3.1c0,0,0,0,0,0l-3.1,0C41.3,169,41.1,169.2,41.1,169.4"/>
	<path vector-effect="non-scaling-stroke" class="st1" d="M41.1,179l0,7.3c0,0.2,0.2,0.3,0.3,0.3l3.2,0c2.1,0,3.8-1.6,3.8-3.5
		c0,0,0,0,0,0v-0.9c0-2-1.7-3.6-3.8-3.6l-3.2,0C41.3,178.7,41.1,178.9,41.1,179"/>
	<path vector-effect="non-scaling-stroke" class="st1" d="M91.9,187.5c2.2,0,4-2.8,4-6.4c0-3.5-1.7-6.4-3.9-6.4c-2.2,0-4,2.8-4,6.4
		v0C88,184.7,89.7,187.5,91.9,187.5"/>
</g>
<path class="st6" d="M187.9,75.5c-2.7-7.8-6.5-15.3-11.4-22.7c-4.1-6.1-9-11-14.7-14.7C143.4,26.3,124.8,36.8,114,53
	c-12.6,18.8-18.4,42.5-19.9,65.6c0,0.4,0.2,0.6,0.6,0.6l13,0c0.5,0,0.9-0.4,0.9-0.9c0.4-8.4,1.7-17.1,3.9-26
	c3.9-15.7,12.1-33.2,25.6-41.8c18.4-11.7,36.2,1.3,45.4,17.6c1.4,2.4,2.7,4.9,4,7.5c0,0.1,0.1,0.1,0.2,0
	C187.9,75.6,187.9,75.6,187.9,75.5z M48,45.5c2.5-1.7,3.2-4.2,2.1-7.5c-1.2-3.6-8-3-11.3-2.8c-0.3,0-0.5,0.3-0.5,0.5l0,21.5
	c0,0.3,0.1,0.4,0.4,0.4c4.7-0.2,11.7,1.4,12.6-5.2c0.4-3.2-0.7-5.4-3.3-6.5C47.7,45.8,47.7,45.7,48,45.5z M61.2,53.5l-4.3-18
	c-0.1-0.5-0.5-0.7-1-0.6l-1,0.3c-0.7,0.2-0.9,0.6-0.7,1.3l5.5,21c0.1,0.4,0.3,0.6,0.7,0.6h2c0.4,0,0.6-0.2,0.7-0.5l5.6-21
	c0.2-0.6-0.2-1.2-0.8-1.3l-1-0.3c-0.4-0.1-0.8,0.1-0.9,0.5c0,0,0,0,0,0l-4.4,18C61.6,54.2,61.4,54.2,61.2,53.5z M79.4,53.5l-4.3-18
	c-0.1-0.4-0.6-0.7-1-0.6c0,0-0.1,0-0.1,0l-1,0.4c-0.6,0.2-0.8,0.6-0.6,1.2l5.6,21c0.1,0.3,0.4,0.6,0.8,0.6h1.8
	c0.4,0,0.7-0.2,0.8-0.6l5.7-21c0.2-0.6,0-0.9-0.6-1.2L85.6,35c-0.7-0.3-1.2-0.1-1.4,0.7l-4.3,17.8C79.7,54.2,79.6,54.2,79.4,53.5z
	 M178.1,104.7l-0.3,0.3l-13.2,0c-0.3,0-0.5,0.2-0.5,0.5l0,13.2c0,0.2,0.2,0.4,0.4,0.4c0,0,0,0,0,0l13.3,0l14,0
	c0.3,0,0.5-0.2,0.5-0.5l0,0l-0.1-12.8l-0.1-14.2c0-0.4-0.2-0.7-0.7-0.7l-13,0c-0.3,0-0.5,0.2-0.5,0.5L178.1,104.7z M73.8,153.7
	c-0.8,0-1.4-0.6-1.4-1.4l0,0v-19.8c0-0.5-0.4-0.9-0.8-0.9c0,0,0,0-0.1,0l-0.6,0c-0.6,0-1.1,0.5-1.1,1.1c0,7.6,0,14.1,0.1,19.5
	c0.1,3.6,3.1,3.7,5.7,3.1c0.5-0.1,0.7-0.4,0.6-0.9l-0.1-0.4c-0.1-0.6-0.5-0.8-1.1-0.6C74.7,153.6,74.2,153.7,73.8,153.7z
	 M124.6,140.5l0-8.2c0-0.5-0.2-0.7-0.7-0.6l-1.3,0.2c-0.4,0.1-0.6,0.3-0.6,0.7l0,22.4c0,0.2,0.1,0.3,0.3,0.3l2.2,0
	c0.1,0,0.2-0.1,0.2-0.2l-0.1-10.3c0-1.5,0.7-2.5,2.2-3l1.4-0.4c1.9-0.5,2.8,0.2,2.8,2.1l-0.1,11.2c0,0.3,0.2,0.5,0.5,0.5
	c0,0,0,0,0,0l1.5,0c0.4,0,0.7-0.2,0.7-0.7c0-4.3-0.1-8.5-0.1-12.6c0-1-0.5-1.8-1.4-2.3c-2.4-1.2-4.9-0.7-7,1
	C124.8,141.1,124.6,141,124.6,140.5z M43.1,151.3l-4.4-18.5c0-0.1-0.1-0.1-0.2-0.1c-1.4,0.1-2.3,0.3-2.6,0.5c0,0-0.1,0.1-0.1,0.1
	l5.8,21.6c0.1,0.4,0.4,0.6,0.8,0.6l1.8,0c0.5,0,0.8-0.2,0.9-0.7l5.8-21.6c0-0.1,0-0.2-0.2-0.2l-2.5-0.3c-0.1,0-0.2,0-0.2,0.1
	l-4.5,18.5C43.4,152,43.3,152,43.1,151.3z M96.9,139.7l-1-0.2c-0.5-0.1-0.8,0.1-1,0.6c-0.1,0.4-0.1,0.8,0,1.2
	c0.1,0.4,0.3,0.5,0.7,0.5l1.5-0.2c0.3,0,0.5,0.2,0.6,0.4c0,0,0,0,0,0.1c0,2.9,0,5.9-0.1,9.2c-0.1,5,4.1,5.1,7.6,3.8
	c0.4-0.2,0.7-0.6,0.6-1.1l-0.2-0.9c-0.1-0.5-0.3-0.6-0.8-0.4c-0.8,0.4-1.8,0.7-2.8,0.9c-0.9,0.1-1.7-0.5-1.8-1.3c0-0.1,0-0.1,0-0.2
	l0-9.8c0-0.4,0.2-0.6,0.7-0.6l3.1,0.1c0.6,0,1-0.3,1.2-0.9l0.1-0.3c0.2-0.6,0-1-0.7-1h-3.7c-0.4,0-0.7-0.2-0.7-0.7l0-3.9
	c0-0.8-0.4-1-1.1-0.8l-0.3,0.1c-0.7,0.2-1.1,0.9-1.1,1.6l0,3.2C97.6,139.6,97.3,139.8,96.9,139.7z M55.5,148.1l8.5,0
	c0.4,0,0.7-0.2,0.7-0.7c0-3.5-0.5-7-4.4-8.2c-3.8-1.1-7,1.8-7.7,5.3c-0.5,2.5-0.3,4.8,0.5,7c1.7,4.4,6.8,4.9,10.4,3
	c0.6-0.3,0.8-0.8,0.7-1.4l-0.1-0.4c0-0.3-0.4-0.6-0.7-0.5c-0.1,0-0.1,0-0.1,0c-0.7,0.3-1.3,0.5-2,0.8c-3.6,1.4-5.8-1.1-6.3-4.5
	C54.9,148.3,55.1,148.1,55.5,148.1z M82.2,148l8.5,0.1c0.3,0,0.4-0.1,0.5-0.4c0.3-3.8-0.8-8.2-5.4-8.6c-3.8-0.3-6.4,2.6-6.9,6.1
	c-1.1,7.2,2.7,12.4,10.7,9.7c0.6-0.2,1-0.7,1-1.3c0-0.4-0.1-0.8-0.4-1.1c-0.2-0.2-0.5-0.3-0.8-0.1c-1,0.6-2.1,1-3.2,1.1
	c-1.4,0.1-2.6-0.4-3.5-1.5c-0.6-0.8-1.1-1.8-1.3-3C81.3,148.4,81.6,148,82.2,148z M112.3,141.2l-0.3-1.5c-0.1-0.6-0.5-0.8-1-0.5
	l-1,0.5c-0.4,0.2-0.5,0.5-0.4,0.9c0.4,1.2,0.8,2.3,0.8,3.6c0,3.5,0,7-0.1,10.5c0,0.5,0.2,0.7,0.7,0.6l1.5-0.2c0.4,0,0.6-0.3,0.6-0.7
	c-0.1-3-0.1-6.1-0.1-9.3c0-1.8,1.5-3.4,3.3-3.5c0.8,0,1.5-0.5,1.9-1.3c0.2-0.3-0.4-0.8-1.8-1.3c-0.4-0.2-0.9-0.1-1.3,0.2l-2.2,2.1
	c-0.1,0.1-0.3,0.1-0.4,0C112.3,141.3,112.3,141.3,112.3,141.2z M145.2,153.2c-0.1,0.5-0.3,0.5-0.4,0l-4.4-13.4
	c-0.2-0.6-0.6-0.7-1.1-0.5l-0.9,0.4c-0.5,0.2-0.7,0.6-0.5,1.2c1.6,4.4,3.2,8.8,4.9,13.3c0.2,0.6,0.6,1,1.1,1.2
	c0.3,0.1,0.4,0.3,0.4,0.6c-0.4,1.7-0.9,3.8-3.1,3.8c-0.9,0-1.6-0.3-2.2-0.9c-0.2-0.2-0.6-0.3-0.8-0.1c0,0-0.1,0.1-0.1,0.1l-0.6,1
	c-0.3,0.4-0.2,0.7,0.2,1c3.7,2.1,7.1,1.4,8.4-2.8c1.7-5.2,3.4-11,5.1-17.2c0.2-0.5-0.1-1.1-0.6-1.3l-0.6-0.3
	c-0.7-0.3-1.1-0.1-1.3,0.6L145.2,153.2z M48.1,176.8c0.1-0.1,0.2-0.1,0.3-0.2c3.5-1.8,2.9-9.4-1.6-9.8c-2.4-0.2-5.1-0.3-8-0.2
	c-0.4,0-0.6,0.2-0.6,0.6l0,21.3c0,0.5,0.2,0.7,0.7,0.7c4.8-0.1,11.5,1.1,12.4-5.6c0.4-2.9-0.7-4.9-3.1-5.9
	C47.7,177.4,47.7,177.1,48.1,176.8z M58.7,174.4c-0.1-0.5-0.3-0.9-0.6-1.4c-0.3-0.4-0.6-0.4-1-0.1l-0.8,0.7
	c-0.3,0.3-0.4,0.7-0.2,1.1c0.4,0.6,0.6,1.3,0.6,1.9c0.1,3.6,0.1,7.6,0.1,12c0,0.3,0.1,0.4,0.5,0.4l1.5,0c0.4,0,0.6-0.2,0.6-0.6
	c0.1-3,0.1-6,0-9.2c-0.1-2.2,1.9-4.3,4-3.9c0.4,0.1,0.6-0.1,0.7-0.4l0.4-1.2c0.1-0.4,0-0.6-0.4-0.8c-1.5-0.5-3,0-4.3,1.7
	C59.2,175.5,58.8,175.4,58.7,174.4z M70.8,174.1c0-0.5-0.2-0.9-0.7-1.1c-0.6-0.3-1.3-0.1-1.5,0.5c-0.1,0.2-0.1,0.4-0.1,0.6
	c0.4,4.8,0.4,9.5,0.2,14.3c0,0.5,0.2,0.7,0.7,0.7l1.4,0c0.4,0,0.6-0.2,0.6-0.6v-10.2c0-1.6,0.8-2.6,2.3-2.9l1.5-0.3
	c1.7-0.3,2.5,0.3,2.5,2.1l0,11.6c0,0.2,0.1,0.3,0.3,0.3l1.8,0c0.3,0,0.5-0.2,0.5-0.5c0-3.9,0-7.8,0-11.7c0-5.3-5.7-4.8-8.6-2.3
	C71.1,175.1,70.8,174.9,70.8,174.1z M98.3,178.9c0.1-3.2-2.5-5.9-5.7-6l-1,0c-3.2-0.1-5.9,2.5-6,5.7l-0.1,4.7
	c-0.1,3.2,2.5,5.9,5.7,6l1,0c3.2,0.1,5.9-2.5,6-5.7L98.3,178.9z"/>
<path class="st7" d="M187.6,75.6c-1.3-2.6-2.6-5.1-4-7.5c-9.2-16.3-27-29.4-45.4-17.6c-13.6,8.6-21.7,26.1-25.6,41.8
	c-2.2,9-3.6,17.7-3.9,26c0,0.5-0.4,0.9-0.9,0.9l-13,0c-0.4,0-0.6-0.2-0.6-0.6c1.5-23.2,7.3-46.8,19.9-65.6
	c10.8-16.1,29.4-26.7,47.7-14.9c5.7,3.7,10.6,8.6,14.7,14.7c4.9,7.4,8.7,15,11.4,22.7c0,0.1,0,0.2-0.1,0.2
	C187.7,75.7,187.6,75.7,187.6,75.6z"/>
<path class="st8" d="M48,46c2.7,1.1,3.8,3.3,3.3,6.5c-0.9,6.6-8,5-12.6,5.2c-0.3,0-0.4-0.1-0.4-0.4l0-21.5c0-0.3,0.2-0.5,0.5-0.5
	c3.3-0.2,10.1-0.8,11.3,2.8c1.1,3.3,0.4,5.8-2.1,7.5C47.7,45.7,47.7,45.8,48,46z M41.1,37.8l0.1,6.8c0,0.2,0.1,0.3,0.3,0.3l2.9,0
	c1.8,0,3.3-1.4,3.3-3.2l0-1.1c0-1.7-1.5-3.1-3.3-3.1l-2.9,0C41.2,37.5,41.1,37.7,41.1,37.8C41.1,37.8,41.1,37.8,41.1,37.8z
	 M41.1,47.7v7.2c0,0.2,0.2,0.4,0.4,0.4h3.2c2.1,0,3.7-1.6,3.7-3.6l0,0v-0.8c0-2-1.7-3.6-3.7-3.6l0,0h-3.2
	C41.3,47.3,41.1,47.5,41.1,47.7L41.1,47.7z"/>
<path class="st8" d="M61.7,53.5l4.4-18c0.1-0.4,0.5-0.6,0.9-0.5c0,0,0,0,0,0l1,0.3c0.6,0.2,0.9,0.7,0.8,1.3l-5.6,21
	c-0.1,0.3-0.3,0.5-0.7,0.5h-2c-0.4,0-0.6-0.2-0.7-0.6l-5.5-21c-0.2-0.7,0.1-1.1,0.7-1.3l1-0.3c0.5-0.2,0.9,0,1,0.6l4.3,18
	C61.4,54.2,61.6,54.2,61.7,53.5z"/>
<path class="st8" d="M79.4,53.5c0.2,0.7,0.3,0.7,0.5,0l4.3-17.8c0.2-0.8,0.6-1,1.4-0.7l0.8,0.3c0.5,0.2,0.7,0.6,0.6,1.2l-5.7,21
	c-0.1,0.4-0.4,0.6-0.8,0.6h-1.8c-0.4,0-0.7-0.2-0.8-0.6l-5.6-21c-0.2-0.6,0-1,0.6-1.2l1-0.4c0.4-0.2,0.9,0.1,1.1,0.5
	c0,0,0,0.1,0,0.1L79.4,53.5z"/>
<path class="st6" d="M41.1,37.8c0-0.2,0.1-0.3,0.3-0.3c0,0,0,0,0,0l2.9,0c1.8,0,3.3,1.4,3.3,3.1l0,1.1c0,1.7-1.5,3.2-3.3,3.2l-2.9,0
	c-0.2,0-0.3-0.1-0.3-0.3L41.1,37.8z"/>
<path class="st6" d="M41.1,47.7c0-0.2,0.2-0.4,0.4-0.4h0h3.2c2.1,0,3.7,1.6,3.7,3.6l0,0v0.8c0,2-1.7,3.6-3.7,3.6l0,0h-3.2
	c-0.2,0-0.4-0.2-0.4-0.4V47.7z"/>
<path class="st7" d="M192.3,105.8c-3.7-0.3-7.4-0.5-11-0.6c-1,0-2.2,0.7-3.2-0.5l0-13.3c0-0.3,0.2-0.5,0.5-0.5l13,0
	c0.4,0,0.7,0.2,0.7,0.7L192.3,105.8z"/>
<path class="st9" d="M177.8,104.9l0.1,14.2l-13.3,0c-0.2,0-0.4-0.2-0.4-0.4c0,0,0,0,0,0l0-13.2c0-0.3,0.2-0.5,0.5-0.5L177.8,104.9z"
	/>
<path class="st10" d="M178.1,104.7c0.9,1.2,2.1,0.5,3.2,0.5c3.6,0.1,7.3,0.3,11,0.6l0.1,12.8c0,0.3-0.2,0.5-0.5,0.5l0,0l-14,0
	l-0.1-14.2L178.1,104.7z"/>
<path class="st8" d="M73.8,153.7c0.5,0,0.9-0.1,1.3-0.2c0.6-0.2,0.9,0,1.1,0.6l0.1,0.4c0.1,0.5-0.1,0.8-0.6,0.9
	c-2.6,0.6-5.6,0.6-5.7-3.1c-0.1-5.4-0.1-11.9-0.1-19.5c0-0.6,0.5-1.1,1.1-1.1l0.6,0c0.5,0,0.9,0.3,0.9,0.8c0,0,0,0,0,0.1v19.8
	C72.4,153.1,73,153.7,73.8,153.7L73.8,153.7z"/>
<path class="st8" d="M125.3,140.8c2-1.7,4.5-2.2,7-1c0.9,0.5,1.4,1.2,1.4,2.3c0,4.1,0,8.3,0.1,12.6c0,0.4-0.2,0.7-0.7,0.7l-1.5,0
	c-0.3,0-0.5-0.2-0.5-0.5c0,0,0,0,0,0l0.1-11.2c0-1.9-0.9-2.6-2.8-2.1l-1.4,0.4c-1.5,0.4-2.2,1.4-2.2,3l0.1,10.3
	c0,0.1-0.1,0.2-0.2,0.2l-2.2,0c-0.2,0-0.3-0.1-0.3-0.3l0-22.4c0-0.4,0.2-0.7,0.6-0.7l1.3-0.2c0.5-0.1,0.7,0.1,0.7,0.6l0,8.2
	C124.6,141,124.8,141.1,125.3,140.8z"/>
<path class="st8" d="M43.6,151.3l4.5-18.5c0-0.1,0.1-0.2,0.2-0.1l2.5,0.3c0.1,0,0.2,0.1,0.2,0.2l-5.8,21.6c-0.1,0.5-0.4,0.7-0.9,0.7
	l-1.8,0c-0.4,0-0.7-0.2-0.8-0.6l-5.8-21.6c0-0.1,0-0.1,0.1-0.1c0.3-0.2,1.2-0.4,2.6-0.5c0.1,0,0.1,0,0.2,0.1l4.4,18.5
	C43.3,152,43.4,152,43.6,151.3z"/>
<path class="st8" d="M97.6,139.1l0-3.2c0-0.7,0.5-1.3,1.1-1.6l0.3-0.1c0.7-0.2,1.1,0,1.1,0.8l0,3.9c0,0.4,0.2,0.7,0.7,0.7h3.7
	c0.7,0,0.9,0.3,0.7,1l-0.1,0.3c-0.2,0.6-0.6,0.9-1.2,0.9l-3.1-0.1c-0.4,0-0.7,0.2-0.7,0.6l0,9.8c0,0.9,0.7,1.6,1.6,1.6
	c0.1,0,0.2,0,0.2,0c1-0.1,2-0.4,2.8-0.9c0.4-0.2,0.7-0.1,0.8,0.4l0.2,0.9c0.1,0.5-0.2,0.9-0.6,1.1c-3.5,1.3-7.7,1.3-7.6-3.8
	c0-3.2,0.1-6.3,0.1-9.2c0-0.3-0.2-0.5-0.5-0.5c0,0,0,0-0.1,0l-1.5,0.2c-0.4,0.1-0.6-0.1-0.7-0.5c-0.1-0.4-0.1-0.8,0-1.2
	c0.1-0.5,0.5-0.7,1-0.6l1,0.2C97.3,139.8,97.6,139.6,97.6,139.1z"/>
<path class="st8" d="M55,148.7c0.5,3.3,2.6,5.9,6.3,4.5c0.6-0.3,1.3-0.5,2-0.8c0.3-0.1,0.7,0,0.8,0.3c0,0,0,0.1,0,0.1l0.1,0.4
	c0.1,0.6-0.1,1.1-0.7,1.4c-3.7,1.9-8.8,1.3-10.4-3c-0.8-2.2-1-4.5-0.5-7c0.7-3.6,4-6.4,7.7-5.3c3.9,1.1,4.4,4.7,4.4,8.2
	c0,0.4-0.2,0.7-0.7,0.7l-8.5,0C55.1,148.1,54.9,148.3,55,148.7z M55.4,145.9h6.2c0.2,0,0.4-0.2,0.4-0.4c0,0,0,0,0,0v-0.2
	c0-2.2-1.5-4.1-3.4-4.1h-0.2c-1.9,0-3.4,1.8-3.4,4.1v0.2C55,145.7,55.2,145.9,55.4,145.9C55.4,145.9,55.4,145.9,55.4,145.9z"/>
<path class="st8" d="M82.2,148c-0.7,0-0.9,0.3-0.8,1c0.2,1.2,0.7,2.2,1.3,3c0.9,1.1,2.1,1.6,3.5,1.5c1.1-0.1,2.2-0.5,3.2-1.1
	c0.3-0.2,0.6-0.1,0.8,0.1c0.3,0.3,0.5,0.7,0.4,1.1c0,0.7-0.4,1.1-1,1.3c-8.1,2.7-11.9-2.5-10.7-9.7c0.5-3.4,3.1-6.4,6.9-6.1
	c4.6,0.4,5.7,4.8,5.4,8.6c0,0.3-0.2,0.4-0.5,0.4L82.2,148z M81.8,145.9l6.5,0c0.1,0,0.3-0.1,0.3-0.3l0,0v-0.2c0-2.3-1.5-4.2-3.4-4.2
	c0,0,0,0,0,0H85c-1.9,0-3.5,1.9-3.5,4.2v0.2C81.5,145.7,81.6,145.9,81.8,145.9z"/>
<path class="st8" d="M112.3,141.2c0,0.2,0.2,0.3,0.4,0.2c0.1,0,0.1,0,0.2-0.1l2.2-2.1c0.3-0.3,0.8-0.4,1.3-0.2
	c1.4,0.5,1.9,0.9,1.8,1.3c-0.4,0.9-1,1.3-1.9,1.3c-1.8,0.1-3.3,1.7-3.3,3.5c0,3.2,0,6.3,0.1,9.3c0,0.4-0.2,0.7-0.6,0.7l-1.5,0.2
	c-0.5,0.1-0.7-0.2-0.7-0.6c0.1-3.5,0.1-7,0.1-10.5c0-1.3-0.4-2.3-0.8-3.6c-0.1-0.4,0-0.8,0.4-0.9l1-0.5c0.6-0.3,0.9-0.1,1,0.5
	L112.3,141.2z"/>
<path class="st8" d="M145.2,153.2l3.4-13.2c0.2-0.8,0.6-1,1.3-0.6l0.6,0.3c0.5,0.2,0.7,0.8,0.6,1.3c-1.8,6.2-3.5,11.9-5.1,17.2
	c-1.4,4.3-4.8,4.9-8.4,2.8c-0.4-0.2-0.5-0.6-0.2-1l0.6-1c0.2-0.3,0.5-0.4,0.8-0.2c0,0,0.1,0.1,0.1,0.1c0.6,0.6,1.3,0.9,2.2,0.9
	c2.1-0.1,2.7-2.1,3.1-3.8c0.1-0.3,0-0.5-0.4-0.6c-0.5-0.2-0.9-0.6-1.1-1.2c-1.6-4.5-3.3-8.9-4.9-13.3c-0.2-0.5,0-0.9,0.5-1.2
	l0.9-0.4c0.6-0.3,0.9-0.1,1.1,0.5l4.4,13.4C144.9,153.7,145.1,153.7,145.2,153.2z"/>
<path class="st6" d="M55.4,145.9c-0.2,0-0.4-0.2-0.4-0.4l0,0v-0.2c0-2.2,1.5-4.1,3.4-4.1h0.2c1.9,0,3.4,1.8,3.4,4.1v0.2
	c0,0.2-0.2,0.4-0.4,0.4c0,0,0,0,0,0H55.4z"/>
<path class="st6" d="M81.8,145.9c-0.1,0-0.3-0.1-0.3-0.3v-0.2c0-2.3,1.6-4.2,3.5-4.2h0.1c1.9,0,3.5,1.9,3.5,4.2c0,0,0,0,0,0v0.2
	c0,0.1-0.1,0.3-0.3,0.3l0,0L81.8,145.9z"/>
<path class="st8" d="M48.2,177.6c2.4,1,3.5,3,3.1,5.9c-0.8,6.7-7.6,5.5-12.4,5.6c-0.5,0-0.7-0.2-0.7-0.7l0-21.3
	c0-0.4,0.2-0.6,0.6-0.6c2.9-0.1,5.5,0,8,0.2c4.5,0.4,5,8,1.6,9.8c-0.1,0.1-0.2,0.1-0.3,0.2C47.7,177.1,47.7,177.4,48.2,177.6z
	 M41.1,169.4l0,6.5c0,0.2,0.2,0.4,0.4,0.4l3.1,0c1.7,0,3.1-1.4,3.1-3c0,0,0,0,0,0v-1.3c0-1.7-1.4-3.1-3-3.1c0,0,0,0,0,0l-3.1,0
	C41.3,169,41.1,169.2,41.1,169.4z M41.1,179l0,7.3c0,0.2,0.2,0.3,0.3,0.3l3.2,0c2.1,0,3.8-1.6,3.8-3.5c0,0,0,0,0,0v-0.9
	c0-2-1.7-3.6-3.8-3.6l-3.2,0C41.3,178.7,41.1,178.9,41.1,179z"/>
<path class="st6" d="M41.1,169.4c0-0.2,0.2-0.4,0.4-0.4l3.1,0c1.7,0,3.1,1.4,3,3.1c0,0,0,0,0,0v1.3c0,1.7-1.4,3.1-3.1,3.1
	c0,0,0,0,0,0l-3.1,0c-0.2,0-0.4-0.2-0.4-0.4L41.1,169.4z"/>
<path class="st8" d="M58.7,174.4c0.2,1,0.5,1.1,1.2,0.3c1.3-1.7,2.8-2.2,4.3-1.7c0.4,0.1,0.5,0.4,0.4,0.8l-0.4,1.2
	c-0.1,0.4-0.4,0.5-0.7,0.4c-2.2-0.4-4.1,1.7-4,3.9c0.1,3.2,0.1,6.2,0,9.2c0,0.4-0.2,0.6-0.6,0.6l-1.5,0c-0.3,0-0.5-0.1-0.5-0.4
	c0.1-4.4,0-8.4-0.1-12c0-0.7-0.2-1.3-0.6-1.9c-0.2-0.4-0.1-0.8,0.2-1.1l0.8-0.7c0.4-0.3,0.7-0.3,1,0.1
	C58.4,173.5,58.6,173.9,58.7,174.4z"/>
<path class="st8" d="M70.8,174.1c0,0.8,0.3,1,0.9,0.4c2.8-2.5,8.6-2.9,8.6,2.3c0,3.9,0,7.8,0,11.7c0,0.3-0.2,0.5-0.5,0.5l-1.8,0
	c-0.2,0-0.3-0.1-0.3-0.3l0-11.6c0-1.7-0.8-2.4-2.5-2.1l-1.5,0.3c-1.6,0.3-2.3,1.3-2.3,2.9v10.2c0,0.4-0.2,0.6-0.6,0.6l-1.4,0
	c-0.5,0-0.7-0.3-0.7-0.7c0.3-4.8,0.2-9.5-0.2-14.3c-0.1-0.6,0.4-1.2,1-1.2c0.2,0,0.4,0,0.6,0.1C70.6,173.2,70.8,173.6,70.8,174.1z"
	/>
<path class="st8" d="M98.2,183.6c-0.1,3.2-2.8,5.8-6,5.7l-1,0c-3.2-0.1-5.8-2.8-5.7-6l0.1-4.7c0.1-3.2,2.8-5.8,6-5.7l1,0
	c3.2,0.1,5.8,2.8,5.7,6L98.2,183.6z M91.9,187.5c2.2,0,4-2.8,4-6.4c0-3.5-1.7-6.4-3.9-6.4c-2.2,0-4,2.8-4,6.4v0
	C88,184.7,89.7,187.5,91.9,187.5z"/>
<ellipse transform="matrix(5.236017e-03 -1 1 5.236017e-03 -89.6989 272.1502)" class="st6" cx="91.9" cy="181.2" rx="6.4" ry="3.9"/>
<path class="st6" d="M41.1,179c0-0.2,0.2-0.3,0.3-0.3l3.2,0c2.1,0,3.8,1.6,3.8,3.6v0.9c0,2-1.7,3.6-3.8,3.6c0,0,0,0,0,0l-3.2,0
	c-0.2,0-0.3-0.2-0.3-0.3L41.1,179z"/>
</svg>
