<?xml version="1.0" encoding="UTF-8" standalone="no" ?>
<!DOCTYPE svg PUBLIC "-//W3C//DTD SVG 1.1//EN" "http://www.w3.org/Graphics/SVG/1.1/DTD/svg11.dtd">
<svg xmlns="http://www.w3.org/2000/svg" xmlns:xlink="http://www.w3.org/1999/xlink" version="1.1" width="1080" height="1080" viewBox="0 0 1080 1080" xml:space="preserve">
<desc>Created with Fabric.js 5.2.4</desc>
<defs>
</defs>
<g transform="matrix(1 0 0 1 540 540)" id="5fe652f9-3ced-4d52-b949-7bc7db6164ff"  >
<rect style="stroke: none; stroke-width: 1; stroke-dasharray: none; stroke-linecap: butt; stroke-dashoffset: 0; stroke-linejoin: miter; stroke-miterlimit: 4; fill: rgb(255,255,255); fill-rule: nonzero; opacity: 1; visibility: hidden;" vector-effect="non-scaling-stroke"  x="-540" y="-540" rx="0" ry="0" width="1080" height="1080" />
</g>
<g transform="matrix(1 0 0 1 540 540)" id="92bbfdb4-58ea-46fe-b161-3cc67be1ccd2"  >
</g>
<g transform="matrix(54 0 0 54 540 540)"  >
<path style="stroke: none; stroke-width: 1; stroke-dasharray: none; stroke-linecap: butt; stroke-dashoffset: 0; stroke-linejoin: miter; stroke-miterlimit: 4; fill: rgb(163,0,5); fill-rule: evenodd; opacity: 1;"  transform=" translate(-10, -10)" d="M 4 4 C 2.895430500338413 4 2 4.8954305003384135 2 6 L 2 10 C 2 11.104569499661586 2.895430500338413 12 4 12 L 4 6 L 14 6 C 14 4.8954305003384135 13.104569499661586 4 12 4 L 4 4 z M 6 10 C 6 8.895430500338414 6.8954305003384135 8 8 8 L 16 8 C 17.104569499661586 8 18 8.895430500338414 18 10 L 18 14 C 18 15.104569499661586 17.104569499661586 16 16 16 L 8 16 C 6.8954305003384135 16 6 15.104569499661586 6 14 L 6 10 z M 12 14 C 13.104569499661586 14 14 13.104569499661586 14 12 C 14 10.895430500338414 13.104569499661586 10 12 10 C 10.895430500338414 10 10 10.895430500338414 10 12 C 10 13.104569499661586 10.895430500338414 14 12 14 z" stroke-linecap="round" />
</g>
<g transform="matrix(NaN NaN NaN NaN 0 0)"  >
<g style=""   >
</g>
</g>
</svg>