<?xml version="1.0" encoding="UTF-8" standalone="no"?>
<!DOCTYPE svg PUBLIC "-//W3C//DTD SVG 1.1//EN" "http://www.w3.org/Graphics/SVG/1.1/DTD/svg11.dtd">
<svg xmlns="http://www.w3.org/2000/svg" version="1.1" viewBox="0.00 0.00 2226.00 497.00">
<g stroke-width="2.00" fill="none" stroke-linecap="butt">
<path stroke="#8e80c8" vector-effect="non-scaling-stroke" d="
  M 169.43 248.15
  L 247.87 169.71
  A 0.64 0.64 0.0 0 0 247.87 168.80
  L 209.26 130.19
  A 56.82 56.11 45.0 0 0 129.41 129.69
  L 129.41 129.69
  A 56.82 56.11 45.0 0 0 129.91 209.54
  L 168.52 248.15
  A 0.64 0.64 0.0 0 0 169.43 248.15"
/>
<path stroke="#8e80c8" vector-effect="non-scaling-stroke" d="
  M 289.26 210.22
  C 301.47 222.34 319.79 227.34 336.63 224.66
  C 372.86 218.92 393.62 179.87 378.67 146.49
  C 364.40 114.62 325.06 103.64 296.20 122.96
  Q 290.93 126.49 281.49 136.08
  Q 266.45 151.35 248.84 168.69
  A 0.71 0.71 0.0 0 0 248.83 169.70
  Q 267.98 189.12 289.26 210.22"
/>
<path stroke="#8e80c8" vector-effect="non-scaling-stroke" d="
  M 272.59 248.49
  A 24.12 24.12 0.0 0 0 248.47 224.37
  A 24.12 24.12 0.0 0 0 224.35 248.49
  A 24.12 24.12 0.0 0 0 248.47 272.61
  A 24.12 24.12 0.0 0 0 272.59 248.49"
/>
<path stroke="#8e80c8" vector-effect="non-scaling-stroke" d="
  M 247.91 327.28
  L 169.34 248.99
  A 0.65 0.65 0.0 0 0 168.42 248.99
  L 129.62 287.93
  A 56.46 55.85 -45.1 0 0 129.33 367.34
  L 129.70 367.71
  A 56.46 55.85 -45.1 0 0 209.11 367.14
  L 247.91 328.20
  A 0.65 0.65 0.0 0 0 247.91 327.28"
/>
<path stroke="#8e80c8" vector-effect="non-scaling-stroke" d="
  M 248.58 328.09
  Q 266.21 345.55 282.33 362.00
  Q 291.43 371.29 297.44 375.08
  C 326.37 393.31 364.94 382.08 378.87 350.31
  C 390.52 323.75 379.90 293.05 354.98 278.97
  C 339.45 270.20 319.84 269.24 303.58 277.19
  Q 294.59 281.59 289.17 286.96
  Q 269.37 306.59 248.58 327.37
  Q 248.22 327.73 248.58 328.09"
/>
</g>
<path fill="#1d0090" d="
  M 239.79 0.00
  L 256.65 0.00
  C 329.89 2.83 397.88 36.85 442.91 93.79
  Q 495.21 159.92 497.01 245.65
  Q 497.22 255.44 496.40 266.13
  Q 492.55 316.56 470.75 359.62
  Q 449.99 400.60 418.39 429.90
  Q 350.89 492.49 257.11 497.00
  L 243.14 497.00
  Q 193.48 495.76 149.74 476.60
  Q 104.81 456.93 72.12 423.64
  Q 4.72 354.97 0.00 256.96
  L 0.00 239.74
  Q 4.25 149.54 62.90 83.15
  C 107.43 32.73 171.76 2.78 239.79 0.00
  Z
  M 169.43 248.15
  L 247.87 169.71
  A 0.64 0.64 0.0 0 0 247.87 168.80
  L 209.26 130.19
  A 56.82 56.11 45.0 0 0 129.41 129.69
  L 129.41 129.69
  A 56.82 56.11 45.0 0 0 129.91 209.54
  L 168.52 248.15
  A 0.64 0.64 0.0 0 0 169.43 248.15
  Z
  M 289.26 210.22
  C 301.47 222.34 319.79 227.34 336.63 224.66
  C 372.86 218.92 393.62 179.87 378.67 146.49
  C 364.40 114.62 325.06 103.64 296.20 122.96
  Q 290.93 126.49 281.49 136.08
  Q 266.45 151.35 248.84 168.69
  A 0.71 0.71 0.0 0 0 248.83 169.70
  Q 267.98 189.12 289.26 210.22
  Z
  M 272.59 248.49
  A 24.12 24.12 0.0 0 0 248.47 224.37
  A 24.12 24.12 0.0 0 0 224.35 248.49
  A 24.12 24.12 0.0 0 0 248.47 272.61
  A 24.12 24.12 0.0 0 0 272.59 248.49
  Z
  M 247.91 327.28
  L 169.34 248.99
  A 0.65 0.65 0.0 0 0 168.42 248.99
  L 129.62 287.93
  A 56.46 55.85 -45.1 0 0 129.33 367.34
  L 129.70 367.71
  A 56.46 55.85 -45.1 0 0 209.11 367.14
  L 247.91 328.20
  A 0.65 0.65 0.0 0 0 247.91 327.28
  Z
  M 248.58 328.09
  Q 266.21 345.55 282.33 362.00
  Q 291.43 371.29 297.44 375.08
  C 326.37 393.31 364.94 382.08 378.87 350.31
  C 390.52 323.75 379.90 293.05 354.98 278.97
  C 339.45 270.20 319.84 269.24 303.58 277.19
  Q 294.59 281.59 289.17 286.96
  Q 269.37 306.59 248.58 327.37
  Q 248.22 327.73 248.58 328.09
  Z"
/>
<circle fill="#1d0090" cx="872.29" cy="86.37" r="33.19"/>
<path fill="#1d0090" d="
  M 1586.50 53.74
  L 1586.50 351.62
  A 0.37 0.37 0.0 0 1 1586.13 351.99
  L 1535.50 351.99
  A 0.37 0.37 0.0 0 1 1535.13 351.62
  L 1535.13 53.73
  A 0.37 0.37 0.0 0 1 1535.50 53.36
  L 1586.13 53.37
  A 0.37 0.37 0.0 0 1 1586.50 53.74
  Z"
/>
<path fill="#ffffff" d="
  M 169.43 248.15
  A 0.64 0.64 0.0 0 1 168.52 248.15
  L 129.91 209.54
  A 56.82 56.11 45.0 0 1 129.41 129.69
  L 129.41 129.69
  A 56.82 56.11 45.0 0 1 209.26 130.19
  L 247.87 168.80
  A 0.64 0.64 0.0 0 1 247.87 169.71
  L 169.43 248.15
  Z"
/>
<path fill="#ffffff" d="
  M 336.63 224.66
  C 319.79 227.34 301.47 222.34 289.26 210.22
  Q 267.98 189.12 248.83 169.70
  A 0.71 0.71 0.0 0 1 248.84 168.69
  Q 266.45 151.35 281.49 136.08
  Q 290.93 126.49 296.20 122.96
  C 325.06 103.64 364.40 114.62 378.67 146.49
  C 393.62 179.87 372.86 218.92 336.63 224.66
  Z"
/>
<path fill="#1d0090" d="
  M 818.70 177.41
  L 782.82 205.45
  Q 782.38 205.79 781.96 205.42
  Q 756.86 183.23 722.96 190.55
  C 700.63 195.37 683.89 212.31 679.02 234.73
  C 676.16 247.88 677.51 262.60 683.31 275.04
  C 700.62 312.15 753.03 318.87 781.87 291.38
  A 0.60 0.59 -47.7 0 1 782.66 291.34
  L 818.83 319.61
  A 0.44 0.44 0.0 0 1 818.89 320.25
  Q 796.33 345.62 763.77 353.13
  C 729.90 360.94 692.52 352.73 665.51 331.69
  C 634.37 307.44 621.36 269.31 627.20 230.64
  C 635.83 173.42 687.74 138.89 743.25 141.10
  Q 788.15 142.89 818.78 176.42
  A 0.67 0.67 0.0 0 1 818.70 177.41
  Z"
/>
<path fill="#1d0090" d="
  M 991.77 174.68
  Q 992.88 172.72 993.91 170.74
  Q 997.73 163.48 1003.21 157.38
  C 1012.54 146.98 1024.67 142.42 1038.79 141.37
  Q 1053.97 140.25 1066.79 142.39
  Q 1067.12 142.44 1067.12 142.78
  L 1067.12 192.98
  Q 1067.12 193.57 1066.57 193.37
  Q 1055.11 189.08 1043.75 189.18
  Q 1016.95 189.41 1003.57 211.86
  C 995.19 225.92 991.93 244.69 991.84 260.13
  Q 991.63 295.46 991.78 351.51
  A 0.48 0.48 0.0 0 1 991.30 352.00
  L 940.50 351.99
  A 0.50 0.49 0.0 0 1 940.00 351.50
  L 940.00 145.81
  A 0.44 0.44 0.0 0 1 940.44 145.37
  L 990.61 145.38
  A 0.63 0.63 0.0 0 1 991.24 146.01
  L 991.25 174.55
  Q 991.25 175.60 991.77 174.68
  Z"
/>
<path fill="#1d0090" d="
  M 1177.30 190.23
  C 1141.21 197.63 1123.02 232.91 1133.25 267.21
  C 1146.18 310.56 1203.63 321.09 1234.70 291.40
  A 0.68 0.67 42.2 0 1 1235.58 291.36
  L 1271.67 319.55
  A 0.54 0.54 0.0 0 1 1271.74 320.34
  Q 1243.62 351.56 1202.18 355.39
  C 1144.96 360.67 1089.94 326.13 1080.25 267.11
  C 1073.53 226.19 1088.72 185.59 1123.12 161.70
  C 1149.65 143.27 1184.81 136.39 1216.75 143.78
  Q 1249.29 151.32 1271.69 176.55
  Q 1272.11 177.01 1271.62 177.39
  L 1235.55 205.55
  A 0.70 0.69 48.5 0 1 1234.62 205.49
  C 1220.02 190.73 1197.31 186.13 1177.30 190.23
  Z"
/>
<path fill="#1d0090" d="
  M 1789.67 171.96
  L 1789.68 145.69
  A 0.38 0.37 -90.0 0 1 1790.05 145.31
  L 1840.45 145.34
  A 0.61 0.60 90.0 0 1 1841.05 145.95
  L 1840.95 351.50
  A 0.46 0.45 -89.3 0 1 1840.50 351.95
  L 1790.00 351.94
  Q 1789.57 351.94 1789.57 351.51
  L 1789.59 325.28
  Q 1789.59 324.32 1789.07 325.12
  C 1780.83 337.57 1767.36 346.12 1753.28 350.93
  C 1724.25 360.84 1692.90 356.90 1667.25 341.23
  C 1625.70 315.85 1612.24 263.96 1622.92 218.81
  C 1632.08 180.08 1661.17 150.81 1700.40 142.91
  C 1731.41 136.65 1770.14 144.67 1789.16 172.12
  Q 1789.67 172.85 1789.67 171.96
  Z
  M 1678.70 278.35
  C 1699.98 317.10 1752.76 317.48 1778.04 283.08
  C 1794.50 260.68 1791.79 226.67 1772.29 206.86
  C 1752.39 186.65 1721.29 182.74 1697.39 198.07
  C 1670.76 215.15 1664.03 251.64 1678.70 278.35
  Z"
/>
<path fill="#1d0090" d="
  M 1928.62 174.46
  Q 1928.62 175.95 1929.26 174.60
  C 1937.18 157.85 1949.40 145.46 1968.33 142.39
  Q 1985.96 139.53 2003.80 142.33
  Q 2004.37 142.42 2004.37 143.00
  L 2004.38 192.91
  Q 2004.38 193.61 2003.72 193.36
  C 1990.26 188.11 1973.78 187.31 1960.39 193.55
  C 1935.51 205.14 1929.09 238.30 1929.05 263.08
  Q 1928.96 308.48 1928.98 351.25
  A 0.73 0.73 0.0 0 1 1928.25 351.98
  L 1877.76 352.00
  Q 1877.26 352.00 1877.26 351.50
  L 1877.26 145.58
  A 0.21 0.20 90.0 0 1 1877.46 145.37
  L 1928.24 145.38
  A 0.39 0.39 0.0 0 1 1928.63 145.77
  L 1928.62 174.46
  Z"
/>
<path fill="#1d0090" d="
  M 2226.00 245.75
  L 2226.00 250.71
  Q 2225.65 254.32 2225.38 257.95
  C 2222.92 290.61 2207.04 318.26 2180.63 336.64
  C 2145.33 361.21 2096.65 362.63 2059.25 341.80
  C 2037.01 329.41 2019.86 309.10 2011.77 284.72
  C 2001.01 252.31 2004.91 213.54 2025.45 185.26
  Q 2042.43 161.87 2069.23 150.32
  C 2110.90 132.37 2163.71 139.89 2196.02 173.13
  Q 2224.54 202.47 2226.00 245.75
  Z
  M 2135.91 192.05
  C 2102.72 180.60 2067.03 198.77 2059.36 233.83
  Q 2055.38 252.01 2060.90 269.17
  C 2070.98 300.53 2104.36 315.40 2134.77 305.56
  C 2186.82 288.72 2187.19 209.73 2135.91 192.05
  Z"
/>
<rect fill="#1d0090" x="846.62" y="145.37" width="51.26" height="206.62" rx="0.27"/>
<path fill="#1d0090" d="
  M 1445.51 320.70
  Q 1445.51 319.96 1445.20 320.62
  C 1439.88 331.85 1431.54 340.00 1420.69 346.07
  Q 1393.53 361.26 1362.17 355.17
  Q 1321.67 347.31 1306.46 308.31
  C 1300.72 293.62 1298.62 276.79 1298.62 259.90
  Q 1298.62 202.39 1298.63 145.99
  Q 1298.63 145.38 1299.24 145.38
  L 1349.31 145.38
  Q 1349.99 145.38 1349.99 146.06
  Q 1350.03 210.25 1350.00 257.50
  C 1349.99 275.78 1357.15 293.32 1373.53 301.94
  C 1383.14 307.00 1394.70 307.38 1405.53 305.17
  C 1427.42 300.69 1441.60 285.90 1444.84 263.78
  Q 1445.59 258.69 1445.57 249.32
  Q 1445.46 199.51 1445.53 145.71
  A 0.33 0.33 0.0 0 1 1445.86 145.38
  L 1496.37 145.38
  A 0.38 0.37 -0.0 0 1 1496.75 145.75
  L 1496.75 351.75
  A 0.25 0.24 -0.0 0 1 1496.50 351.99
  L 1446.00 352.00
  Q 1445.51 352.00 1445.51 351.50
  L 1445.51 320.70
  Z"
/>
<circle fill="#ffffff" cx="248.47" cy="248.49" r="24.12"/>
<path fill="#ffffff" d="
  M 247.91 327.28
  A 0.65 0.65 0.0 0 1 247.91 328.20
  L 209.11 367.14
  A 56.46 55.85 -45.1 0 1 129.70 367.71
  L 129.33 367.34
  A 56.46 55.85 -45.1 0 1 129.62 287.93
  L 168.42 248.99
  A 0.65 0.65 0.0 0 1 169.34 248.99
  L 247.91 327.28
  Z"
/>
<path fill="#ffffff" d="
  M 248.58 328.09
  Q 248.22 327.73 248.58 327.37
  Q 269.37 306.59 289.17 286.96
  Q 294.59 281.59 303.58 277.19
  C 319.84 269.24 339.45 270.20 354.98 278.97
  C 379.90 293.05 390.52 323.75 378.87 350.31
  C 364.94 382.08 326.37 393.31 297.44 375.08
  Q 291.43 371.29 282.33 362.00
  Q 266.21 345.55 248.58 328.09
  Z"
/>
</svg>
