<?xml version="1.0" encoding="utf-8"?>
<!-- Generator: Adobe Illustrator 28.1.0, SVG Export Plug-In . SVG Version: 6.00 Build 0)  -->
<svg version="1.1" id="Layer_1" xmlns="http://www.w3.org/2000/svg" xmlns:xlink="http://www.w3.org/1999/xlink" x="0px" y="0px"
	 viewBox="0 0 200 67" style="enable-background:new 0 0 200 67;" xml:space="preserve">
<style type="text/css">
	.st0{fill:#FFFFFF;}
	.st1{fill:#00949E;}
	.st2{fill:#0F1211;}
	.st3{fill:#1E2021;}
</style>
<path class="st0" d="M64,33.8C64,16.7,50.1,2.8,33,2.8C15.8,2.8,1.9,16.7,1.9,33.8c0,0,0,0,0,0C1.9,51,15.8,64.9,33,64.9l0,0
	C50.1,64.9,64,51,64,33.8L64,33.8z M120.9,11c0-1.3-1-2.3-2.3-2.3c0,0,0,0,0,0c-1.3,0-2.3,1-2.3,2.3s1,2.3,2.3,2.3
	C119.9,13.3,120.9,12.3,120.9,11C120.9,11,120.9,11,120.9,11z M113.7,9.5c0-0.2-0.1-0.3-0.3-0.3l0,0h-3.3c-0.2,0-0.3,0.1-0.3,0.3
	c0,0,0,0,0,0v18.9c0,0.2,0.1,0.3,0.3,0.3c0,0,0,0,0,0h3.3c0.2,0,0.3-0.1,0.3-0.3c0,0,0,0,0,0V9.5z M149.1,15.8
	c-10-5.2-13.3,10.4-5.5,12.9c2,0.6,3.9,0.3,5.6-1c0.2-0.1,0.4-0.1,0.5,0c0,0,0,0,0,0.1l0.2,0.3c0.2,0.4,0.6,0.6,1.1,0.6l2.4,0.1
	c0.4,0,0.6-0.2,0.6-0.6l0-18.4c0-0.4-0.2-0.6-0.6-0.6l-2.8,0.1c-0.4,0-0.6,0.2-0.6,0.6l0,5.5C149.9,15.9,149.7,16.1,149.1,15.8z
	 M80.7,24.3c-3.8-3.2-2.5-11.3,3.4-10.4c1.1,0.2,2,0.8,2.7,2c0.3,0.5,0.7,0.8,1.2,0.9c1,0.2,2,0.3,3.1,0.2c0.8-0.1,1-0.5,0.7-1.2
	c-2.9-7-12.2-7.9-16.3-1.7c-3.8,5.7-0.7,13.7,6.4,14.8c3.9,0.6,9.2-1.7,9.9-6.1c0.1-0.3-0.1-0.5-0.4-0.6c-2.3-0.5-4-0.1-5,1.4
	C85.1,25.3,82.4,25.7,80.7,24.3z M127.8,15.6c-1.1-0.6-2.4-0.8-3.8-0.6c-0.3,0-0.4,0.2-0.4,0.5l0,12.8c0,0.3,0.1,0.4,0.4,0.4l3.2,0
	c0.2,0,0.4-0.1,0.4-0.4l0-7.3c0-1.8,0.9-2.8,2.6-3.1c0.3-0.1,0.7,0,1,0.1c1.3,0.5,1.9,1.4,1.9,2.8l0,7.6c0,0.1,0.1,0.2,0.2,0.2
	l3.5,0c0.2,0,0.3-0.1,0.3-0.3c-0.1-2.4-0.1-4.9,0-7.4c0.1-5-3.9-7.6-8.4-5.3C128.4,15.7,128.1,15.7,127.8,15.6z M161.4,23l7.4,0.1
	c2.1,0,2.7-0.9,1.9-2.9c-0.3-0.6-0.5-1.2-0.8-1.8c-0.8-1.9-2.5-3.2-4.6-3.5c-4-0.6-6.7,0.6-8.1,3.5c-4.7,9.4,9.3,15,13.1,6.3
	c0.1-0.2,0-0.4-0.2-0.5c-0.1,0-0.1,0-0.2,0l-2.9,0.1c-0.4,0-0.7,0.1-1,0.4c-1.9,1.8-3.7,1.7-5.3-0.4C160.1,23.4,160.3,23,161.4,23z
	 M177.6,15.7c-1-0.7-2.3-1-3.8-0.7c-0.3,0.1-0.5,0.3-0.5,0.6l0,12.6c0,0.2,0.2,0.5,0.4,0.5h0l3.2,0c0.2,0,0.3-0.1,0.3-0.3
	c0-2.1,0-4.2-0.1-6.3c-0.1-2.8,1.3-3.9,4-3.5c0.4,0.1,0.6-0.1,0.6-0.5v-2.8c0-0.4-0.2-0.6-0.6-0.6c-1.2,0-2.2,0.4-3.1,1
	C177.9,15.8,177.7,15.8,177.6,15.7z M187.5,18c1.4-0.7,2.7-0.4,3.8,0.7c0.3,0.3,0.6,0.4,1,0.5l2.4,0.1c0.4,0,0.6-0.2,0.5-0.6
	c-1.4-5.8-11.9-5.3-12,0.6c0,3.8,5.2,3.9,7.7,4.5c0.5,0.1,0.8,0.6,0.7,1.1c-0.1,0.3-0.2,0.5-0.5,0.6c-1.6,0.9-2.9,0.6-4-0.7
	c-0.3-0.3-0.7-0.5-1.1-0.5l-2,0c-0.9,0-1.2,0.4-0.8,1.3c2.5,5.9,15.1,3.9,11.8-3.3c-0.2-0.4-0.6-0.8-1-1c-1.7-0.7-3.6-1.1-5.6-1.4
	c-0.7-0.1-1.1-0.4-1.2-1.1C187,18.5,187.1,18.2,187.5,18z M101,23.8c-0.1,0.2-0.3,0.3-0.4,0.2c-0.1,0-0.2-0.1-0.2-0.2l-2.8-8.6
	c0-0.1-0.2-0.2-0.3-0.2L93.4,15c-0.2,0-0.3,0.1-0.3,0.3c0,0,0,0.1,0,0.1L98.5,29c0,0.1,0,0.2,0,0.3l-1.8,4.3c-0.1,0.2,0,0.4,0.2,0.4
	c0,0,0.1,0,0.1,0l3.5,0c0.1,0,0.3-0.1,0.3-0.2l7.3-18.3c0.1-0.2,0-0.4-0.2-0.4c0,0-0.1,0-0.1,0l-3.5,0.1c-0.1,0-0.3,0.1-0.3,0.2
	L101,23.8z M120.6,15.3c0-0.2-0.1-0.3-0.3-0.3c0,0,0,0,0,0H117c-0.2,0-0.3,0.1-0.3,0.3v13c0,0.2,0.1,0.3,0.3,0.3h3.3
	c0.2,0,0.3-0.1,0.3-0.3c0,0,0,0,0,0V15.3z M139.7,38.3c0-1.3-1-2.3-2.3-2.3l0,0c-1.3,0-2.3,1-2.3,2.3s1,2.3,2.3,2.3
	S139.7,39.6,139.7,38.3C139.7,38.3,139.7,38.3,139.7,38.3z M115.5,36.7c0-0.1-0.1-0.3-0.3-0.3c0,0,0,0,0,0h-3.4
	c-0.1,0-0.3,0.1-0.3,0.3v19c0,0.1,0.1,0.3,0.3,0.3h3.4c0.1,0,0.3-0.1,0.3-0.3v0V36.7z M128,43.3c-4.5-2.5-7.7-1.5-9.6,3.2
	c-0.6,1.5-0.6,3.4,0.1,5.6c1.3,4.2,6.1,5.4,9.5,2.7c0.5-0.4,0.7-0.3,0.5,0.3c-0.1,0.6,0.1,0.9,0.8,0.9c0.8,0,1.6,0,2.4,0.1
	c0.5,0,0.8-0.2,0.8-0.7l0-18.3c0-0.4-0.2-0.6-0.6-0.6l-2.9,0c-0.3,0-0.4,0.1-0.4,0.4l0.1,6.1C128.5,43.4,128.4,43.5,128,43.3z
	 M79.8,44.9c-0.2,0-0.4-0.2-0.4-0.4l0,0l0.1-6.7c0-0.2-0.2-0.4-0.4-0.4l0,0h-3.7c-0.2,0-0.4,0.2-0.4,0.4l0,0l0,17.7
	c0,0.2,0.2,0.4,0.4,0.4h3.7c0.2,0,0.4-0.2,0.4-0.4l-0.1-6.7c0-0.2,0.2-0.4,0.4-0.4l7.5,0c0.2,0,0.4,0.2,0.4,0.4l0,0l-0.1,6.7
	c0,0.2,0.2,0.4,0.4,0.4h3.7c0.2,0,0.4-0.2,0.4-0.4V37.9c0-0.2-0.2-0.4-0.4-0.4l0,0h-3.7c-0.2,0-0.4,0.2-0.4,0.4l0,0l0.1,6.7
	c0,0.2-0.2,0.4-0.4,0.4l0,0H79.8z M109.2,49.2c0.1-4-3.2-7.2-7.3-7.3c0,0,0,0,0,0c-4.1-0.1-7.5,3.1-7.5,7.1c-0.1,4,3.2,7.2,7.3,7.3
	c0,0,0,0,0,0C105.7,56.3,109.1,53.1,109.2,49.2z M139.4,42.5c0-0.2-0.2-0.4-0.4-0.4c0,0,0,0,0,0h-3.3c-0.2,0-0.4,0.2-0.4,0.4v13.1
	c0,0.2,0.2,0.4,0.4,0.4h3.3c0.2,0,0.4-0.2,0.4-0.4c0,0,0,0,0,0V42.5z M146.4,43.1c0-0.1,0-0.2-0.1-0.4c-0.2-0.4-0.5-0.5-0.9-0.5
	l-2.4,0c-0.4,0-0.7,0.2-0.7,0.7v12.7c0,0.3,0.2,0.5,0.5,0.5l0,0l3.1,0c0.3,0,0.4-0.1,0.4-0.4l0-7.1c0-1.7,0.8-2.8,2.5-3.2
	c0.3-0.1,0.7-0.1,1,0.1c1.4,0.6,2.1,1.7,2.1,3.2l0,7c0,0.2,0.1,0.4,0.4,0.4l3.3,0c0.2,0,0.4-0.2,0.4-0.4c0,0,0,0,0,0
	c-0.2-3.2,0.8-9.3-1.3-11.8c-2-2.4-5.3-2.4-7.9-0.5C146.4,43.5,146.3,43.4,146.4,43.1z M168.4,56.3c-0.2,0.8-0.7,1.3-1.4,1.6
	c-1.7,0.7-3.1,0.3-4.1-1.2c-0.2-0.3-0.4-0.4-0.8-0.4l-2.9-0.2c-0.4,0-0.5,0.2-0.5,0.5c1.3,7.1,14,6.3,14-1.9c0-4,0-8,0-12
	c0-0.3-0.2-0.5-0.5-0.6c-1.5-0.3-2.7-0.1-3.7,0.7c-0.2,0.2-0.5,0.2-0.7,0c-4.3-2.5-9-0.1-9.6,4.8c-0.8,6,4.2,10,9.9,6.8
	c0.7-0.4,1-0.2,0.8,0.6L168.4,56.3z"/>
<path class="st1" d="M64,33.8C64,51,50.1,64.9,33,64.9c0,0,0,0,0,0C15.8,64.9,1.9,51,1.9,33.8c0,0,0,0,0,0C1.9,16.7,15.8,2.8,33,2.8
	c0,0,0,0,0,0C50.1,2.8,64,16.7,64,33.8z M58.3,33.8C58.3,19.8,47,8.4,33,8.4C19,8.4,7.6,19.8,7.6,33.8l0,0c0,14,11.4,25.4,25.4,25.4
	c0,0,0,0,0,0C47,59.2,58.3,47.8,58.3,33.8L58.3,33.8z"/>
<path class="st0" d="M58.3,33.8c0,14-11.4,25.4-25.4,25.4l0,0c-14,0-25.4-11.4-25.4-25.4v0C7.6,19.8,19,8.4,33,8.4c0,0,0,0,0,0
	C47,8.4,58.3,19.8,58.3,33.8z M43,18.5c0.3-0.3,0.3-0.7,0-1c0,0,0,0,0,0l-4-4c-0.3-0.3-0.7-0.3-1,0c0,0,0,0,0,0l-4,4
	c-0.3,0.3-0.3,0.7,0,1c0,0,0,0,0,0l4,4c0.3,0.3,0.7,0.3,1,0c0,0,0,0,0,0L43,18.5z M27.9,13.4c-0.2-0.2-0.6-0.2-0.8,0l-4.2,4.2
	c-0.2,0.2-0.2,0.6,0,0.8l4.2,4.2c0.2,0.2,0.6,0.2,0.8,0l4.2-4.2c0.2-0.2,0.2-0.6,0-0.8L27.9,13.4z M28.1,24.4
	c-0.3-0.3-0.8-0.3-1.1,0L23,28.4c-0.3,0.3-0.3,0.8,0,1.1c0,0,0,0,0,0l3.9,3.9c0.3,0.3,0.8,0.3,1.1,0l3.9-3.9c0.3-0.3,0.3-0.8,0-1.1
	c0,0,0,0,0,0L28.1,24.4z M43,29.4c0.2-0.2,0.2-0.6,0-0.9l-4.2-4.1c-0.2-0.2-0.6-0.2-0.9,0l-4.1,4.2c-0.2,0.2-0.2,0.6,0,0.9l4.2,4.1
	c0.2,0.2,0.6,0.2,0.9,0L43,29.4z M46.3,31.8c-0.2-0.2-0.6-0.2-0.8,0c0,0,0,0,0,0L33.4,44c-0.2,0.2-0.6,0.2-0.8,0c0,0,0,0,0,0
	L20.5,31.8c-0.2-0.2-0.6-0.2-0.8,0c0,0,0,0,0,0l-3.9,4c-0.2,0.2-0.2,0.6,0,0.8l16.8,17c0.2,0.2,0.6,0.2,0.8,0l16.9-16.9
	c0.2-0.2,0.2-0.6,0-0.8L46.3,31.8z"/>
<circle class="st2" cx="118.6" cy="11" r="2.3"/>
<path class="st2" d="M110.1,9.2h3.3c0.2,0,0.3,0.1,0.3,0.3v18.9c0,0.2-0.1,0.3-0.3,0.3h-3.3c-0.2,0-0.3-0.1-0.3-0.3V9.5
	C109.8,9.4,109.9,9.2,110.1,9.2z"/>
<path class="st2" d="M149.9,15.3l0-5.5c0-0.4,0.2-0.6,0.6-0.6l2.8-0.1c0.4,0,0.6,0.2,0.6,0.6l0,18.4c0,0.4-0.2,0.6-0.6,0.6l-2.4-0.1
	c-0.5,0-0.8-0.2-1.1-0.6l-0.2-0.3c-0.1-0.2-0.3-0.2-0.5-0.2c0,0,0,0-0.1,0c-1.7,1.3-3.5,1.7-5.6,1c-7.8-2.5-4.5-18.1,5.5-12.9
	C149.7,16.1,149.9,15.9,149.9,15.3z M146.8,25.6c1.8,0,3.2-1.8,3.1-3.9c-0.1-2.1-1.5-3.8-3.3-3.7l0,0c-1.8,0-3.2,1.8-3.1,3.9
	C143.5,24,145,25.6,146.8,25.6L146.8,25.6z"/>
<path class="st3" d="M80.7,24.3c1.7,1.4,4.4,1,5.7-0.8c1-1.4,2.7-1.9,5-1.4c0.3,0.1,0.5,0.3,0.4,0.6c-0.7,4.4-6.1,6.7-9.9,6.1
	c-7.1-1-10.2-9-6.4-14.8c4.1-6.2,13.4-5.3,16.3,1.7c0.3,0.7,0.1,1.2-0.7,1.2C90,17.1,89,17,88,16.8c-0.5-0.1-0.9-0.4-1.2-0.9
	c-0.6-1.1-1.5-1.8-2.7-2C78.2,13,76.9,21.1,80.7,24.3z"/>
<path class="st1" d="M38.9,13.4l4,4c0.3,0.3,0.3,0.7,0,1l-4,4c-0.3,0.3-0.7,0.3-1,0l-4-4c-0.3-0.3-0.3-0.7,0-1l4-4
	C38.2,13.1,38.7,13.1,38.9,13.4z"/>
<path class="st1" d="M22.9,17.6l4.2-4.2c0.2-0.2,0.6-0.2,0.8,0l4.2,4.2c0.2,0.2,0.2,0.6,0,0.8l-4.2,4.2c-0.2,0.2-0.6,0.2-0.8,0
	l-4.2-4.2C22.7,18.2,22.7,17.8,22.9,17.6z"/>
<path class="st2" d="M128.6,15.6c4.6-2.3,8.6,0.3,8.4,5.3c-0.1,2.6-0.1,5.1,0,7.4c0,0.2-0.1,0.3-0.3,0.3l-3.5,0
	c-0.1,0-0.2-0.1-0.2-0.2l0-7.6c0-1.4-0.6-2.3-1.9-2.8c-0.3-0.1-0.7-0.2-1-0.1c-1.7,0.3-2.6,1.3-2.6,3.1l0,7.3c0,0.2-0.1,0.4-0.4,0.4
	l-3.2,0c-0.3,0-0.4-0.1-0.4-0.4l0-12.8c0-0.3,0.1-0.5,0.4-0.5c1.4-0.2,2.7,0,3.8,0.6C128.1,15.7,128.4,15.7,128.6,15.6z"/>
<path class="st2" d="M161.4,23c-1.1,0-1.3,0.4-0.6,1.3c1.6,2,3.4,2.2,5.3,0.4c0.3-0.3,0.6-0.4,1-0.4l2.9-0.1c0.2,0,0.4,0.2,0.4,0.4
	c0,0.1,0,0.1,0,0.2c-3.8,8.7-17.8,3.1-13.1-6.3c1.4-2.9,4.1-4.1,8.1-3.5c2,0.3,3.7,1.6,4.6,3.5c0.3,0.6,0.5,1.2,0.8,1.8
	c0.9,1.9,0.2,2.9-1.9,2.9L161.4,23z M160.7,20.4l5.7,0c0.1,0,0.2-0.1,0.2-0.2c0,0,0,0,0,0v-0.1c0-1.2-1.3-2.2-2.9-2.2h-0.2
	c-1.6,0-2.9,1-2.9,2.2c0,0,0,0,0,0v0.1C160.5,20.3,160.6,20.4,160.7,20.4L160.7,20.4z"/>
<path class="st2" d="M178.1,15.7c0.9-0.7,1.9-1,3.1-1c0.4,0,0.6,0.2,0.6,0.6V18c0,0.4-0.2,0.6-0.6,0.5c-2.7-0.4-4.1,0.8-4,3.5
	c0,2.1,0.1,4.2,0.1,6.3c0,0.2-0.1,0.3-0.3,0.3l-3.2,0c-0.2,0-0.5-0.2-0.5-0.4c0,0,0,0,0,0l0-12.6c0-0.3,0.2-0.5,0.5-0.6
	c1.5-0.3,2.7-0.1,3.8,0.7C177.7,15.8,177.9,15.8,178.1,15.7z"/>
<path class="st3" d="M187.1,18.9c0.1,0.7,0.5,1.1,1.2,1.1c2.1,0.2,3.9,0.6,5.6,1.4c0.4,0.2,0.8,0.5,1,1c3.3,7.2-9.3,9.2-11.8,3.3
	c-0.4-0.9-0.1-1.3,0.8-1.3l2,0c0.4,0,0.8,0.2,1.1,0.5c1.1,1.3,2.4,1.6,4,0.7c0.5-0.2,0.6-0.8,0.4-1.3c-0.1-0.2-0.4-0.4-0.6-0.5
	c-2.5-0.6-7.8-0.7-7.7-4.5c0.1-5.9,10.5-6.4,12-0.6c0.1,0.4-0.1,0.6-0.5,0.6l-2.4-0.1c-0.4,0-0.8-0.2-1-0.5
	c-1.1-1.2-2.4-1.4-3.8-0.7C187.1,18.2,187,18.5,187.1,18.9z"/>
<path class="st2" d="M101,23.8l2.9-8.5c0-0.1,0.2-0.2,0.3-0.2l3.5-0.1c0.2,0,0.3,0.1,0.3,0.3c0,0,0,0.1,0,0.1l-7.3,18.3
	c-0.1,0.1-0.2,0.2-0.3,0.2l-3.5,0c-0.2,0-0.3-0.2-0.3-0.3c0,0,0-0.1,0-0.1l1.8-4.3c0-0.1,0-0.2,0-0.3l-5.4-13.5
	c-0.1-0.2,0-0.4,0.2-0.4c0,0,0.1,0,0.1,0l3.8,0.1c0.1,0,0.3,0.1,0.3,0.2l2.8,8.6c0.1,0.2,0.3,0.3,0.4,0.2
	C100.9,24,101,23.9,101,23.8z"/>
<path class="st2" d="M117,15h3.3c0.2,0,0.3,0.1,0.3,0.3v13c0,0.2-0.1,0.3-0.3,0.3H117c-0.2,0-0.3-0.1-0.3-0.3v-13
	C116.7,15.1,116.8,15,117,15z"/>
<path class="st0" d="M160.7,20.4c-0.1,0-0.2-0.1-0.2-0.2c0,0,0,0,0,0v-0.1c0-1.2,1.3-2.2,2.9-2.2c0,0,0,0,0,0h0.2
	c1.6,0,2.9,1,2.9,2.2v0.1c0,0.1-0.1,0.2-0.2,0.2l0,0L160.7,20.4z"/>
<ellipse transform="matrix(0.9996 -2.792161e-02 2.792161e-02 0.9996 -0.5509 4.1043)" class="st0" cx="146.7" cy="21.8" rx="3.2" ry="3.8"/>
<path class="st1" d="M23,28.4l3.9-3.9c0.3-0.3,0.8-0.3,1.1,0l3.9,3.9c0.3,0.3,0.3,0.8,0,1.1l-3.9,3.9c-0.3,0.3-0.8,0.3-1.1,0
	L23,29.5C22.7,29.2,22.7,28.7,23,28.4z"/>
<path class="st1" d="M38.8,24.3l4.2,4.1c0.2,0.2,0.2,0.6,0,0.9l-4.1,4.2c-0.2,0.2-0.6,0.2-0.9,0l-4.2-4.1c-0.2-0.2-0.2-0.6,0-0.9
	l4.1-4.2C38.2,24.1,38.6,24.1,38.8,24.3z"/>
<path class="st1" d="M46.3,31.8l3.9,4c0.2,0.2,0.2,0.6,0,0.8L33.3,53.5c-0.2,0.2-0.6,0.2-0.8,0l-16.8-17c-0.2-0.2-0.2-0.6,0-0.8
	l3.9-4c0.2-0.2,0.6-0.2,0.8,0c0,0,0,0,0,0L32.5,44c0.2,0.2,0.6,0.2,0.8,0c0,0,0,0,0,0l12.1-12.2C45.7,31.6,46,31.6,46.3,31.8
	C46.3,31.8,46.3,31.8,46.3,31.8z"/>
<circle class="st3" cx="137.4" cy="38.3" r="2.3"/>
<path class="st2" d="M111.8,36.5h3.4c0.1,0,0.3,0.1,0.3,0.3v19c0,0.1-0.1,0.3-0.3,0.3h-3.4c-0.1,0-0.3-0.1-0.3-0.3v-19
	C111.6,36.6,111.7,36.5,111.8,36.5z"/>
<path class="st2" d="M128.5,43l-0.1-6.1c0-0.3,0.1-0.4,0.4-0.4l2.9,0c0.4,0,0.6,0.2,0.6,0.6l0,18.3c0,0.5-0.2,0.7-0.8,0.7
	c-0.8-0.1-1.6-0.1-2.4-0.1c-0.6,0-0.9-0.3-0.8-0.9c0.1-0.6-0.1-0.7-0.5-0.3c-3.4,2.7-8.1,1.5-9.5-2.7c-0.7-2.2-0.7-4.1-0.1-5.6
	c1.9-4.6,5.2-5.7,9.6-3.2C128.4,43.5,128.5,43.4,128.5,43z M125.3,52.9c1.8,0,3.2-1.8,3.2-3.9c0-2.1-1.5-3.8-3.3-3.8c0,0,0,0,0,0
	c-1.8,0-3.2,1.8-3.2,3.9C122.1,51.2,123.6,52.9,125.3,52.9C125.3,52.9,125.3,52.9,125.3,52.9z"/>
<path class="st2" d="M79.8,44.9h7.5c0.2,0,0.4-0.2,0.4-0.4l0,0l-0.1-6.7c0-0.2,0.2-0.4,0.4-0.4l0,0h3.7c0.2,0,0.4,0.2,0.4,0.4l0,0
	v17.7c0,0.2-0.2,0.4-0.4,0.4h-3.7c-0.2,0-0.4-0.2-0.4-0.4l0.1-6.7c0-0.2-0.2-0.4-0.4-0.4l0,0l-7.5,0c-0.2,0-0.4,0.2-0.4,0.4l0.1,6.7
	c0,0.2-0.2,0.4-0.4,0.4h-3.7c-0.2,0-0.4-0.2-0.4-0.4l0-17.7c0-0.2,0.2-0.4,0.4-0.4l0,0h3.7c0.2,0,0.4,0.2,0.4,0.4l0,0l-0.1,6.7
	C79.4,44.7,79.6,44.9,79.8,44.9L79.8,44.9z"/>
<path class="st2" d="M109.2,49.2c-0.1,4-3.4,7.1-7.5,7.1c-4.1-0.1-7.4-3.3-7.3-7.3c0,0,0,0,0,0c0.1-4,3.4-7.1,7.5-7.1
	C105.9,41.9,109.2,45.2,109.2,49.2C109.2,49.2,109.2,49.2,109.2,49.2z M101.7,52.9c1.8,0,3.3-1.7,3.3-3.8c0-2.1-1.4-3.9-3.2-3.9
	c-1.8,0-3.3,1.7-3.3,3.8C98.5,51.2,99.9,52.9,101.7,52.9z"/>
<path class="st3" d="M135.8,42.1h3.3c0.2,0,0.4,0.2,0.4,0.4v13.1c0,0.2-0.2,0.4-0.4,0.4h-3.3c-0.2,0-0.4-0.2-0.4-0.4V42.5
	C135.4,42.3,135.5,42.1,135.8,42.1z"/>
<path class="st3" d="M146.7,43.3c2.6-1.9,5.9-1.9,7.9,0.5c2.1,2.5,1.1,8.5,1.3,11.8c0,0.2-0.2,0.4-0.4,0.4c0,0,0,0,0,0l-3.3,0
	c-0.2,0-0.4-0.1-0.4-0.4l0-7c0-1.5-0.7-2.6-2.1-3.2c-0.3-0.2-0.7-0.2-1-0.1c-1.7,0.4-2.5,1.5-2.5,3.2l0,7.1c0,0.3-0.1,0.4-0.4,0.4
	l-3.1,0c-0.3,0-0.5-0.2-0.5-0.5c0,0,0,0,0,0V42.8c0-0.4,0.2-0.7,0.7-0.7l2.4,0c0.4,0,0.7,0.2,0.9,0.5c0.1,0.1,0.1,0.2,0.1,0.4
	C146.3,43.4,146.4,43.5,146.7,43.3z"/>
<path class="st3" d="M168,54.5c-5.6,3.2-10.6-0.8-9.9-6.8c0.6-4.9,5.3-7.2,9.6-4.8c0.3,0.1,0.5,0.1,0.7,0c1-0.7,2.2-1,3.7-0.7
	c0.3,0.1,0.5,0.3,0.5,0.6c0,4,0,8,0,12c0,8.1-12.6,9-14,1.9c-0.1-0.4,0.1-0.6,0.5-0.5l2.9,0.2c0.3,0,0.6,0.2,0.8,0.4
	c1,1.5,2.4,1.9,4.1,1.2c0.8-0.3,1.2-0.8,1.4-1.6l0.3-1.2C169,54.2,168.7,54,168,54.5z M165.4,52.3c1.8,0,3.2-1.5,3.3-3.5
	c0-1.9-1.3-3.6-3.1-3.6c-1.8,0-3.2,1.5-3.3,3.5C162.3,50.7,163.7,52.3,165.4,52.3C165.4,52.3,165.4,52.3,165.4,52.3z"/>
<ellipse transform="matrix(1.047176e-02 -0.9999 0.9999 1.047176e-02 51.6072 150.3105)" class="st0" cx="101.8" cy="49.1" rx="3.9" ry="3.3"/>
<ellipse transform="matrix(0.9999 -1.396223e-02 1.396223e-02 0.9999 -0.6726 1.7541)" class="st0" cx="125.3" cy="49" rx="3.2" ry="3.9"/>
<ellipse transform="matrix(2.094237e-02 -0.9998 0.9998 2.094237e-02 113.2649 213.2023)" class="st0" cx="165.5" cy="48.8" rx="3.5" ry="3.2"/>
</svg>
