<?xml version="1.0" encoding="UTF-8" standalone="no"?>
<!DOCTYPE svg PUBLIC "-//W3C//DTD SVG 1.1//EN" "http://www.w3.org/Graphics/SVG/1.1/DTD/svg11.dtd">
<svg xmlns="http://www.w3.org/2000/svg" version="1.1" viewBox="0.00 0.00 434.00 149.00">
<path fill="#000aaa" d="
  M 108.22 0.00
  L 115.60 0.00
  Q 226.44 6.19 311.59 76.50
  Q 313.06 77.71 311.23 77.17
  Q 230.08 53.22 146.37 70.85
  Q 145.86 70.96 145.62 70.50
  L 108.22 0.00
  Z"
/>
<path fill="#e6001e" d="
  M 0.00 124.19
  L 0.00 116.05
  Q 2.83 100.03 17.10 94.10
  C 28.20 89.49 42.37 91.45 51.15 100.53
  A 0.74 0.74 0.0 0 1 51.12 101.58
  L 45.17 107.18
  Q 44.67 107.65 44.20 107.15
  C 33.69 96.03 13.82 100.63 10.85 116.26
  C 7.01 136.53 30.82 147.25 44.48 133.21
  Q 44.76 132.93 45.04 133.20
  L 51.35 139.11
  A 0.47 0.47 0.0 0 1 51.37 139.77
  Q 46.60 144.97 40.08 147.17
  Q 32.33 149.80 23.55 148.07
  Q 3.54 144.14 0.00 124.19
  Z"
/>
<path fill="#e6001e" d="
  M 194.29 109.49
  Q 202.16 103.31 212.84 105.63
  C 222.76 107.78 225.47 116.16 225.32 125.86
  Q 225.15 137.56 225.28 147.26
  Q 225.29 147.75 224.79 147.75
  L 215.55 147.74
  Q 215.21 147.74 215.22 147.41
  Q 215.34 135.98 215.17 123.84
  C 215.10 118.73 212.25 114.54 206.88 114.02
  C 198.28 113.19 193.64 118.62 193.71 126.80
  Q 193.80 137.61 193.75 147.21
  Q 193.75 147.74 193.21 147.74
  L 184.00 147.75
  Q 183.50 147.75 183.50 147.25
  L 183.50 94.20
  Q 183.50 93.63 184.06 93.52
  L 193.04 91.71
  A 0.59 0.59 0.0 0 1 193.75 92.29
  L 193.75 109.22
  Q 193.75 109.91 194.29 109.49
  Z"
/>
<path fill="#e6001e" d="
  M 375.68 143.26
  Q 368.79 149.52 359.15 148.02
  Q 343.54 145.61 341.17 129.84
  C 338.88 114.63 350.10 103.53 365.35 105.13
  Q 371.12 105.73 375.28 109.72
  A 0.29 0.28 -68.5 0 0 375.76 109.51
  L 375.74 94.57
  Q 375.74 93.61 376.68 93.42
  L 384.51 91.88
  Q 385.93 91.60 385.93 93.04
  L 386.03 146.74
  Q 386.03 147.76 385.01 147.76
  L 377.25 147.75
  Q 376.26 147.75 376.26 146.75
  L 376.27 143.52
  Q 376.27 142.73 375.68 143.26
  Z
  M 363.4226 139.6593
  A 13.12 12.51 90.6 0 0 376.0693 126.6710
  A 13.12 12.51 90.6 0 0 363.6974 113.4207
  A 13.12 12.51 90.6 0 0 351.0507 126.4090
  A 13.12 12.51 90.6 0 0 363.4226 139.6593
  Z"
/>
<path fill="#e6001e" d="
  M 239.32 101.26
  L 221.91 101.26
  A 0.41 0.41 0.0 0 1 221.50 100.85
  L 221.50 92.92
  A 0.41 0.41 0.0 0 1 221.91 92.51
  L 268.08 92.50
  A 0.41 0.41 0.0 0 1 268.49 92.91
  L 268.49 100.83
  A 0.41 0.41 0.0 0 1 268.08 101.24
  L 250.67 101.25
  A 0.41 0.41 0.0 0 0 250.26 101.66
  L 250.23 147.34
  A 0.41 0.41 0.0 0 1 249.82 147.75
  L 240.21 147.76
  A 0.41 0.41 0.0 0 1 239.80 147.35
  L 239.73 101.67
  A 0.41 0.41 0.0 0 0 239.32 101.26
  Z"
/>
<path fill="#e6001e" d="
  M 401.55 133.22
  C 406.51 141.48 418.51 141.33 424.85 135.31
  Q 425.27 134.92 425.64 135.35
  L 430.26 140.77
  Q 430.69 141.27 430.24 141.76
  Q 426.30 146.03 420.51 147.42
  C 407.68 150.51 393.23 145.15 390.65 131.12
  C 387.59 114.48 400.55 102.10 417.15 105.41
  C 427.15 107.41 433.24 115.52 433.38 125.72
  Q 433.38 126.14 432.97 126.22
  L 401.95 132.32
  Q 401.11 132.49 401.55 133.22
  Z
  M 400.46 125.80
  L 423.12 121.39
  A 0.14 0.14 0.0 0 0 423.23 121.23
  L 423.21 121.13
  A 11.56 10.26 -11.0 0 0 409.91 113.26
  L 409.67 113.31
  A 11.56 10.26 -11.0 0 0 400.28 125.59
  L 400.30 125.68
  A 0.14 0.14 0.0 0 0 400.46 125.80
  Z"
/>
<path fill="#e6001e" d="
  M 155.89 114.65
  C 146.32 118.06 145.25 133.09 154.24 138.10
  C 160.07 141.34 167.27 139.88 170.95 134.14
  Q 171.15 133.83 171.47 134.01
  L 178.67 138.16
  A 0.45 0.45 0.0 0 1 178.84 138.76
  Q 175.46 144.98 168.78 147.17
  C 153.81 152.08 137.41 143.14 137.95 126.06
  C 138.32 114.44 146.20 106.58 157.44 105.24
  C 165.97 104.22 174.62 106.88 178.84 114.79
  A 0.31 0.31 0.0 0 1 178.73 115.20
  L 171.47 119.42
  Q 171.21 119.57 171.04 119.34
  Q 165.06 111.38 155.89 114.65
  Z"
/>
<path fill="#e6001e" d="
  M 277.00 110.43
  Q 282.17 104.75 291.28 105.04
  A 0.24 0.23 90.0 0 1 291.51 105.28
  L 291.48 114.02
  Q 291.48 114.66 290.84 114.58
  Q 282.43 113.53 278.61 119.87
  Q 276.81 122.87 276.94 130.23
  Q 277.10 139.46 276.95 147.33
  Q 276.94 147.76 276.52 147.76
  L 267.55 147.76
  Q 267.09 147.76 267.09 147.30
  L 266.77 106.50
  Q 266.76 105.51 267.75 105.50
  L 275.51 105.50
  Q 276.53 105.50 276.52 106.51
  L 276.47 110.22
  Q 276.45 111.03 277.00 110.43
  Z"
/>
<path fill="#e6001e" d="
  M 326.70 109.53
  L 326.68 106.53
  Q 326.67 105.47 327.73 105.46
  L 335.56 105.44
  Q 336.42 105.44 336.43 106.30
  L 336.57 146.68
  Q 336.57 147.68 335.57 147.69
  L 327.77 147.72
  Q 326.83 147.73 326.83 146.79
  L 326.82 143.51
  Q 326.82 142.72 326.26 143.28
  C 320.11 149.44 309.95 149.58 302.65 145.94
  C 288.35 138.83 287.90 115.91 301.56 107.95
  C 308.69 103.79 319.67 103.50 326.02 109.81
  Q 326.71 110.50 326.70 109.53
  Z
  M 314.2500 139.7200
  A 13.14 12.46 90.0 0 0 326.7100 126.5800
  A 13.14 12.46 90.0 0 0 314.2500 113.4400
  A 13.14 12.46 90.0 0 0 301.7900 126.5800
  A 13.14 12.46 90.0 0 0 314.2500 139.7200
  Z"
/>
<path fill="#e6001e" d="
  M 103.12 132.95
  Q 103.21 133.69 103.67 134.34
  C 108.83 141.54 120.53 141.54 126.35 135.53
  Q 126.73 135.14 127.09 135.55
  L 131.90 141.10
  A 0.68 0.68 0.0 0 1 131.88 142.02
  C 124.74 149.38 112.46 150.28 103.27 145.95
  C 89.31 139.35 87.86 119.20 99.43 109.82
  Q 105.41 104.97 114.29 105.18
  C 126.36 105.47 134.63 113.75 134.97 125.85
  Q 134.98 126.39 134.45 126.50
  L 103.38 132.59
  A 0.33 0.32 -9.5 0 0 103.12 132.95
  Z
  M 101.96 126.06
  L 124.66 121.65
  A 0.14 0.14 0.0 0 0 124.77 121.48
  L 124.75 121.39
  A 11.58 10.24 -11.0 0 0 111.43 113.54
  L 111.19 113.59
  A 11.58 10.24 -11.0 0 0 101.78 125.85
  L 101.80 125.95
  A 0.14 0.14 0.0 0 0 101.96 126.06
  Z"
/>
<path fill="#e6001e" d="
  M 90.74 140.07
  L 90.77 147.67
  A 0.33 0.33 0.0 0 1 90.44 148.00
  L 54.57 148.00
  A 0.33 0.33 0.0 0 1 54.24 147.67
  L 54.24 141.54
  A 0.33 0.33 0.0 0 1 54.32 141.33
  L 76.60 114.28
  A 0.33 0.33 0.0 0 0 76.35 113.74
  L 54.83 113.75
  A 0.33 0.33 0.0 0 1 54.50 113.42
  L 54.50 106.12
  A 0.33 0.33 0.0 0 1 54.83 105.79
  L 89.69 105.66
  A 0.33 0.33 0.0 0 1 90.02 105.99
  L 89.98 112.12
  A 0.33 0.33 0.0 0 1 89.91 112.33
  L 67.65 139.24
  A 0.33 0.33 0.0 0 0 67.90 139.78
  L 90.41 139.74
  A 0.33 0.33 0.0 0 1 90.74 140.07
  Z"
/>
</svg>
