<?xml version="1.0" encoding="UTF-8" standalone="no"?>
<!DOCTYPE svg PUBLIC "-//W3C//DTD SVG 1.1//EN" "http://www.w3.org/Graphics/SVG/1.1/DTD/svg11.dtd">
<svg xmlns="http://www.w3.org/2000/svg" version="1.1" viewBox="0.00 0.00 617.00 126.00">
<path fill="#1b3257" d="
  M 15.74 34.37
  A 0.36 0.36 0.0 0 1 16.10 34.01
  L 23.80 34.01
  A 7.22 6.34 -0.0 0 1 31.02 40.35
  L 31.02 40.91
  A 7.22 6.34 -0.0 0 1 23.80 47.25
  L 16.10 47.25
  A 0.36 0.36 0.0 0 1 15.74 46.89
  L 15.74 34.37
  Z
  M 19.00 37.09
  L 19.00 44.15
  A 0.35 0.35 0.0 0 0 19.35 44.50
  L 22.76 44.50
  A 4.98 3.69 -0.0 0 0 27.74 40.81
  L 27.74 40.43
  A 4.98 3.69 0.0 0 0 22.76 36.74
  L 19.35 36.74
  A 0.35 0.35 0.0 0 0 19.00 37.09
  Z"
/>
<path fill="#1b3257" d="
  M 46.23 34.37
  A 0.36 0.36 0.0 0 1 46.59 34.01
  L 54.25 34.00
  A 7.28 6.33 -0.1 0 1 61.54 40.32
  L 61.54 40.90
  A 7.28 6.33 -0.1 0 1 54.27 47.24
  L 46.61 47.25
  A 0.36 0.36 0.0 0 1 46.25 46.89
  L 46.23 34.37
  Z
  M 49.49 37.15
  L 49.51 44.09
  A 0.41 0.41 0.0 0 0 49.92 44.50
  L 53.31 44.49
  A 4.96 3.71 -0.1 0 0 58.26 40.77
  L 58.26 40.43
  A 4.96 3.71 -0.1 0 0 53.29 36.73
  L 49.90 36.74
  A 0.41 0.41 0.0 0 0 49.49 37.15
  Z"
/>
<path fill="#1b3257" d="
  M 71.51 43.39
  L 71.50 46.74
  Q 71.50 47.23 71.01 47.24
  L 68.75 47.25
  Q 68.25 47.26 68.25 46.75
  L 68.24 34.54
  Q 68.24 34.01 68.78 34.00
  Q 73.82 33.97 78.37 34.03
  C 83.36 34.10 85.09 40.74 80.36 42.31
  Q 79.61 42.55 80.13 43.14
  L 83.56 46.99
  A 0.13 0.13 0.0 0 1 83.47 47.20
  L 79.91 47.28
  Q 79.71 47.28 79.59 47.13
  L 76.30 43.21
  Q 75.89 42.72 75.25 42.73
  L 72.11 42.78
  Q 71.51 42.79 71.51 43.39
  Z
  M 71.50 37.07
  L 71.48 39.67
  A 0.32 0.32 0.0 0 0 71.80 39.99
  L 77.98 40.02
  A 1.74 1.42 0.3 0 0 79.73 38.61
  L 79.73 38.21
  A 1.74 1.42 0.3 0 0 78.00 36.78
  L 71.82 36.75
  A 0.32 0.32 0.0 0 0 71.50 37.07
  Z"
/>
<path fill="#1b3257" d="
  M 99.70 45.89
  L 105.36 35.18
  A 2.70 2.70 0.0 0 1 110.13 35.18
  L 116.27 46.76
  Q 116.52 47.23 115.99 47.23
  L 113.27 47.26
  A 0.68 0.66 -12.4 0 1 112.66 46.88
  L 111.87 45.19
  Q 111.55 44.50 110.78 44.50
  L 104.46 44.50
  Q 103.89 44.50 103.63 45.00
  L 102.74 46.78
  Q 102.49 47.25 101.96 47.25
  L 85.50 47.25
  A 0.25 0.25 0.0 0 1 85.25 47.00
  L 85.24 34.50
  A 0.51 0.50 0.0 0 1 85.75 34.00
  L 98.30 34.00
  Q 98.84 34.00 98.81 34.55
  L 98.67 36.44
  Q 98.65 36.78 98.31 36.78
  L 89.01 36.75
  Q 88.52 36.75 88.51 37.24
  L 88.46 38.72
  Q 88.44 39.26 88.97 39.26
  L 96.47 39.23
  Q 96.97 39.23 96.98 39.72
  L 97.02 41.48
  Q 97.03 42.00 96.52 42.00
  L 88.95 42.00
  Q 88.41 42.00 88.43 42.55
  L 88.51 44.01
  Q 88.53 44.49 89.01 44.49
  L 98.28 44.49
  A 0.68 0.67 -5.8 0 1 98.94 45.02
  L 99.11 45.81
  Q 99.29 46.67 99.70 45.89
  Z
  M 105.62 41.24
  A 0.34 0.34 0.0 0 0 105.92 41.73
  L 109.56 41.75
  A 0.34 0.34 0.0 0 0 109.87 41.26
  L 108.07 37.61
  A 0.34 0.34 0.0 0 0 107.46 37.61
  L 105.62 41.24
  Z"
/>
<path fill="#1b3257" d="
  M 121.14 44.50
  L 129.61 44.49
  A 0.39 0.39 0.0 0 1 130.00 44.88
  L 129.99 46.87
  A 0.39 0.39 0.0 0 1 129.60 47.26
  L 117.90 47.24
  A 0.39 0.39 0.0 0 1 117.51 46.85
  L 117.49 34.41
  A 0.39 0.39 0.0 0 1 117.88 34.02
  L 120.38 34.00
  A 0.39 0.39 0.0 0 1 120.77 34.39
  L 120.75 44.11
  A 0.39 0.39 0.0 0 0 121.14 44.50
  Z"
/>
<path fill="#1b3257" d="
  M 40.40 40.11
  L 42.95 40.58
  A 0.94 0.94 0.0 0 1 42.95 42.43
  L 40.40 42.90
  A 0.94 0.94 0.0 0 0 39.65 43.66
  L 39.18 46.21
  A 0.94 0.94 0.0 0 1 37.33 46.21
  L 36.86 43.66
  A 0.94 0.94 0.0 0 0 36.10 42.91
  L 33.55 42.44
  A 0.94 0.94 0.0 0 1 33.55 40.59
  L 36.10 40.12
  A 0.94 0.94 0.0 0 0 36.85 39.36
  L 37.32 36.81
  A 0.94 0.94 0.0 0 1 39.17 36.81
  L 39.64 39.36
  A 0.94 0.94 0.0 0 0 40.40 40.11
  Z"
/>
<path fill="#1b3257" d="
  M 23.92 71.65
  C 21.52 79.71 25.86 86.70 34.40 88.19
  Q 43.69 89.81 49.42 84.66
  C 52.46 81.93 56.29 84.50 59.22 86.12
  Q 59.77 86.42 59.39 86.92
  C 52.68 95.96 40.44 98.07 29.90 95.48
  Q 17.64 92.48 14.71 81.37
  Q 12.92 74.56 15.41 67.88
  C 19.50 56.91 32.04 53.92 42.80 55.21
  Q 51.73 56.29 58.42 63.08
  Q 60.42 65.11 57.77 66.15
  Q 55.97 66.87 53.78 67.73
  A 3.94 3.93 -34.3 0 1 49.64 66.95
  C 42.62 60.37 26.97 61.38 23.92 71.65
  Z"
/>
<path fill="#1b3257" d="
  M 162.51 79.58
  C 165.38 89.94 181.44 91.19 188.19 84.50
  A 4.27 4.26 -54.2 0 1 193.07 83.71
  L 197.41 85.84
  Q 198.59 86.42 197.75 87.43
  C 190.36 96.28 177.98 98.31 167.49 95.21
  Q 152.44 90.76 152.73 74.72
  C 152.91 64.32 160.00 57.50 170.11 55.60
  C 180.43 53.67 190.88 55.78 197.71 63.89
  Q 198.50 64.83 197.43 65.44
  Q 194.75 66.95 192.49 67.72
  A 4.46 4.46 0.0 0 1 188.04 66.76
  C 179.08 58.42 158.03 63.45 162.51 79.58
  Z"
/>
<path fill="#1b3257" d="
  M 408.95 82.16
  Q 406.84 80.56 403.95 80.24
  Q 397.39 79.50 391.30 78.76
  C 384.70 77.96 375.44 75.45 375.60 67.17
  C 375.75 59.47 383.94 56.16 390.24 55.37
  C 399.57 54.20 409.38 55.30 416.89 60.56
  Q 417.34 60.87 417.05 61.34
  C 414.94 64.77 411.96 66.64 407.92 64.83
  Q 403.30 62.77 397.56 62.73
  C 394.46 62.70 386.77 62.42 385.05 65.95
  A 2.32 2.32 0.0 0 0 386.16 69.08
  Q 388.81 70.31 391.85 70.54
  Q 398.68 71.07 404.72 71.85
  C 410.77 72.63 419.01 75.45 419.17 82.74
  C 419.32 89.15 414.88 93.47 409.06 95.01
  C 397.47 98.06 383.91 96.69 374.49 88.95
  Q 374.04 88.58 374.37 88.10
  C 376.42 85.08 379.71 83.32 383.09 85.13
  Q 393.81 90.85 406.66 87.78
  C 408.90 87.24 411.52 84.11 408.95 82.16
  Z"
/>
<path fill="#1b3257" d="
  M 587.41 88.45
  C 595.83 87.37 595.79 81.10 587.26 80.17
  Q 580.95 79.48 574.99 78.76
  C 568.19 77.94 558.65 75.16 559.50 66.50
  C 560.11 60.29 565.90 56.95 571.53 55.82
  C 580.89 53.95 592.60 54.79 600.62 60.52
  Q 601.08 60.84 600.80 61.33
  C 598.88 64.67 595.79 66.60 592.12 64.98
  Q 584.17 61.48 573.27 63.28
  Q 569.70 63.87 568.59 66.71
  A 1.07 1.06 37.0 0 0 568.74 67.75
  Q 570.36 69.89 573.50 70.24
  Q 579.80 70.94 585.83 71.49
  C 591.55 72.00 600.00 73.79 602.31 79.68
  Q 603.68 83.19 602.38 86.99
  C 600.65 92.01 595.52 94.62 590.56 95.62
  C 579.94 97.75 568.50 96.27 559.44 89.91
  Q 556.86 88.10 559.53 86.42
  Q 560.44 85.86 561.35 85.29
  A 5.47 5.45 -46.5 0 1 566.91 85.14
  Q 575.64 89.97 587.41 88.45
  Z"
/>
<path fill="#1b3257" d="
  M 76.01 87.49
  Q 87.64 87.51 98.58 87.47
  Q 105.82 87.45 104.74 94.66
  Q 104.65 95.25 104.06 95.25
  L 62.13 95.25
  Q 61.50 95.25 61.50 94.63
  L 61.48 89.77
  Q 61.48 89.04 62.03 88.56
  L 89.88 64.13
  A 0.21 0.21 0.0 0 0 89.74 63.76
  L 67.20 63.77
  Q 64.15 63.77 63.13 60.90
  Q 62.80 59.97 62.46 59.04
  Q 61.47 56.25 64.43 56.25
  L 103.49 56.24
  Q 103.99 56.24 103.99 56.74
  L 104.00 61.78
  Q 104.01 62.41 103.53 62.82
  L 75.86 87.09
  Q 75.41 87.49 76.01 87.49
  Z"
/>
<path fill="#1b3257" d="
  M 119.25 63.76
  Q 119.00 63.76 119.00 64.01
  L 119.00 71.00
  Q 119.00 71.49 119.50 71.49
  L 144.25 71.49
  Q 144.75 71.49 144.75 72.00
  L 144.77 78.74
  Q 144.77 79.25 144.26 79.25
  L 119.51 79.24
  Q 119.01 79.24 119.01 79.74
  L 119.00 87.00
  Q 119.00 87.50 119.50 87.50
  L 149.99 87.49
  Q 150.24 87.49 150.24 87.74
  L 150.25 95.00
  Q 150.25 95.24 150.00 95.24
  L 110.25 95.25
  A 0.25 0.25 0.0 0 1 110.00 95.00
  L 110.00 56.49
  A 0.26 0.25 -0.0 0 1 110.26 56.24
  L 147.82 56.25
  Q 150.79 56.25 149.80 59.05
  Q 149.46 60.02 149.12 60.98
  Q 148.14 63.76 145.20 63.76
  L 119.25 63.76
  Z"
/>
<path fill="#1b3257" d="
  M 211.76 80.25
  L 211.76 94.99
  Q 211.76 95.24 211.51 95.24
  L 203.00 95.25
  Q 202.75 95.25 202.75 95.00
  L 202.75 56.50
  Q 202.75 56.25 203.00 56.25
  L 211.50 56.25
  A 0.26 0.26 0.0 0 1 211.76 56.51
  L 211.76 71.25
  A 0.24 0.24 0.0 0 0 212.00 71.49
  L 237.37 71.50
  Q 237.98 71.50 237.98 70.88
  L 238.02 60.42
  A 3.73 3.73 0.0 0 1 240.94 56.79
  Q 243.60 56.20 244.49 56.00
  Q 247.25 55.38 247.25 58.21
  L 247.25 95.00
  A 0.25 0.24 0.0 0 1 247.00 95.24
  L 238.25 95.26
  Q 238.00 95.26 238.00 95.00
  L 238.00 79.99
  Q 238.00 79.49 237.49 79.49
  L 212.50 79.50
  Q 211.76 79.50 211.76 80.25
  Z"
/>
<path fill="#1b3257" d="
  M 276.76 69.56
  L 276.76 94.99
  Q 276.76 95.24 276.51 95.24
  L 268.25 95.25
  Q 267.75 95.26 267.75 94.75
  L 267.75 57.00
  Q 267.75 56.25 268.50 56.25
  L 277.10 56.24
  Q 277.74 56.24 278.15 56.75
  L 293.56 76.01
  Q 293.99 76.54 294.41 76.01
  Q 301.39 67.23 308.58 58.30
  C 311.04 55.24 316.07 56.29 319.41 56.21
  Q 320.00 56.20 320.00 56.79
  L 320.00 94.88
  Q 320.00 95.26 319.62 95.26
  L 311.25 95.25
  A 0.25 0.25 0.0 0 1 311.00 95.00
  L 310.99 69.60
  Q 310.99 68.41 310.23 69.33
  L 294.43 88.66
  A 0.86 0.86 0.0 0 1 293.10 88.66
  L 277.30 69.36
  Q 276.76 68.70 276.76 69.56
  Z"
/>
<path fill="#1b3257" d="
  M 336.73 87.56
  L 332.92 95.16
  Q 332.86 95.27 332.74 95.26
  L 323.26 95.23
  A 0.15 0.15 0.0 0 1 323.13 95.01
  Q 332.87 76.59 342.26 58.94
  C 344.20 55.29 350.02 56.19 353.33 56.25
  A 0.69 0.69 0.0 0 1 353.92 56.61
  L 374.27 94.99
  A 0.17 0.17 0.0 0 1 374.12 95.23
  L 364.58 95.26
  Q 364.37 95.27 364.28 95.08
  L 360.54 87.57
  A 1.04 1.04 0.0 0 0 359.61 87.00
  L 337.63 87.00
  Q 337.01 87.00 336.73 87.56
  Z
  M 341.07 79.01
  A 0.34 0.34 0.0 0 0 341.37 79.51
  L 355.88 79.48
  A 0.34 0.34 0.0 0 0 356.19 78.98
  L 348.91 64.98
  A 0.34 0.34 0.0 0 0 348.30 64.98
  L 341.07 79.01
  Z"
/>
<path fill="#1b3257" d="
  M 436.25 64.00
  L 420.24 64.00
  Q 419.99 64.00 419.99 63.74
  L 420.02 56.48
  Q 420.02 56.24 420.27 56.24
  L 462.29 56.25
  Q 462.86 56.25 462.95 56.81
  C 463.59 60.69 461.11 64.11 457.08 64.04
  Q 451.43 63.95 446.26 64.02
  A 0.26 0.26 0.0 0 0 446.00 64.28
  L 446.00 94.76
  Q 446.00 95.26 445.49 95.26
  L 437.50 95.25
  Q 437.00 95.25 437.00 94.75
  L 437.00 64.75
  Q 437.00 64.00 436.25 64.00
  Z"
/>
<path fill="#1b3257" d="
  M 476.00 79.25
  Q 475.50 79.25 475.50 79.75
  L 475.51 87.01
  Q 475.52 87.50 476.01 87.50
  L 506.23 87.47
  Q 506.75 87.47 506.75 87.98
  L 506.77 94.74
  Q 506.77 95.25 506.26 95.25
  L 466.75 95.25
  A 0.25 0.25 0.0 0 1 466.50 95.00
  L 466.50 56.50
  A 0.25 0.25 0.0 0 1 466.75 56.25
  L 504.01 56.25
  Q 507.57 56.25 506.02 59.45
  Q 505.60 60.31 505.48 60.56
  A 5.70 5.68 -77.0 0 1 500.37 63.76
  L 475.75 63.76
  Q 475.51 63.76 475.51 64.00
  L 475.51 71.25
  Q 475.51 71.49 475.75 71.49
  L 500.50 71.50
  Q 501.00 71.50 501.00 72.00
  L 501.00 78.75
  Q 501.00 79.25 500.50 79.25
  L 476.00 79.25
  Z"
/>
<path fill="#1b3257" d="
  M 545.91 81.19
  Q 545.28 81.35 545.71 81.84
  Q 551.36 88.40 557.18 95.14
  A 0.04 0.03 67.5 0 1 557.16 95.20
  Q 551.85 95.30 546.52 95.23
  Q 546.22 95.23 546.03 95.00
  L 535.59 82.63
  A 1.77 1.76 70.2 0 0 534.23 81.99
  L 521.50 82.00
  Q 521.25 82.00 521.25 82.25
  L 521.25 95.00
  Q 521.25 95.24 521.00 95.24
  L 512.50 95.25
  Q 512.25 95.25 512.25 95.00
  L 512.25 56.94
  Q 512.25 56.27 512.91 56.27
  Q 530.86 56.16 541.81 56.34
  Q 547.38 56.43 551.84 60.01
  C 556.36 63.62 557.18 70.47 554.34 75.29
  Q 551.71 79.76 545.91 81.19
  Z
  M 521.26 64.15
  L 521.24 74.07
  A 0.40 0.40 0.0 0 0 521.64 74.47
  L 539.91 74.50
  A 6.71 4.90 0.1 0 0 546.63 69.61
  L 546.63 68.69
  A 6.71 4.90 0.1 0 0 539.93 63.78
  L 521.66 63.75
  A 0.40 0.40 0.0 0 0 521.26 64.15
  Z"
/>
</svg>
