<?xml version="1.0" encoding="utf-8"?>
<!-- Generator: Adobe Illustrator 28.1.0, SVG Export Plug-In . SVG Version: 6.00 Build 0)  -->
<svg version="1.1" id="Layer_1" xmlns="http://www.w3.org/2000/svg" xmlns:xlink="http://www.w3.org/1999/xlink" x="0px" y="0px"
	 viewBox="0 0 500 223" style="enable-background:new 0 0 500 223;" xml:space="preserve">
<style type="text/css">
	.st0{fill:none;stroke:#8380A3;stroke-width:2;}
	.st1{fill:#FFFFFF;}
	.st2{fill:#070046;}
</style>
<g>
	<path vector-effect="non-scaling-stroke" class="st0" d="M347.5,92.1c1,0.8,1.7,1.7,2.3,2.7c0.6,1,0.9,0.9,0.9-0.3l0-28.7
		c0-0.2-0.1-0.4-0.3-0.5c-13.3-8-27.6-10.8-42.8-8.5c-17.9,2.7-31.8,12-41.8,27.6c-4,6.3-6.4,13.4-7.3,21.2
		c-1.7,16.1,2.7,30,13.3,41.6c20.2,22.1,52.6,25.2,78.3,10.4c0.3-0.2,0.5-0.5,0.5-0.9l0-27.3c0-0.3-0.2-0.5-0.5-0.5
		c-0.1,0-0.2,0-0.3,0.1c-16.8,13.3-43.1,20.5-58.5,0.3c-9-11.8-7.3-29.2,3.5-39.6c4.7-4.5,9.7-7.3,15-8.2
		C324.1,79.1,336.6,82.6,347.5,92.1"/>
	<path vector-effect="non-scaling-stroke" class="st0" d="M383,93.6c9-11.9,21.9-14.8,36.3-11.7c6.5,1.4,12.2,4,17.1,7.9
		c1.9,1.6,3.5,3.4,5.2,5.1c0.4,0.4,0.6,0.3,0.6-0.2l0-28.7c0-0.3-0.1-0.6-0.4-0.8c-0.5-0.4-1.1-0.8-1.6-1.1
		c-30.4-16.7-69.5-7.2-85.2,24.8c-9.4,19.1-6.1,43.1,9,59c12.2,12.8,27.3,19.1,45.2,18.9c11.7-0.1,22.5-3.1,32.4-9
		c0.5-0.3,0.7-0.7,0.7-1.2l0-27.3c0-0.2-0.1-0.3-0.3-0.3c-0.1,0-0.2,0-0.2,0.1c-16.4,12.9-41.8,20.5-57.6,1.8
		C375.2,120.3,374.9,104.3,383,93.6"/>
	<path vector-effect="non-scaling-stroke" class="st0" d="M151.1,115.6c0.5-9.3-0.9-17.9-4.2-25.8c-10.6-25.2-38.7-32-63.4-31.8
		C75,58,66.5,58,58.1,58c-0.2,0-0.3,0.1-0.3,0.3l0,106.4c0,0.2,0.1,0.3,0.3,0.3c0,0,0,0,0,0c10.8,0.1,21,0,30.6-0.1
		c9.8-0.1,18.8-1.4,27.1-4C138,154.1,149.8,139,151.1,115.6"/>
	<path vector-effect="non-scaling-stroke" class="st0" d="M179.5,121.9l19.4,42.3c0.2,0.5,0.7,0.8,1.2,0.8l8.2,0
		c0.4,0,0.7-0.2,0.9-0.6l20.1-42.6c0.3-0.7,0.5-0.7,0.5,0.1l0,42.6c0,0.3,0.2,0.5,0.5,0.5l26,0c0.3,0,0.5-0.2,0.5-0.5v0l0-105.7
		c0-0.5-0.3-0.8-0.8-0.8h-24c-0.4,0-0.7,0.2-0.9,0.6l-26.5,57.9c-0.1,0.1-0.2,0.2-0.4,0.2c-0.1,0-0.1-0.1-0.1-0.2l-24.9-57.8
		c-0.2-0.4-0.6-0.7-1.1-0.7h-25.5c-0.3,0-0.5,0.2-0.5,0.5l0,106c0,0.3,0.2,0.5,0.5,0.5h25.8c0.3,0,0.5-0.2,0.5-0.5l0-42.5
		C179,121.2,179.2,121.1,179.5,121.9"/>
	<path vector-effect="non-scaling-stroke" class="st0" d="M83.2,83.1v56.8c0,0.1,0.1,0.2,0.2,0.2h0h13.4c15.8,0,28.6-12.1,28.6-27.1
		l0,0V110c0-15-12.8-27.1-28.6-27.1l0,0H83.5C83.3,82.9,83.2,83,83.2,83.1"/>
</g>
<path class="st1" d="M347.5,92.1c1,0.8,1.7,1.7,2.3,2.7c0.6,1,0.9,0.9,0.9-0.3l0-28.7c0-0.2-0.1-0.4-0.3-0.5
	c-13.3-8-27.6-10.8-42.8-8.5c-17.9,2.7-31.8,12-41.8,27.6c-4,6.3-6.4,13.4-7.3,21.2c-1.7,16.1,2.7,30,13.3,41.6
	c20.2,22.1,52.6,25.2,78.3,10.4c0.3-0.2,0.5-0.5,0.5-0.9l0-27.3c0-0.3-0.2-0.5-0.5-0.5c-0.1,0-0.2,0-0.3,0.1
	c-16.8,13.3-43.1,20.5-58.5,0.3c-9-11.8-7.3-29.2,3.5-39.6c4.7-4.5,9.7-7.3,15-8.2C324.1,79.1,336.6,82.6,347.5,92.1z M383,93.6
	c9-11.9,21.9-14.8,36.3-11.7c6.5,1.4,12.2,4,17.1,7.9c1.9,1.6,3.5,3.4,5.2,5.1c0.4,0.4,0.6,0.3,0.6-0.2l0-28.7
	c0-0.3-0.1-0.6-0.4-0.8c-0.5-0.4-1.1-0.8-1.6-1.1c-30.4-16.7-69.5-7.2-85.2,24.8c-9.4,19.1-6.1,43.1,9,59
	c12.2,12.8,27.3,19.1,45.2,18.9c11.7-0.1,22.5-3.1,32.4-9c0.5-0.3,0.7-0.7,0.7-1.2l0-27.3c0-0.2-0.1-0.3-0.3-0.3
	c-0.1,0-0.2,0-0.2,0.1c-16.4,12.9-41.8,20.5-57.6,1.8C375.2,120.3,374.9,104.3,383,93.6z M151.1,115.6c0.5-9.3-0.9-17.9-4.2-25.8
	c-10.6-25.2-38.7-32-63.4-31.8C75,58,66.5,58,58.1,58c-0.2,0-0.3,0.1-0.3,0.3l0,106.4c0,0.2,0.1,0.3,0.3,0.3c0,0,0,0,0,0
	c10.8,0.1,21,0,30.6-0.1c9.8-0.1,18.8-1.4,27.1-4C138,154.1,149.8,139,151.1,115.6z M179.5,121.9l19.4,42.3c0.2,0.5,0.7,0.8,1.2,0.8
	l8.2,0c0.4,0,0.7-0.2,0.9-0.6l20.1-42.6c0.3-0.7,0.5-0.7,0.5,0.1l0,42.6c0,0.3,0.2,0.5,0.5,0.5l26,0c0.3,0,0.5-0.2,0.5-0.5v0
	l0-105.7c0-0.5-0.3-0.8-0.8-0.8h-24c-0.4,0-0.7,0.2-0.9,0.6l-26.5,57.9c-0.1,0.1-0.2,0.2-0.4,0.2c-0.1,0-0.1-0.1-0.1-0.2l-24.9-57.8
	c-0.2-0.4-0.6-0.7-1.1-0.7h-25.5c-0.3,0-0.5,0.2-0.5,0.5l0,106c0,0.3,0.2,0.5,0.5,0.5h25.8c0.3,0,0.5-0.2,0.5-0.5l0-42.5
	C179,121.2,179.2,121.1,179.5,121.9z"/>
<path class="st2" d="M347.5,92.1c-10.9-9.4-23.4-12.9-37.6-10.5c-5.3,0.9-10.3,3.6-15,8.2c-10.8,10.4-12.5,27.9-3.5,39.6
	c15.5,20.2,41.8,13,58.5-0.3c0.2-0.2,0.5-0.1,0.7,0.1c0.1,0.1,0.1,0.2,0.1,0.3l0,27.3c0,0.4-0.2,0.7-0.5,0.9
	c-25.7,14.8-58.1,11.7-78.3-10.4c-10.6-11.7-15-25.5-13.3-41.6c0.8-7.8,3.3-14.9,7.3-21.2c9.9-15.7,23.8-24.9,41.8-27.6
	c15.2-2.3,29.5,0.5,42.8,8.5c0.2,0.1,0.3,0.3,0.3,0.5l0,28.7c0,1.2-0.3,1.3-0.9,0.3C349.3,93.8,348.5,92.9,347.5,92.1z"/>
<path class="st2" d="M383,93.6c-8.1,10.7-7.8,26.7,1,37.1c15.9,18.7,41.3,11.1,57.6-1.8c0.1-0.1,0.3-0.1,0.5,0
	c0,0.1,0.1,0.1,0.1,0.2l0,27.3c0,0.5-0.2,1-0.7,1.2c-9.9,5.8-20.7,8.8-32.4,9c-17.9,0.2-33-6.1-45.2-18.9c-15.1-15.8-18.4-39.9-9-59
	c15.8-32,54.8-41.5,85.2-24.8c0.6,0.3,1.1,0.7,1.6,1.1c0.3,0.2,0.4,0.5,0.4,0.8l0,28.7c0,0.6-0.2,0.7-0.6,0.2
	c-1.7-1.8-3.3-3.6-5.2-5.1c-4.8-3.9-10.5-6.5-17.1-7.9C405,78.8,392,81.7,383,93.6z"/>
<path class="st2" d="M151.1,115.6c-1.3,23.4-13.1,38.5-35.4,45.4c-8.3,2.5-17.3,3.9-27.1,4C79.1,165,68.9,165,58,165
	c-0.2,0-0.3-0.1-0.3-0.3l0,0l0-106.4c0-0.2,0.1-0.3,0.3-0.3C66.5,58,75,58,83.5,58c24.7-0.2,52.8,6.5,63.4,31.8
	C150.2,97.6,151.6,106.2,151.1,115.6z M83.2,83.1v56.8c0,0.1,0.1,0.2,0.2,0.2h0h13.4c15.8,0,28.6-12.1,28.6-27.1l0,0V110
	c0-15-12.8-27.1-28.6-27.1l0,0H83.5C83.3,82.9,83.2,83,83.2,83.1z"/>
<path class="st2" d="M179.5,121.9c-0.3-0.7-0.5-0.7-0.5,0.1l0,42.5c0,0.3-0.2,0.5-0.5,0.5h-25.8c-0.3,0-0.5-0.2-0.5-0.5l0-106
	c0-0.3,0.2-0.5,0.5-0.5h25.5c0.5,0,0.9,0.3,1.1,0.7l24.9,57.8c0.1,0.1,0.2,0.2,0.4,0.2c0.1,0,0.1-0.1,0.2-0.2l26.5-57.9
	c0.2-0.4,0.5-0.6,0.9-0.6h24c0.5,0,0.8,0.3,0.8,0.8l0,105.7c0,0.3-0.2,0.5-0.5,0.5c0,0,0,0,0,0l-26,0c-0.3,0-0.5-0.2-0.5-0.5l0-42.6
	c0-0.8-0.2-0.8-0.5-0.1l-20.1,42.6c-0.2,0.4-0.5,0.6-0.9,0.6l-8.2,0c-0.5,0-1-0.3-1.2-0.8L179.5,121.9z"/>
<path class="st1" d="M83.2,83.1c0-0.1,0.1-0.2,0.2-0.2h13.4c15.8,0,28.6,12.1,28.6,27.1l0,0v2.9c0,15-12.8,27.1-28.6,27.1l0,0H83.5
	c-0.1,0-0.2-0.1-0.2-0.2l0,0V83.1z"/>
</svg>
