<?xml version="1.0" encoding="UTF-8" standalone="no" ?>
<!DOCTYPE svg PUBLIC "-//W3C//DTD SVG 1.1//EN" "http://www.w3.org/Graphics/SVG/1.1/DTD/svg11.dtd">
<svg xmlns="http://www.w3.org/2000/svg" xmlns:xlink="http://www.w3.org/1999/xlink" version="1.1" width="1080" height="1080" viewBox="0 0 1080 1080" xml:space="preserve">
<desc>Created with Fabric.js 5.2.4</desc>
<defs>
</defs>
<g transform="matrix(1 0 0 1 540 540)" id="cd30309b-390c-4d37-83ac-ab8bc3c13545"  >
<rect style="stroke: none; stroke-width: 1; stroke-dasharray: none; stroke-linecap: butt; stroke-dashoffset: 0; stroke-linejoin: miter; stroke-miterlimit: 4; fill: rgb(255,255,255); fill-rule: nonzero; opacity: 1; visibility: hidden;" vector-effect="non-scaling-stroke"  x="-540" y="-540" rx="0" ry="0" width="1080" height="1080" />
</g>
<g transform="matrix(1 0 0 1 540 540)" id="b59416a6-add3-4305-938c-d98c3f69d09a"  >
</g>
<g transform="matrix(4.22 0 0 4.22 540 540)"  >
<path style="stroke: none; stroke-width: 1; stroke-dasharray: none; stroke-linecap: butt; stroke-dashoffset: 0; stroke-linejoin: miter; stroke-miterlimit: 4; fill: rgb(255,255,255); fill-rule: nonzero; opacity: 1;"  transform=" translate(-128, -128)" d="M 228 152 L 228 208 C 228 219.04569499661588 219.04569499661588 228 208 228 L 48 228 C 36.954305003384135 228 28 219.04569499661588 28 208 L 28 152 C 28 145.37258300203047 33.37258300203048 140 40 140 C 46.62741699796952 140 52 145.37258300203047 52 152 L 52 204 L 204 204 L 204 152 C 204 145.37258300203047 209.37258300203047 140 216 140 C 222.62741699796953 140 228 145.37258300203047 228 152 Z M 119.51 160.49 C 121.76162246831845 162.7494542222897 124.82018227441455 164.0194628269513 128.01 164.0194628269513 C 131.19981772558546 164.0194628269513 134.25837753168156 162.7494542222897 136.51 160.49 L 176.51 120.49000000000001 C 181.20442037356173 115.79557962643827 181.20442037356173 108.18442037356175 176.51 103.49000000000001 C 171.81557962643825 98.79557962643827 164.20442037356173 98.79557962643827 159.51 103.49000000000001 L 140 123 L 140 40 C 140 33.37258300203048 134.62741699796953 28 128 28 C 121.37258300203048 28 116 33.372583002030474 116 40 L 116 123 L 96.49 103.51 C 91.79557962643825 98.81557962643826 84.18442037356174 98.81557962643826 79.49 103.51 C 74.79557962643825 108.20442037356175 74.79557962643825 115.81557962643826 79.49 120.51 Z" stroke-linecap="round" />
</g>
</svg>