<?xml version="1.0" encoding="UTF-8" standalone="no"?>
<!DOCTYPE svg PUBLIC "-//W3C//DTD SVG 1.1//EN" "http://www.w3.org/Graphics/SVG/1.1/DTD/svg11.dtd">
<svg xmlns="http://www.w3.org/2000/svg" version="1.1" viewBox="0.00 0.00 250.00 64.00">
<path fill="#003764" d="
  M 183.24 0.00
  L 186.38 0.00
  Q 186.82 1.40 186.55 2.92
  Q 186.44 3.55 185.81 3.55
  L 183.73 3.55
  Q 183.18 3.55 183.05 3.02
  Q 182.64 1.43 183.24 0.00
  Z"
/>
<path fill="#003764" d="
  M 242.45 0.00
  L 245.59 0.00
  Q 245.96 1.51 245.64 3.05
  Q 245.52 3.60 244.97 3.59
  L 242.94 3.56
  Q 242.29 3.55 242.18 2.91
  Q 241.91 1.35 242.45 0.00
  Z"
/>
<path fill="#003764" d="
  M 0.00 20.77
  L 0.00 12.76
  Q 1.25 11.90 2.07 10.73
  Q 3.74 8.37 3.58 11.25
  Q 3.38 15.05 3.47 18.96
  Q 3.60 24.98 10.47 24.98
  Q 23.20 24.98 36.08 25.01
  Q 36.71 25.01 36.72 24.38
  Q 36.78 20.39 36.62 15.54
  C 36.48 11.41 38.21 7.42 42.41 6.60
  Q 45.14 6.07 48.57 6.36
  Q 49.16 6.41 49.16 7.00
  L 49.13 24.53
  A 0.50 0.49 -0.0 0 0 49.63 25.02
  Q 63.30 24.98 76.79 24.98
  C 80.17 24.98 82.47 22.64 82.38 19.18
  Q 82.24 13.79 82.29 8.35
  A 0.53 0.49 64.7 0 1 82.36 8.13
  Q 83.47 6.32 85.69 4.79
  Q 85.91 4.64 85.90 4.91
  Q 85.55 12.43 85.76 18.81
  C 85.99 25.67 81.53 28.24 75.45 28.20
  Q 61.51 28.12 46.06 28.15
  Q 45.64 28.15 45.64 27.73
  L 45.65 11.02
  Q 45.65 8.45 43.33 9.56
  Q 42.95 9.74 42.58 9.92
  Q 40.18 11.06 40.19 13.71
  L 40.19 27.52
  Q 40.19 28.12 39.60 28.12
  Q 23.91 28.21 8.27 28.08
  Q 1.19 28.02 0.00 20.77
  Z"
/>
<path fill="#003764" d="
  M 233.71 24.52
  C 228.53 17.92 231.79 6.82 241.12 6.41
  Q 244.23 6.27 247.45 6.37
  Q 248.72 6.41 247.77 7.24
  L 245.60 9.13
  Q 245.11 9.56 244.45 9.51
  Q 236.29 8.90 235.20 15.98
  C 234.39 21.21 237.53 25.06 243.05 25.01
  Q 246.00 24.99 248.85 24.95
  A 0.53 0.52 -1.1 0 1 249.39 25.46
  L 249.42 27.49
  Q 249.43 28.15 248.76 28.15
  L 198.49 28.15
  Q 197.87 28.15 197.61 28.71
  Q 194.99 34.28 188.10 34.38
  Q 187.92 34.38 187.91 34.20
  L 187.88 31.71
  Q 187.88 31.34 188.24 31.32
  C 192.53 31.09 194.71 28.50 194.65 24.28
  Q 194.53 16.35 194.61 8.12
  A 0.46 0.43 -24.9 0 1 194.73 7.82
  Q 196.76 5.65 197.99 4.70
  A 0.09 0.09 0.0 0 1 198.14 4.77
  L 198.08 24.41
  A 0.58 0.58 0.0 0 0 198.66 24.99
  L 233.48 25.00
  Q 234.09 25.00 233.71 24.52
  Z"
/>
<path fill="#df4403" d="
  M 95.16 10.17
  L 95.26 11.66
  Q 95.30 12.24 94.97 12.72
  Q 93.99 14.12 92.54 15.23
  Q 92.02 15.63 92.03 14.98
  L 92.13 6.89
  A 0.63 0.63 0.0 0 1 92.80 6.27
  Q 96.85 6.51 100.76 6.16
  Q 101.39 6.10 101.06 6.64
  Q 98.96 10.05 96.01 9.43
  A 0.71 0.71 0.0 0 0 95.16 10.17
  Z"
/>
<path fill="#003764" d="
  M 182.16 21.17
  C 180.06 20.99 177.97 21.47 175.90 20.73
  Q 171.26 19.07 170.71 14.18
  C 170.28 10.25 173.60 6.52 177.52 6.38
  Q 181.41 6.24 185.91 6.33
  Q 186.70 6.34 186.67 7.13
  Q 186.43 13.13 186.62 19.77
  C 186.76 24.49 184.22 28.16 179.21 28.15
  Q 154.11 28.06 129.65 28.17
  Q 127.61 28.18 125.74 26.94
  C 121.18 23.94 122.53 18.69 122.26 14.06
  Q 122.19 13.01 122.93 12.26
  L 125.18 9.98
  Q 125.87 9.29 125.86 10.26
  L 125.75 20.84
  A 4.10 4.10 0.0 0 0 129.85 24.99
  L 178.95 24.99
  Q 180.85 24.99 182.09 23.56
  L 182.80 22.74
  Q 184.02 21.32 182.16 21.17
  Z
  M 183.13 17.54
  L 183.17 9.86
  A 0.46 0.46 0.0 0 0 182.71 9.40
  L 178.31 9.38
  A 4.19 4.16 -89.7 0 0 174.13 13.55
  L 174.13 13.77
  A 4.19 4.16 -89.7 0 0 178.27 17.98
  L 182.67 18.00
  A 0.46 0.46 0.0 0 0 183.13 17.54
  Z"
/>
<path fill="#003764" d="
  M 99.78 25.00
  C 109.10 24.71 110.21 12.09 101.51 9.49
  A 0.19 0.19 0.0 0 1 101.44 9.16
  L 103.93 6.94
  Q 104.11 6.77 104.34 6.87
  C 114.18 10.86 112.80 27.08 101.69 28.00
  Q 98.08 28.30 92.67 28.14
  Q 92.05 28.12 92.06 27.50
  L 92.08 25.63
  Q 92.08 24.96 92.75 24.99
  Q 96.22 25.11 99.78 25.00
  Z"
/>
<rect fill="#003764" x="-1.75" y="-1.80" transform="translate(17.24,32.61) rotate(0.5)" width="3.50" height="3.60" rx="0.42"/>
<rect fill="#003764" x="-1.75" y="-1.80" transform="translate(22.63,32.61) rotate(-0.2)" width="3.50" height="3.60" rx="0.40"/>
<rect fill="#003764" x="-1.82" y="-1.79" transform="translate(83.98,32.61) rotate(0.1)" width="3.64" height="3.58" rx="0.47"/>
<path fill="#003764" d="
  M 29.03 62.72
  C 23.13 61.88 21.57 57.48 21.73 52.13
  Q 21.91 46.07 21.71 40.98
  Q 21.70 40.59 22.09 40.59
  L 24.95 40.59
  Q 25.34 40.59 25.33 40.98
  Q 25.25 46.83 25.29 53.48
  Q 25.33 59.83 31.31 59.64
  C 35.41 59.51 36.59 56.12 36.48 52.46
  Q 36.32 47.53 36.45 42.41
  A 0.44 0.43 69.7 0 1 36.60 42.08
  L 39.92 38.98
  A 0.08 0.08 0.0 0 1 40.05 39.04
  Q 39.77 46.89 39.78 55.19
  C 39.79 58.40 37.49 61.50 34.22 62.39
  Q 33.01 62.72 31.78 63.33
  Q 30.77 63.83 29.84 63.07
  A 1.62 1.56 -20.5 0 0 29.03 62.72
  Z"
/>
<path fill="#003764" d="
  M 85.84 39.59
  L 85.78 62.06
  A 0.35 0.35 0.0 0 1 85.44 62.41
  L 82.70 62.45
  A 0.35 0.35 0.0 0 1 82.34 62.10
  L 82.33 42.50
  A 0.35 0.35 0.0 0 1 82.43 42.26
  L 85.24 39.35
  A 0.35 0.35 0.0 0 1 85.84 39.59
  Z"
/>
<path fill="#003764" d="
  M 128.31 53.04
  A 0.27 0.27 0.0 0 0 128.04 52.76
  L 119.46 52.76
  A 0.27 0.27 0.0 0 0 119.19 53.04
  L 119.25 61.95
  Q 119.25 62.41 118.79 62.42
  L 116.21 62.45
  Q 115.71 62.46 115.71 61.96
  L 115.70 41.01
  A 0.40 0.39 90.0 0 1 116.09 40.61
  L 118.88 40.62
  A 0.38 0.38 0.0 0 1 119.26 41.00
  L 119.19 48.36
  Q 119.18 49.63 120.45 49.63
  L 126.98 49.62
  Q 128.34 49.62 128.32 48.27
  L 128.23 43.22
  Q 128.21 42.44 128.72 41.86
  Q 129.86 40.57 131.14 39.47
  Q 131.74 38.95 131.74 39.74
  L 131.70 61.76
  A 0.75 0.74 -85.0 0 1 130.84 62.49
  Q 130.05 62.36 129.28 62.49
  A 0.90 0.90 0.0 0 1 128.24 61.59
  L 128.31 53.04
  Z"
/>
<path fill="#df4403" d="
  M 0.00 49.69
  L 0.00 40.61
  L 8.74 40.59
  A 0.35 0.35 0.0 0 1 8.98 41.20
  L 6.53 43.48
  A 1.17 1.15 24.6 0 1 5.70 43.78
  L 3.71 43.70
  Q 3.10 43.68 3.12 44.29
  L 3.19 46.19
  Q 3.21 46.66 2.92 47.04
  Q 1.68 48.70 0.00 49.69
  Z"
/>
<path fill="#003764" d="
  M 57.59 51.28
  C 62.76 55.07 58.84 62.57 52.97 62.44
  Q 48.77 62.35 44.65 62.45
  Q 43.97 62.46 43.97 61.78
  L 43.96 41.00
  Q 43.96 40.62 44.35 40.62
  Q 48.21 40.64 52.38 40.58
  C 58.10 40.50 60.61 45.83 57.47 50.62
  Q 57.21 51.01 57.59 51.28
  Z
  M 47.44 44.13
  L 47.42 49.11
  A 0.46 0.46 0.0 0 0 47.87 49.57
  L 52.51 49.60
  A 2.96 2.86 0.3 0 0 55.49 46.75
  L 55.49 46.57
  A 2.96 2.86 0.3 0 0 52.55 43.70
  L 47.91 43.67
  A 0.46 0.46 0.0 0 0 47.44 44.13
  Z
  M 47.44 52.99
  L 47.44 59.01
  A 0.34 0.34 0.0 0 0 47.78 59.35
  L 53.32 59.35
  A 3.19 3.12 90.0 0 0 56.44 56.16
  L 56.44 55.84
  A 3.19 3.12 -90.0 0 0 53.32 52.65
  L 47.78 52.65
  A 0.34 0.34 0.0 0 0 47.44 52.99
  Z"
/>
<path fill="#003764" d="
  M 66.22 57.23
  L 64.56 62.13
  A 0.37 0.37 0.0 0 1 64.22 62.38
  L 61.31 62.48
  A 0.37 0.37 0.0 0 1 60.95 61.98
  L 68.64 40.86
  A 0.37 0.37 0.0 0 1 68.99 40.62
  L 72.30 40.61
  A 0.37 0.37 0.0 0 1 72.65 40.85
  L 80.33 62.01
  A 0.37 0.37 0.0 0 1 79.97 62.51
  L 77.04 62.38
  A 0.37 0.37 0.0 0 1 76.71 62.13
  L 75.07 57.23
  A 0.37 0.37 0.0 0 0 74.72 56.98
  L 66.57 56.98
  A 0.37 0.37 0.0 0 0 66.22 57.23
  Z
  M 67.44 53.44
  A 0.32 0.32 0.0 0 0 67.74 53.86
  L 73.57 53.84
  A 0.32 0.32 0.0 0 0 73.87 53.42
  L 70.94 44.63
  A 0.32 0.32 0.0 0 0 70.34 44.63
  L 67.44 53.44
  Z"
/>
<path fill="#003764" d="
  M 100.14 52.48
  C 100.46 59.24 106.73 59.64 111.88 59.28
  Q 112.68 59.22 112.70 60.02
  L 112.74 61.48
  Q 112.76 62.44 111.79 62.47
  C 106.03 62.66 99.63 62.56 97.36 56.08
  Q 95.90 51.90 97.10 47.87
  C 99.34 40.31 105.71 40.42 112.30 40.55
  Q 114.04 40.59 112.71 41.72
  Q 112.29 42.08 112.04 42.55
  Q 111.34 43.84 109.88 43.74
  Q 99.69 43.06 100.14 52.48
  Z"
/>
<path fill="#003764" d="
  M 138.90 57.22
  L 137.24 62.13
  A 0.37 0.37 0.0 0 1 136.90 62.38
  L 133.99 62.49
  A 0.37 0.37 0.0 0 1 133.63 61.99
  L 141.30 40.85
  A 0.37 0.37 0.0 0 1 141.65 40.60
  L 144.96 40.62
  A 0.37 0.37 0.0 0 1 145.31 40.86
  L 153.00 61.96
  A 0.37 0.37 0.0 0 1 152.65 62.46
  L 149.74 62.38
  A 0.37 0.37 0.0 0 1 149.40 62.13
  L 147.74 57.21
  A 0.37 0.37 0.0 0 0 147.38 56.96
  L 139.25 56.97
  A 0.37 0.37 0.0 0 0 138.90 57.22
  Z
  M 140.09 53.45
  A 0.30 0.30 0.0 0 0 140.37 53.85
  L 146.25 53.85
  A 0.30 0.30 0.0 0 0 146.53 53.45
  L 143.59 44.58
  A 0.30 0.30 0.0 0 0 143.03 44.58
  L 140.09 53.45
  Z"
/>
<path fill="#003764" d="
  M 166.03 58.01
  L 171.23 40.85
  A 0.32 0.32 0.0 0 1 171.54 40.62
  L 176.18 40.60
  A 0.32 0.32 0.0 0 1 176.50 40.92
  L 176.47 62.12
  A 0.32 0.32 0.0 0 1 176.15 62.44
  L 173.23 62.40
  A 0.32 0.32 0.0 0 1 172.91 62.08
  L 173.15 46.05
  A 0.32 0.32 0.0 0 0 172.53 45.95
  L 167.76 62.17
  A 0.32 0.32 0.0 0 1 167.45 62.40
  L 163.98 62.39
  A 0.32 0.32 0.0 0 1 163.67 62.16
  L 158.92 45.94
  A 0.32 0.32 0.0 0 0 158.29 46.03
  L 158.51 62.08
  A 0.32 0.32 0.0 0 1 158.19 62.40
  L 155.28 62.43
  A 0.32 0.32 0.0 0 1 154.96 62.11
  L 154.94 40.91
  A 0.32 0.32 0.0 0 1 155.26 40.59
  L 159.91 40.62
  A 0.32 0.32 0.0 0 1 160.22 40.85
  L 165.41 58.01
  A 0.32 0.32 0.0 0 0 166.03 58.01
  Z"
/>
<path fill="#003764" d="
  M 194.16 51.23
  C 199.51 55.38 195.36 62.67 189.18 62.46
  Q 185.33 62.33 181.16 62.48
  A 0.54 0.53 89.0 0 1 180.61 61.94
  L 180.60 41.23
  Q 180.60 40.55 181.28 40.57
  Q 184.97 40.69 188.92 40.57
  C 194.41 40.41 197.48 45.93 194.06 50.45
  Q 193.72 50.89 194.16 51.23
  Z
  M 184.08 44.08
  L 184.06 49.18
  A 0.40 0.40 0.0 0 0 184.46 49.58
  L 189.17 49.59
  A 2.93 2.83 0.2 0 0 192.11 46.77
  L 192.11 46.53
  A 2.93 2.83 0.2 0 0 189.19 43.69
  L 184.48 43.68
  A 0.40 0.40 0.0 0 0 184.08 44.08
  Z
  M 184.07 53.08
  L 184.07 58.92
  A 0.43 0.43 0.0 0 0 184.50 59.35
  L 189.64 59.35
  A 3.43 3.19 0.0 0 0 193.07 56.16
  L 193.07 55.84
  A 3.43 3.19 -0.0 0 0 189.64 52.65
  L 184.50 52.65
  A 0.43 0.43 0.0 0 0 184.07 53.08
  Z"
/>
<path fill="#003764" d="
  M 202.91 44.01
  L 202.89 49.27
  A 0.30 0.30 0.0 0 0 203.19 49.57
  L 211.42 49.58
  A 0.30 0.30 0.0 0 1 211.72 49.89
  L 211.67 52.37
  A 0.30 0.30 0.0 0 1 211.37 52.66
  L 203.21 52.67
  A 0.30 0.30 0.0 0 0 202.91 52.97
  L 202.90 59.05
  A 0.30 0.30 0.0 0 0 203.20 59.35
  L 212.37 59.35
  A 0.30 0.30 0.0 0 1 212.67 59.66
  L 212.63 62.15
  A 0.30 0.30 0.0 0 1 212.33 62.44
  L 199.78 62.52
  A 0.30 0.30 0.0 0 1 199.48 62.22
  L 199.46 40.92
  A 0.30 0.30 0.0 0 1 199.76 40.62
  L 212.74 40.58
  A 0.30 0.30 0.0 0 1 212.95 41.10
  L 210.18 43.63
  A 0.30 0.30 0.0 0 1 209.97 43.71
  L 203.21 43.71
  A 0.30 0.30 0.0 0 0 202.91 44.01
  Z"
/>
<path fill="#003764" d="
  M 219.02 53.22
  L 219.11 61.75
  Q 219.12 62.37 218.50 62.40
  L 216.30 62.49
  Q 215.57 62.52 215.57 61.80
  L 215.57 41.22
  Q 215.57 40.58 216.21 40.59
  Q 220.23 40.62 224.44 40.62
  C 229.99 40.62 232.41 47.27 228.59 51.13
  C 228.05 51.67 227.23 51.80 226.74 52.29
  Q 226.40 52.62 226.62 53.05
  L 231.28 61.92
  A 0.52 0.52 0.0 0 1 230.62 62.64
  Q 229.80 62.29 228.60 62.44
  Q 227.70 62.55 227.32 61.74
  L 223.27 53.25
  A 1.07 1.07 0.0 0 0 222.27 52.64
  L 219.53 52.68
  Q 219.01 52.69 219.02 53.22
  Z
  M 219.02 44.07
  L 219.00 49.19
  A 0.39 0.39 0.0 0 0 219.39 49.58
  L 224.13 49.59
  A 2.93 2.82 0.2 0 0 227.07 46.78
  L 227.07 46.52
  A 2.93 2.82 0.2 0 0 224.15 43.69
  L 219.41 43.68
  A 0.39 0.39 0.0 0 0 219.02 44.07
  Z"
/>
<path fill="#003764" d="
  M 235.09 62.44
  A 0.94 0.94 0.0 0 1 234.17 61.48
  L 234.21 60.02
  A 0.80 0.80 0.0 0 1 235.05 59.24
  Q 238.78 59.46 242.22 59.24
  C 245.33 59.04 247.46 55.05 243.98 53.77
  Q 241.37 52.81 238.72 52.21
  C 230.66 50.40 232.99 40.68 240.51 40.65
  Q 244.27 40.63 248.01 40.52
  A 0.46 0.46 0.0 0 1 248.32 41.33
  L 245.94 43.39
  Q 245.35 43.91 244.57 43.82
  C 242.61 43.60 239.07 43.26 237.72 44.95
  A 2.39 2.38 -61.5 0 0 238.82 48.69
  C 242.18 49.82 246.38 50.03 248.53 53.30
  C 251.06 57.15 247.40 61.54 243.75 62.20
  Q 241.74 62.57 235.09 62.44
  Z"
/>
<path fill="#003764" d="
  M 0.00 62.25
  L 0.00 59.39
  Q 3.49 59.27 7.00 59.29
  C 17.02 59.36 18.25 45.76 9.57 44.05
  A 0.23 0.23 0.0 0 1 9.45 43.67
  L 11.70 41.21
  A 0.43 0.43 0.0 0 1 12.17 41.11
  C 21.92 45.27 20.88 60.17 10.25 62.28
  Q 7.62 62.79 0.00 62.25
  Z"
/>
</svg>
