<?xml version="1.0" encoding="utf-8"?>
<!-- Generator: Adobe Illustrator 28.1.0, SVG Export Plug-In . SVG Version: 6.00 Build 0)  -->
<svg version="1.1" id="Layer_1" xmlns="http://www.w3.org/2000/svg" xmlns:xlink="http://www.w3.org/1999/xlink" x="0px" y="0px"
	 viewBox="0 0 1157 453" style="enable-background:new 0 0 1157 453;" xml:space="preserve">
<style type="text/css">
	.st0{fill:none;stroke:#8E8E8D;stroke-width:2;}
	.st1{fill:none;stroke:#E08687;stroke-width:2;}
	.st2{fill:#1D1D1B;}
	.st3{fill:#FFFFFF;}
	.st4{fill:#C10D0E;}
</style>
<g>
	<path vector-effect="non-scaling-stroke" class="st0" d="M0,227.2c0.7,20.5,7,39.2,18.7,56.1c15.3,22.1,36.4,40.3,59.2,55.6
		c32.2,21.5,68.1,38.3,104.9,52c54.8,20.2,113.2,34.5,170.9,43.9c72.7,11.8,146.5,17.4,221.2,17.6c66.3,0.2,131.6-4.1,196-12.9
		c57.1-7.8,114.5-19.9,169.5-37.5c40.7-12.9,79.3-28.6,115.7-49.5c15.1-8.7,29.1-18.1,41.9-28.2c19.8-15.7,38.3-35.2,48.6-57.6
		c25.5-55.3-5.1-103.9-48.2-138.1c-14.8-11.7-31.1-22.5-48.9-32.3c-42.1-23.1-87.3-40-133.8-53.2c-63.7-18.1-130-29.6-195.9-36
		C620-2.6,520.6-2.1,421.6,8.6c-34,3.7-67.8,8.8-101.6,15.4c-55.5,10.9-109.8,26-161.3,47.3c-33.5,13.9-66.6,31.2-95.5,53
		C44,138.7,27,155.6,14.6,176.1C5.4,191.4,0.5,207.9,0,225.5"/>
	<path vector-effect="non-scaling-stroke" class="st0" d="M123.1,103.9c-26.3,13.5-52.3,30.6-72.3,51.4
		c-27.3,28.4-41.7,64.3-26.1,102.6c5.8,14.2,15.3,27.3,26.1,38.3c23.1,23.7,52.4,41.9,82.6,56.4c46.8,22.4,97.3,38.3,148.1,49.8
		c51.6,11.7,105,20.1,160.1,25.1c95,8.5,189.5,8.2,283.4-1c59.9-5.8,120-15.9,177.8-30.9c46.1-12,91.7-27.8,133.6-49.6
		c19.2-10,36.4-21.1,51.5-33.2c34.1-27.4,61.3-66.7,46.4-112.4c-7.1-21.6-22.3-40.2-39.9-55.5c-25.1-21.9-55.9-39-87.2-52.6
		c-20.2-8.8-41.1-16.5-62.6-23.3c-72.1-22.7-148.9-36.2-225.4-43.5c-96.9-9.2-195.6-9.5-292.3,0c-56,5.5-109.5,14.5-160.5,26.9
		C217.2,64.4,168.3,80.7,123.1,103.9"/>
	<path vector-effect="non-scaling-stroke" class="st1" d="M1013.8,348.1c18.8-8.8,36.1-18.4,51.7-28.9
		c22.1-14.8,43.5-33.5,55.4-56.2c29.2-55.9-12.8-102.2-56.8-131.2c-35.6-23.5-76.6-40.8-118.3-54.1c-26.4-8.5-52.9-15.6-79.5-21.4
		C804.8,42.8,740.1,34,672.1,29.7c-109.2-6.9-217.5-3.2-324.2,14.2c-51.7,8.5-103.1,20.5-152.6,37.9c-34.7,12.2-68.1,27.2-98.6,46.8
		c-28.4,18.3-59,44.6-67.8,78.2c-16.8,64.3,53.6,111,101.3,135c37.5,18.8,75.9,32.3,117,43.7c6.7,1.8,13.3,3.6,19.8,5.2
		c51.3,12.6,104.8,21.7,160.5,27.3c106.1,10.7,211.7,10.1,316.7-1.6c32.4-3.6,64.8-8.6,97.1-14.9
		C900.8,389.8,960.3,373,1013.8,348.1"/>
	<path vector-effect="non-scaling-stroke" class="st1" d="M285.6,282.9c-0.2,0-0.4-0.2-0.4-0.4l0,0l0-54.3c0-0.2,0.2-0.4,0.4-0.4
		h100.8c0.2,0,0.4-0.2,0.4-0.4V194c0-0.2-0.2-0.4-0.4-0.4l0,0l-100.8,0c-0.2,0-0.4-0.2-0.4-0.4l0-44.3c0-0.2,0.2-0.4,0.4-0.4
		l108.5,0c0.2,0,0.4-0.2,0.4-0.4c0,0,0,0,0,0l0-33.6c0-0.2-0.2-0.4-0.4-0.4l0,0H244.5c-0.2,0-0.4,0.2-0.4,0.4l0,0l0,202.4
		c0,0.2,0.2,0.4,0.4,0.4c0,0,0,0,0,0H398c0.2,0,0.4-0.2,0.4-0.4l0,0l0-33.6c0-0.2-0.2-0.4-0.4-0.4H285.6"/>
	<path vector-effect="non-scaling-stroke" class="st1" d="M672,317.3c0.2,0,0.4-0.2,0.4-0.4v0l-0.1-168.1c0-0.2,0.2-0.4,0.4-0.4
		l59.3,0c0.2,0,0.4-0.2,0.4-0.4l0-33.6c0-0.2-0.2-0.4-0.4-0.4l-160.4,0.1c-0.2,0-0.4,0.2-0.4,0.4c0,0,0,0,0,0l0,33.6
		c0,0.2,0.2,0.4,0.4,0.4l59.3,0c0.2,0,0.4,0.2,0.4,0.4l0.1,168.1c0,0.2,0.2,0.4,0.4,0.4l0,0L672,317.3"/>
	<path vector-effect="non-scaling-stroke" class="st1" d="M800,148.9c0-0.2,0.2-0.4,0.4-0.4l108.4,0c0.2,0,0.4-0.2,0.4-0.4
		c0,0,0,0,0,0v-33.6c0-0.2-0.2-0.4-0.4-0.4l0,0H759.2c-0.2,0-0.4,0.2-0.4,0.4l0,0v202.4c0,0.2,0.2,0.4,0.4,0.4l0,0h153.6
		c0.2,0,0.4-0.2,0.4-0.4l0,0v-33.6c0-0.2-0.2-0.4-0.4-0.4H800.4c-0.2,0-0.4-0.2-0.4-0.4l0,0l0-54.3c0-0.2,0.2-0.4,0.4-0.4l100.8,0
		c0.2,0,0.4-0.2,0.4-0.4l0-33.6c0-0.2-0.2-0.4-0.4-0.4l0,0H800.4c-0.2,0-0.4-0.2-0.4-0.4c0,0,0,0,0,0V148.9"/>
	<path vector-effect="non-scaling-stroke" class="st1" d="M475.9,282.9c-0.2,0-0.3-0.1-0.3-0.3V116.2c0-0.2-0.1-0.3-0.3-0.3
		c0,0,0,0,0,0l-40.5,0c-0.2,0-0.3,0.1-0.3,0.3l0,200.8c0,0.2,0.1,0.3,0.3,0.3l0,0h142.3c0.2,0,0.3-0.1,0.3-0.3v0l0-33.7
		c0-0.2-0.1-0.3-0.3-0.3l0,0L475.9,282.9"/>
	<path vector-effect="non-scaling-stroke" class="st1" d="M484.3,343c0-0.2-0.2-0.3-0.3-0.3h0l-4.1,0c-0.2,0-0.3,0.2-0.3,0.3l0,4.7
		c0,0.2,0.2,0.3,0.3,0.3l4.1,0c0.2,0,0.3-0.2,0.3-0.3v0L484.3,343"/>
	<path vector-effect="non-scaling-stroke" class="st1" d="M604.9,352l0,29c0,0.1,0.1,0.2,0.2,0.2l4.4,0c0.1,0,0.2-0.1,0.2-0.2l0-38
		c0-0.3-0.2-0.5-0.5-0.5h-1.9c-0.4,0-0.7,0.2-0.9,0.5c-2.5,3.8-5.9,6.8-10.3,8.9c-0.4,0.2-0.6,0.5-0.6,0.9l0,3.3
		c0,0.4,0.2,0.6,0.6,0.4c2.8-1.2,5.7-2.8,8-4.8C604.7,351.2,604.9,351.3,604.9,352"/>
	<path vector-effect="non-scaling-stroke" class="st1" d="M642.5,364c0,4.4-1.2,10.9-5.5,13.1c-4.4,2.2-9,0.1-9.7-5
		c0-0.1-0.1-0.2-0.3-0.2c0,0,0,0,0,0l-4.1,0.4c-0.1,0-0.2,0.1-0.2,0.2c0.9,7,6.5,10.3,13.2,9.1c11.7-2.1,11.9-17,11-25.9
		c-0.3-2.9-1.2-5.5-2.6-7.6c-3.5-5.4-10.8-7.1-16.3-4c-6.1,3.4-7.7,11.7-4.8,17.8c3.6,7.5,13.3,8.4,18.7,2
		C642.3,363.3,642.5,363.4,642.5,364"/>
	<path vector-effect="non-scaling-stroke" class="st1" d="M672.5,364c-0.2,5.7-2.1,14.8-10,13.8c-2.9-0.4-4.7-2.3-5.3-5.8
		c0-0.2-0.1-0.3-0.3-0.3l-4,0.4c-0.2,0-0.2,0.1-0.2,0.3c1.1,7.6,7.5,10.7,14.5,8.8c10.7-3,10.7-18,9.6-26.6
		c-0.8-5.8-4.3-10.8-10.2-11.9c-4-0.7-7.4,0.1-10.2,2.5c-5.9,4.9-6,16,0.3,20.6c5.1,3.7,11.1,2.8,15.3-2
		C672.3,363.3,672.5,363.4,672.5,364"/>
	<path vector-effect="non-scaling-stroke" class="st1" d="M688.2,376.2c0.3-0.9,0.8-1.7,1.5-2.3c3.7-3.2,7.4-6.4,10.9-9.7
		c4.3-3.9,7.4-9.4,5-15.2c-2.5-5.9-9.3-7.6-15.1-6.1c-5.2,1.3-8,4.8-8.5,10.5c0,0.2,0.1,0.2,0.2,0.2l4.2,0.4c0.2,0,0.3-0.1,0.3-0.2
		c1.2-11.9,17.7-8.1,14.5,1.4c-1.4,4.1-5.5,7.6-8.7,10.3c-4.9,4-10.6,8.5-11.6,15c-0.1,0.4,0.1,0.6,0.6,0.6l24.8,0
		c0.2,0,0.2-0.1,0.2-0.2l0-4.1c0-0.1-0.1-0.2-0.2-0.2l-17.8,0C688.2,376.6,688.1,376.5,688.2,376.2"/>
	<path vector-effect="non-scaling-stroke" class="st1" d="M457.6,362.6c-2.7-2-1.4-5,1.4-5.7c3.7-0.9,8.2-0.5,9.2,4
		c0,0.1,0.2,0.2,0.3,0.2l4-0.5c0.2,0,0.3-0.1,0.2-0.3c-1.1-7.8-10.4-8.8-16.2-6.6c-7.2,2.6-6.4,12.2,1,14.2c3,0.8,6,1.7,8.9,2.6
		c1.9,0.6,2.8,1.8,2.5,3.6c-0.6,4.1-6.2,4.3-9.2,3.4c-2.4-0.7-3.8-2.4-4.3-5.1c0-0.2-0.1-0.2-0.3-0.2l-4.1,0.6
		c-0.2,0-0.3,0.1-0.2,0.3c0.7,3.6,2.4,6,5,7.3c6.1,2.9,17.2,1.7,18-6.9c0.3-3.7-1.4-6.2-5.2-7.5c-3-1-6.2-1.9-9.8-2.8
		C458.4,363.1,458,362.9,457.6,362.6"/>
	<path vector-effect="non-scaling-stroke" class="st1" d="M495.7,356.1l0-2.1c0-0.5-0.2-0.8-0.8-0.8l-2.6,0c-0.6,0-0.9,0.3-0.9,0.9
		v26.8c0,0.1,0.1,0.2,0.2,0.2l4.3,0c0.2,0,0.2-0.1,0.2-0.3c0-5.2,0-10.6,0-16.1c0-4.5,2-7.2,6-7.9c4-0.8,7.1,1.6,7.1,5.8
		c0.1,6.4,0.1,12.5,0,18.3c0,0.2,0.1,0.2,0.2,0.2l4.3,0c0.1,0,0.2-0.1,0.2-0.2c0.1-7,0-13.6-0.1-19.7c-0.1-4.2-1.9-6.8-5.4-8
		c-4.9-1.6-9-0.6-12.4,3C495.9,356.8,495.7,356.7,495.7,356.1"/>
	<path vector-effect="non-scaling-stroke" class="st1" d="M529.7,357.2c4.7-1.8,7.9-0.3,9.6,4.7c0.1,0.2,0.2,0.2,0.4,0.2l3.9-0.6
		c0.2,0,0.3-0.2,0.2-0.4c-0.8-3.9-3-6.5-6.5-7.8c-4.5-1.6-10.6-0.6-13.9,3.1c-5.3,5.9-4.6,19.4,2.5,23.5c7.5,4.3,16.4,1,18.3-8.1
		c0-0.2,0-0.4-0.3-0.4l-4.2-0.5c-0.1,0-0.2,0-0.2,0.2c-1.2,9.1-12.8,8.7-14.3,0.2C524.4,366.7,524.5,359.2,529.7,357.2"/>
	<path vector-effect="non-scaling-stroke" class="st1" d="M552.4,368.4l19.5,0c0.4,0,0.6-0.2,0.6-0.6c0.2-8.8-4.5-15.7-13.8-15.1
		c-9.7,0.7-13.1,9.8-11.6,18.4c1.6,9.2,10.3,12.6,18.4,9.6c3.3-1.2,5.5-3.8,6.7-7.7c0-0.1,0-0.3-0.2-0.3c0,0,0,0,0,0l-4.5-0.5
		c-0.2,0-0.3,0-0.3,0.2c-0.8,2.6-2.3,4.2-4.5,5c-5.9,2.1-10.4-2.3-11-8.2C551.6,368.6,551.9,368.4,552.4,368.4"/>
	<path vector-effect="non-scaling-stroke" class="st1" d="M484.2,353.5c0-0.2-0.1-0.3-0.3-0.3h-4.2c-0.2,0-0.3,0.1-0.3,0.3v27.4
		c0,0.2,0.1,0.3,0.3,0.3h4.2c0.2,0,0.3-0.1,0.3-0.3V353.5"/>
	<path vector-effect="non-scaling-stroke" class="st1" d="M634.1,364c4.2,0.1,7.8-3.7,8-8.5s-3.1-8.9-7.3-9.1
		c-4.2-0.1-7.8,3.7-8,8.5C626.5,359.8,629.8,363.8,634.1,364"/>
	<path vector-effect="non-scaling-stroke" class="st1" d="M664,364c4.2,0.1,7.8-3.7,8-8.5c0.2-4.9-3.1-8.9-7.4-9.1
		c-4.2-0.1-7.8,3.7-8,8.5S659.8,363.8,664,364"/>
	<path vector-effect="non-scaling-stroke" class="st1" d="M552.3,364.5h14.8c0.1,0,0.3-0.1,0.3-0.3c0,0,0,0,0,0v-0.1
		c0-4.2-3.4-7.6-7.6-7.6l0,0h-0.1c-4.2,0-7.6,3.4-7.6,7.6l0,0v0.1C552,364.4,552.2,364.5,552.3,364.5L552.3,364.5"/>
</g>
<path class="st2" d="M0,227.2v-1.7c0.5-17.6,5.4-34.1,14.6-49.4C27,155.6,44,138.7,63.2,124.3c28.9-21.8,62-39.1,95.5-53
	C210.2,50,264.5,34.8,320,24c33.7-6.6,67.6-11.7,101.6-15.4C520.6-2.1,620-2.6,719.8,7.1c65.9,6.4,132.2,17.9,195.9,36
	c46.5,13.2,91.7,30.1,133.8,53.2c17.8,9.8,34.1,20.6,48.9,32.3c43.1,34.2,73.8,82.9,48.2,138.1c-10.3,22.4-28.8,41.9-48.6,57.6
	c-12.8,10.2-26.8,19.6-41.9,28.2c-36.4,20.9-75,36.6-115.7,49.5c-55.1,17.5-112.4,29.7-169.5,37.5c-64.3,8.8-129.7,13.1-196,12.9
	c-74.8-0.2-148.5-5.8-221.2-17.6c-57.7-9.4-116.1-23.7-170.9-43.9c-36.9-13.6-72.7-30.4-104.9-52c-22.9-15.3-43.9-33.5-59.2-55.6
	C7,266.4,0.7,247.7,0,227.2z M123.1,103.9c-26.3,13.5-52.3,30.6-72.3,51.4c-27.3,28.4-41.7,64.3-26.1,102.6
	c5.8,14.2,15.3,27.3,26.1,38.3c23.1,23.7,52.4,41.9,82.6,56.4c46.8,22.4,97.3,38.3,148.1,49.8c51.6,11.7,105,20.1,160.1,25.1
	c95,8.5,189.5,8.2,283.4-1c59.9-5.8,120-15.9,177.8-30.9c46.1-12,91.7-27.8,133.6-49.6c19.2-10,36.4-21.1,51.5-33.2
	c34.1-27.4,61.3-66.7,46.4-112.4c-7.1-21.6-22.3-40.2-39.9-55.5c-25.1-21.9-55.9-39-87.2-52.6c-20.2-8.8-41.1-16.5-62.6-23.3
	c-72.1-22.7-148.9-36.2-225.4-43.5c-96.9-9.2-195.6-9.5-292.3,0c-56,5.5-109.5,14.5-160.5,26.9C217.2,64.4,168.3,80.7,123.1,103.9z"
	/>
<path class="st3" d="M123.1,103.9c45.1-23.2,94-39.5,143.4-51.5C317.5,39.9,371,30.9,427,25.4c96.7-9.5,195.4-9.2,292.3,0
	c76.5,7.3,153.4,20.8,225.4,43.5c21.5,6.8,42.3,14.5,62.6,23.3c31.3,13.6,62.1,30.7,87.2,52.6c17.5,15.3,32.8,33.9,39.9,55.5
	c14.9,45.7-12.3,85.1-46.4,112.4c-15.1,12.2-32.3,23.2-51.5,33.2c-41.9,21.9-87.5,37.6-133.6,49.6c-57.9,15-118,25.1-177.8,30.9
	c-93.9,9.2-188.4,9.5-283.4,1c-55.1-5-108.5-13.3-160.1-25.1c-50.8-11.6-101.3-27.4-148.1-49.8c-30.2-14.5-59.5-32.6-82.6-56.4
	c-10.8-11-20.2-24.1-26.1-38.3c-15.6-38.3-1.2-74.2,26.1-102.6C70.9,134.4,96.8,117.4,123.1,103.9z M1013.8,348.1
	c18.8-8.8,36.1-18.4,51.7-28.9c22.1-14.8,43.5-33.5,55.4-56.2c29.2-55.9-12.8-102.2-56.8-131.2c-35.6-23.5-76.6-40.8-118.3-54.1
	c-26.4-8.5-52.9-15.6-79.5-21.4C804.8,42.8,740.1,34,672.1,29.7c-109.2-6.9-217.5-3.2-324.2,14.2c-51.7,8.5-103.1,20.5-152.6,37.9
	c-34.7,12.2-68.1,27.2-98.6,46.8c-28.4,18.3-59,44.6-67.8,78.2c-16.8,64.3,53.6,111,101.3,135c37.5,18.8,75.9,32.3,117,43.7
	c6.7,1.8,13.3,3.6,19.8,5.2c51.3,12.6,104.8,21.7,160.5,27.3c106.1,10.7,211.7,10.1,316.7-1.6c32.4-3.6,64.8-8.6,97.1-14.9
	C900.8,389.8,960.3,373,1013.8,348.1z"/>
<path class="st4" d="M1013.8,348.1c-53.5,24.9-113,41.7-172.5,53.3c-32.3,6.3-64.7,11.3-97.1,14.9c-105,11.7-210.6,12.3-316.7,1.6
	c-55.7-5.6-109.2-14.7-160.5-27.3c-6.5-1.6-13.1-3.3-19.8-5.2c-41.1-11.4-79.5-24.9-117-43.7C82.4,317.9,12,271.1,28.8,206.9
	c8.8-33.6,39.4-59.9,67.8-78.2c30.5-19.6,64-34.7,98.6-46.8c49.5-17.4,100.9-29.4,152.6-37.9c106.7-17.5,215-21.1,324.2-14.2
	c68,4.3,132.7,13.1,194.1,26.6c26.6,5.8,53.2,13,79.5,21.4c41.7,13.4,82.8,30.7,118.3,54.1c44,29,86,75.3,56.8,131.2
	c-11.9,22.7-33.3,41.4-55.4,56.2C1049.8,329.8,1032.6,339.4,1013.8,348.1z M285.6,282.9c-0.2,0-0.4-0.2-0.4-0.4l0,0l0-54.3
	c0-0.2,0.2-0.4,0.4-0.4h100.8c0.2,0,0.4-0.2,0.4-0.4V194c0-0.2-0.2-0.4-0.4-0.4l0,0l-100.8,0c-0.2,0-0.4-0.2-0.4-0.4l0-44.3
	c0-0.2,0.2-0.4,0.4-0.4l108.5,0c0.2,0,0.4-0.2,0.4-0.4c0,0,0,0,0,0l0-33.6c0-0.2-0.2-0.4-0.4-0.4l0,0H244.5c-0.2,0-0.4,0.2-0.4,0.4
	l0,0l0,202.4c0,0.2,0.2,0.4,0.4,0.4c0,0,0,0,0,0H398c0.2,0,0.4-0.2,0.4-0.4l0,0l0-33.6c0-0.2-0.2-0.4-0.4-0.4H285.6z M672,317.3
	c0.2,0,0.4-0.2,0.4-0.4v0l-0.1-168.1c0-0.2,0.2-0.4,0.4-0.4l59.3,0c0.2,0,0.4-0.2,0.4-0.4l0-33.6c0-0.2-0.2-0.4-0.4-0.4l-160.4,0.1
	c-0.2,0-0.4,0.2-0.4,0.4c0,0,0,0,0,0l0,33.6c0,0.2,0.2,0.4,0.4,0.4l59.3,0c0.2,0,0.4,0.2,0.4,0.4l0.1,168.1c0,0.2,0.2,0.4,0.4,0.4
	l0,0L672,317.3z M800,148.9c0-0.2,0.2-0.4,0.4-0.4l108.4,0c0.2,0,0.4-0.2,0.4-0.4c0,0,0,0,0,0v-33.6c0-0.2-0.2-0.4-0.4-0.4l0,0
	H759.2c-0.2,0-0.4,0.2-0.4,0.4l0,0v202.4c0,0.2,0.2,0.4,0.4,0.4l0,0h153.6c0.2,0,0.4-0.2,0.4-0.4l0,0v-33.6c0-0.2-0.2-0.4-0.4-0.4
	H800.4c-0.2,0-0.4-0.2-0.4-0.4l0,0l0-54.3c0-0.2,0.2-0.4,0.4-0.4l100.8,0c0.2,0,0.4-0.2,0.4-0.4l0-33.6c0-0.2-0.2-0.4-0.4-0.4l0,0
	H800.4c-0.2,0-0.4-0.2-0.4-0.4c0,0,0,0,0,0V148.9z M475.9,282.9c-0.2,0-0.3-0.1-0.3-0.3V116.2c0-0.2-0.1-0.3-0.3-0.3c0,0,0,0,0,0
	l-40.5,0c-0.2,0-0.3,0.1-0.3,0.3l0,200.8c0,0.2,0.1,0.3,0.3,0.3l0,0h142.3c0.2,0,0.3-0.1,0.3-0.3v0l0-33.7c0-0.2-0.1-0.3-0.3-0.3
	l0,0L475.9,282.9z M484.3,343c0-0.2-0.2-0.3-0.3-0.3h0l-4.1,0c-0.2,0-0.3,0.2-0.3,0.3l0,4.7c0,0.2,0.2,0.3,0.3,0.3l4.1,0
	c0.2,0,0.3-0.2,0.3-0.3v0L484.3,343z M604.9,352l0,29c0,0.1,0.1,0.2,0.2,0.2l4.4,0c0.1,0,0.2-0.1,0.2-0.2l0-38
	c0-0.3-0.2-0.5-0.5-0.5h-1.9c-0.4,0-0.7,0.2-0.9,0.5c-2.5,3.8-5.9,6.8-10.3,8.9c-0.4,0.2-0.6,0.5-0.6,0.9l0,3.3
	c0,0.4,0.2,0.6,0.6,0.4c2.8-1.2,5.7-2.8,8-4.8C604.7,351.2,604.9,351.3,604.9,352z M642.5,364c0,4.4-1.2,10.9-5.5,13.1
	c-4.4,2.2-9,0.1-9.7-5c0-0.1-0.1-0.2-0.3-0.2c0,0,0,0,0,0l-4.1,0.4c-0.1,0-0.2,0.1-0.2,0.2c0.9,7,6.5,10.3,13.2,9.1
	c11.7-2.1,11.9-17,11-25.9c-0.3-2.9-1.2-5.5-2.6-7.6c-3.5-5.4-10.8-7.1-16.3-4c-6.1,3.4-7.7,11.7-4.8,17.8c3.6,7.5,13.3,8.4,18.7,2
	C642.3,363.3,642.5,363.4,642.5,364z M672.5,364c-0.2,5.7-2.1,14.8-10,13.8c-2.9-0.4-4.7-2.3-5.3-5.8c0-0.2-0.1-0.3-0.3-0.3l-4,0.4
	c-0.2,0-0.2,0.1-0.2,0.3c1.1,7.6,7.5,10.7,14.5,8.8c10.7-3,10.7-18,9.6-26.6c-0.8-5.8-4.3-10.8-10.2-11.9c-4-0.7-7.4,0.1-10.2,2.5
	c-5.9,4.9-6,16,0.3,20.6c5.1,3.7,11.1,2.8,15.3-2C672.3,363.3,672.5,363.4,672.5,364z M688.2,376.2c0.3-0.9,0.8-1.7,1.5-2.3
	c3.7-3.2,7.4-6.4,10.9-9.7c4.3-3.9,7.4-9.4,5-15.2c-2.5-5.9-9.3-7.6-15.1-6.1c-5.2,1.3-8,4.8-8.5,10.5c0,0.2,0.1,0.2,0.2,0.2
	l4.2,0.4c0.2,0,0.3-0.1,0.3-0.2c1.2-11.9,17.7-8.1,14.5,1.4c-1.4,4.1-5.5,7.6-8.7,10.3c-4.9,4-10.6,8.5-11.6,15
	c-0.1,0.4,0.1,0.6,0.6,0.6l24.8,0c0.2,0,0.2-0.1,0.2-0.2l0-4.1c0-0.1-0.1-0.2-0.2-0.2l-17.8,0C688.2,376.6,688.1,376.5,688.2,376.2z
	 M457.6,362.6c-2.7-2-1.4-5,1.4-5.7c3.7-0.9,8.2-0.5,9.2,4c0,0.1,0.2,0.2,0.3,0.2l4-0.5c0.2,0,0.3-0.1,0.2-0.3
	c-1.1-7.8-10.4-8.8-16.2-6.6c-7.2,2.6-6.4,12.2,1,14.2c3,0.8,6,1.7,8.9,2.6c1.9,0.6,2.8,1.8,2.5,3.6c-0.6,4.1-6.2,4.3-9.2,3.4
	c-2.4-0.7-3.8-2.4-4.3-5.1c0-0.2-0.1-0.2-0.3-0.2l-4.1,0.6c-0.2,0-0.3,0.1-0.2,0.3c0.7,3.6,2.4,6,5,7.3c6.1,2.9,17.2,1.7,18-6.9
	c0.3-3.7-1.4-6.2-5.2-7.5c-3-1-6.2-1.9-9.8-2.8C458.4,363.1,458,362.9,457.6,362.6z M495.7,356.1l0-2.1c0-0.5-0.2-0.8-0.8-0.8
	l-2.6,0c-0.6,0-0.9,0.3-0.9,0.9v26.8c0,0.1,0.1,0.2,0.2,0.2l4.3,0c0.2,0,0.2-0.1,0.2-0.3c0-5.2,0-10.6,0-16.1c0-4.5,2-7.2,6-7.9
	c4-0.8,7.1,1.6,7.1,5.8c0.1,6.4,0.1,12.5,0,18.3c0,0.2,0.1,0.2,0.2,0.2l4.3,0c0.1,0,0.2-0.1,0.2-0.2c0.1-7,0-13.6-0.1-19.7
	c-0.1-4.2-1.9-6.8-5.4-8c-4.9-1.6-9-0.6-12.4,3C495.9,356.8,495.7,356.7,495.7,356.1z M529.7,357.2c4.7-1.8,7.9-0.3,9.6,4.7
	c0.1,0.2,0.2,0.2,0.4,0.2l3.9-0.6c0.2,0,0.3-0.2,0.2-0.4c-0.8-3.9-3-6.5-6.5-7.8c-4.5-1.6-10.6-0.6-13.9,3.1
	c-5.3,5.9-4.6,19.4,2.5,23.5c7.5,4.3,16.4,1,18.3-8.1c0-0.2,0-0.4-0.3-0.4l-4.2-0.5c-0.1,0-0.2,0-0.2,0.2
	c-1.2,9.1-12.8,8.7-14.3,0.2C524.4,366.7,524.5,359.2,529.7,357.2z M552.4,368.4l19.5,0c0.4,0,0.6-0.2,0.6-0.6
	c0.2-8.8-4.5-15.7-13.8-15.1c-9.7,0.7-13.1,9.8-11.6,18.4c1.6,9.2,10.3,12.6,18.4,9.6c3.3-1.2,5.5-3.8,6.7-7.7c0-0.1,0-0.3-0.2-0.3
	c0,0,0,0,0,0l-4.5-0.5c-0.2,0-0.3,0-0.3,0.2c-0.8,2.6-2.3,4.2-4.5,5c-5.9,2.1-10.4-2.3-11-8.2C551.6,368.6,551.9,368.4,552.4,368.4z
	 M484.2,353.5c0-0.2-0.1-0.3-0.3-0.3h-4.2c-0.2,0-0.3,0.1-0.3,0.3v27.4c0,0.2,0.1,0.3,0.3,0.3h4.2c0.2,0,0.3-0.1,0.3-0.3V353.5z"/>
<path class="st3" d="M285.6,282.9h112.4c0.2,0,0.4,0.2,0.4,0.4l0,33.6c0,0.2-0.2,0.4-0.4,0.4l0,0H244.5c-0.2,0-0.4-0.2-0.4-0.4l0,0
	l0-202.4c0-0.2,0.2-0.4,0.4-0.4l0,0h149.6c0.2,0,0.4,0.2,0.4,0.4l0,0l0,33.6c0,0.2-0.2,0.4-0.4,0.4l0,0l-108.5,0
	c-0.2,0-0.4,0.2-0.4,0.4l0,44.3c0,0.2,0.2,0.4,0.4,0.4l100.8,0c0.2,0,0.4,0.2,0.4,0.4c0,0,0,0,0,0v33.6c0,0.2-0.2,0.4-0.4,0.4H285.6
	c-0.2,0-0.4,0.2-0.4,0.4l0,54.3C285.2,282.7,285.4,282.9,285.6,282.9L285.6,282.9z"/>
<path class="st3" d="M672,317.3l-40.4,0c-0.2,0-0.4-0.2-0.4-0.4l0,0l-0.1-168.1c0-0.2-0.2-0.4-0.4-0.4l-59.3,0
	c-0.2,0-0.4-0.2-0.4-0.4l0-33.6c0-0.2,0.2-0.4,0.4-0.4h0l160.4-0.1c0.2,0,0.4,0.2,0.4,0.4l0,33.6c0,0.2-0.2,0.4-0.4,0.4l-59.3,0
	c-0.2,0-0.4,0.2-0.4,0.4l0.1,168.1C672.4,317.1,672.2,317.3,672,317.3C672,317.3,672,317.3,672,317.3z"/>
<path class="st3" d="M800,148.9v44.3c0,0.2,0.2,0.4,0.4,0.4l0,0h100.8c0.2,0,0.4,0.2,0.4,0.4c0,0,0,0,0,0l0,33.6
	c0,0.2-0.2,0.4-0.4,0.4l-100.8,0c-0.2,0-0.4,0.2-0.4,0.4l0,54.3c0,0.2,0.2,0.4,0.4,0.4l0,0h112.4c0.2,0,0.4,0.2,0.4,0.4v33.6
	c0,0.2-0.2,0.4-0.4,0.4l0,0H759.2c-0.2,0-0.4-0.2-0.4-0.4l0,0V114.5c0-0.2,0.2-0.4,0.4-0.4l0,0h149.6c0.2,0,0.4,0.2,0.4,0.4l0,0
	v33.6c0,0.2-0.2,0.4-0.4,0.4l0,0l-108.4,0C800.2,148.5,800,148.7,800,148.9z"/>
<path class="st3" d="M475.9,282.9l101.2,0c0.2,0,0.3,0.1,0.3,0.3l0,0l0,33.7c0,0.2-0.1,0.3-0.3,0.3c0,0,0,0,0,0H434.8
	c-0.2,0-0.3-0.1-0.3-0.3l0,0l0-200.8c0-0.2,0.1-0.3,0.3-0.3l40.5,0c0.2,0,0.3,0.1,0.3,0.3c0,0,0,0,0,0v166.4
	C475.6,282.8,475.7,282.9,475.9,282.9z"/>
<path class="st3" d="M479.9,342.6l4.1,0c0.2,0,0.3,0.2,0.3,0.3l0,4.7c0,0.2-0.2,0.3-0.3,0.3l-4.1,0c-0.2,0-0.3-0.2-0.3-0.3l0-4.7
	C479.5,342.8,479.7,342.6,479.9,342.6z"/>
<path class="st3" d="M604.2,351.6c-2.3,2-5.2,3.6-8,4.8c-0.4,0.2-0.6,0-0.6-0.4l0-3.3c0-0.4,0.2-0.7,0.6-0.9c4.4-2.1,7.9-5,10.3-8.9
	c0.2-0.3,0.5-0.5,0.9-0.5h1.9c0.3,0,0.5,0.2,0.5,0.5l0,38c0,0.1-0.1,0.2-0.2,0.2l-4.4,0c-0.1,0-0.2-0.1-0.2-0.2l0-29
	C604.9,351.3,604.7,351.2,604.2,351.6z"/>
<path class="st3" d="M641.9,363.8c-5.3,6.4-15.1,5.5-18.7-2c-2.9-6.1-1.3-14.4,4.8-17.8c5.5-3.1,12.8-1.4,16.3,4
	c1.4,2.2,2.3,4.7,2.6,7.6c0.9,8.9,0.7,23.9-11,25.9c-6.7,1.2-12.3-2.1-13.2-9.1c0-0.1,0-0.2,0.2-0.2l4.1-0.4c0.1,0,0.3,0.1,0.3,0.2
	c0,0,0,0,0,0c0.8,5.1,5.3,7.3,9.7,5c4.4-2.2,5.5-8.7,5.5-13.1C642.5,363.4,642.3,363.3,641.9,363.8z M634.1,364
	c4.2,0.1,7.8-3.7,8-8.5s-3.1-8.9-7.3-9.1c-4.2-0.1-7.8,3.7-8,8.5C626.5,359.8,629.8,363.8,634.1,364z"/>
<path class="st3" d="M671.9,363.8c-4.3,4.8-10.2,5.7-15.3,2c-6.4-4.6-6.2-15.7-0.3-20.6c2.8-2.4,6.2-3.2,10.2-2.5
	c5.9,1.1,9.5,6.1,10.2,11.9c1.1,8.6,1.1,23.7-9.6,26.6c-7,1.9-13.4-1.1-14.5-8.8c0-0.2,0-0.3,0.2-0.3l4-0.4c0.2,0,0.3,0.1,0.3,0.3
	c0.6,3.4,2.4,5.4,5.3,5.8c7.9,1,9.8-8.1,10-13.8C672.5,363.4,672.3,363.3,671.9,363.8z M664,364c4.2,0.1,7.8-3.7,8-8.5
	c0.2-4.9-3.1-8.9-7.4-9.1c-4.2-0.1-7.8,3.7-8,8.5S659.8,363.8,664,364z"/>
<path class="st3" d="M688.5,376.6l17.8,0c0.1,0,0.2,0.1,0.2,0.2l0,4.1c0,0.2-0.1,0.2-0.2,0.2l-24.8,0c-0.4,0-0.6-0.2-0.6-0.6
	c1-6.5,6.7-11,11.6-15c3.2-2.6,7.3-6.2,8.7-10.3c3.2-9.5-13.3-13.3-14.5-1.4c0,0.2-0.1,0.3-0.3,0.2l-4.2-0.4c-0.2,0-0.2-0.1-0.2-0.2
	c0.5-5.6,3.3-9.1,8.5-10.5c5.8-1.5,12.7,0.2,15.1,6.1c2.4,5.8-0.7,11.3-5,15.2c-3.6,3.2-7.2,6.5-10.9,9.7c-0.7,0.6-1.2,1.4-1.5,2.3
	C688.1,376.5,688.2,376.6,688.5,376.6z"/>
<ellipse transform="matrix(3.489950e-02 -0.9994 0.9994 3.489950e-02 257.2575 976.7579)" class="st4" cx="634.4" cy="355.2" rx="8.8" ry="7.7"/>
<ellipse transform="matrix(3.489950e-02 -0.9994 0.9994 3.489950e-02 286.1626 1006.67)" class="st4" cx="664.3" cy="355.2" rx="8.8" ry="7.7"/>
<path class="st3" d="M457.6,362.6c0.4,0.3,0.8,0.5,1.2,0.6c3.5,0.9,6.8,1.9,9.8,2.8c3.8,1.3,5.6,3.8,5.2,7.5
	c-0.8,8.5-11.9,9.7-18,6.9c-2.7-1.3-4.4-3.7-5-7.3c0-0.2,0-0.3,0.2-0.3l4.1-0.6c0.2,0,0.3,0,0.3,0.2c0.5,2.7,1.9,4.4,4.3,5.1
	c3,0.9,8.7,0.6,9.2-3.4c0.2-1.8-0.6-3.1-2.5-3.6c-3-0.9-5.9-1.7-8.9-2.6c-7.4-2-8.2-11.6-1-14.2c5.9-2.1,15.1-1.2,16.2,6.6
	c0,0.2-0.1,0.3-0.2,0.3l-4,0.5c-0.2,0-0.3-0.1-0.3-0.2c-1-4.5-5.5-4.9-9.2-4C456.2,357.6,454.9,360.6,457.6,362.6z"/>
<path class="st3" d="M496.3,356.3c3.4-3.6,7.5-4.6,12.4-3c3.5,1.2,5.3,3.8,5.4,8c0.1,6.1,0.2,12.7,0.1,19.7c0,0.1-0.1,0.2-0.2,0.2
	l-4.3,0c-0.2,0-0.2-0.1-0.2-0.2c0-5.8,0-11.9,0-18.3c0-4.2-3.1-6.6-7.1-5.8c-4,0.7-6,3.4-6,7.9c-0.1,5.6-0.1,11,0,16.1
	c0,0.2-0.1,0.3-0.2,0.3l-4.3,0c-0.1,0-0.2-0.1-0.2-0.2v-26.8c0-0.6,0.3-0.9,0.9-0.9l2.6,0c0.5,0,0.8,0.3,0.8,0.8l0,2.1
	C495.7,356.7,495.9,356.8,496.3,356.3z"/>
<path class="st3" d="M529.7,357.2c-5.2,2-5.3,9.5-4.4,14.2c1.6,8.5,13.1,8.9,14.3-0.2c0-0.1,0.1-0.2,0.2-0.2l4.2,0.5
	c0.2,0,0.3,0.2,0.3,0.4c-1.9,9-10.8,12.4-18.3,8.1c-7.2-4.1-7.8-17.6-2.5-23.5c3.3-3.7,9.4-4.7,13.9-3.1c3.5,1.3,5.6,3.8,6.5,7.8
	c0,0.2,0,0.3-0.2,0.4l-3.9,0.6c-0.2,0-0.3,0-0.4-0.2C537.6,356.9,534.3,355.4,529.7,357.2z"/>
<path class="st3" d="M551.7,369.1c0.6,5.9,5.1,10.4,11,8.2c2.2-0.8,3.7-2.5,4.5-5c0.1-0.2,0.2-0.2,0.3-0.2l4.5,0.5
	c0.1,0,0.2,0.2,0.2,0.3c0,0,0,0,0,0c-1.2,3.9-3.4,6.5-6.7,7.7c-8.1,3-16.9-0.4-18.4-9.6c-1.5-8.6,1.9-17.8,11.6-18.4
	c9.3-0.6,13.9,6.3,13.8,15.1c0,0.4-0.2,0.6-0.6,0.6l-19.5,0C551.9,368.4,551.6,368.6,551.7,369.1z M552.3,364.5h14.8
	c0.1,0,0.3-0.1,0.3-0.3c0,0,0,0,0,0v-0.1c0-4.2-3.4-7.6-7.6-7.6l0,0h-0.1c-4.2,0-7.6,3.4-7.6,7.6l0,0v0.1
	C552,364.4,552.2,364.5,552.3,364.5L552.3,364.5z"/>
<path class="st3" d="M479.8,353.2h4.2c0.2,0,0.3,0.1,0.3,0.3v27.4c0,0.2-0.1,0.3-0.3,0.3h-4.2c-0.2,0-0.3-0.1-0.3-0.3v-27.4
	C479.5,353.4,479.7,353.2,479.8,353.2z"/>
<path class="st4" d="M552.3,364.5c-0.1,0-0.3-0.1-0.3-0.3c0,0,0,0,0,0v-0.1c0-4.2,3.4-7.6,7.6-7.6l0,0h0.1c4.2,0,7.6,3.4,7.6,7.6
	l0,0v0.1c0,0.1-0.1,0.3-0.3,0.3l0,0H552.3z"/>
</svg>
