<?xml version="1.0" encoding="UTF-8"?><svg id="Layer_2" xmlns="http://www.w3.org/2000/svg" width="230.68mm" height="109.12mm" viewBox="0 0 653.9 309.33"><defs><style>.cls-1{fill:#5082c3;}.cls-1,.cls-2,.cls-3{fill-rule:evenodd;}.cls-2{fill:#9d9d9c;}.cls-3{fill:#fff;}</style></defs><g id="Layer_1-2"><g><path class="cls-1" d="M182.38,93.53c0,50.37-40.83,91.19-91.19,91.19S0,143.9,0,93.53,40.83,2.34,91.19,2.34s91.19,40.82,91.19,91.19"/><path class="cls-1" d="M417.59,91.19c0,50.36-40.82,91.19-91.19,91.19s-91.19-40.82-91.19-91.19S276.04,0,326.4,0s91.19,40.82,91.19,91.19"/><path class="cls-1" d="M653.9,91.19c0,50.37-40.83,91.19-91.19,91.19s-91.19-40.82-91.19-91.19S512.34,0,562.7,0s91.19,40.82,91.19,91.19"/><path class="cls-3" d="M124.28,42.77v56.74c0,14.47-1.65,20.79-6.78,26.54-6.77,7.58-18.84,12.22-31.72,12.22s-25.94-5.76-31.89-14.46c-3.3-4.78-4.62-9.97-4.62-17.41h29.74c.5,7.58,3.14,10.81,8.76,10.81,6.11,0,8.43-3.37,8.43-11.8V42.77h28.09Z"/><polygon class="cls-3" points="303.93 42.77 326.24 108.5 348.54 42.77 377.62 42.77 340.61 136.45 311.7 136.45 274.85 42.77 303.93 42.77"/><path class="cls-3" d="M571.82,70.01c-.99-6.46-3.97-9.13-10.08-9.13-5.28,0-9.59,3.23-9.59,7.31,0,3.23,2.15,5.76,7.11,8.14,.66,.42,1.49,.7,2.31,.98l4.46,1.82,4.46,1.69,4.62,1.69c18.01,7.17,25.61,14.89,25.61,26.54,0,18.4-14.2,29.21-38.5,29.21s-40.15-11.51-40.15-29.77v-2.95h28.26c0,7.72,4.46,12.63,11.56,12.63,6.11,0,10.9-3.93,10.9-8.85,0-4.36-3.63-7.58-11.73-10.39-17.18-5.76-20.16-7.03-25.94-10.96-6.77-4.5-11.07-11.94-11.07-19.24,0-15.73,16.85-27.95,38.5-27.95,12.06,0,23.13,4.08,29.74,10.82,4.95,4.91,6.77,9.55,7.43,18.39h-27.93Z"/><path class="cls-2" d="M107.17,236.32h-14.44v6.4c-7.46-5.24-17.08-7.76-29.69-7.76s-22.55,2.52-30.84,7.45c-8.46,5.14-13.76,12.79-13.76,19.93,0,14.89,20.23,27.8,43.62,27.8,12.11,0,21.23-2.62,29.52-8.5v1.16c0,10.59-11.77,17.62-29.52,17.62-9.79,0-17.41-2.52-23.39-7.55H21.25c3.32,4.72,6.31,7.13,12.77,10.49,8.3,4.2,16.58,5.98,28.36,5.98,12.77,0,25.7-3.25,34-8.49,7.13-4.62,10.79-10.7,10.79-17.94v-46.57Zm-44.13,7.55c15.77,0,28.7,8.08,28.7,17.94,0,10.91-12.78,19.41-29.2,19.41s-28.7-8.39-28.7-18.57,12.78-18.77,29.19-18.77Z"/><path class="cls-2" d="M173.7,288.77v-52.45h14.43v4.72c4.81-3.99,11.45-5.98,21.39-6.08v10.07c-14.1,.63-20.4,5.25-20.4,15.1v28.64h-15.43Z"/><path class="cls-2" d="M302.95,234.96c-24.71,0-44.61,12.28-44.61,27.48s20.07,27.7,44.78,27.7,44.62-12.48,44.62-27.7-19.9-27.48-44.79-27.48m0,8.92c16.26,0,29.36,8.29,29.36,18.46s-13.1,18.88-29.19,18.88-29.35-8.39-29.35-18.88,13.1-18.46,29.19-18.46Z"/><path class="cls-2" d="M424.54,236.32v28.53c0,5.04,1.16,8.5,3.47,11.02,3.33,3.25,9.96,5.35,17.26,5.35,13.6,0,21.73-6.08,21.73-16.37v-28.53h15.42v52.45h-14.43v-5.56c-4.15,4.19-13.77,6.92-24.38,6.92-20.74,0-34.5-8.71-34.5-21.61v-32.2h15.42Z"/><path class="cls-2" d="M548.95,306.28h15.44v-25.07c5.46,5.56,16.74,9.02,29.51,9.02,23.89,0,41.8-11.75,41.8-27.38,0-6.71-4.47-14.16-11.28-19.09-7.96-5.76-19.07-8.81-31.84-8.81s-23.22,3.46-29.19,9.44v-8.08h-14.43v69.96Zm42.3-62.41c16.08,0,29.02,8.39,29.02,18.77s-12.44,18.67-28.03,18.67-28.19-8.29-28.19-18.67,12.27-18.77,27.2-18.77Z"/></g></g></svg>