<?xml version="1.0" encoding="UTF-8" standalone="no"?>
<!DOCTYPE svg PUBLIC "-//W3C//DTD SVG 1.1//EN" "http://www.w3.org/Graphics/SVG/1.1/DTD/svg11.dtd">
<svg xmlns="http://www.w3.org/2000/svg" version="1.1" viewBox="0.00 0.00 317.00 120.00">
<rect fill="#131312" x="183.19" y="13.81" width="4.36" height="39.64" rx="0.42"/>
<path fill="#131312" d="
  M 230.26 38.93
  L 241.97 26.29
  A 0.34 0.34 0.0 0 1 242.21 26.18
  L 246.86 26.01
  A 0.34 0.34 0.0 0 1 247.12 26.59
  L 237.52 36.64
  A 0.34 0.34 0.0 0 0 237.48 37.07
  L 248.15 52.97
  A 0.34 0.34 0.0 0 1 247.87 53.50
  L 243.31 53.46
  A 0.34 0.34 0.0 0 1 243.03 53.31
  L 234.47 40.46
  A 0.34 0.34 0.0 0 0 233.94 40.42
  L 229.78 44.92
  A 0.34 0.34 0.0 0 0 229.69 45.15
  L 229.75 53.11
  A 0.34 0.34 0.0 0 1 229.41 53.45
  L 225.72 53.46
  A 0.34 0.34 0.0 0 1 225.38 53.12
  L 225.39 14.17
  A 0.34 0.34 0.0 0 1 225.73 13.83
  L 229.39 13.83
  A 0.34 0.34 0.0 0 1 229.73 14.17
  L 229.67 38.70
  A 0.34 0.34 0.0 0 0 230.26 38.93
  Z"
/>
<path fill="#131312" d="
  M 126.68 35.45
  L 143.80 17.48
  A 0.33 0.33 0.0 0 1 144.04 17.38
  L 148.41 17.36
  A 0.33 0.33 0.0 0 1 148.65 17.92
  L 135.33 31.73
  A 0.33 0.33 0.0 0 0 135.30 32.14
  L 149.25 52.99
  A 0.33 0.33 0.0 0 1 148.97 53.50
  L 144.61 53.46
  A 0.33 0.33 0.0 0 1 144.33 53.31
  L 132.43 35.31
  A 0.33 0.33 0.0 0 0 131.91 35.26
  L 126.26 41.20
  A 0.33 0.33 0.0 0 0 126.17 41.43
  L 126.20 53.14
  A 0.33 0.33 0.0 0 1 125.87 53.47
  L 122.13 53.48
  A 0.33 0.33 0.0 0 1 121.80 53.15
  L 121.80 17.71
  A 0.33 0.33 0.0 0 1 122.13 17.38
  L 125.89 17.38
  A 0.33 0.33 0.0 0 1 126.22 17.71
  L 126.11 35.22
  A 0.33 0.33 0.0 0 0 126.68 35.45
  Z"
/>
<path fill="#131312" d="
  M 28.81 95.58
  C 22.46 84.74 16.43 74.12 10.01 62.98
  Q 7.69 58.95 10.10 54.74
  Q 19.24 38.77 29.22 21.57
  C 30.87 18.74 33.72 17.37 36.84 17.38
  Q 55.31 17.46 74.73 17.42
  C 78.02 17.41 80.63 19.21 82.22 22.01
  Q 90.94 37.31 101.02 54.58
  C 102.92 57.85 102.43 60.96 100.58 64.09
  Q 90.73 80.86 82.16 95.94
  C 80.41 99.03 77.70 100.48 74.32 100.47
  Q 54.29 100.44 36.23 100.44
  C 32.89 100.44 30.56 98.57 28.81 95.58
  Z
  M 36.47 21.18
  A 0.31 0.31 0.0 0 0 36.20 21.64
  L 46.18 38.85
  A 0.31 0.31 0.0 0 0 46.60 38.97
  L 76.68 21.66
  A 0.31 0.31 0.0 0 0 76.52 21.08
  L 36.47 21.18
  Z
  M 42.83 41.16
  A 0.32 0.32 0.0 0 0 42.95 40.72
  L 33.00 23.44
  A 0.32 0.32 0.0 0 0 32.44 23.44
  L 12.42 58.10
  A 0.32 0.32 0.0 0 0 12.86 58.54
  L 42.83 41.16
  Z
  M 83.92 62.90
  A 0.30 0.30 0.0 0 0 84.37 63.12
  L 97.02 55.80
  A 0.30 0.30 0.0 0 0 97.13 55.39
  L 79.87 25.31
  A 0.30 0.30 0.0 0 0 79.31 25.50
  L 83.92 62.90
  Z
  M 75.78 27.06
  A 0.30 0.30 0.0 0 0 75.33 26.84
  L 50.30 41.00
  A 0.30 0.30 0.0 0 0 50.26 41.50
  L 80.05 64.94
  A 0.30 0.30 0.0 0 0 80.53 64.67
  L 75.78 27.06
  Z
  M 52.14 81.21
  A 0.34 0.34 0.0 0 0 52.65 81.45
  L 76.52 67.67
  A 0.34 0.34 0.0 0 0 76.56 67.11
  L 47.19 43.81
  A 0.34 0.34 0.0 0 0 46.64 44.12
  L 52.14 81.21
  Z
  M 43.16 45.85
  A 0.35 0.35 0.0 0 0 42.63 45.60
  L 17.84 59.90
  A 0.35 0.35 0.0 0 0 17.80 60.48
  L 48.10 83.32
  A 0.35 0.35 0.0 0 0 48.65 82.99
  L 43.16 45.85
  Z
  M 79.15 93.71
  L 98.82 59.60
  Q 99.29 58.77 98.47 59.25
  L 83.31 68.03
  A 0.77 0.76 -10.8 0 0 82.95 68.55
  L 78.56 93.50
  Q 78.25 95.27 79.15 93.71
  Z
  M 32.42 93.16
  L 44.71 86.04
  Q 45.19 85.77 44.75 85.44
  L 14.75 62.83
  Q 13.78 62.09 14.39 63.15
  L 31.58 92.93
  Q 31.88 93.47 32.42 93.16
  Z
  M 78.67 71.36
  A 0.35 0.35 0.0 0 0 78.15 70.99
  L 54.69 84.59
  A 0.35 0.35 0.0 0 0 54.75 85.23
  L 74.58 92.40
  A 0.35 0.35 0.0 0 0 75.04 92.13
  L 78.67 71.36
  Z
  M 74.01 96.85
  Q 74.29 97.01 74.60 96.82
  Q 75.08 96.54 74.56 96.35
  L 50.31 87.56
  A 1.07 1.06 39.7 0 0 49.41 87.64
  L 34.94 95.97
  Q 33.56 96.76 35.15 96.76
  Q 55.50 96.77 73.69 96.76
  Q 73.87 96.76 74.01 96.85
  Z"
/>
<path fill="#131312" d="
  M 254.86 30.14
  L 251.52 30.16
  Q 251.13 30.16 251.13 29.77
  L 251.11 26.68
  A 0.57 0.57 0.0 0 1 251.70 26.11
  L 254.50 26.16
  Q 255.18 26.17 255.17 25.50
  L 255.12 18.94
  A 0.58 0.58 0.0 0 1 255.69 18.36
  L 259.01 18.31
  Q 259.47 18.30 259.47 18.76
  L 259.45 25.57
  Q 259.45 26.18 260.07 26.17
  L 265.23 26.08
  Q 265.63 26.08 265.64 26.48
  L 265.67 29.75
  Q 265.67 30.16 265.25 30.16
  L 259.96 30.15
  A 0.51 0.51 0.0 0 0 259.45 30.65
  Q 259.45 37.88 259.47 44.38
  Q 259.49 50.45 265.69 49.89
  Q 266.12 49.85 266.12 50.28
  L 266.15 53.39
  A 0.52 0.51 88.2 0 1 265.67 53.91
  C 256.73 54.50 254.88 48.82 255.11 41.16
  Q 255.27 35.75 255.12 30.39
  A 0.26 0.26 0.0 0 0 254.86 30.14
  Z"
/>
<path fill="#131312" d="
  M 163.8194 54.2296
  A 14.41 13.17 90.4 0 1 150.7503 39.7281
  A 14.41 13.17 90.4 0 1 164.0206 25.4104
  A 14.41 13.17 90.4 0 1 177.0897 39.9119
  A 14.41 13.17 90.4 0 1 163.8194 54.2296
  Z
  M 163.9400 50.2800
  A 10.46 8.74 90.0 0 0 172.6800 39.8200
  A 10.46 8.74 90.0 0 0 163.9400 29.3600
  A 10.46 8.74 90.0 0 0 155.2000 39.8200
  A 10.46 8.74 90.0 0 0 163.9400 50.2800
  Z"
/>
<path fill="#131312" d="
  M 198.11 42.03
  Q 199.81 50.23 207.52 50.17
  Q 212.08 50.13 214.19 46.27
  A 0.90 0.89 13.8 0 1 214.98 45.80
  L 218.46 45.82
  Q 219.11 45.82 218.86 46.42
  Q 215.64 54.03 207.25 54.08
  C 196.26 54.14 191.01 43.19 194.80 33.73
  C 197.25 27.60 204.00 23.95 210.52 26.00
  C 216.80 27.98 219.80 34.34 219.57 40.62
  Q 219.55 41.19 218.99 41.19
  L 198.79 41.19
  Q 197.94 41.19 198.11 42.03
  Z
  M 198.70 37.46
  L 214.56 37.34
  A 0.12 0.12 0.0 0 0 214.68 37.22
  L 214.68 37.14
  A 7.97 7.72 -0.4 0 0 206.65 29.48
  L 206.49 29.48
  A 7.97 7.72 -0.4 0 0 198.58 37.26
  L 198.58 37.34
  A 0.12 0.12 0.0 0 0 198.70 37.46
  Z"
/>
<rect fill="#131312" x="271.20" y="26.01" width="4.34" height="27.36" rx="0.41"/>
<path fill="#131312" d="
  M 292.59 47.89
  L 300.02 26.62
  A 0.74 0.74 0.0 0 1 300.70 26.13
  L 304.30 26.07
  A 0.38 0.38 0.0 0 1 304.67 26.58
  L 295.09 52.87
  Q 294.88 53.46 294.25 53.46
  L 290.73 53.46
  Q 290.19 53.46 290.01 52.95
  L 280.42 26.66
  Q 280.20 26.05 280.85 26.06
  L 284.22 26.13
  Q 284.78 26.14 284.98 26.66
  Q 288.74 36.64 292.36 47.88
  Q 292.47 48.22 292.59 47.89
  Z"
/>
<rect fill="#131312" x="200.70" y="60.92" width="4.42" height="39.56" rx="0.45"/>
<path fill="#131312" d="
  M 141.86 90.76
  L 127.70 90.70
  A 0.36 0.36 0.0 0 0 127.36 90.94
  L 124.10 100.10
  A 0.36 0.36 0.0 0 1 123.76 100.34
  L 119.79 100.33
  A 0.36 0.36 0.0 0 1 119.46 99.85
  L 132.40 64.50
  A 0.36 0.36 0.0 0 1 132.74 64.26
  L 137.01 64.27
  A 0.36 0.36 0.0 0 1 137.35 64.51
  L 150.05 99.96
  A 0.36 0.36 0.0 0 1 149.70 100.45
  L 145.73 100.41
  A 0.36 0.36 0.0 0 1 145.40 100.17
  L 142.19 91.00
  A 0.36 0.36 0.0 0 0 141.86 90.76
  Z
  M 140.08 86.66
  A 0.31 0.31 0.0 0 0 140.38 86.25
  L 135.11 70.21
  A 0.31 0.31 0.0 0 0 134.52 70.20
  L 129.05 86.18
  A 0.31 0.31 0.0 0 0 129.34 86.59
  L 140.08 86.66
  Z"
/>
<path fill="#131312" d="
  M 154.49 76.96
  L 151.69 77.13
  Q 151.22 77.16 151.22 76.69
  L 151.21 73.46
  Q 151.21 72.87 151.79 72.91
  L 154.54 73.09
  A 0.63 0.62 -88.3 0 0 155.20 72.46
  L 155.14 65.94
  Q 155.14 65.27 155.81 65.26
  L 158.98 65.19
  Q 159.54 65.18 159.53 65.73
  L 159.51 72.42
  Q 159.50 73.09 160.17 73.07
  L 165.06 72.94
  Q 165.69 72.93 165.69 73.56
  L 165.70 76.57
  Q 165.71 77.09 165.18 77.09
  L 160.15 77.04
  A 0.65 0.65 0.0 0 0 159.49 77.69
  Q 159.56 84.12 159.50 91.45
  C 159.48 95.20 161.96 97.32 165.80 96.77
  A 0.23 0.22 80.7 0 1 166.05 96.96
  Q 166.45 99.08 166.00 100.71
  Q 165.98 100.79 165.90 100.80
  C 156.71 101.49 154.86 95.59 155.12 87.87
  Q 155.30 82.77 155.16 77.56
  Q 155.14 76.91 154.49 76.96
  Z"
/>
<path fill="#131312" d="
  M 175.93 88.08
  Q 171.90 88.08 174.03 91.50
  Q 174.56 92.35 175.09 93.20
  Q 177.42 96.93 181.81 97.09
  Q 187.04 97.29 189.28 93.37
  Q 189.65 92.72 190.40 92.72
  L 193.53 92.72
  Q 194.28 92.72 194.01 93.42
  C 191.47 99.99 184.02 102.55 177.75 100.28
  C 169.13 97.16 166.66 86.95 170.63 79.34
  C 174.79 71.38 186.42 69.49 191.91 77.36
  Q 194.93 81.68 194.80 87.50
  A 0.61 0.61 0.0 0 1 194.19 88.09
  L 175.93 88.08
  Z
  M 173.87 84.37
  L 189.79 84.25
  A 0.12 0.12 0.0 0 0 189.91 84.13
  L 189.91 84.06
  A 7.98 7.73 -0.4 0 0 181.87 76.39
  L 181.67 76.39
  A 7.98 7.73 -0.4 0 0 173.75 84.18
  L 173.75 84.25
  A 0.12 0.12 0.0 0 0 173.87 84.37
  Z"
/>
<path fill="#131312" d="
  M 228.28 88.08
  A 0.62 0.62 0.0 0 0 227.67 88.82
  Q 229.37 96.93 236.84 97.07
  Q 241.53 97.16 243.75 93.19
  Q 244.01 92.73 244.54 92.73
  L 247.99 92.72
  A 0.46 0.45 10.2 0 1 248.42 93.33
  C 245.89 100.19 238.07 102.61 231.62 100.08
  C 221.19 95.99 220.37 80.48 229.46 74.43
  C 234.31 71.20 240.92 71.71 244.99 75.84
  Q 249.21 80.12 249.24 87.54
  Q 249.25 88.09 248.69 88.09
  L 228.28 88.08
  Z
  M 228.23 84.37
  L 244.17 84.25
  A 0.11 0.11 0.0 0 0 244.28 84.14
  L 244.28 84.06
  A 7.99 7.73 -0.4 0 0 236.23 76.39
  L 236.05 76.39
  A 7.99 7.73 -0.4 0 0 228.12 84.18
  L 228.12 84.26
  A 0.11 0.11 0.0 0 0 228.23 84.37
  Z"
/>
<path fill="#131312" d="
  M 279.45 76.91
  C 275.91 78.20 276.15 82.56 279.99 83.40
  Q 283.71 84.22 287.65 84.98
  C 290.28 85.49 292.95 86.97 293.86 89.60
  C 298.42 102.85 274.64 105.76 271.64 92.76
  A 0.33 0.33 0.0 0 1 271.96 92.35
  L 275.68 92.35
  Q 275.99 92.35 276.10 92.64
  Q 277.78 96.98 283.33 97.12
  C 286.42 97.20 291.02 95.68 289.99 91.71
  C 289.42 89.51 285.92 88.83 284.02 88.62
  Q 280.60 88.24 277.51 87.17
  C 270.44 84.72 271.26 75.45 277.90 73.13
  C 284.04 70.97 291.59 72.67 293.54 79.61
  Q 293.74 80.35 292.98 80.35
  L 289.95 80.37
  A 1.14 1.13 80.1 0 1 288.88 79.61
  C 287.65 76.07 282.40 75.84 279.45 76.91
  Z"
/>
<path fill="#131312" d="
  M 259.16 76.53
  Q 259.14 77.56 259.76 76.73
  Q 263.06 72.37 267.97 72.71
  A 0.30 0.29 -88.0 0 1 268.24 73.01
  L 268.22 76.98
  Q 268.21 77.21 267.98 77.19
  C 262.31 76.75 259.23 79.93 259.31 85.30
  Q 259.43 93.52 259.35 100.01
  A 0.38 0.37 -0.0 0 1 258.97 100.38
  L 255.29 100.37
  Q 254.97 100.37 254.97 100.04
  L 254.96 73.64
  Q 254.96 73.00 255.61 72.99
  L 258.59 72.96
  Q 259.23 72.96 259.21 73.59
  L 259.16 76.53
  Z"
/>
<rect fill="#131312" x="212.82" y="73.02" width="4.38" height="27.42" rx="0.36"/>
</svg>
