<svg xmlns="http://www.w3.org/2000/svg" viewBox="0 0 346.09 39.82"><g id="Layer_2" data-name="Layer 2"><g id="Layer_1-2" data-name="Layer 1"><polygon points="22.78 10.9 10.17 24.51 23.84 38.85 23.84 39.17 17.23 39.17 5.35 26.58 5.35 39.17 0 39.17 0 10.74 5.35 10.74 5.35 22.76 16.13 10.74 22.78 10.74 22.78 10.9"/><path d="M41,15.74v9.1H49.1c3.41,0,4.86-2.27,4.86-4.55s-1.5-4.55-4.86-4.55ZM60.74,39.17H54.37l-8.27-9.5H41v9.5H35.6V10.7c4.5,0,9,0,13.5,0,6.69,0,10.22,4.51,10.22,9.42,0,3.9-1.78,7.84-7.18,8.93l8.6,9.71Z"/><polygon points="94.13 39.17 72.89 39.17 72.89 10.74 94.13 10.74 94.13 15.94 78.2 15.94 78.2 22.48 93.56 22.48 93.56 27.47 78.2 27.47 78.2 33.89 94.13 33.89 94.13 39.17"/><path d="M121,16.71l-5.27,12.1h10.54Zm7.42,17.1H113.62l-2.43,5.36h-5.8l12.73-28.43H124l12.73,28.43h-5.84Z"/><polygon points="153.04 15.61 144.04 15.61 144.04 10.74 167.39 10.74 167.39 15.61 158.39 15.61 158.39 39.17 153.04 39.17 153.04 15.61"/><path d="M181.71,25.24c.12,4.67,2.64,9.67,9.33,9.67s9.2-5,9.28-9.71S197.73,15.05,191,15.05s-9.45,5.4-9.33,10.19m23.88-.12c-.08,7.35-4.58,14.7-14.56,14.7s-14.6-7.19-14.6-14.66,4.79-15,14.6-15,14.64,7.52,14.56,15"/><path d="M224.36,15.74v9.1h8.15c3.41,0,4.86-2.27,4.86-4.55s-1.5-4.55-4.86-4.55Zm19.79,23.43h-6.37l-8.27-9.5h-5.15v9.5H219V10.7c4.5,0,9,0,13.5,0,6.69,0,10.22,4.51,10.22,9.42,0,3.9-1.78,7.84-7.18,8.93l8.6,9.71v.37Z"/><path d="M301.32,10.78V27.07c0,8.41-5.15,12.71-12.29,12.71-6.81,0-12.61-4.14-12.61-12.71V10.78h5.31V27.07c0,5.12,2.92,7.84,7.34,7.84s6.93-3,6.93-7.84V10.78Z"/><polygon points="340.73 18.58 331.49 30.93 330.43 30.93 321.39 18.54 321.39 39.21 316.04 39.21 316.04 10.78 322.2 10.78 331.08 23.01 339.96 10.78 346.09 10.78 346.09 39.21 340.73 39.21 340.73 18.58"/><rect x="257.31" width="5.33" height="5.33"/></g></g></svg>