<?xml version="1.0" encoding="utf-8"?>
<!-- Generator: Adobe Illustrator 28.1.0, SVG Export Plug-In . SVG Version: 6.00 Build 0)  -->
<svg version="1.1" id="Layer_1" xmlns="http://www.w3.org/2000/svg" xmlns:xlink="http://www.w3.org/1999/xlink" x="0px" y="0px"
	 viewBox="0 0 418 234" style="enable-background:new 0 0 418 234;" xml:space="preserve">
<style type="text/css">
	.st0{fill:none;stroke:#EF9D99;stroke-width:2;}
	.st1{fill:#DF3B34;}
</style>
<g>
	<path vector-effect="non-scaling-stroke" class="st0" d="M418,80.6l-84.1,0c-0.4,0-0.7,0.3-0.7,0.7l0,15.3c0,0.3,0.2,0.6,0.5,0.6
		c0,0,0,0,0,0h30.5c0.5,0,0.7,0.2,0.7,0.7l-0.2,53.3c0,0.4,0.3,0.8,0.8,0.8c0,0,0,0,0,0l22.8,0c0.7,0,1.3-0.6,1.3-1.3c0,0,0,0,0,0
		L389.5,98c0-0.6,0.3-0.9,0.8-0.9l27.6,0"/>
	<path vector-effect="non-scaling-stroke" class="st0" d="M36.1,134.6l0-53.5c0-0.3-0.2-0.5-0.5-0.5l-23.3,0c-0.4,0-0.8,0.3-0.8,0.8
		c0,0,0,0,0,0c0.1,14.9,0.1,30.2,0,45.9c0,4.9,0.2,8.2,0.7,9.8c3.1,9.9,10.2,14.8,21.3,14.8c16-0.1,33.3-0.1,51.9,0c0.6,0,1-0.4,1-1
		c0,0,0,0,0,0l0.1-14.8c0-0.4-0.3-0.7-0.7-0.7l0,0l-48.9,0C36.5,135.3,36.1,135,36.1,134.6"/>
	<path vector-effect="non-scaling-stroke" class="st0" d="M123.6,81.7c0-0.6-0.5-1.1-1.1-1.1h0H100c-0.6,0-1.1,0.5-1.1,1.1v0v69.1
		c0,0.6,0.5,1.1,1.1,1.1h22.5c0.6,0,1.1-0.5,1.1-1.1V81.7"/>
	<path vector-effect="non-scaling-stroke" class="st0" d="M159.3,151.8c0.2,0,0.3-0.1,0.3-0.3l0-46.2c0-0.2,0.1-0.3,0.3-0.3
		c0.1,0,0.2,0,0.2,0.1l38.5,46.6c0.1,0.1,0.1,0.1,0.2,0.1l29,0c0.2,0,0.3-0.1,0.3-0.3l0-70.6c0-0.2-0.1-0.3-0.3-0.3l-19.5,0
		c-0.2,0-0.3,0.1-0.3,0.3l0,0l0,46.2c0,0.2-0.1,0.3-0.3,0.3c-0.1,0-0.2,0-0.2-0.1l-38.6-46.6c-0.1-0.1-0.1-0.1-0.2-0.1l-29,0
		c-0.2,0-0.3,0.1-0.3,0.3v0l0,70.6c0,0.2,0.1,0.3,0.3,0.3L159.3,151.8"/>
	<path vector-effect="non-scaling-stroke" class="st0" d="M269,124.8c0-0.4,0.3-0.7,0.7-0.7l50.4,0c0.4,0,0.7-0.3,0.7-0.7v-14.1
		c0-0.4-0.3-0.7-0.7-0.7l-50.4,0c-0.4,0-0.7-0.3-0.7-0.7l0-9.8c0-0.4,0.3-0.7,0.7-0.7h52.5c0.4,0,0.7-0.3,0.7-0.7l0-15
		c0-0.4-0.3-0.7-0.7-0.7c0,0,0,0,0,0l-77.1,0c-0.4,0-0.7,0.3-0.7,0.7l0,0l0,69.7c0,0.4,0.3,0.7,0.7,0.7l77.1,0
		c0.4,0,0.7-0.3,0.7-0.7c0,0,0,0,0,0l0-15c0-0.4-0.3-0.7-0.7-0.7h0l-52.5,0c-0.4,0-0.7-0.3-0.7-0.7L269,124.8"/>
</g>
<path class="st1" d="M36.1,134.6c0,0.4,0.3,0.7,0.7,0.7l48.9,0c0.4,0,0.7,0.3,0.7,0.7l0,0l-0.1,14.8c0,0.6-0.5,1-1,1c0,0,0,0,0,0
	c-18.6,0-35.9,0-51.9,0c-11.1,0-18.2-4.9-21.3-14.8c-0.5-1.6-0.7-4.9-0.7-9.8c0.1-15.7,0.1-31,0-45.9c0-0.4,0.3-0.8,0.7-0.8
	c0,0,0,0,0,0l23.3,0c0.3,0,0.5,0.2,0.5,0.5L36.1,134.6z"/>
<path class="st1" d="M100,80.6h22.5c0.6,0,1.1,0.5,1.1,1.1v69.1c0,0.6-0.5,1.1-1.1,1.1H100c-0.6,0-1.1-0.5-1.1-1.1V81.7
	C98.9,81.1,99.4,80.6,100,80.6z"/>
<path class="st1" d="M159.3,151.8l-19.5,0c-0.2,0-0.3-0.1-0.3-0.3l0-70.6c0-0.2,0.1-0.3,0.3-0.3c0,0,0,0,0,0l29,0
	c0.1,0,0.2,0,0.2,0.1l38.6,46.6c0.1,0.1,0.3,0.2,0.4,0c0.1-0.1,0.1-0.1,0.1-0.2l0-46.2c0-0.2,0.1-0.3,0.3-0.3l0,0l19.5,0
	c0.2,0,0.3,0.1,0.3,0.3l0,70.6c0,0.2-0.1,0.3-0.3,0.3l-29,0c-0.1,0-0.2,0-0.2-0.1l-38.5-46.6c-0.1-0.1-0.3-0.2-0.4,0
	c-0.1,0.1-0.1,0.1-0.1,0.2l0,46.2C159.6,151.6,159.5,151.8,159.3,151.8z"/>
<path class="st1" d="M269,124.8l0,9.8c0,0.4,0.3,0.7,0.7,0.7l52.5,0c0.4,0,0.7,0.3,0.7,0.7c0,0,0,0,0,0l0,15c0,0.4-0.3,0.7-0.7,0.7
	h0l-77.1,0c-0.4,0-0.7-0.3-0.7-0.7l0-69.7c0-0.4,0.3-0.7,0.7-0.7l0,0l77.1,0c0.4,0,0.7,0.3,0.7,0.7c0,0,0,0,0,0l0,15
	c0,0.4-0.3,0.7-0.7,0.7h-52.5c-0.4,0-0.7,0.3-0.7,0.7l0,9.8c0,0.4,0.3,0.7,0.7,0.7l50.4,0c0.4,0,0.7,0.3,0.7,0.7v14.1
	c0,0.4-0.3,0.7-0.7,0.7l-50.4,0C269.3,124,269,124.3,269,124.8z"/>
<path class="st1" d="M418,80.6v16.5l-27.6,0c-0.6,0-0.9,0.3-0.8,0.9l0.1,52.5c0,0.7-0.6,1.3-1.3,1.3c0,0,0,0,0,0l-22.8,0
	c-0.4,0-0.8-0.3-0.8-0.8c0,0,0,0,0,0l0.2-53.3c0-0.4-0.2-0.7-0.7-0.7h-30.5c-0.3,0-0.6-0.3-0.6-0.6c0,0,0,0,0,0l0-15.3
	c0-0.4,0.3-0.7,0.7-0.7L418,80.6z"/>
</svg>
