<?xml version="1.0" encoding="UTF-8" standalone="no" ?>
<!DOCTYPE svg PUBLIC "-//W3C//DTD SVG 1.1//EN" "http://www.w3.org/Graphics/SVG/1.1/DTD/svg11.dtd">
<svg xmlns="http://www.w3.org/2000/svg" xmlns:xlink="http://www.w3.org/1999/xlink" version="1.1" width="1080" height="1080" viewBox="0 0 1080 1080" xml:space="preserve">
<desc>Created with Fabric.js 5.2.4</desc>
<defs>
</defs>
<g transform="matrix(1 0 0 1 540 540)" id="4ea888a1-55bf-4aae-9d08-daddb49e861f"  >
<rect style="stroke: none; stroke-width: 1; stroke-dasharray: none; stroke-linecap: butt; stroke-dashoffset: 0; stroke-linejoin: miter; stroke-miterlimit: 4; fill: rgb(255,255,255); fill-rule: nonzero; opacity: 1; visibility: hidden;" vector-effect="non-scaling-stroke"  x="-540" y="-540" rx="0" ry="0" width="1080" height="1080" />
</g>
<g transform="matrix(1 0 0 1 540 540)" id="4bd8200b-bfdd-4c3c-8cf6-a2178fac55b3"  >
</g>
<g transform="matrix(1 0 0 1 540 540)"  >
<g style=""   >
		<g transform="matrix(1 0 0 1 0 0)" id="65"  >
<rect style="stroke: none; stroke-width: 1; stroke-dasharray: none; stroke-linecap: butt; stroke-dashoffset: 0; stroke-linejoin: miter; stroke-miterlimit: 4; fill: rgb(201,115,100); fill-rule: nonzero; opacity: 1; visibility: hidden;" vector-effect="non-scaling-stroke"  x="-540" y="-540" rx="0" ry="0" width="1080" height="1080" />
</g>
		<g transform="matrix(45 0 0 45 0 0)"  >
<path style="stroke: none; stroke-width: 1; stroke-dasharray: none; stroke-linecap: butt; stroke-dashoffset: 0; stroke-linejoin: miter; stroke-miterlimit: 4; fill: rgb(201,115,100); fill-rule: nonzero; opacity: 1;" vector-effect="non-scaling-stroke"  transform=" translate(-12, -12)" d="M 12 2.25 C 6.615 2.25 2.25 6.615 2.25 12 C 2.25 17.385 6.615 21.75 12 21.75 C 17.385 21.75 21.75 17.385 21.75 12 C 21.74 6.62 17.38 2.26 12 2.25 Z M 16.641 10.294 L 11.147 15.544 C 11.005 15.677 10.817 15.751 10.622 15.75 C 10.429 15.753 10.244 15.679 10.106 15.544 L 7.359 12.919 C 7.152 12.738 7.06 12.458 7.121 12.189 C 7.181 11.92 7.384 11.706 7.649 11.632 C 7.914 11.557 8.199 11.634 8.391 11.831 L 10.622 13.959 L 15.609 9.206 C 15.912 8.942 16.37 8.964 16.647 9.255 C 16.923 9.547 16.921 10.005 16.641 10.294 Z" stroke-linecap="round" />
</g>
</g>
</g>
<g transform="matrix(NaN NaN NaN NaN 0 0)"  >
<g style=""   >
</g>
</g>
</svg>