<?xml version="1.0" encoding="utf-8"?>
<!-- Generator: Adobe Illustrator 28.1.0, SVG Export Plug-In . SVG Version: 6.00 Build 0)  -->
<svg version="1.1" id="Layer_1" xmlns="http://www.w3.org/2000/svg" xmlns:xlink="http://www.w3.org/1999/xlink" x="0px" y="0px"
	 viewBox="0 0 850 132" style="enable-background:new 0 0 850 132;" xml:space="preserve">
<style type="text/css">
	.st0{fill:none;stroke:#80AC9E;stroke-width:2;}
	.st1{fill:none;stroke:#C1C1C0;stroke-width:2;}
	.st2{fill:#FFFFFF;}
	.st3{fill:#00583C;}
	.st4{fill:#838280;}
</style>
<g>
	<path vector-effect="non-scaling-stroke" class="st0" d="M635.8,11c-4.7-3.3-10.9-6-18.4-8C610.5,1.1,604,0.2,598,0.2
		c-4.3,0.1-8.6,1.2-12.7,2c-16,3.4-28.9,12-38.7,25.8c-1.8,2.6-3.4,5.6-4.7,9c-8.3,21.9-7.4,47.9,10.2,64.3
		c7.5,6.9,18.2,11.5,28.2,12.6c2.2,0.2,4.6,0.5,7.1,0.7c4.5,0.4,8.7-0.2,13.1-0.5c8.9-0.5,19.2-4.3,25.9-8.5
		c13.5-8.3,22.3-20.3,26.4-36C658.5,48.4,654.6,24.2,635.8,11"/>
	<path vector-effect="non-scaling-stroke" class="st1" d="M156,19.5c1.1,5.2,4.3,11.4,9.4,13.6c10.3,4.4,19.3,2.4,27.2-5.8
		c2.3-2.4,2.6-4.8,3.1-7.9c1.1-6.2-3.7-12.4-8.9-15c-3-1.5-5.6-2.3-8-2.5c-5.1-0.4-10,0.5-14.5,2.7C158.7,7.1,154.7,13.2,156,19.5"
		/>
	<path vector-effect="non-scaling-stroke" class="st0" d="M697.7,78.9c0.2-0.4,0.6-0.6,1-0.6c20.1,0.8,48.8,0.7,58.9-20.7
		c3.8-8.1,4.3-16.6,3.5-25.4c-1.5-18-19.3-26.8-35.1-27.9c-6.7-0.5-11.3-0.7-13.8-0.6c-13.9,0.5-27.2,0.6-40,0.4
		c-0.5,0-0.7,0.2-0.8,0.7l-19.6,106.9c0,0.3,0.1,0.5,0.4,0.5c0,0,0,0,0.1,0c12.3,0.1,25-0.1,38.1-0.7c0.3,0,0.5-0.2,0.6-0.5
		c1.4-8.3,2.9-16.4,4.5-24.4C695.9,83.8,696.7,81.3,697.7,78.9"/>
	<path vector-effect="non-scaling-stroke" class="st0" d="M106.3,59.1c0,1.4,0.4,2.6,0.3,4c-0.7,15.6-1.9,31.8-3.4,48.5
		c0,0.2,0.1,0.3,0.3,0.4c0,0,0,0,0,0l34,0c0.3,0,0.5-0.2,0.5-0.5c0.2-3.2,0.4-6.4,0.5-9.6c1.4-27.3,2.8-53.6,4.1-79
		c0.3-6.6,0.6-12.8,0.8-18.7c0-0.3-0.1-0.5-0.4-0.5L105,4c-0.6,0-1.1,0.4-1.4,0.9c-7.4,17.6-15.2,34.6-23.2,51.1
		c-0.5,1-1.1,1.9-1.9,2.7C78.2,59,78,59,77.9,58.5L72.1,4.3c0-0.3-0.2-0.5-0.6-0.5L34,3.8c-0.3,0-0.7,0.2-0.8,0.6
		C22.7,39.2,12.2,74,1.8,108.7c-0.3,0.9-0.7,1.8-1.2,2.7c-0.1,0.2-0.1,0.5,0.2,0.6c0.1,0,0.1,0.1,0.2,0.1l35.3,0
		c0.3,0,0.6-0.2,0.7-0.5c4.5-16.3,9.1-32.9,13.8-49.8c0.2-0.6,0.5-1.2,1-1.6c0.4-0.4,1.1-0.3,1.4,0.1c0.1,0.2,0.2,0.3,0.2,0.6
		l5,50.1c0,0.3,0.2,0.5,0.5,0.5h21c0.6,0,1.2-0.4,1.5-0.9c7.5-16.5,15-32.7,22.4-48.3c0.5-1.1,1.3-2.1,1.9-3.1
		C106.1,58.5,106.2,58.5,106.3,59.1"/>
	<path vector-effect="non-scaling-stroke" class="st0" d="M254.3,43.7c-0.1-0.5-0.1-1.5,0-2c1.5-10,3.8-22.4,6.9-37.3
		c0.1-0.3-0.1-0.6-0.4-0.6c0,0-0.1,0-0.1,0l-38.2,0c-0.3,0-0.5,0.2-0.5,0.4c-0.1,1.2-0.2,2.4-0.5,3.8c-6,32.8-12.3,67.2-18.8,103.2
		c-0.1,0.5,0.1,0.8,0.7,0.8h36.2c1.1,0,1.7-0.5,1.9-1.6c2.2-12.5,4.4-24.9,6.7-37.3c0.3-1.7,0.8-3.2,1.5-4.4c1-1.8,1.8-1.7,2.5,0.2
		c5.1,13.9,10.2,28,15.2,42.3c0.2,0.5,0.7,0.9,1.3,0.9l40,0c0.3,0,0.5-0.2,0.5-0.5c0-0.1,0-0.1,0-0.2c-2.4-5.8-4.4-11.7-6.9-17.4
		c-4.9-11.4-9.6-22.9-14.2-34.7c-0.2-0.5-0.1-1.2,0.2-1.6L328,4.8c0.6-0.8,0.4-1.1-0.6-1.1l-44.1,0.2c-0.4,0-0.8,0.2-1,0.5L255.8,44
		C255,45.2,254.5,45.1,254.3,43.7"/>
	<path vector-effect="non-scaling-stroke" class="st0" d="M358.5,81.3c0.2-0.3,0.3-0.7,0.4-1c0.2-2.4,0.9-10.1,4.3-10.1
		c10.1,0,20,0,29.9,0c0.9,0,1.4-0.4,1.5-1.3l4.5-24.1c0.1-0.3-0.2-0.7-0.5-0.7c0,0-0.1,0-0.1,0l-30.4,0c-1.2,0-2.1-0.9-2.1-2.1
		c0-0.1,0-0.1,0-0.2c0.2-2.5,0.7-4.9,1.4-7.3c0.5-1.6,1.6-2.5,3.2-2.5c10.8,0,21.4,0,31.6,0c0.8,0,1.2-0.4,1.4-1.1l4.6-26.5
		c0-0.3-0.1-0.5-0.4-0.5c0,0-0.1,0-0.1,0h-72.6c-0.4,0-0.7,0.3-0.8,0.7l-20,106.6c-0.1,0.7,0.2,1.1,0.9,1.1l76.1-0.7
		c0.3,0,0.5-0.2,0.6-0.5l5.1-26.3c0.2-0.9-0.2-1.3-1.1-1.3c-11.6,0.1-23,0-34.4,0c-1.1,0-2.1-0.4-3-1.2
		C358.4,81.9,358.3,81.6,358.5,81.3"/>
	<path vector-effect="non-scaling-stroke" class="st0" d="M459.4,59.7c0.3,0.3,0.5,0.6,0.7,1.1c7.1,17.3,13.3,34.1,18.6,50.4
		c0.2,0.6,0.7,0.9,1.3,0.9l38.4,0c0.2,0,0.3-0.1,0.3-0.3L538.5,4.6c0.1-0.5-0.1-0.8-0.6-0.8l-37.3,0c-0.4,0-0.6,0.2-0.7,0.6
		c-3.4,17.7-6.6,34.8-9.7,51.3c-0.2,1.1-0.8,1.3-1.7,0.8c-0.1,0-0.2-0.4-0.5-1.1c-5.8-17-12.1-34-18.7-50.8c-0.2-0.4-0.6-0.7-1-0.7
		h-37.5c-0.7,0-1.3,0.5-1.5,1.2c-0.2,1.2-0.4,2.5-0.6,3.7c-6.2,34.1-12.6,68.3-19.1,102.6c-0.1,0.3,0.2,0.7,0.5,0.7c0,0,0.1,0,0.1,0
		c12.9,0.1,25.8-0.2,38.7-0.7c0.2,0,0.4-0.2,0.4-0.4l8.7-50.8c0.1-0.5,0.5-0.8,1-0.7C459.1,59.5,459.3,59.6,459.4,59.7"/>
	<path vector-effect="non-scaling-stroke" class="st0" d="M810.5,98c0.3,0.3,0.4,0.7,0.4,1.2c-0.2,3.2,0.1,6.5,0.7,9.8
		c0.2,0.8,0.1,1.7-0.1,2.5c-0.1,0.3,0.1,0.5,0.4,0.6c0,0,0.1,0,0.1,0l37,0c0.4,0,0.7-0.3,0.7-0.7c0,0,0-0.1,0-0.1
		c-0.4-2.7-1.2-5-1.5-7.7c-4.2-32.9-8.6-66-13-99.3c0-0.2-0.2-0.4-0.5-0.4l-41.7,0c-0.5,0-1,0.3-1.2,0.7l-56,106.5
		c-0.2,0.3,0,0.8,0.3,0.9c0.1,0,0.2,0.1,0.3,0.1c13.6,0,27.2-0.2,40.8-0.7c0.3,0,0.6-0.2,0.7-0.5l5.7-12.5c0.3-0.7,1-1.1,1.7-1.1
		c7.8-0.1,15.8,0,23.9,0.1C809.7,97.4,810.1,97.6,810.5,98"/>
	<path vector-effect="non-scaling-stroke" class="st0" d="M193.3,41.9c0-0.2-0.1-0.3-0.3-0.3h-32.7c-0.2,0-0.3,0.1-0.3,0.3v69.8
		c0,0.2,0.1,0.3,0.3,0.3H193c0.2,0,0.3-0.1,0.3-0.3V41.9"/>
	<path vector-effect="non-scaling-stroke" class="st0" d="M584.7,76.4c9.3,5.6,21.9,1.8,28.2-8.5c6.2-10.3,3.7-23.2-5.6-28.9l0,0
		c-9.3-5.6-21.9-1.8-28.2,8.5C572.8,57.9,575.4,70.8,584.7,76.4C584.7,76.4,584.7,76.4,584.7,76.4"/>
	<path vector-effect="non-scaling-stroke" class="st0" d="M721.9,43.1c1.7-3,1.3-5.7-1-8c-3.4-3.3-8.3-3.4-12.8-3.8
		c-0.8-0.1-1.4,0.3-1.6,1.1c-1.5,4.6-3.7,11.4-3.3,16.2c0.1,0.8,0.7,1.4,1.5,1.4C711.6,50.3,718.1,49.9,721.9,43.1"/>
	<path vector-effect="non-scaling-stroke" class="st0" d="M795.5,70.8c-0.2,0.4,0,0.9,0.5,1.1c0.1,0,0.2,0.1,0.3,0.1l11.8-0.3
		c0.5,0,0.9-0.4,0.8-0.9c0,0,0,0,0,0l-1.4-27.1c0-0.5-0.4-0.8-0.9-0.8c-0.3,0-0.6,0.2-0.8,0.5L795.5,70.8"/>
</g>
<path class="st2" d="M635.8,11c-4.7-3.3-10.9-6-18.4-8C610.5,1.1,604,0.2,598,0.2c-4.3,0.1-8.6,1.2-12.7,2
	c-16,3.4-28.9,12-38.7,25.8c-1.8,2.6-3.4,5.6-4.7,9c-8.3,21.9-7.4,47.9,10.2,64.3c7.5,6.9,18.2,11.5,28.2,12.6
	c2.2,0.2,4.6,0.5,7.1,0.7c4.5,0.4,8.7-0.2,13.1-0.5c8.9-0.5,19.2-4.3,25.9-8.5c13.5-8.3,22.3-20.3,26.4-36
	C658.5,48.4,654.6,24.2,635.8,11z M156,19.5c1.1,5.2,4.3,11.4,9.4,13.6c10.3,4.4,19.3,2.4,27.2-5.8c2.3-2.4,2.6-4.8,3.1-7.9
	c1.1-6.2-3.7-12.4-8.9-15c-3-1.5-5.6-2.3-8-2.5c-5.1-0.4-10,0.5-14.5,2.7C158.7,7.1,154.7,13.2,156,19.5z M697.7,78.9
	c0.2-0.4,0.6-0.6,1-0.6c20.1,0.8,48.8,0.7,58.9-20.7c3.8-8.1,4.3-16.6,3.5-25.4c-1.5-18-19.3-26.8-35.1-27.9
	c-6.7-0.5-11.3-0.7-13.8-0.6c-13.9,0.5-27.2,0.6-40,0.4c-0.5,0-0.7,0.2-0.8,0.7l-19.6,106.9c0,0.3,0.1,0.5,0.4,0.5c0,0,0,0,0.1,0
	c12.3,0.1,25-0.1,38.1-0.7c0.3,0,0.5-0.2,0.6-0.5c1.4-8.3,2.9-16.4,4.5-24.4C695.9,83.8,696.7,81.3,697.7,78.9z M106.3,59.1
	c0,1.4,0.4,2.6,0.3,4c-0.7,15.6-1.9,31.8-3.4,48.5c0,0.2,0.1,0.3,0.3,0.4c0,0,0,0,0,0l34,0c0.3,0,0.5-0.2,0.5-0.5
	c0.2-3.2,0.4-6.4,0.5-9.6c1.4-27.3,2.8-53.6,4.1-79c0.3-6.6,0.6-12.8,0.8-18.7c0-0.3-0.1-0.5-0.4-0.5L105,4c-0.6,0-1.1,0.4-1.4,0.9
	c-7.4,17.6-15.2,34.6-23.2,51.1c-0.5,1-1.1,1.9-1.9,2.7C78.2,59,78,59,77.9,58.5L72.1,4.3c0-0.3-0.2-0.5-0.6-0.5L34,3.8
	c-0.3,0-0.7,0.2-0.8,0.6C22.7,39.2,12.2,74,1.8,108.7c-0.3,0.9-0.7,1.8-1.2,2.7c-0.1,0.2-0.1,0.5,0.2,0.6c0.1,0,0.1,0.1,0.2,0.1
	l35.3,0c0.3,0,0.6-0.2,0.7-0.5c4.5-16.3,9.1-32.9,13.8-49.8c0.2-0.6,0.5-1.2,1-1.6c0.4-0.4,1.1-0.3,1.4,0.1c0.1,0.2,0.2,0.3,0.2,0.6
	l5,50.1c0,0.3,0.2,0.5,0.5,0.5h21c0.6,0,1.2-0.4,1.5-0.9c7.5-16.5,15-32.7,22.4-48.3c0.5-1.1,1.3-2.1,1.9-3.1
	C106.1,58.5,106.2,58.5,106.3,59.1z M254.3,43.7c-0.1-0.5-0.1-1.5,0-2c1.5-10,3.8-22.4,6.9-37.3c0.1-0.3-0.1-0.6-0.4-0.6
	c0,0-0.1,0-0.1,0l-38.2,0c-0.3,0-0.5,0.2-0.5,0.4c-0.1,1.2-0.2,2.4-0.5,3.8c-6,32.8-12.3,67.2-18.8,103.2c-0.1,0.5,0.1,0.8,0.7,0.8
	h36.2c1.1,0,1.7-0.5,1.9-1.6c2.2-12.5,4.4-24.9,6.7-37.3c0.3-1.7,0.8-3.2,1.5-4.4c1-1.8,1.8-1.7,2.5,0.2c5.1,13.9,10.2,28,15.2,42.3
	c0.2,0.5,0.7,0.9,1.3,0.9l40,0c0.3,0,0.5-0.2,0.5-0.5c0-0.1,0-0.1,0-0.2c-2.4-5.8-4.4-11.7-6.9-17.4c-4.9-11.4-9.6-22.9-14.2-34.7
	c-0.2-0.5-0.1-1.2,0.2-1.6L328,4.8c0.6-0.8,0.4-1.1-0.6-1.1l-44.1,0.2c-0.4,0-0.8,0.2-1,0.5L255.8,44
	C255,45.2,254.5,45.1,254.3,43.7z M358.5,81.3c0.2-0.3,0.3-0.7,0.4-1c0.2-2.4,0.9-10.1,4.3-10.1c10.1,0,20,0,29.9,0
	c0.9,0,1.4-0.4,1.5-1.3l4.5-24.1c0.1-0.3-0.2-0.7-0.5-0.7c0,0-0.1,0-0.1,0l-30.4,0c-1.2,0-2.1-0.9-2.1-2.1c0-0.1,0-0.1,0-0.2
	c0.2-2.5,0.7-4.9,1.4-7.3c0.5-1.6,1.6-2.5,3.2-2.5c10.8,0,21.4,0,31.6,0c0.8,0,1.2-0.4,1.4-1.1l4.6-26.5c0-0.3-0.1-0.5-0.4-0.5
	c0,0-0.1,0-0.1,0h-72.6c-0.4,0-0.7,0.3-0.8,0.7l-20,106.6c-0.1,0.7,0.2,1.1,0.9,1.1l76.1-0.7c0.3,0,0.5-0.2,0.6-0.5l5.1-26.3
	c0.2-0.9-0.2-1.3-1.1-1.3c-11.6,0.1-23,0-34.4,0c-1.1,0-2.1-0.4-3-1.2C358.4,81.9,358.3,81.6,358.5,81.3z M459.4,59.7
	c0.3,0.3,0.5,0.6,0.7,1.1c7.1,17.3,13.3,34.1,18.6,50.4c0.2,0.6,0.7,0.9,1.3,0.9l38.4,0c0.2,0,0.3-0.1,0.3-0.3L538.5,4.6
	c0.1-0.5-0.1-0.8-0.6-0.8l-37.3,0c-0.4,0-0.6,0.2-0.7,0.6c-3.4,17.7-6.6,34.8-9.7,51.3c-0.2,1.1-0.8,1.3-1.7,0.8
	c-0.1,0-0.2-0.4-0.5-1.1c-5.8-17-12.1-34-18.7-50.8c-0.2-0.4-0.6-0.7-1-0.7h-37.5c-0.7,0-1.3,0.5-1.5,1.2c-0.2,1.2-0.4,2.5-0.6,3.7
	c-6.2,34.1-12.6,68.3-19.1,102.6c-0.1,0.3,0.2,0.7,0.5,0.7c0,0,0.1,0,0.1,0c12.9,0.1,25.8-0.2,38.7-0.7c0.2,0,0.4-0.2,0.4-0.4
	l8.7-50.8c0.1-0.5,0.5-0.8,1-0.7C459.1,59.5,459.3,59.6,459.4,59.7z M810.5,98c0.3,0.3,0.4,0.7,0.4,1.2c-0.2,3.2,0.1,6.5,0.7,9.8
	c0.2,0.8,0.1,1.7-0.1,2.5c-0.1,0.3,0.1,0.5,0.4,0.6c0,0,0.1,0,0.1,0l37,0c0.4,0,0.7-0.3,0.7-0.7c0,0,0-0.1,0-0.1
	c-0.4-2.7-1.2-5-1.5-7.7c-4.2-32.9-8.6-66-13-99.3c0-0.2-0.2-0.4-0.5-0.4l-41.7,0c-0.5,0-1,0.3-1.2,0.7l-56,106.5
	c-0.2,0.3,0,0.8,0.3,0.9c0.1,0,0.2,0.1,0.3,0.1c13.6,0,27.2-0.2,40.8-0.7c0.3,0,0.6-0.2,0.7-0.5l5.7-12.5c0.3-0.7,1-1.1,1.7-1.1
	c7.8-0.1,15.8,0,23.9,0.1C809.7,97.4,810.1,97.6,810.5,98z M193.3,41.9c0-0.2-0.1-0.3-0.3-0.3h-32.7c-0.2,0-0.3,0.1-0.3,0.3v69.8
	c0,0.2,0.1,0.3,0.3,0.3H193c0.2,0,0.3-0.1,0.3-0.3V41.9z"/>
<path class="st3" d="M635.8,11c18.8,13.2,22.7,37.4,17,58.8c-4.1,15.6-13,27.6-26.4,36c-6.7,4.1-17,7.9-25.9,8.5
	c-4.4,0.3-8.5,0.9-13.1,0.5c-2.5-0.2-4.9-0.5-7.1-0.7c-10-1.1-20.7-5.6-28.2-12.6C534.5,85,533.6,59,541.9,37.1
	c1.3-3.4,2.9-6.4,4.7-9c9.7-13.8,22.6-22.4,38.7-25.8c4.1-0.9,8.4-2,12.7-2c6.1-0.1,12.5,0.8,19.4,2.7C624.9,5,631.1,7.6,635.8,11z
	 M584.7,76.4c9.3,5.6,21.9,1.8,28.2-8.5c6.2-10.3,3.7-23.2-5.6-28.9l0,0c-9.3-5.6-21.9-1.8-28.2,8.5
	C572.8,57.9,575.4,70.8,584.7,76.4C584.7,76.4,584.7,76.4,584.7,76.4z"/>
<path class="st4" d="M165.4,33c-5.1-2.2-8.3-8.3-9.4-13.6c-1.3-6.3,2.7-12.3,8.2-14.9c4.6-2.2,9.4-3,14.5-2.7c2.4,0.2,5,1,8,2.5
	c5.2,2.6,10.1,8.8,8.9,15c-0.6,3-0.8,5.5-3.1,7.9C184.7,35.5,175.6,37.4,165.4,33z"/>
<path class="st3" d="M697.7,78.9c-1,2.4-1.8,4.9-2.3,7.6c-1.6,8-3.1,16.1-4.5,24.4c-0.1,0.3-0.3,0.5-0.6,0.5
	c-13,0.6-25.7,0.8-38.1,0.7c-0.3,0-0.5-0.2-0.5-0.5c0,0,0,0,0-0.1L671.4,4.6c0.1-0.4,0.3-0.7,0.8-0.7c12.8,0.3,26.1,0.1,40-0.4
	c2.4-0.1,7,0.1,13.8,0.6c15.9,1.2,33.6,10,35.1,27.9c0.7,8.9,0.3,17.3-3.5,25.4c-10.1,21.3-38.8,21.5-58.9,20.7
	C698.2,78.2,697.8,78.5,697.7,78.9z M721.9,43.1c1.7-3,1.3-5.7-1-8c-3.4-3.3-8.3-3.4-12.8-3.8c-0.8-0.1-1.4,0.3-1.6,1.1
	c-1.5,4.6-3.7,11.4-3.3,16.2c0.1,0.8,0.7,1.4,1.5,1.4C711.6,50.3,718.1,49.9,721.9,43.1z"/>
<path class="st3" d="M105.8,59c-0.6,1.1-1.3,2-1.9,3.1C96.5,77.9,89,94,81.5,110.5c-0.3,0.6-0.8,0.9-1.5,0.9H59
	c-0.3,0-0.5-0.2-0.5-0.5l-5-50.1c-0.1-0.6-0.6-1-1.1-0.9c-0.2,0-0.4,0.1-0.6,0.2c-0.5,0.4-0.8,0.9-1,1.6
	c-4.7,16.9-9.3,33.5-13.8,49.8c-0.1,0.3-0.4,0.5-0.7,0.5l-35.3,0c-0.2,0-0.4-0.2-0.4-0.5c0-0.1,0-0.2,0.1-0.2
	c0.5-0.9,0.9-1.7,1.2-2.7C12.2,74,22.7,39.2,33.2,4.4C33.3,4,33.6,3.8,34,3.8l37.6,0c0.3,0,0.5,0.2,0.6,0.5l5.8,54.2
	c0,0.4,0.2,0.5,0.5,0.2c0.8-0.8,1.4-1.6,1.9-2.7c8-16.5,15.8-33.5,23.2-51.1c0.2-0.5,0.8-0.9,1.4-0.9l38-0.2c0.3,0,0.5,0.2,0.4,0.5
	c-0.2,5.9-0.4,12.1-0.8,18.7c-1.3,25.4-2.6,51.7-4.1,79c-0.2,3.2-0.3,6.4-0.5,9.6c0,0.3-0.2,0.5-0.5,0.5l-34,0
	c-0.2,0-0.3-0.1-0.3-0.3c0,0,0,0,0,0c1.6-16.7,2.7-32.9,3.4-48.5c0.1-1.4-0.3-2.6-0.3-4C106.2,58.5,106.1,58.5,105.8,59z"/>
<path class="st3" d="M254.3,43.7c0.2,1.4,0.6,1.5,1.4,0.3l26.5-39.6c0.2-0.3,0.6-0.5,1-0.5l44.1-0.2c0.9,0,1.1,0.4,0.6,1.1
	l-39.6,52.7c-0.4,0.5-0.4,1.1-0.2,1.6c4.6,11.8,9.3,23.4,14.2,34.7c2.5,5.8,4.5,11.6,6.9,17.4c0.1,0.3,0,0.6-0.3,0.7
	c-0.1,0-0.1,0-0.2,0l-40,0c-0.6,0-1.1-0.4-1.3-0.9c-5-14.3-10.1-28.4-15.2-42.3c-0.7-1.9-1.5-2-2.5-0.2c-0.7,1.2-1.1,2.7-1.5,4.4
	c-2.3,12.4-4.5,24.9-6.7,37.3c-0.2,1.1-0.8,1.6-1.9,1.6h-36.2c-0.5,0-0.8-0.3-0.7-0.8c6.5-36.1,12.8-70.5,18.8-103.2
	c0.2-1.3,0.4-2.6,0.5-3.8c0-0.2,0.2-0.4,0.5-0.4l38.2,0c0.3,0,0.6,0.2,0.6,0.5c0,0,0,0.1,0,0.1c-3.1,14.8-5.4,27.3-6.9,37.3
	C254.2,42.2,254.3,43.1,254.3,43.7z"/>
<path class="st3" d="M358.6,82.2c0.9,0.8,1.9,1.2,3,1.2c11.4,0.1,22.9,0.1,34.4,0c0.9,0,1.3,0.4,1.1,1.3L392,111
	c-0.1,0.3-0.2,0.5-0.6,0.5l-76.1,0.7c-0.7,0-1.1-0.4-0.9-1.1l20-106.6c0.1-0.4,0.4-0.7,0.8-0.7h72.6c0.3,0,0.5,0.2,0.5,0.5
	c0,0,0,0.1,0,0.1l-4.6,26.5c-0.1,0.8-0.6,1.1-1.4,1.1c-10.3,0-20.8,0-31.6,0c-1.6,0-2.7,0.8-3.2,2.5c-0.8,2.4-1.2,4.8-1.4,7.3
	c-0.1,1.1,0.8,2.1,1.9,2.2c0.1,0,0.1,0,0.2,0l30.4,0c0.4,0,0.6,0.3,0.6,0.6c0,0,0,0.1,0,0.1l-4.5,24.1c-0.2,0.9-0.7,1.3-1.5,1.3
	c-9.8,0-19.8,0-29.9,0c-3.5,0-4.2,7.7-4.3,10.1c0,0.4-0.2,0.7-0.4,1C358.3,81.6,358.4,81.9,358.6,82.2z"/>
<path class="st3" d="M459.4,59.7c-0.4-0.3-0.9-0.3-1.3,0.1c-0.1,0.1-0.2,0.3-0.2,0.5l-8.7,50.8c0,0.2-0.2,0.4-0.4,0.4
	c-12.9,0.5-25.8,0.8-38.7,0.7c-0.3,0-0.6-0.3-0.6-0.6c0,0,0-0.1,0-0.1c6.5-34.2,12.9-68.4,19.1-102.6c0.2-1.2,0.4-2.5,0.6-3.7
	c0.1-0.7,0.7-1.2,1.5-1.2h37.5c0.5,0,0.9,0.3,1,0.7c6.6,16.8,12.8,33.8,18.7,50.8c0.2,0.7,0.4,1.1,0.5,1.1c0.9,0.6,1.5,0.3,1.7-0.8
	c3.1-16.5,6.4-33.6,9.7-51.3c0.1-0.4,0.3-0.6,0.7-0.6l37.3,0c0.5,0,0.7,0.3,0.6,0.8l-19.7,107.2c0,0.2-0.2,0.3-0.3,0.3l-38.4,0
	c-0.6,0-1.1-0.4-1.3-0.9c-5.2-16.2-11.4-33-18.6-50.4C459.9,60.3,459.7,59.9,459.4,59.7z"/>
<path class="st3" d="M810.5,98c-0.4-0.4-0.9-0.7-1.4-0.7c-8.1-0.1-16.1-0.2-23.9-0.1c-0.7,0-1.4,0.4-1.7,1.1l-5.7,12.5
	c-0.1,0.3-0.4,0.5-0.7,0.5c-13.6,0.5-27.2,0.8-40.8,0.7c-0.4,0-0.7-0.3-0.7-0.7c0-0.1,0-0.2,0.1-0.3l56-106.5
	c0.2-0.4,0.7-0.7,1.2-0.7l41.7,0c0.2,0,0.5,0.2,0.5,0.4c4.4,33.3,8.8,66.4,13,99.3c0.3,2.7,1.1,5.1,1.5,7.7c0.1,0.4-0.2,0.7-0.6,0.8
	c0,0-0.1,0-0.1,0l-37,0c-0.3,0-0.5-0.2-0.5-0.5c0,0,0-0.1,0-0.1c0.2-0.8,0.2-1.7,0.1-2.5c-0.6-3.3-0.9-6.6-0.7-9.8
	C810.9,98.8,810.8,98.3,810.5,98z M795.5,70.8c-0.2,0.4,0,0.9,0.5,1.1c0.1,0,0.2,0.1,0.3,0.1l11.8-0.3c0.5,0,0.9-0.4,0.8-0.9
	c0,0,0,0,0,0l-1.4-27.1c0-0.5-0.4-0.8-0.9-0.8c-0.3,0-0.6,0.2-0.8,0.5L795.5,70.8z"/>
<path class="st2" d="M721.9,43.1c-3.8,6.8-10.2,7.2-17.2,6.9c-0.8,0-1.4-0.6-1.5-1.4c-0.4-4.8,1.8-11.6,3.3-16.2
	c0.3-0.8,0.8-1.2,1.6-1.1c4.4,0.4,9.4,0.5,12.8,3.8C723.2,37.4,723.6,40.1,721.9,43.1z"/>
<ellipse transform="matrix(0.5165 -0.8563 0.8563 0.5165 238.6469 538.2271)" class="st2" cx="596" cy="57.8" rx="21.8" ry="19.7"/>
<path class="st3" d="M160.2,41.6H193c0.2,0,0.3,0.1,0.3,0.3v69.8c0,0.2-0.1,0.3-0.3,0.3h-32.7c-0.2,0-0.3-0.1-0.3-0.3V41.9
	C159.9,41.7,160.1,41.6,160.2,41.6z"/>
<path class="st2" d="M795.5,70.8l10.4-27.4c0.2-0.4,0.7-0.7,1.1-0.5c0.3,0.1,0.5,0.4,0.5,0.8l1.4,27.1c0,0.5-0.3,0.9-0.8,0.9
	c0,0,0,0,0,0L796.3,72c-0.5,0-0.9-0.4-0.9-0.8C795.4,71,795.4,70.9,795.5,70.8z"/>
</svg>
