<?xml version="1.0" encoding="utf-8"?>
<!-- Generator: Adobe Illustrator 28.1.0, SVG Export Plug-In . SVG Version: 6.00 Build 0)  -->
<svg version="1.1" id="Layer_1" xmlns="http://www.w3.org/2000/svg" xmlns:xlink="http://www.w3.org/1999/xlink" x="0px" y="0px"
	 viewBox="0 0 297 170" style="enable-background:new 0 0 297 170;" xml:space="preserve">
<style type="text/css">
	.st0{fill:#22419B;}
</style>
<path class="st0" d="M186.1,63c-0.2,0.1-0.5,0.1-0.7-0.2c-0.1-0.1-0.1-0.3,0-0.4c0.6-2.2,1.8-3.2,3.5-3.1c0.2,0,0.4,0.2,0.4,0.4
	c0,0.1,0,0.1,0,0.2C188.4,61.1,187.4,62.2,186.1,63z"/>
<path class="st0" d="M198.5,60.6c0.3-0.7,0.7-1.1,1.4-1.3c0.9-0.2,1.2,0.1,0.8,1c-1.9,4-4.7,2.8-5.7-0.4c-0.1-0.4,0-0.6,0.4-0.6h0.3
	c0.6,0,1.1,0.3,1.3,0.8c0.1,0.3,0.3,0.5,0.5,0.7C197.9,61.4,198.3,61.3,198.5,60.6z"/>
<path class="st0" d="M112.9,85c5.1,1.5,8.6,4,9,9.7c0.6,10.2-6.8,14.9-16,15.1c-7.8,0.2-15.5,0.2-23.2,0.1c-0.3,0-0.6-0.3-0.6-0.6
	L82,62c0-0.6,0.3-0.9,0.9-1c8.6-0.1,16.7-0.1,24.3,0.1c6.4,0.1,12.5,3.8,13.3,10.7c0.8,6.4-2.1,10.3-7.7,12.5
	C112.2,84.6,112.2,84.8,112.9,85z M95.1,70.7l0.1,9c0,0.3,0.2,0.5,0.5,0.5l5.3-0.1c3.6,0,6.6-2.1,6.6-4.6c0,0,0,0,0,0l0-0.9
	c0-2.5-3-4.5-6.7-4.4l-5.3,0.1C95.3,70.2,95.1,70.5,95.1,70.7C95.1,70.7,95.1,70.7,95.1,70.7z M95.2,89.6l0.1,10.6
	c0,0.2,0.2,0.4,0.4,0.4l6.2,0c3.9,0,7.1-2.3,7.1-5.1c0,0,0,0,0,0v-1.2c0-2.8-3.2-5.1-7.1-5l-6.2,0C95.3,89.2,95.1,89.4,95.2,89.6
	C95.1,89.6,95.1,89.6,95.2,89.6z"/>
<path class="st0" d="M173.9,63.5c0-0.5,0.1-1,0.2-1.5c0.2-0.7,0.6-1.1,1.4-1c0.4,0,0.5,0.2,0.6,0.6l0.1,1.9c0,0.4,0.2,0.7,0.7,0.6
	l1.5,0c0.5,0,0.8,0.2,0.8,0.8l0,0.4c0,0.3-0.2,0.6-0.6,0.7c0,0,0,0,0,0l-2,0c-0.3,0-0.5,0.3-0.5,0.5c0,0,0,0,0,0c0,1.8,0,3.7,0,5.8
	c0,1.6,1.2,2.2,2.7,1.9c0.4-0.1,0.7,0.1,0.7,0.5l0,0.2c0,0.5-0.2,0.8-0.6,0.9c-6.6,1.7-5-5.6-5-9.1c0-0.6-0.3-0.9-1-0.8
	c-0.8,0.2-1.3,0-1.7-0.6c-0.2-0.3-0.1-0.7,0.1-0.9c0,0,0,0,0.1,0c0.5-0.3,1.1-0.4,1.7-0.3C173.6,64.3,173.9,64.1,173.9,63.5z"/>
<path class="st0" d="M207.7,70.5c-1,0-1.3,0.5-0.7,1.3l0.4,0.6c0.4,0.8,1.2,1.3,2,1.5c1.4,0.4,2.7,0.2,4.1-0.6
	c0.5-0.3,0.7-0.1,0.7,0.4l0,0.8c0,0.4-0.2,0.7-0.6,0.8c-1.4,0.4-2.9,0.6-4.5,0.4c-5.8-0.7-6.3-10.2-0.8-11.8
	c4.3-1.2,7.2,1.7,6.9,5.8c0,0.3-0.2,0.5-0.5,0.5L207.7,70.5z M207,68.7l5.4-0.1c0.1,0,0.1-0.1,0.1-0.1v-0.1c0-1.5-1.3-2.7-2.8-2.7
	c0,0,0,0,0,0h-0.1c-1.5,0-2.8,1.3-2.8,2.8c0,0,0,0,0,0v0.1C206.9,68.7,206.9,68.7,207,68.7C207,68.7,207,68.7,207,68.7z"/>
<path class="st0" d="M134.9,65.4c1.7-1.8,5.2-1.9,6.5,0.2c1.3,2.2,0.7,6.6,0.8,9.3c0,0.6-0.3,1-0.9,1l-0.5,0c-0.4,0-0.7-0.3-0.7-0.6
	c0,0,0,0,0,0l-0.1-7.6c0-1-0.9-1.9-1.9-1.8c-0.1,0-0.2,0-0.2,0c-3.9,0.5-3.1,6.4-2.9,9.3c0,0.5-0.2,0.8-0.7,0.8h-0.9
	c-0.3,0-0.6-0.3-0.6-0.6l-0.1-7.7c0-1.5-0.8-2.1-2.2-1.9l-0.3,0.1c-1.6,0.3-2.4,1.2-2.4,2.8l0,6.6c0,0.5-0.2,0.7-0.7,0.7l-1,0
	c-0.3,0-0.5-0.2-0.5-0.5c0,0,0,0,0,0V64.9c0-0.4,0.2-0.7,0.6-0.7c0.5-0.1,1,0.1,1.4,0.4c0.3,0.2,0.6,0.3,0.9,0.1
	c2.3-1.2,4.2-1,5.8,0.7C134.4,65.7,134.7,65.7,134.9,65.4z"/>
<path class="st0" d="M156.7,70c0,3.3-2.7,6-6.1,6c-3.3,0-6-2.7-6-6s2.7-6,6-6.1C154,64,156.7,66.7,156.7,70L156.7,70z M150.6,74.3
	c2,0,3.6-1.9,3.6-4.3c0,0,0,0,0,0c0-2.4-1.6-4.3-3.6-4.3h0c-2,0-3.6,1.9-3.6,4.3c0,0,0,0,0,0C147.1,72.4,148.7,74.3,150.6,74.3
	L150.6,74.3z"/>
<path class="st0" d="M162.2,64.9c0.3-0.3,0.6-0.5,1-0.6c8-2.4,6.4,6.6,6.5,10.8c0,0.4-0.2,0.6-0.6,0.6l-1.2,0
	c-0.3,0-0.5-0.2-0.5-0.5l0-7c0-1.5-0.7-2.3-2.2-2.5c-1-0.1-1.9,0.2-2.8,1.2c-0.5,0.4-0.7,1.1-0.7,1.7l-0.1,6.7
	c0,0.4-0.2,0.6-0.6,0.6l-1,0c-0.3,0-0.6-0.3-0.6-0.6c0,0,0,0,0,0l0-10.5c0-0.4,0.3-0.7,0.6-0.7c0.7,0,1.2,0.2,1.5,0.8
	C161.6,65.2,161.9,65.3,162.2,64.9z"/>
<path class="st0" d="M187.9,75.2c-2.1,1.4-6.6,1.4-7.1-1.9c-0.6-3.9,3.5-5,6.6-4.7c0.9,0.1,1.1-0.3,0.8-1.1l-0.2-0.4
	c-0.3-0.9-1-1.3-2-1.4c-1.3,0-2.4,0.2-3.5,0.8c-0.5,0.3-0.7,0.1-0.7-0.5l0-0.5c0-0.5,0.4-0.9,0.8-1c3-1,7.3-1.1,7.7,3
	c0.2,2.4,0.3,5,0.1,7.9c0,0.4-0.2,0.6-0.7,0.6c-0.5-0.1-1-0.3-1.3-0.7C188.5,75,188.2,75,187.9,75.2z M186.7,70.2
	c-1.2,0.2-2.3,0.2-3.1,1.1c-0.6,0.7-0.6,1.7,0.1,2.3c0.2,0.2,0.4,0.3,0.7,0.4c1.9,0.5,3.1-0.1,3.8-1.9
	C188.8,70.7,188.3,70,186.7,70.2z"/>
<path class="st0" d="M198.8,65.9l-4.7,0c-0.5,0-0.7-0.2-0.8-0.7l0-0.4c0-0.4,0.3-0.7,0.7-0.8c0,0,0,0,0,0h7.6c0.6,0,1.2,0.5,1.2,1.2
	c0,0.3-0.1,0.5-0.3,0.7l-6.2,7.4c-0.1,0.1-0.1,0.4,0,0.5c0.1,0.1,0.1,0.1,0.2,0.1l5.8,0.1c0.3,0,0.6,0.2,0.6,0.5l0,0.3
	c0.1,0.6-0.2,0.9-0.8,0.9h-8c-0.7,0-1.2-0.5-1.2-1.2c0-0.3,0.1-0.5,0.2-0.7c2-2.7,4-5.1,6-7.2C199.6,66.2,199.5,65.9,198.8,65.9z"/>
<path class="st0" d="M135.9,83.2c2.5-4.9,6.7-6.7,12.6-5.5c0.2,0,0.3,0.1,0.2,0.3l-0.6,8.7c0,0.2-0.1,0.2-0.3,0.2
	c-10.1-2-11.7,4.8-11.4,12.9c0.1,3.3,0.1,6.5,0,9.6c0,0.3-0.2,0.5-0.5,0.5l-10.1,0c-0.3,0-0.6-0.3-0.6-0.6l0,0l0-30.8
	c0-0.2,0.2-0.4,0.4-0.4h0l9,0c0.4,0,0.8,0.3,0.8,0.8c0,0,0,0,0,0l-0.1,4.1C135.4,83.8,135.5,83.8,135.9,83.2z"/>
<path class="st0" d="M151.5,103.8c-5.8-8-3.7-19.8,5.5-24.3c4.2-2.1,8.7-2.7,13.2-2c10.2,1.7,15.2,7.5,15.2,17.3
	C185.2,111.6,160,115.6,151.5,103.8z M166.8,103c4,0,7.3-4,7.3-9c0,0,0,0,0,0c0-5-3.2-9.1-7.2-9.1c-4,0-7.3,4-7.3,9c0,0,0,0,0,0
	C159.5,98.9,162.8,103,166.8,103z"/>
<path class="st0" d="M203.9,78.7l-2.4,2.1c-0.1,0.1-0.4,0.1-0.5,0l-2.2-2.2c-0.1-0.1-0.1-0.4,0-0.5c0.1-0.1,0.2-0.1,0.3-0.1l4.6,0.2
	c0.2,0,0.4,0.2,0.4,0.4C204,78.5,204,78.6,203.9,78.7z"/>
<path class="st0" d="M201.2,86l-13.4,0c-0.2,0-0.2-0.1-0.2-0.2l0-7.5c0-0.1,0.1-0.2,0.2-0.2l5.9,0c0.4,0,0.8,0.2,1,0.5l3.1,3.5
	c1.7,1.9,4.7,2.1,6.6,0.4c0.1-0.1,0.2-0.2,0.3-0.3l3.2-3.5c0.3-0.4,0.7-0.5,1.2-0.5l4.5,0c0.3,0,0.6,0.3,0.6,0.6l0,0l0,7.6
	c0,0.3-0.1,0.6-0.3,0.8l-13.8,14.2c-0.1,0.1-0.1,0.3,0,0.4c0,0.1,0.1,0.1,0.2,0.1l13.6-0.1c0.5,0,0.7,0.2,0.7,0.7l0,6.7
	c0,0.5-0.3,0.8-0.8,0.8l-26.2,0c-0.4,0-0.5-0.2-0.5-0.5l0.1-7.8c0-0.4,0.2-0.8,0.4-1l13.7-14c0.1-0.1,0.1-0.3,0-0.4
	C201.3,86.1,201.3,86,201.2,86z"/>
</svg>
