<?xml version="1.0" encoding="utf-8"?>
<!-- Generator: Adobe Illustrator 28.1.0, SVG Export Plug-In . SVG Version: 6.00 Build 0)  -->
<svg version="1.1" id="Layer_1" xmlns="http://www.w3.org/2000/svg" xmlns:xlink="http://www.w3.org/1999/xlink" x="0px" y="0px"
	 viewBox="0 0 300 168" style="enable-background:new 0 0 300 168;" xml:space="preserve">
<style type="text/css">
	.st0{fill:#101214;}
</style>
<path class="st0" d="M102.6,69.8c4.1-4.7,13.4-4.1,13.6,3.8c0.1,4.8,0.1,9.6,0.1,14.3c0,0.2-0.1,0.3-0.3,0.3l-5,0
	c-0.2,0-0.3-0.1-0.3-0.3c0,0,0,0,0,0c0.1-4.1,0.1-8.5-0.1-13c-0.1-2.6-2.2-4.3-4.9-3.6c-2,0.5-3,1.8-3.2,3.9
	c-0.2,3.6-0.3,7.8-0.1,12.7c0,0.2-0.1,0.3-0.2,0.3l-5.1,0c-0.2,0-0.2-0.1-0.2-0.2l0-19.8c0-0.4,0.2-0.6,0.6-0.6l4.2,0
	c0.3,0,0.6,0.2,0.6,0.5c0,0,0,0,0,0l-0.1,1.5C102.1,70.1,102.2,70.2,102.6,69.8z"/>
<path class="st0" d="M131.1,86.8c-3.9,2.7-12.8,3.3-13.4-3.4c-0.7-7.1,6.4-7.2,11.4-7.8c3.7-0.4,3-4.4,0-4.9c-2.8-0.5-4.4,0.3-5,2.5
	c-0.1,0.4-0.3,0.5-0.7,0.5l-4.7,0c-0.3,0-0.5-0.2-0.4-0.5c0.6-3.4,2.7-5.4,6.5-6.1c4.8-0.9,12.7-0.6,12.5,5.9c-0.1,5,0,9.9,0.2,14.6
	c0,0.4-0.2,0.6-0.5,0.6l-4.1,0c-0.4,0-0.6-0.2-0.8-0.5c-0.1-0.2-0.2-0.3-0.2-0.5C131.8,86.6,131.5,86.4,131.1,86.8z M125.5,84.8
	c4.7,0.6,6.2-1.7,6-6c0-0.5-0.2-0.6-0.7-0.5c-1.6,0.5-3.2,0.8-4.7,1C122.7,79.7,121.9,84.4,125.5,84.8z"/>
<path class="st0" d="M144.6,69.5c0,0.6,0.2,0.7,0.6,0.2c1.8-2.3,4.3-3.2,7.4-2.8c3.9,0.5,6,2.8,6,6.9c0.1,4.7,0.1,9.3,0.1,14
	c0,0.2-0.1,0.3-0.3,0.3l-5.2,0c-0.2,0-0.3-0.1-0.3-0.3c0.1-4.2,0.1-8.5,0-12.9c-0.1-2.9-1.9-4.2-4.6-3.7c-1.9,0.4-3,1.6-3.2,3.6
	c-0.4,3.9-0.4,8.1-0.2,12.8c0,0.3-0.2,0.5-0.4,0.5c0,0,0,0,0,0l-4.8,0c-0.3,0-0.5-0.2-0.5-0.5l0-19.7c0-0.3,0.3-0.6,0.6-0.6l4,0
	c0.5,0,0.7,0.2,0.7,0.7V69.5z"/>
<path class="st0" d="M181.7,78.7c0,5.4-4.3,9.8-9.7,9.8l-1.9,0c-5.4,0-9.8-4.3-9.8-9.7c0,0,0,0,0,0l0-2.1c0-5.4,4.3-9.8,9.7-9.8
	l1.9,0c5.4,0,9.8,4.3,9.8,9.7c0,0,0,0,0,0L181.7,78.7z M170.9,84.7c2.9,0,5.2-3.1,5.2-6.9c0-3.8-2.3-6.9-5.2-6.9c0,0,0,0,0,0
	c-2.9,0-5.2,3.1-5.2,6.9c0,0,0,0,0,0C165.7,81.6,168,84.7,170.9,84.7C170.9,84.7,170.9,84.7,170.9,84.7z"/>
<path class="st0" d="M195.2,81c-3.1-2.8-11.9-1.1-12.6-6.8c-1-7.7,8.6-8.3,13.4-6.8c2.7,0.8,4.3,2.7,4.8,5.5c0,0.2-0.1,0.4-0.3,0.5
	c0,0,0,0-0.1,0l-4,0c-0.4,0-0.7-0.2-0.9-0.6c-1.2-2.2-3.2-2.8-6-1.9c-0.8,0.3-1.3,1.1-1.2,2c0.2,0.8,0.7,1.3,1.5,1.5
	c2.3,0.6,4.7,1.3,7.1,1.8c2.8,0.7,4.3,2.3,4.6,4.8c0.4,4.1-2.6,6.9-6.5,7.4c-5.3,0.7-11.8-0.1-12.8-6.4c0-0.2,0.1-0.4,0.3-0.5
	c0,0,0,0,0.1,0l4.3,0c0.3,0,0.5,0.1,0.6,0.4c0.8,2.4,2.7,3.4,5.6,2.9c1.1-0.2,1.9-0.6,2.4-1.4C196,82.7,195.9,81.7,195.2,81z"/>
<path class="st0" d="M229.9,69.7c4-4.6,13.2-4,13.5,3.6c0.1,4.7,0.2,9.6,0.1,14.6c0,0.2-0.1,0.3-0.3,0.3l-4.9,0
	c-0.3,0-0.4-0.2-0.4-0.4c0-4.1,0-8.3-0.1-12.6c-0.1-3.2-1.9-4.2-4.8-3.8c-1.9,0.2-3.2,1.8-3.2,3.7l-0.1,12.8c0,0.2-0.1,0.3-0.3,0.3
	h-5.1c-0.2,0-0.4-0.1-0.4-0.4l0-19.8c0-0.4,0.2-0.6,0.6-0.6l4.2,0c0.4,0,0.6,0.2,0.6,0.6l0.1,1.5C229.4,70,229.6,70.1,229.9,69.7z"
	/>
<circle class="st0" cx="72.6" cy="68.2" r="1.1"/>
<path class="st0" d="M216.2,85.7c-0.2,0.2-0.5,0.5-0.7,0.7c-1.8,2.1-4.9,2.5-7.8,2c-3.3-0.6-5-2.7-5.1-6.2
	c-0.1-4.6-0.2-9.4-0.1-14.4c0-0.3,0.2-0.5,0.5-0.5l4.8,0c0.3,0,0.4,0.1,0.4,0.4c-0.1,4.1-0.1,8.3,0,12.6c0,2.6,1.4,3.9,4,3.9
	c1.8,0,3.1-1.2,4-3.6c0.1-0.1,0.1-0.3,0.1-0.5l0.1-12.5c0-0.2,0.2-0.4,0.4-0.4c0,0,0,0,0,0l5,0c0.2,0,0.3,0.1,0.3,0.3l0,19.7
	c0,0.5-0.2,0.7-0.8,0.7l-4.1-0.1c-0.4,0-0.6-0.2-0.6-0.7l0.2-1.4C216.8,85.4,216.6,85.3,216.2,85.7z"/>
<circle class="st0" cx="80" cy="70.2" r="1.2"/>
<ellipse transform="matrix(0.9636 -0.2672 0.2672 0.9636 -16.3981 19.9293)" class="st0" cx="65" cy="70.2" rx="1.1" ry="0.9"/>
<circle class="st0" cx="72.5" cy="72.7" r="1"/>
<circle class="st0" cx="77.8" cy="74.1" r="1.2"/>
<path class="st0" d="M67.9,73.5c0.4,0.2,0.5,0.6,0.4,1c0,0.1-0.1,0.2-0.2,0.3c-0.3,0.3-0.7,0.3-1.2,0.1c-0.4-0.2-0.5-0.6-0.3-1
	c0,0,0-0.1,0.1-0.1C66.9,73.3,67.3,73.2,67.9,73.5z"/>
<circle class="st0" cx="74.5" cy="75.8" r="1.1"/>
<circle class="st0" cx="85.5" cy="75.7" r="1.2"/>
<circle class="st0" cx="59.7" cy="75.7" r="1"/>
<circle class="st0" cx="70.7" cy="75.8" r="1.1"/>
<circle class="st0" cx="67.2" cy="77.8" r="1.1"/>
<circle class="st0" cx="77.9" cy="77.8" r="1.2"/>
<circle class="st0" cx="81.6" cy="77.9" r="1.2"/>
<ellipse transform="matrix(0.8121 -0.5835 0.5835 0.8121 -33.5097 51.7015)" class="st0" cx="63.5" cy="77.9" rx="0.9" ry="1"/>
<circle class="st0" cx="79.8" cy="81.2" r="1.2"/>
<ellipse transform="matrix(0.247 -0.969 0.969 0.247 -29.5733 124.3429)" class="st0" cx="65.2" cy="81.2" rx="1" ry="1.1"/>
<circle class="st0" cx="83" cy="83.1" r="1.2"/>
<circle class="st0" cx="87.5" cy="83.1" r="1.3"/>
<circle class="st0" cx="57.7" cy="83.1" r="1"/>
<ellipse transform="matrix(0.9744 -0.225 0.225 0.9744 -17.0999 16.0763)" class="st0" cx="62" cy="83.1" rx="1" ry="1.1"/>
<circle class="st0" cx="65.2" cy="85.1" r="1.1"/>
<circle class="st0" cx="79.9" cy="85.1" r="1.2"/>
<circle class="st0" cx="81.6" cy="88.3" r="1.2"/>
<path class="st0" d="M62.6,87.7c0.6-0.6,1.2-0.5,1.8,0.1c0.2,0.2,0.3,0.5,0.1,0.8c-0.3,0.7-0.9,0.8-1.8,0.3
	c-0.4-0.2-0.5-0.7-0.3-1.1C62.5,87.8,62.6,87.7,62.6,87.7z"/>
<circle class="st0" cx="77.9" cy="88.4" r="1.1"/>
<circle class="st0" cx="67.2" cy="88.4" r="1.1"/>
<circle class="st0" cx="70.7" cy="90.4" r="1.1"/>
<circle class="st0" cx="74.5" cy="90.4" r="1.1"/>
<circle class="st0" cx="85.5" cy="90.5" r="1.2"/>
<circle class="st0" cx="59.7" cy="90.5" r="0.9"/>
<path class="st0" d="M102.3,97.5c0.6-0.4,0.7-1.2,0.2-1.8c-0.2-0.2-0.4-0.4-0.7-0.5l-3.6-1C97.3,94,96.8,93,97,92
	c0-0.1,0.1-0.2,0.1-0.2c0.7-1.7,2.2-2.2,4.4-1.7c0.5,0.1,0.9,0.4,1.1,0.9c0.7,1.2,0.8,1.8,0.4,1.8c-0.2,0-0.4-0.1-0.5-0.3
	c-0.9-1.6-2.2-2-4-1.1c-0.7,0.3-0.7,0.9,0,1.7c0.3,0.4,0.7,0.6,1.2,0.6c1.3,0.1,2.5,0.5,3.5,1.3c0.8,0.6,1,1.8,0.3,2.7
	c0,0-0.1,0.1-0.1,0.1c-1.4,1.6-3.1,1.9-5.2,0.9c-1-0.5-1.5-1.3-1.5-2.4c0-0.1,0.1-0.2,0.2-0.2l0.4,0c0.3,0,0.5,0.1,0.6,0.4
	C98.3,98.5,101.1,98.4,102.3,97.5z"/>
<path class="st0" d="M112.8,90.1l0.3,0c0.2,0,0.3,0.2,0.3,0.3l0,8.1c0,0.2-0.2,0.3-0.3,0.3l-0.3,0c-0.2,0-0.3-0.2-0.3-0.3l0-8.1
	C112.4,90.3,112.6,90.1,112.8,90.1z"/>
<path class="st0" d="M187.2,92.2c-0.1,0.6,0.2,0.8,0.7,0.6c1.5-0.7,3.7-0.4,3.7,1.7c-0.1,1.3,0,2.6,0.1,3.9c0,0.2-0.2,0.4-0.4,0.4
	c0,0,0,0,0,0H191c-0.2,0-0.3-0.1-0.3-0.3l0-4c0-0.9-0.5-1.4-1.4-1.2l-0.4,0c-1.1,0.1-1.6,0.7-1.6,1.8l0,3.4c0,0.3-0.1,0.4-0.4,0.4
	l-0.3,0c-0.2,0-0.3-0.2-0.3-0.3l-0.1-8.1c0-0.3,0.1-0.4,0.4-0.3l0.5,0.2c0.1,0,0.2,0.1,0.2,0.3L187.2,92.2z"/>
<path class="st0" d="M232.6,90.1l0.1,0c0.2,0,0.4,0.2,0.4,0.4l0,8c0,0.2-0.2,0.4-0.4,0.4l-0.1,0c-0.2,0-0.4-0.2-0.4-0.4l0-8
	C232.2,90.3,232.4,90.1,232.6,90.1z"/>
<path class="st0" d="M242.4,90L242.4,90c0.3,0,0.6,0.2,0.6,0.5l0.1,5.2c0,0.3-0.2,0.5-0.5,0.5l-0.1,0c-0.3,0-0.5-0.2-0.5-0.5
	l-0.1-5.2C241.9,90.3,242.1,90,242.4,90z"/>
<path class="st0" d="M169.6,92.6c0.1-0.1,0.1-0.1,0.2-0.2c0.1,0,0.2,0,0.3,0c0.2,0.1,0.3,0.2,0.3,0.4c0.1,0.3,0,0.5-0.3,0.6
	c-0.1,0-0.2,0.1-0.2,0.1c-0.5,0-0.7,0.3-0.7,0.7l0,2.9c0,0.3,0.2,0.6,0.5,0.8l0.6,0.3c0.6,0.3,0.6,0.5-0.1,0.7
	c-0.8,0.2-1.4-0.1-1.8-0.7c-0.8-1.5,0.3-3.2-0.8-4.9c-0.2-0.3-0.2-0.6-0.1-0.8l0.8-1.6c0.4-0.8,0.6-0.8,0.7,0.1
	c0.1,0.4,0,0.8-0.1,1.2C168.9,92.9,169.1,93,169.6,92.6z"/>
<path class="st0" d="M182.2,93.3c-0.1,0-0.2,0-0.3-0.1c-0.4-0.2-0.3-0.4,0.1-0.5c0.8-0.3,1.1-0.8,1-1.6c-0.1-0.3,0.1-0.5,0.4-0.6
	c0.1,0,0.2,0,0.3,0.1c0.8,1.4,1.1,2.1,1,2.3c-1.2,2.1-1.1,4,0.4,5.7c0.1,0.1,0.1,0.3,0,0.4c0,0-0.1,0.1-0.2,0.1c-1.4,0-2.1-0.7-2-2
	c0-1,0.1-2,0.1-3C182.8,93.6,182.6,93.3,182.2,93.3z"/>
<circle class="st0" cx="77.8" cy="92.1" r="1.2"/>
<path class="st0" d="M66.8,91.3c0.4-0.2,0.8-0.2,1.2,0.1c0.4,0.3,0.5,0.8,0.2,1.1c0,0.1-0.1,0.1-0.2,0.2C67.8,93,67.4,93.1,67,93
	c-0.5-0.1-0.8-0.6-0.6-1.1C66.4,91.6,66.6,91.4,66.8,91.3z"/>
<circle class="st0" cx="72.6" cy="93.5" r="1.1"/>
<path class="st0" d="M108,99.1c-1.7,0-3.1-1.5-3.1-3.4c0,0,0,0,0,0c0-1.9,1.4-3.4,3.2-3.4c0,0,0,0,0,0c1.7,0,3.1,1.5,3.1,3.4
	c0,0,0,0,0,0C111.1,97.6,109.7,99.1,108,99.1C108,99.1,108,99.1,108,99.1z M108,98.2c1.1,0,2-1.1,2.1-2.4c0,0,0,0,0,0
	c0-1.4-0.9-2.5-2-2.5c0,0,0,0,0,0c-1.1,0-2,1.1-2.1,2.4c0,0,0,0,0,0C105.9,97,106.8,98.1,108,98.2C108,98.2,108,98.2,108,98.2z"/>
<path class="st0" d="M118.7,98.5c-0.9,0.7-1.9,0.8-2.9,0.3c-0.8-0.4-1.2-1.4-0.8-2.2c0.1-0.3,0.4-0.6,0.7-0.8
	c0.7-0.4,1.6-0.6,2.5-0.7c0.3,0,0.5-0.1,0.7-0.3c0.3-0.3,0.3-0.6,0.2-1c-0.1-0.4-0.4-0.6-0.8-0.7c-1-0.2-1.8,0.1-2.4,0.9
	c-0.2,0.3-0.5,0.3-0.7,0l-0.2-0.2c0,0,0-0.1,0-0.1c1.3-1.7,2.9-2,4.8-1.1c0.3,0.2,0.5,0.4,0.5,0.8l0,3.6c0,0.3,0.1,0.6,0.3,0.8
	l0.2,0.2c0.4,0.5,0.3,0.7-0.3,0.7c-0.4,0-0.8-0.1-1.1-0.4C119.1,98.4,118.9,98.3,118.7,98.5z M119.1,96.5c-0.1-0.6-1-0.8-1.9-0.6
	c0,0,0,0,0,0c-0.9,0.2-1.5,0.9-1.3,1.4c0.1,0.6,1,0.8,1.9,0.6c0,0,0,0,0,0C118.7,97.7,119.3,97.1,119.1,96.5z"/>
<path class="st0" d="M123.3,93.1l1.4-0.7c0.1-0.1,0.2,0,0.3,0.1l0.2,0.2c0.2,0.2,0.1,0.4-0.1,0.5l-1.6,0.7c-0.3,0.1-0.5,0.5-0.5,0.8
	l-0.1,3.9c0,0.2-0.1,0.3-0.3,0.3l-0.3,0c-0.2,0-0.4-0.2-0.4-0.4l-0.1-5.5c0-0.4,0.2-0.6,0.6-0.4c0.1,0.1,0.2,0.1,0.3,0.3
	C122.8,93.1,123.1,93.2,123.3,93.1z"/>
<path class="st0" d="M130.5,99l-0.1,2.1c0,0.2-0.1,0.3-0.3,0.3l-0.3,0c-0.2,0-0.3-0.1-0.3-0.3l0-7.9c0-0.4,0.2-0.6,0.6-0.5
	c0.6,0.1,1.2,0,1.9-0.2c5.5-1.5,4.1,9.2-0.8,6.1C130.7,98.3,130.5,98.4,130.5,99z M132.5,98.1c1.2,0,2.1-1.1,2.1-2.4
	c0-1.3-0.9-2.4-2.1-2.5c-1.2,0-2.1,1.1-2.1,2.4C130.4,97,131.3,98.1,132.5,98.1z"/>
<path class="st0" d="M142.9,95.8c0,1.8-1.5,3.3-3.3,3.3l0,0c-1.8,0-3.3-1.5-3.3-3.3l0,0c0-1.8,1.5-3.3,3.3-3.3c0,0,0,0,0,0
	C141.4,92.5,142.9,94,142.9,95.8L142.9,95.8z M139.5,98.1c1.1,0.1,2.2-0.9,2.3-2.2c0.1-1.3-0.7-2.5-1.8-2.6
	c-1.1-0.1-2.2,0.9-2.3,2.2C137.5,96.8,138.3,98,139.5,98.1z"/>
<path class="st0" d="M150.3,96.7l1-3.9c0-0.1,0.1-0.2,0.2-0.2h0.5c0.2,0,0.3,0.1,0.3,0.3c0,0,0,0.1,0,0.1c-0.6,1.6-1.1,3.3-1.6,5
	c-0.1,0.3-0.2,0.5-0.5,0.7c-0.2,0.2-0.4,0.2-0.6,0.1c-0.3-0.2-0.5-0.5-0.6-0.9c-0.1-0.8-0.3-1.6-0.5-2.3c-0.4-1.3-0.8-1.3-1,0.1
	c-0.1,0.6-0.2,1.1-0.4,1.7c-0.7,2.1-1.4,2.1-2,0l-1.4-4.5c-0.1-0.2,0-0.4,0.3-0.3l0.6,0.1c0.2,0,0.3,0.1,0.3,0.3
	c0.3,1.3,0.6,2.6,1,3.8c0.2,0.6,0.4,0.6,0.6,0c0.4-1.1,0.6-2.3,0.8-3.5c0-0.4,0.3-0.5,0.6-0.5h0.3c0.5,0,0.8,0.3,0.9,0.8
	c0.1,1.2,0.4,2.3,0.8,3.3C149.9,97.4,150.1,97.4,150.3,96.7z"/>
<path class="st0" d="M155.2,96.1c-1.3,0-1.5,0.4-0.5,1.3c1.2,1.1,2.4,0.9,3.7-0.5c0.1-0.1,0.3-0.1,0.4,0c0,0,0,0,0.1,0.1l0.2,0.3
	c0,0,0,0.1,0,0.1c-0.9,1.6-3,2.4-4.6,1.1c-4.4-3.6,2.5-9.5,4.7-3.6c0.2,0.5-0.1,1-0.5,1.1c-0.1,0-0.2,0.1-0.3,0.1L155.2,96.1z
	 M154.4,95.1l3.4,0c0.1,0,0.1-0.1,0.1-0.1v0c0-0.9-0.8-1.7-1.8-1.7h-0.1c-1,0-1.8,0.7-1.8,1.7c0,0,0,0,0,0v0
	C154.3,95.1,154.3,95.1,154.4,95.1z"/>
<path class="st0" d="M161.9,93c0.3-0.3,0.7-0.5,1.2-0.6c0.2,0,0.3,0,0.4,0.2l0.1,0.3c0.1,0.2,0,0.3-0.2,0.4l-1.5,0.6
	c-0.4,0.2-0.6,0.4-0.6,0.9l-0.2,3.8c0,0.2-0.1,0.3-0.3,0.3l-0.2,0c-0.2,0-0.4-0.1-0.4-0.3c0,0,0,0,0-0.1l0-5.6
	c0-0.6,0.2-0.7,0.6-0.2L161,93C161.3,93.3,161.6,93.3,161.9,93z"/>
<path class="st0" d="M174.3,99.1c-1.7-0.1-3-1.7-2.9-3.6c0.1-1.9,1.6-3.3,3.3-3.2c1.7,0.1,3,1.7,2.9,3.6
	C177.5,97.8,176,99.2,174.3,99.1z M174.4,98.1c1.2,0.1,2.1-1,2.2-2.3c0,0,0,0,0,0c0.1-1.3-0.8-2.5-2-2.5c-1.2-0.1-2.1,1-2.2,2.3
	c0,0,0,0,0,0C172.4,96.9,173.3,98.1,174.4,98.1z"/>
<path class="st0" d="M194.6,96.1c-0.3,0-0.5,0.2-0.5,0.5c0,0.1,0,0.1,0,0.2c0.8,1.9,2.8,1.2,4.1,0.4c0.5-0.3,0.6-0.2,0.4,0.4
	c-0.2,0.5-0.5,0.8-1,1c-2.4,1-3.9,0.3-4.6-2.1c-1.2-4.2,5.2-6,5.9-1.1c0.1,0.5-0.2,0.7-0.6,0.7L194.6,96.1z M194.1,94.3
	c-0.2,0.1-0.2,0.4-0.1,0.6c0.1,0.1,0.2,0.2,0.3,0.2l3,0c0.2,0,0.4-0.2,0.4-0.4c0-0.1-0.1-0.2-0.1-0.3l-1.5-1.3
	c-0.2-0.1-0.4-0.1-0.5,0L194.1,94.3z"/>
<path class="st0" d="M204.5,99l-0.1,2.1c0,0.2-0.1,0.3-0.3,0.3l-0.3,0c-0.2,0-0.3-0.1-0.3-0.3v-7.9c0-0.4,0.2-0.6,0.6-0.5
	c0.7,0.1,1.4,0,2-0.2c1.1-0.3,2.4,0.2,2.9,1.3c1.3,2.7-0.6,6.8-3.9,4.8C204.7,98.3,204.5,98.5,204.5,99z M206.5,98.1
	c1.2,0,2.1-1.1,2.1-2.4c0,0,0,0,0,0c0-1.3-0.9-2.4-2.1-2.4c0,0,0,0,0,0c-1.2,0-2.1,1.1-2.1,2.4c0,0,0,0,0,0
	C204.4,97,205.3,98.1,206.5,98.1C206.5,98.1,206.5,98.1,206.5,98.1z"/>
<path class="st0" d="M212.6,96.1c-1.3,0-1.5,0.5-0.5,1.3c1.1,1.1,2.2,1,3.3-0.3c0.2-0.2,0.4-0.3,0.6-0.1l0.2,0.2
	c0.1,0,0.1,0.1,0,0.2c-0.5,1.2-1.4,1.8-2.7,1.7c-3.4-0.2-4.2-5.1-1.4-6.3c2.1-0.9,3.5-0.2,4.2,2.1c0.1,0.5-0.1,1-0.6,1.1
	c-0.1,0-0.2,0-0.3,0L212.6,96.1z M212,95.1l3,0.1c0.1,0,0.2-0.1,0.2-0.2l0-0.1c0-0.8-0.7-1.5-1.5-1.5c0,0,0,0,0,0h-0.3
	c-0.9,0-1.6,0.6-1.6,1.5v0.1C211.8,95,211.8,95.1,212,95.1C212,95.1,212,95.1,212,95.1z"/>
<path class="st0" d="M223.6,95.7c0,1.8-1.5,3.3-3.3,3.3s-3.3-1.5-3.3-3.3s1.5-3.3,3.3-3.3S223.6,93.9,223.6,95.7z M220.5,98.1
	c1.1-0.1,2-1.2,1.9-2.6c-0.1-1.3-1.1-2.4-2.3-2.3c0,0,0,0,0,0c-1.1,0.1-2,1.2-1.9,2.6C218.4,97.2,219.4,98.2,220.5,98.1
	C220.5,98.1,220.5,98.1,220.5,98.1z"/>
<path class="st0" d="M225.8,98.9c0.1,0.7,0.1,1.4,0.1,2.1c0,0.2-0.2,0.3-0.3,0.3l-0.4,0c-0.2,0-0.4-0.1-0.4-0.3l0-7.7
	c0-0.5,0.2-0.7,0.8-0.6c0.6,0.2,1.2,0.1,1.8-0.1c0.6-0.3,1.2-0.2,1.8,0.2c3.5,2.2,1.4,8.1-2.8,5.9C225.9,98.3,225.7,98.4,225.8,98.9
	z M229.7,95.1c0-1-0.8-1.8-1.8-1.8l-0.3,0c-1,0-1.8,0.8-1.8,1.8l0,1.2c0,1,0.8,1.8,1.8,1.8l0.3,0c1,0,1.8-0.8,1.8-1.8L229.7,95.1z"
	/>
<path class="st0" d="M236,96c-0.2,0-0.4,0.2-0.4,0.4c0,0,0,0.1,0,0.1c0.5,1.6,1.6,2,3.3,1.1c0.1-0.1,0.2-0.2,0.2-0.3
	c0-0.2,0.1-0.2,0.2-0.2c0.9,0,1.1,0.3,0.4,1c-1,1.1-2.2,1.4-3.5,0.8c-2.8-1.2-2.2-6.3,1.1-6.4c1.7-0.1,2.7,0.8,3,2.6
	c0.1,0.7-0.2,1-0.8,1H236z M236.1,95.1l3,0c0.1,0,0.2-0.1,0.2-0.2v-0.1c0-0.8-0.7-1.5-1.5-1.5h-0.4c-0.9,0-1.6,0.6-1.6,1.5
	c0,0,0,0,0,0v0.1C235.8,95,235.9,95.1,236.1,95.1L236.1,95.1z"/>
<circle class="st0" cx="80" cy="96" r="1.2"/>
<circle class="st0" cx="65.1" cy="96" r="0.9"/>
<circle class="st0" cx="72.6" cy="97.9" r="0.9"/>
<ellipse transform="matrix(0.8957 -0.4446 0.4446 0.8957 -18.441 118.0763)" class="st0" cx="242.5" cy="98.3" rx="0.7" ry="0.6"/>
</svg>
