<?xml version="1.0" encoding="utf-8"?>
<!-- Generator: Adobe Illustrator 28.1.0, SVG Export Plug-In . SVG Version: 6.00 Build 0)  -->
<svg version="1.1" id="Layer_1" xmlns="http://www.w3.org/2000/svg" xmlns:xlink="http://www.w3.org/1999/xlink" x="0px" y="0px"
	 viewBox="0 0 1956 1195" style="enable-background:new 0 0 1956 1195;" xml:space="preserve">
<style type="text/css">
	.st0{fill:none;stroke:#8098DA;stroke-width:2;}
	.st1{fill:none;stroke:#80F2F2;stroke-width:2;}
	.st2{fill:#0130B4;}
	.st3{fill:#01E5E5;}
	.st4{fill:#FFFFFF;}
</style>
<g>
	<path vector-effect="non-scaling-stroke" class="st0" d="M806.9,609.4c0,0.4,0,0.7-0.2,1.1c-1.7,3.7-4,6.7-6.8,9
		c-7.4,6-18.9,6-27.8,3.2c-14.2-4.5-21.1-20-21.1-33.7c0-4.8,0-9.6,0.1-14.3c0.1-4,0.9-8.3,2.6-13c4.8-13.3,16.8-20.5,31-18.3
		c8.5,1.3,16.5,9.7,17.7,18.1c0,0.3,0.4,0.6,0.7,0.6h44.2c0.6,0,0.9-0.3,0.8-1c-4.5-25.6-19.5-46.3-45.3-53.6
		c-41.9-11.8-86.2,8-96.7,52c-12.2,51.2,12.8,104.5,71.6,103.7c13.9-0.2,31.1-5.6,39.4-16.9c0.1-0.2,0.3-0.2,0.5-0.1
		c0.1,0,0.1,0.1,0.1,0.2c1.2,4.3,1.6,8.5,1.2,12.8c0,0.4,0.3,0.8,0.7,0.9c0,0,0.1,0,0.1,0l29.4,0.1c0.7,0,1.1-0.4,1.1-1.1l0-82.2
		c0-0.4-0.4-0.8-0.8-0.8h0l-61.8,0c-0.4,0-0.6,0.2-0.6,0.6l0,32c0,0.3,0.2,0.5,0.5,0.5l0,0l19.1,0
		C806.7,609.1,806.9,609.2,806.9,609.4"/>
	<path vector-effect="non-scaling-stroke" class="st0" d="M985.2,517.9c-18.1-13.1-42.1-16.3-63.9-12.1
		c-31.3,6.1-52.6,29.9-57.8,60.9c-5.6,32.8,4.6,67.9,34.2,85.8c18.9,11.4,43.7,13.3,64.2,7.7c27.2-7.4,46.2-28.2,52-56
		C1020.7,572.3,1012.3,537.5,985.2,517.9"/>
	<path vector-effect="non-scaling-stroke" class="st0" d="M311,615c0-0.7,0.3-1,1-1c9.1,0.1,18,0.1,26.8,0
		c11.8-0.1,23.7-2.2,34.1-7.9c15-8.3,23.5-23.6,24.1-40.8c0.5-14.4-1.6-27.4-11.2-38.8c-10.3-12.3-24.1-18.5-41.6-18.5
		c-26.9-0.1-53.9-0.1-81,0c-0.3,0-0.5,0.2-0.5,0.5v151c0,0.3,0.2,0.5,0.5,0.5l46.2,0c0.9,0,1.3-0.4,1.3-1.3L311,615"/>
	<path vector-effect="non-scaling-stroke" class="st0" d="M454.7,607.1c7.6-0.2,15.1-0.2,22.6,0c3.6,0.1,6.6,0.5,9.1,1.3
		c6.4,2.1,9.7,9.6,10.7,15.9c1.2,8.1,2.4,17,3.4,26.7c0.3,2.6,0.9,5.1,1.7,7.6c0.3,0.9,0.9,1.3,1.9,1.3c17,0.2,32.2,0.2,45.6,0.1
		c0.4,0,0.6-0.2,0.4-0.6c-1.8-4.5-3-9.3-3.5-14.4c-0.7-7.6-1.5-15-2.2-22.3c-1.4-13.8-6.9-26.1-19.1-33.3c-0.5-0.3-0.5-0.6,0-0.8
		c13.5-6.2,19.7-21.2,19.9-35.3c0.1-7.9-1-14.6-3.2-20c-5.6-13.7-19.7-22.3-34-24.4c-4.1-0.6-7.9-0.9-11.5-0.9
		c-21.9-0.2-51.6-0.2-89,0c-0.3,0-0.5,0.2-0.5,0.5l0,151c0,0.3,0.2,0.5,0.5,0.5l46.2,0c0.2,0,0.4-0.2,0.4-0.4c0,0,0,0,0,0l0-52
		C454.1,607.3,454.3,607.1,454.7,607.1"/>
	<path vector-effect="non-scaling-stroke" class="st0" d="M1123,586.3c0,0.2-0.1,0.4-0.3,0.4c-0.1,0-0.3-0.1-0.3-0.2l-42-77.4
		c-0.4-0.7-1-1.1-1.9-1.1l-47,0c-0.4,0-0.5,0.2-0.5,0.5l0,150.9c0,0.3,0.3,0.6,0.6,0.6h0l43.9,0.1c0.3,0,0.6-0.3,0.6-0.6l-0.1-79.2
		c0-1.6,0.3-1.7,1-0.2c0.5,1.1,1.1,2.3,1.8,3.4c13.9,24.9,27.9,49.7,41.9,74.7c0.3,0.5,0.7,0.9,1.1,1.2c1.6,0.9,5.6,0.8,7.5,0.8
		c12.9,0.1,25.6,0.1,38.1,0c0.4,0,0.6-0.3,0.6-0.6l0,0V508.6c0-0.4-0.3-0.7-0.7-0.7l0,0l-43.9,0c-0.4,0-0.6,0.2-0.6,0.6L1123,586.3"
		/>
	<path vector-effect="non-scaling-stroke" class="st1" d="M1290.5,660.1c0.3,0,0.5-0.2,0.5-0.5v0v-112c0-0.3,0.2-0.5,0.5-0.5l40.9,0
		c0.3,0,0.5-0.2,0.5-0.5l0-38c0-0.3-0.2-0.5-0.5-0.5l0,0l-131,0c-0.3,0-0.5,0.2-0.5,0.5v0l0,38c0,0.3,0.2,0.5,0.5,0.5l0,0l40.9,0
		c0.3,0,0.5,0.2,0.5,0.5l-0.1,112c0,0.3,0.2,0.5,0.5,0.5L1290.5,660.1"/>
	<path vector-effect="non-scaling-stroke" class="st1" d="M1623.1,558.8l0-50.3c0-0.3-0.2-0.5-0.5-0.5l-42.2-0.1
		c-0.2,0-0.3,0.2-0.3,0.4l0,151.1c0,0.4,0.3,0.6,0.6,0.6l0,0l41.7,0c0.4,0,0.8-0.4,0.8-0.8c0-20.8,0-40,0-57.5
		c0-7.9,2.2-17.3,10.7-20c3.1-1,8-1.1,11-0.2c3.3,1,5.4,3.6,6.4,7.8c1.2,5.1,1.8,10.2,1.8,15.5c0.1,17.5,0.2,35.7,0,54.6
		c0,0.4,0.3,0.7,0.7,0.7l0,0l40.6,0c0.4,0,0.8-0.4,0.8-0.8v0c0-24.8,0-50.8,0-77.9c0-11.5-4.1-20.6-12.3-27.1
		c-11.8-9.4-29.7-10-43.5-5.5c-6,2-10.9,5.6-15,10.5C1623.5,560.1,1623.1,560,1623.1,558.8"/>
	<path vector-effect="non-scaling-stroke" class="st0" d="M653,638.1c0.3,0,0.5,0.2,0.6,0.4l6.2,21.2c0.1,0.3,0.3,0.4,0.6,0.4
		l48.3-0.1c0.3,0,0.6-0.3,0.6-0.6c0-0.1,0-0.1,0-0.2l-54.9-151c-0.1-0.2-0.3-0.4-0.6-0.4l-45.8,0c-0.2,0-0.5,0.2-0.5,0.4l-55.6,151
		c-0.1,0.3,0,0.6,0.4,0.8c0.1,0,0.1,0,0.2,0l47,0c0.3,0,0.5-0.2,0.6-0.4l6.3-21.2c0.1-0.3,0.3-0.4,0.6-0.4L653,638.1"/>
	<path vector-effect="non-scaling-stroke" class="st1" d="M1364.9,614.9c-0.1-0.3,0.1-0.7,0.4-0.8c0.1,0,0.1,0,0.2,0l78.9,0
		c0.4,0,0.7-0.3,0.7-0.7c0-17.3-3.1-36.9-15.3-50.2c-12.1-13.3-30.4-17.1-47.8-17c-20,0.1-35.8,7.8-47.4,23.4
		c-9.7,13-12.4,30.8-9.8,46.7c2.6,16.1,10.8,28.4,24.6,37c12.7,7.8,26.7,9.5,41.6,8.9c22.8-1,44.6-12.4,51.9-34.8
		c0-0.2,0-0.3-0.2-0.4c0,0-0.1,0-0.1,0L1404,627c-0.9,0-1.7,0.4-2.4,1c-4,4-9.4,6-16.2,6.1c-4.9,0.1-8.9-1.1-12-3.5
		C1367.7,626.2,1366.8,621.4,1364.9,614.9"/>
	<path vector-effect="non-scaling-stroke" class="st1" d="M1518.9,579c5.4,1.6,7.7,7,8,12.3c0,0.5,0.4,0.8,0.8,0.8l39.4,0
		c0.6,0,0.9-0.3,0.8-0.9c-1.4-16.5-8.7-28.7-22-36.6c-19.7-11.7-50.7-11.5-70.2,2c-18,12.6-25.6,32.1-23.8,53.7
		c1.2,13.6,6,25,14.6,34c7.9,8.4,19.1,14.4,30.4,16.6c15.4,2.9,34.5,1.5,48.1-7c13.6-8.5,21.6-21.1,24.2-38c0.1-0.5-0.3-0.9-0.7-1
		c0,0-0.1,0-0.1,0l-39.9,0c-0.2,0-0.4,0.2-0.4,0.4c-1.2,9.5-8.6,17.1-18.7,15.5c-7.4-1.2-12.2-6.7-13.6-13.8
		c-1.8-9.3-3.1-33.3,9.2-37.7C1509.5,577.6,1514.2,577.5,1518.9,579"/>
	<path vector-effect="non-scaling-stroke" class="st0" d="M963.7,608.2c7.9-16.6,7.5-49-9.3-60.4c-7.6-5.2-15.7-6.3-24.4-3.2
		c-19.6,6.9-22.1,33.4-19.5,50.6c2.3,15,10.7,27.9,26.7,29.2C948.7,625.3,958.8,618.6,963.7,608.2"/>
	<path vector-effect="non-scaling-stroke" class="st0" d="M311.1,547.3l-0.2,29.1c0,0.1,0.1,0.3,0.3,0.3l0,0l24.8,0.2
		c8.9,0.1,16.1-5.5,16.1-12.5l0-4.4c0-7-7.1-12.6-15.9-12.7l-24.8-0.2C311.3,547.1,311.1,547.2,311.1,547.3
		C311.1,547.3,311.1,547.3,311.1,547.3"/>
	<path vector-effect="non-scaling-stroke" class="st0" d="M454.1,545.3l-0.1,28.1c0,0.2,0.2,0.4,0.4,0.4c0,0,0,0,0,0l26.1,0.1
		c9.6,0.1,17.4-6,17.5-13.5c0,0,0,0,0,0v-1.7c0-7.5-7.7-13.6-17.3-13.7l-26.1-0.1C454.3,544.9,454.1,545,454.1,545.3
		C454.1,545.3,454.1,545.3,454.1,545.3"/>
	<path vector-effect="non-scaling-stroke" class="st0" d="M617,604.4c-0.1,0.2,0,0.4,0.2,0.4c0,0,0.1,0,0.1,0l26.1,0.3
		c0.2,0,0.4-0.2,0.4-0.3c0,0,0-0.1,0-0.1l-12.6-43.1c-0.1-0.2-0.2-0.3-0.4-0.2c-0.1,0-0.2,0.1-0.2,0.2L617,604.4"/>
	<path vector-effect="non-scaling-stroke" class="st1" d="M1365.4,590.2c-0.1,0.1-0.1,0.3-0.1,0.4c0,0.2,0.2,0.4,0.4,0.4l37.5-0.1
		c0.5,0,0.9-0.4,0.9-0.9c0-0.1,0-0.2,0-0.2c-0.9-3.4-2.2-6.3-3.8-8.8c-3.4-5.2-11-7.4-16.9-6.9c-9.3,0.8-15.7,6.5-17.8,15.7
		C1365.6,589.9,1365.5,590,1365.4,590.2"/>
</g>
<path class="st2" d="M806.9,609.4c0-0.2-0.2-0.3-0.4-0.3l-19.1,0c-0.3,0-0.5-0.2-0.5-0.5l0,0l0-32c0-0.4,0.2-0.6,0.6-0.6l61.8,0
	c0.4,0,0.8,0.4,0.8,0.8v0l0,82.2c0,0.7-0.4,1.1-1.1,1.1l-29.4-0.1c-0.4,0-0.8-0.4-0.8-0.8c0,0,0-0.1,0-0.1c0.4-4.3,0.1-8.5-1.2-12.8
	c-0.1-0.2-0.3-0.3-0.4-0.2c-0.1,0-0.1,0.1-0.2,0.1c-8.3,11.3-25.5,16.7-39.4,16.9c-58.8,0.9-83.7-52.5-71.6-103.7
	c10.4-44,54.8-63.9,96.7-52c25.7,7.3,40.8,28.1,45.3,53.6c0.1,0.6-0.2,1-0.8,1H803c-0.4,0-0.7-0.3-0.7-0.6
	c-1.2-8.5-9.2-16.9-17.7-18.1c-14.2-2.1-26.2,5-31,18.3c-1.7,4.7-2.5,9-2.6,13c-0.1,4.7-0.1,9.5-0.1,14.3c0,13.7,6.9,29.2,21.1,33.7
	c9,2.8,20.5,2.9,27.8-3.2c2.8-2.3,5-5.3,6.8-9C806.9,610.1,806.9,609.8,806.9,609.4z"/>
<path class="st2" d="M985.2,517.9c27.1,19.7,35.5,54.5,28.8,86.3c-5.8,27.8-24.8,48.6-52,56c-20.5,5.6-45.3,3.7-64.2-7.7
	c-29.7-17.9-39.8-53-34.2-85.8c5.2-30.9,26.5-54.8,57.8-60.9C943.1,501.6,967.1,504.7,985.2,517.9z M963.7,608.2
	c7.9-16.6,7.5-49-9.3-60.4c-7.6-5.2-15.7-6.3-24.4-3.2c-19.6,6.9-22.1,33.4-19.5,50.6c2.3,15,10.7,27.9,26.7,29.2
	C948.7,625.3,958.8,618.6,963.7,608.2z"/>
<path class="st2" d="M311,615l0,43.7c0,0.9-0.4,1.3-1.3,1.3l-46.2,0c-0.3,0-0.5-0.3-0.5-0.5v-151c0-0.3,0.2-0.5,0.5-0.5
	c27-0.1,54-0.1,81,0c17.4,0.1,31.3,6.3,41.6,18.5c9.5,11.4,11.7,24.4,11.2,38.8c-0.6,17.2-9.1,32.5-24.1,40.8
	c-10.4,5.7-22.3,7.8-34.1,7.9c-8.8,0.1-17.7,0.1-26.8,0C311.4,614,311,614.3,311,615z M311.1,547.3l-0.2,29.1c0,0.1,0.1,0.3,0.3,0.3
	l0,0l24.8,0.2c8.9,0.1,16.1-5.5,16.1-12.5l0-4.4c0-7-7.1-12.6-15.9-12.7l-24.8-0.2C311.3,547.1,311.1,547.2,311.1,547.3
	C311.1,547.3,311.1,547.3,311.1,547.3z"/>
<path class="st2" d="M454.1,607.7l0,52c0,0.2-0.2,0.4-0.4,0.4h0l-46.2,0c-0.3,0-0.5-0.2-0.5-0.5l0-151c0-0.3,0.2-0.5,0.5-0.5
	c37.5-0.2,67.1-0.2,89,0c3.5,0,7.4,0.3,11.5,0.9c14.3,2.1,28.4,10.7,34,24.4c2.2,5.4,3.3,12,3.2,20c-0.2,14.1-6.4,29.1-19.9,35.3
	c-0.5,0.2-0.5,0.5,0,0.8c12.2,7.2,17.7,19.5,19.1,33.3c0.8,7.3,1.5,14.7,2.2,22.3c0.5,5.1,1.7,9.9,3.5,14.4c0.2,0.4,0,0.6-0.4,0.6
	c-13.4,0.1-28.6,0.1-45.6-0.1c-0.9,0-1.6-0.5-1.9-1.3c-0.9-2.4-1.4-4.9-1.7-7.6c-1.1-9.7-2.2-18.6-3.4-26.7
	c-0.9-6.3-4.2-13.8-10.7-15.9c-2.4-0.8-5.4-1.2-9.1-1.3c-7.5-0.2-15-0.2-22.6,0C454.3,607.1,454.1,607.3,454.1,607.7z M454.1,545.3
	l-0.1,28.1c0,0.2,0.2,0.4,0.4,0.4c0,0,0,0,0,0l26.1,0.1c9.6,0.1,17.4-6,17.5-13.5c0,0,0,0,0,0v-1.7c0-7.5-7.7-13.6-17.3-13.7
	l-26.1-0.1C454.3,544.9,454.1,545,454.1,545.3C454.1,545.3,454.1,545.3,454.1,545.3z"/>
<path class="st2" d="M1123,586.3l-0.1-77.8c0-0.4,0.2-0.6,0.6-0.6l43.9,0c0.4,0,0.7,0.3,0.7,0.7c0,0,0,0,0,0v150.8
	c0,0.4-0.3,0.6-0.6,0.6l0,0c-12.5,0.1-25.2,0.1-38.1,0c-1.9,0-5.8,0.1-7.5-0.8c-0.4-0.2-0.8-0.6-1.1-1.2
	c-14-24.9-27.9-49.8-41.9-74.7c-0.6-1.1-1.2-2.3-1.8-3.4c-0.7-1.4-1-1.4-1,0.2l0.1,79.2c0,0.3-0.3,0.6-0.6,0.6l-43.9-0.1
	c-0.3,0-0.6-0.3-0.6-0.6c0,0,0,0,0,0l0-150.9c0-0.4,0.2-0.5,0.5-0.5l47,0c0.8,0,1.5,0.4,1.9,1.1l42,77.4c0.1,0.2,0.3,0.2,0.5,0.1
	C1122.9,586.5,1123,586.4,1123,586.3z"/>
<path class="st3" d="M1290.5,660.1l-47.1,0c-0.3,0-0.5-0.2-0.5-0.5l0.1-112c0-0.3-0.2-0.5-0.5-0.5l-40.9,0c-0.3,0-0.5-0.2-0.5-0.5v0
	l0-38c0-0.3,0.2-0.5,0.5-0.5l0,0l131,0c0.3,0,0.5,0.2,0.5,0.5v0l0,38c0,0.3-0.2,0.5-0.5,0.5l-40.9,0c-0.3,0-0.5,0.2-0.5,0.5v112
	C1291,659.8,1290.8,660.1,1290.5,660.1L1290.5,660.1z"/>
<path class="st3" d="M1623.1,558.8c0,1.2,0.4,1.3,1.2,0.4c4.1-4.8,9-8.5,15-10.5c13.8-4.5,31.7-4,43.5,5.5
	c8.2,6.6,12.3,15.6,12.3,27.1c0,27.1,0,53.1,0,77.9c0,0.4-0.4,0.8-0.8,0.8l0,0l-40.6,0c-0.4,0-0.7-0.3-0.7-0.7v0
	c0.1-18.9,0.1-37.1,0-54.6c0-5.2-0.7-10.4-1.8-15.5c-1-4.2-3.1-6.8-6.4-7.8c-3-0.9-7.9-0.8-11,0.2c-8.4,2.7-10.7,12.1-10.7,20
	c0,17.5,0,36.7,0,57.5c0,0.4-0.3,0.8-0.8,0.8l-41.7,0c-0.3,0-0.6-0.3-0.6-0.6l0,0l0-151.1c0-0.2,0.2-0.4,0.3-0.4l42.2,0.1
	c0.3,0,0.5,0.2,0.5,0.5L1623.1,558.8z"/>
<path class="st2" d="M653,638.1l-46.2,0c-0.3,0-0.5,0.2-0.6,0.4l-6.3,21.2c-0.1,0.3-0.3,0.4-0.6,0.4l-47,0c-0.3,0-0.6-0.3-0.6-0.6
	c0-0.1,0-0.1,0-0.2l55.6-151c0.1-0.2,0.3-0.4,0.5-0.4l45.8,0c0.2,0,0.5,0.2,0.6,0.4l54.9,151c0.1,0.3,0,0.6-0.4,0.8
	c-0.1,0-0.1,0-0.2,0l-48.3,0.1c-0.3,0-0.5-0.2-0.6-0.4l-6.2-21.2C653.5,638.2,653.2,638.1,653,638.1z M617,604.4
	c-0.1,0.2,0,0.4,0.2,0.4c0,0,0.1,0,0.1,0l26.1,0.3c0.2,0,0.4-0.2,0.4-0.3c0,0,0-0.1,0-0.1l-12.6-43.1c-0.1-0.2-0.2-0.3-0.4-0.2
	c-0.1,0-0.2,0.1-0.2,0.2L617,604.4z"/>
<path class="st4" d="M963.7,608.2c-5,10.4-15.1,17.1-26.4,16.2c-16-1.4-24.4-14.2-26.7-29.2c-2.6-17.2-0.1-43.7,19.5-50.6
	c8.7-3,16.8-2,24.4,3.2C971.2,559.2,971.7,591.6,963.7,608.2z"/>
<path class="st4" d="M454.1,545.3c0-0.2,0.2-0.4,0.4-0.4c0,0,0,0,0,0l26.1,0.1c9.6,0.1,17.4,6.2,17.3,13.7v1.7
	c0,7.5-7.9,13.5-17.5,13.5c0,0,0,0,0,0l-26.1-0.1c-0.2,0-0.4-0.2-0.4-0.4c0,0,0,0,0,0L454.1,545.3z"/>
<path class="st3" d="M1364.9,614.9c1.9,6.6,2.8,11.4,8.5,15.8c3.2,2.4,7.2,3.6,12,3.5c6.8-0.1,12.2-2.2,16.2-6.1
	c0.6-0.6,1.5-1,2.4-1l38.6-0.2c0.2,0,0.3,0.1,0.3,0.3c0,0,0,0.1,0,0.1c-7.3,22.4-29.1,33.8-51.9,34.8c-14.9,0.7-28.9-1-41.6-8.9
	c-13.8-8.6-22.1-20.9-24.6-37c-2.5-15.9,0.1-33.7,9.8-46.7c11.6-15.5,27.4-23.3,47.4-23.4c17.4,0,35.7,3.7,47.8,17
	c12.2,13.3,15.3,32.9,15.3,50.2c0,0.4-0.3,0.7-0.7,0.7l-78.9,0c-0.3,0-0.6,0.3-0.6,0.6C1364.9,614.7,1364.9,614.8,1364.9,614.9z
	 M1365.4,590.2c-0.1,0.1-0.1,0.3-0.1,0.4c0,0.2,0.2,0.4,0.4,0.4l37.5-0.1c0.5,0,0.9-0.4,0.9-0.9c0-0.1,0-0.2,0-0.2
	c-0.9-3.4-2.2-6.3-3.8-8.8c-3.4-5.2-11-7.4-16.9-6.9c-9.3,0.8-15.7,6.5-17.8,15.7C1365.6,589.9,1365.5,590,1365.4,590.2z"/>
<path class="st3" d="M1518.9,579c-4.8-1.4-9.4-1.3-13.8,0.3c-12.3,4.4-10.9,28.3-9.2,37.7c1.3,7.1,6.2,12.7,13.6,13.8
	c10.1,1.6,17.5-5.9,18.7-15.5c0-0.2,0.2-0.4,0.4-0.4l39.9,0c0.5,0,0.8,0.4,0.8,0.9c0,0,0,0.1,0,0.1c-2.6,16.9-10.6,29.5-24.2,38
	c-13.6,8.5-32.7,9.9-48.1,7c-11.3-2.2-22.5-8.2-30.4-16.6c-8.5-9-13.4-20.4-14.6-34c-1.9-21.7,5.8-41.2,23.8-53.7
	c19.4-13.6,50.4-13.8,70.2-2c13.3,7.9,20.6,20.1,22,36.6c0.1,0.6-0.2,0.9-0.8,0.9l-39.4,0c-0.5,0-0.8-0.4-0.8-0.8
	C1526.7,585.9,1524.3,580.5,1518.9,579z"/>
<path class="st4" d="M311.1,547.3c0-0.1,0.1-0.3,0.3-0.3h0l24.8,0.2c8.9,0.1,16,5.7,15.9,12.7l0,4.4c0,7-7.3,12.5-16.1,12.5
	l-24.8-0.2c-0.1,0-0.3-0.1-0.3-0.3l0,0L311.1,547.3z"/>
<path class="st4" d="M617,604.4l13.5-42.8c0.1-0.2,0.3-0.3,0.4-0.2c0.1,0,0.2,0.1,0.2,0.2l12.6,43.1c0.1,0.2-0.1,0.4-0.2,0.4
	c0,0-0.1,0-0.1,0l-26.1-0.3c-0.2,0-0.3-0.2-0.3-0.4C616.9,604.5,616.9,604.4,617,604.4z"/>
<path class="st4" d="M1365.6,589.8c2.1-9.1,8.5-14.8,17.8-15.7c5.9-0.5,13.5,1.7,16.9,6.9c1.6,2.4,2.9,5.4,3.8,8.8
	c0.1,0.5-0.1,1-0.6,1.1c-0.1,0-0.2,0-0.2,0l-37.5,0.1c-0.2,0-0.4-0.2-0.4-0.4c0-0.2,0-0.3,0.1-0.4
	C1365.5,590,1365.6,589.9,1365.6,589.8z"/>
</svg>
