<svg xmlns="http://www.w3.org/2000/svg" viewBox="0 0 296.93 153.22"><defs><style>.cls-1{fill:#004b6b;}.cls-2{fill:#c01630;}</style></defs><g id="Layer_2" data-name="Layer 2"><g id="Layer_1-2" data-name="Layer 1"><path class="cls-1" d="M6.32,123.34v7.47l2.92.16,1.14-.16,1-.17.81-.16.65-.48.48-.49.33-.65.32-.81v-1.14l-.16-1-.16-.65-.33-.65-.48-.49-.81-.49-.81-.16-.81-.16-1.14-.17ZM.81,145.75l-.32-.16-.16-.16-.17-.17L0,144.94V120.25l.16-.81L.49,119l.48-.32.81-.17,3.41-.32L9.08,118l2.11.16,1.94.32,1.95.49,1.62,1,.81.48.64.65.65.65.49.81.32,1,.33,1,.16,1.14v2.76l-.16,1.14-.33,1.13-.32.82-.49.81-.65.81-.64.65-.81.49-1.62,1-1.79.49-1.94.33-2.11.16L6.32,136v8.93l-.16.32-.16.17-.16.16-.33.16Z"/><polygon class="cls-1" points="27.23 145.75 27.07 145.59 26.75 145.43 26.59 145.26 26.59 144.94 26.59 125.29 26.59 125.12 26.75 124.8 26.91 124.64 27.23 124.64 31.61 124.64 31.94 124.64 32.1 124.8 32.26 125.12 32.42 125.29 32.42 126.1 33.39 125.29 34.69 124.8 35.99 124.47 37.28 124.31 37.61 124.31 37.77 124.47 37.93 124.8 38.1 124.96 38.1 128.53 37.93 129.02 37.77 129.18 37.45 129.18 37.28 129.18 35.82 129.35 34.69 129.67 33.56 130 32.42 130.48 32.42 144.94 32.42 145.26 32.26 145.43 32.1 145.59 31.77 145.75 27.23 145.75"/><path class="cls-1" d="M50.58,136.82l-.65.16-.33.33-.32.48-.32.33-.17,1.3v.32l.17.81.16.33.32.32.81.33H52l.81-.17,1.29-.64v-4.07H51.23Zm-2.43,9.09L47,145.75l-1-.49-1-.65-.81-.81-.65-1.14-.33-1.3-.16-1.62v-.32l.16-1.63.33-1.3.65-1,1-.81,1.29-.82,1.46-.32,2-.33,2.11-.16h2.1v-1.3l-.16-.65-.16-.65-.16-.32-.33-.33-.32-.32-.49-.16h-4.7l-2.59.16h-.16l-.49-.16-.16-.17v-3.57l.16-.16.49-.33,2.75-.48,1.78-.33h1.79l1.94.16,1.63.33,1.45.48,1.3.82,1,1,.82,1.3.32,1.62.16,1.79v13.48l-.16.17-.17.16-.32.16h-4l-.32-.16-.33-.16-.16-.17v-1l-1.14.81-1.13.49-1.3.32-1.62.16Z"/><path class="cls-1" d="M76.19,129l-.81.16-.49.17-.48.32-.33.32-.32.49v2.28l.32.48.16.33.49.32.65.33.65.16H78l.65-.16.65-.16.33-.33.32-.32.16-.49.16-1.14v-.16l-.16-1.14-.16-.49-.32-.32-.33-.32-.65-.17L78,129l-1-.16Zm-2.43,15.92-.33.49-.16.64v1.63l.16.32.17.33.48.32.49.17.65.16h3.56l.65-.16.33-.33.32-.32.32-.17.17-.81v-.32l-.17-.49-.64-.49-1.14-.48-2-.49-2.75-.49Zm1,8.12L73,152.73l-1.62-.48L70,151.6l-1.13-.82-.65-1-.49-1.3-.16-1.3v-.32l.16-1.14.33-1,.64-1.14,1.14-.81-1-.65-.49-1-.32-1-.17-.81.17-1,.32-.81.49-.81.64-.65-.81-.81-.48-1.14-.33-1.14V130l.49-1.29.65-1.14,1-1,1.3-.81,1.62-.65,1.78-.32,2.27-.16h9.56l.33.32.16.16v2.93l-.16.16-.49.32-1.13.33.32.49.33.81.16.65v1l-.16,1.79-.49,1.3-.65,1.3-1.13,1-1.3.65-1.46.49-1.78.32-2.11.17-2.27-.17-1.46-.48-.48.48-.17.49.17.33.16.32.32.16.49.17L78,141,82,142l1.45.48,1.14.65.81.65.65.81.32,1.14.16,1.14v.32l-.16,1.46-.48,1.14-.65,1-1.14,1-1.29.65-1.63.49-1.94.16-2.43.16Z"/><polygon class="cls-1" points="100.83 145.91 99.05 145.75 98.23 145.59 97.59 145.26 96.94 144.94 96.45 144.61 95.64 143.47 94.99 142.34 94.67 140.88 94.34 139.25 94.34 137.63 94.34 125.45 94.34 125.12 94.67 124.8 94.83 124.64 95.16 124.64 99.53 124.64 99.86 124.64 100.02 124.8 100.18 125.12 100.34 125.45 100.34 137.63 100.34 139.25 100.5 139.9 100.83 140.23 101.16 140.72 101.64 140.88 102.29 141.04 102.94 141.04 103.91 140.88 104.72 140.72 106.5 139.9 106.5 125.45 106.5 125.12 106.67 124.8 106.99 124.64 107.15 124.64 111.69 124.64 111.85 124.64 112.18 124.8 112.34 125.12 112.34 125.45 112.34 144.94 112.34 145.26 112.18 145.43 112.02 145.59 111.69 145.75 107.64 145.75 107.31 145.59 106.99 145.43 106.83 145.26 106.83 144.94 106.83 144.13 105.37 144.94 103.91 145.59 102.45 145.91 100.83 145.91"/><path class="cls-1" d="M127.58,129.18l-.65.17-.65.32-.49.49-.32.48-.33.82-.16.81v1h6.65v-1l-.32-.81-.16-.82-.49-.48-.33-.49-.64-.32-.65-.17-.65-.16Zm-1,16.73-1.63-.32-1.62-.65-1.3-1-.64-.65-.65-.65-.49-.81-.48-.81-.33-1-.16-1.13-.16-1.14-.16-1.3v-2.43l.16-2.12.48-1.95.82-1.62,1.13-1.46.48-.65.82-.49.65-.49,1-.32,1.78-.49,2.11-.16h1l1.14.16,1,.33.81.16.81.49.81.49.65.48.65.65,1,1.46.65,1.63.48,1.78.17,2.12v2.11l-.17.32-.16.33L137,137H125v.81l.16.81.17.65.48.65.49.49.65.32.81.33h4.86l3.08-.33h.16l.49.17.16.16v3.73l-.32.17-.33.16-1.78.49-1.78.16-1.78.16-2.28.16Z"/><path class="cls-1" d="M167.73,123.92l-.16.49-2.27,10.07h5.51l-2.27-10.07-.16-.49-.33-.16Zm6.16,22.26h-.32l-.17-.16-.32-.49-1.3-6h-7.46l-1.29,6-.33.49-.16.16H157l-.49-.16v-.17l-.16-.16.16-.16,5.35-22.9.49-1.14.49-1,.64-.66.81-.65,1-.32.81-.16,1.94-.16,1.95.16.81.16,1,.32.65.65.81.66.49,1,.32,1.14,5.51,22.9v.32l-.16.17-.49.16Z"/><path class="cls-1" d="M186.21,122.79l-.16-.16-.33-.17-.16-.16v-4.06l.16-.16.33-.16h5.35l.16.16.16.16v4.06l-.16.16-.16.17-.33.16Zm4.7,23.39h-4.86l-.16-.16-.17-.17v-20.3l.17-.16.16-.16h5.19l.16.16.16.16v20.3l-.16.17-.16.16Z"/><polygon class="cls-1" points="205.82 146.18 201.45 146.18 201.12 146.18 200.8 146.02 200.64 145.69 200.64 145.53 200.64 125.87 200.64 125.55 200.8 125.39 201.12 125.23 201.29 125.23 205.66 125.23 205.99 125.23 206.31 125.39 206.47 125.55 206.47 125.87 206.47 126.69 207.61 125.87 208.74 125.39 210.04 124.9 211.34 124.9 211.66 124.9 211.99 125.06 212.15 125.23 212.15 125.55 212.15 129.12 211.99 129.61 211.82 129.77 211.66 129.77 211.34 129.77 210.04 129.93 208.74 130.1 207.61 130.58 206.63 131.07 206.63 145.53 206.47 145.69 206.31 146.02 206.15 146.18 205.82 146.18"/><path class="cls-1" d="M224,129.93v11.54l2.92.16h1l.65-.33.65-.32.32-.65.33-.65.16-.81.16-1.79v-2.76l-.16-1.79-.16-.81-.33-.65-.32-.49-.65-.48-.65-.17-1-.16h-1.62Zm-5.72,23.29-.11-.06L218,153V126.52l.17-.32.32-.16.65-.17,1.78-.48,1.78-.33,2.11-.16h2.11l2.11.16,1.94.49,1.46.65.81.49.49.65.65.65.48.65.65,1.62.49,2,.16,2.11v2.76l-.16,2.11-.33,1.79-.81,1.62-.48.82-.49.65-.65.48-.65.49-.81.49-.81.32-1.78.49-2.27.16-2.92-.16v6.33l-.16.33-.16.16-.06.06Z"/><path class="cls-1" d="M249.27,130.26l-.65.32-.49.49-.32.65-.33.81-.16.82v4.71l.16,1,.33.65.32.65.49.49.65.48.65.17h1.46l.64-.17.65-.48.49-.49.32-.65.16-.65.17-1,.16-1.14v-2.44l-.16-1.13-.17-.82-.16-.81-.32-.65-.49-.49-.65-.32-.64-.33h-1.46Zm-.65,16.08-2-.49-.81-.32-.8-.49-.65-.49-.65-.65-1-1.3L242,141l-.32-1.95-.16-2.11v-2.44l.16-2.11.32-2,.81-1.62,1-1.3.65-.65.65-.49.8-.49.81-.32,2-.49,1.95-.16,2.1.16,2,.49.81.32.81.49.65.49.64.65,1,1.3.65,1.62.48,2,.17,2.11v2.44l-.17,2.11-.48,1.95-.65,1.62-1,1.3-.64.65-.65.49-.81.49-.81.32-2,.49-2.1.16Z"/><polygon class="cls-1" points="271.8 146.18 267.26 146.18 267.1 146.18 266.77 146.01 266.61 145.69 266.61 145.53 266.61 125.87 266.61 125.55 266.77 125.39 267.1 125.22 267.26 125.22 271.64 125.22 271.96 125.22 272.13 125.39 272.29 125.55 272.45 125.87 272.45 126.69 273.58 125.87 274.72 125.39 276.02 124.9 277.31 124.9 277.64 124.9 277.96 125.06 278.12 125.22 278.12 125.55 278.12 129.12 277.96 129.61 277.8 129.77 277.47 129.77 277.31 129.77 276.02 129.93 274.72 130.09 273.58 130.58 272.45 131.07 272.45 145.53 272.45 145.69 272.29 146.01 272.13 146.18 271.8 146.18"/><polygon class="cls-1" points="293.36 146.5 291.9 146.5 290.61 146.34 289.63 146.01 288.66 145.36 288.01 144.55 287.52 143.41 287.2 141.95 287.2 140.33 287.2 129.61 284.12 129.12 283.63 128.8 283.47 128.63 283.47 128.31 283.47 125.87 283.47 125.71 283.63 125.39 283.96 125.22 284.12 125.22 287.2 125.22 287.2 122.14 287.2 121.81 287.36 121.65 287.85 121.33 292.39 120.67 292.88 120.84 293.04 121 293.04 121.33 293.04 125.22 296.12 125.22 296.44 125.22 296.6 125.39 296.77 125.55 296.93 125.87 296.93 128.8 296.77 129.12 296.6 129.45 296.44 129.61 296.12 129.61 293.04 129.61 293.04 140.33 293.2 141.14 293.36 141.79 293.69 141.95 294.33 141.95 296.12 141.95 296.44 142.12 296.77 142.12 296.77 142.44 296.93 142.6 296.93 145.53 296.93 145.85 296.77 146.01 296.44 146.18 296.12 146.34 294.66 146.5 293.36 146.5"/><polygon class="cls-2" points="127.65 19.27 126.26 19.27 125.14 18.71 124.59 17.87 124.31 17.04 124.59 16.2 125.14 14.8 126.26 13.4 127.65 12.29 129.05 11.17 132.67 8.94 136.29 7.54 138.25 6.98 139.92 6.71 141.59 6.42 142.98 6.71 144.1 6.98 144.93 7.54 145.21 8.38 145.21 9.22 144.93 10.33 144.38 11.45 143.26 12.85 141.59 14.24 139.92 15.36 137.97 16.48 136.01 17.59 133.78 18.43 131.56 18.99 129.6 19.27 127.65 19.27"/><polygon class="cls-2" points="57.7 103.61 56.3 103.33 55.47 102.77 54.63 101.93 54.07 100.81 53.8 99.42 53.8 98.02 54.07 96.62 54.63 94.67 55.47 92.99 57.7 88.8 60.76 84.62 64.67 79.87 68.29 76.24 72.47 72.61 76.37 69.54 80.55 66.74 84.45 64.51 88.36 62.84 91.7 61.72 94.77 61.16 96.16 61.16 97.28 61.44 98.39 61.72 99.22 62.28 99.78 62.84 100.34 63.67 100.62 64.79 100.9 65.91 100.9 67.02 100.62 68.42 99.5 71.49 97.83 75.12 95.32 79.03 91.42 83.78 86.96 88.25 82.5 92.44 77.49 96.35 72.47 99.42 67.73 101.65 65.5 102.77 63.27 103.33 61.32 103.61 59.37 103.88 57.7 103.61"/><polygon class="cls-2" points="114 103.88 112.33 103.88 110.37 103.33 108.98 102.77 107.87 101.93 106.75 100.81 105.92 99.42 105.36 97.74 105.08 96.06 105.08 94.39 105.08 92.16 105.36 90.2 105.92 87.97 106.75 85.73 107.87 83.22 108.98 80.98 110.37 78.47 113.16 74.56 116.5 70.93 119.85 67.58 123.47 64.51 127.1 62.27 130.44 60.6 134.06 59.2 137.41 58.64 138.8 58.64 140.2 58.92 141.59 59.2 142.7 59.76 143.82 60.6 144.93 61.44 145.49 62.55 146.33 63.67 146.61 64.79 147.16 66.46 147.16 67.86 147.16 69.54 146.61 73.16 145.21 77.36 144.1 79.87 142.98 82.38 141.31 84.9 139.92 87.41 136.02 91.87 131.84 95.79 129.88 97.46 127.65 99.14 125.42 100.54 122.92 101.65 120.69 102.77 118.46 103.33 116.23 103.88 114 103.88"/><polygon class="cls-2" points="187.02 12.57 185.35 12.29 183.95 11.45 182.84 10.61 182 9.5 181.72 8.38 181.72 6.98 182.28 5.86 183.12 4.75 184.51 3.63 185.91 2.52 187.3 1.68 189.25 1.12 190.92 0.56 192.87 0.28 194.82 0 196.77 0 198.45 0.56 199.84 0.84 200.96 1.68 202.07 2.52 202.63 3.63 202.63 4.75 202.63 6.14 201.79 7.26 200.68 8.66 199.28 9.78 197.61 10.89 195.66 11.73 193.43 12.29 191.2 12.57 188.97 12.85 187.02 12.57"/><polygon class="cls-1" points="175.87 103.88 173.64 103.6 171.69 102.77 169.74 101.93 168.07 100.53 166.67 99.14 165.28 97.46 164.16 95.78 163.33 93.83 162.49 91.59 161.93 89.36 161.66 86.85 161.66 84.62 161.66 82.1 162.21 79.59 162.77 76.8 163.89 73.44 165.28 70.37 165.84 69.26 166.12 67.58 166.12 65.91 166.12 64.23 165.56 62 165 59.76 163.89 57.25 162.21 54.45 159.98 50.82 158.03 48.03 156.08 46.08 154.41 44.68 153.02 43.84 151.9 43.56 151.06 43.56 150.23 43.56 147.16 44.68 144.38 45.24 142.43 45.24 140.47 44.96 139.08 44.4 137.97 43.56 137.13 42.45 136.57 41.33 136.29 39.93 136.57 38.54 136.29 37.98 136.01 37.42 135.46 37.14 134.9 37.14 132.95 36.86 130.72 36.86 128.21 37.14 125.98 37.98 124.03 38.82 122.36 39.93 120.97 41.05 119.29 42.45 114.83 44.96 112.6 46.08 110.09 46.91 107.86 47.47 105.92 48.03 103.41 47.75 101.73 47.2 101.18 46.91 100.9 46.36 100.62 45.8 100.34 44.96 100.34 43.28 101.18 41.61 102.29 39.38 104.24 37.14 106.19 35.19 108.7 33.23 110.93 31.56 113.72 30.16 116.23 28.76 118.73 27.65 121.24 27.09 123.47 26.53 124.87 26.53 126.26 26.81 127.38 27.09 128.21 27.65 128.77 28.48 129.05 29.32 129.33 30.16 129.05 31.56 129.05 31.84 129.33 32.11 130.16 32.4 131.56 32.4 133.78 32.67 137.41 32.4 139.08 32.11 139.92 31.84 140.47 31.28 142.43 29.32 144.93 27.65 147.44 25.97 149.95 24.85 151.9 24.02 153.02 22.62 153.85 21.23 154.69 20.11 155.25 18.71 155.53 17.31 155.25 16.48 154.97 15.92 154.41 15.64 153.57 15.36 153.02 14.8 152.74 14.24 152.46 13.68 152.18 12.85 152.46 12.01 153.02 10.33 154.13 9.21 155.25 8.1 156.64 6.98 158.31 5.86 159.98 5.03 161.93 4.47 163.89 3.91 165.56 3.63 167.51 3.35 168.9 3.63 170.3 3.91 171.41 4.47 172.25 5.03 172.81 5.86 172.81 6.98 172.53 8.1 171.97 9.21 171.13 10.33 169.18 12.01 166.4 13.96 163.33 15.08 161.93 15.92 160.82 17.03 159.98 18.15 159.43 19.27 158.87 20.66 158.59 22.06 158.59 23.18 158.87 23.46 159.43 23.74 161.1 24.3 162.49 25.41 163.33 26.81 163.61 28.2 163.89 28.76 164.44 29.04 165.84 29.6 167.79 29.6 170.02 29.6 172.25 29.32 174.2 29.04 175.87 28.48 176.71 27.93 177.26 27.09 178.38 25.69 179.77 24.57 181.17 23.46 182.84 22.34 184.51 21.5 186.46 20.94 188.13 20.39 190.09 20.11 192.59 20.11 195.1 20.39 197.05 20.94 199 22.06 200.68 23.18 201.79 24.85 202.35 26.53 202.63 28.48 202.35 31 201.51 33.23 200.12 35.47 198.17 37.42 195.66 39.1 193.15 40.49 190.09 41.61 187.02 41.89 184.79 41.89 182.84 41.89 180.89 41.33 179.22 40.49 177.82 39.38 176.71 38.26 175.87 37.14 175.31 35.47 175.03 34.91 174.48 34.63 172.81 34.07 170.85 33.79 168.9 33.79 166.4 33.79 163.89 34.35 161.93 35.19 161.1 35.74 160.54 36.3 159.98 37.7 159.98 38.82 160.26 40.21 160.82 41.61 161.93 43.84 163.61 46.08 165.84 48.87 168.62 51.38 171.13 53.34 173.08 55.02 175.03 55.85 176.71 56.69 178.38 56.97 179.77 56.97 181.17 56.69 183.12 56.41 185.07 56.13 186.74 56.13 188.69 56.13 190.36 56.69 191.76 57.25 193.43 57.81 194.82 58.92 196.22 59.76 197.61 61.16 198.72 62.55 199.56 63.95 200.68 65.63 201.23 67.3 202.07 69.26 202.35 71.21 202.63 73.44 202.63 75.68 202.63 78.19 202.35 80.98 201.51 83.5 200.68 86.29 199.84 88.8 198.45 91.04 197.05 93.27 195.38 95.23 193.71 97.18 191.76 98.86 189.81 100.53 187.85 101.65 185.35 102.77 183.12 103.6 180.89 103.88 178.38 104.16 175.87 103.88"/></g></g></svg>