<?xml version="1.0" encoding="UTF-8" standalone="no"?>
<!DOCTYPE svg PUBLIC "-//W3C//DTD SVG 1.1//EN" "http://www.w3.org/Graphics/SVG/1.1/DTD/svg11.dtd">
<svg xmlns="http://www.w3.org/2000/svg" version="1.1" viewBox="0.00 0.00 158.00 88.00">
<g stroke-width="2.00" fill="none" stroke-linecap="butt">
<path stroke="#008076" vector-effect="non-scaling-stroke" d="
  M 25.30 28.43
  Q 25.13 28.68 25.11 28.92
  Q 25.08 29.29 24.79 29.06
  Q 24.68 28.97 24.62 28.84
  A 0.29 0.29 0.0 0 0 24.34 28.67
  L 19.36 29.08"
/>
<path stroke="#008f82" vector-effect="non-scaling-stroke" d="
  M 19.36 29.08
  Q 11.44 27.27 3.75 26.42
  Q 3.33 26.37 2.93 25.90"
/>
<path stroke="#008076" vector-effect="non-scaling-stroke" d="
  M 36.63 35.15
  L 27.36 31.69
  A 1.93 1.91 -57.4 0 0 25.31 32.15
  Q 23.32 34.16 23.17 38.57"
/>
<path stroke="#00a092" vector-effect="non-scaling-stroke" d="
  M 19.36 29.08
  Q 23.97 29.61 19.92 36.72"
/>
<path stroke="#00a092" vector-effect="non-scaling-stroke" d="
  M 11.96 48.37
  L 8.63 49.92
  Q 8.18 50.13 7.69 50.08
  Q 7.03 50.01 6.41 50.25
  Q 5.92 50.44 6.07 50.94
  Q 7.84 56.93 10.07 62.39
  Q 10.72 63.96 11.91 65.09"
/>
<path stroke="#008f82" vector-effect="non-scaling-stroke" d="
  M 41.58 38.99
  Q 40.36 39.34 39.95 39.90"
/>
<path stroke="#008076" vector-effect="non-scaling-stroke" d="
  M 39.95 39.90
  L 31.62 43.55"
/>
<path stroke="#00a092" vector-effect="non-scaling-stroke" d="
  M 36.27 52.14
  Q 36.39 50.43 34.08 49.31
  A 0.43 0.43 0.0 0 1 33.93 48.65
  Q 36.89 44.96 39.72 40.99
  Q 40.05 40.53 39.95 39.90"
/>
<path stroke="#00a092" vector-effect="non-scaling-stroke" d="
  M 23.52 59.34
  L 30.69 52.14
  A 0.77 0.77 0.0 0 0 30.62 50.99
  Q 29.83 50.37 29.12 49.78
  C 27.92 48.80 27.66 47.17 25.79 46.90"
/>
</g>
<path fill="#006f66" d="
  M 25.30 28.43
  Q 25.13 28.68 25.11 28.92
  Q 25.08 29.29 24.79 29.06
  Q 24.68 28.97 24.62 28.84
  A 0.29 0.29 0.0 0 0 24.34 28.67
  L 19.36 29.08
  Q 11.44 27.27 3.75 26.42
  Q 3.33 26.37 2.93 25.90
  L 11.55 20.92
  A 0.88 0.86 -44.4 0 1 12.42 20.92
  L 25.30 28.43
  Z"
/>
<path fill="#00ae9e" d="
  M 2.93 25.90
  Q 3.33 26.37 3.75 26.42
  Q 11.44 27.27 19.36 29.08
  Q 23.97 29.61 19.92 36.72
  L 12.50 32.56
  Q 12.03 32.30 12.03 32.83
  L 11.96 48.37
  L 8.63 49.92
  Q 8.18 50.13 7.69 50.08
  Q 7.03 50.01 6.41 50.25
  Q 5.92 50.44 6.07 50.94
  Q 7.84 56.93 10.07 62.39
  Q 10.72 63.96 11.91 65.09
  Q 12.05 65.52 12.00 65.82
  Q 11.91 66.34 11.45 66.07
  L 2.55 60.91
  Q 2.04 60.61 2.04 60.01
  L 2.07 26.76
  Q 2.07 26.31 2.47 26.12
  L 2.93 25.90
  Z"
/>
<path fill="#009185" d="
  M 25.30 28.43
  L 36.63 35.15
  L 27.36 31.69
  A 1.93 1.91 -57.4 0 0 25.31 32.15
  Q 23.32 34.16 23.17 38.57
  L 19.92 36.72
  Q 23.97 29.61 19.36 29.08
  L 24.34 28.67
  A 0.29 0.29 0.0 0 1 24.62 28.84
  Q 24.68 28.97 24.79 29.06
  Q 25.08 29.29 25.11 28.92
  Q 25.13 28.68 25.30 28.43
  Z"
/>
<path fill="#006f66" d="
  M 36.63 35.15
  Q 41.20 36.73 41.58 38.99
  Q 40.36 39.34 39.95 39.90
  L 31.62 43.55
  L 23.17 38.57
  Q 23.32 34.16 25.31 32.15
  A 1.93 1.91 -57.4 0 1 27.36 31.69
  L 36.63 35.15
  Z"
/>
<path fill="#000000" d="
  M 98.3400 43.4569
  A 7.49 6.08 -0.1 0 1 90.8606 49.5500
  A 7.49 6.08 -0.1 0 1 83.3600 43.4831
  A 7.49 6.08 -0.1 0 1 90.8394 37.3900
  A 7.49 6.08 -0.1 0 1 98.3400 43.4569
  Z
  M 96.5900 43.4900
  A 5.74 4.44 0.2 0 0 90.8655 39.0300
  A 5.74 4.44 0.2 0 0 85.1100 43.4500
  A 5.74 4.44 0.2 0 0 90.8345 47.9100
  A 5.74 4.44 0.2 0 0 96.5900 43.4900
  Z"
/>
<path fill="#000000" d="
  M 55.58 44.75
  L 55.62 48.45
  Q 55.63 49.02 55.06 49.01
  L 54.50 49.00
  A 0.63 0.63 0.0 0 1 53.88 48.38
  L 53.88 38.33
  A 0.44 0.44 0.0 0 1 54.32 37.89
  L 62.93 37.91
  Q 65.26 37.91 66.07 40.11
  Q 66.25 40.61 66.19 41.13
  Q 65.83 44.35 62.59 44.34
  L 56.00 44.32
  A 0.42 0.42 0.0 0 0 55.58 44.75
  Z
  M 55.60 39.98
  L 55.60 42.00
  A 0.59 0.59 0.0 0 0 56.18 42.60
  L 62.68 42.62
  A 1.69 1.38 0.2 0 0 64.38 41.25
  L 64.38 40.81
  A 1.69 1.38 0.2 0 0 62.70 39.42
  L 56.20 39.40
  A 0.59 0.59 0.0 0 0 55.60 39.98
  Z"
/>
<path fill="#000000" d="
  M 78.07 45.23
  L 80.79 48.44
  Q 81.27 49.01 80.53 48.99
  L 79.62 48.97
  Q 78.94 48.96 78.51 48.42
  L 75.69 44.92
  Q 75.20 44.31 74.40 44.31
  L 71.31 44.31
  Q 70.68 44.31 70.69 44.94
  L 70.76 48.24
  Q 70.77 48.99 70.03 49.02
  L 69.59 49.04
  A 0.57 0.57 0.0 0 1 69.00 48.47
  L 68.99 38.44
  A 0.57 0.56 0.0 0 1 69.56 37.88
  L 78.74 37.92
  A 1.96 1.96 0.0 0 1 80.17 38.54
  Q 82.42 40.91 80.38 43.32
  A 2.07 2.02 9.2 0 1 79.51 43.93
  L 78.30 44.35
  Q 77.55 44.62 78.07 45.23
  Z
  M 70.73 39.83
  L 70.71 42.13
  A 0.45 0.45 0.0 0 0 71.16 42.58
  L 77.58 42.63
  A 1.97 1.45 0.4 0 0 79.56 41.19
  L 79.56 40.89
  A 1.97 1.45 0.4 0 0 77.60 39.43
  L 71.18 39.38
  A 0.45 0.45 0.0 0 0 70.73 39.83
  Z"
/>
<path fill="#000000" d="
  M 116.25 42.58
  L 122.31 42.60
  A 0.32 0.32 0.0 0 1 122.63 42.92
  L 122.64 43.94
  A 0.32 0.32 0.0 0 1 122.32 44.26
  L 116.25 44.33
  A 0.32 0.32 0.0 0 0 115.93 44.65
  L 115.94 47.15
  A 0.32 0.32 0.0 0 0 116.26 47.47
  L 125.50 47.42
  A 0.32 0.32 0.0 0 1 125.82 47.73
  L 125.86 48.65
  A 0.32 0.32 0.0 0 1 125.54 48.98
  L 114.54 49.00
  A 0.32 0.32 0.0 0 1 114.22 48.68
  L 114.20 38.22
  A 0.32 0.32 0.0 0 1 114.52 37.90
  L 125.58 37.89
  A 0.32 0.32 0.0 0 1 125.90 38.26
  L 125.74 39.18
  A 0.32 0.32 0.0 0 1 125.43 39.45
  L 116.24 39.42
  A 0.32 0.32 0.0 0 0 115.92 39.74
  L 115.93 42.26
  A 0.32 0.32 0.0 0 0 116.25 42.58
  Z"
/>
<path fill="#000000" d="
  M 133.38 39.44
  L 127.98 39.35
  A 0.31 0.31 0.0 0 1 127.67 39.04
  L 127.67 38.19
  A 0.31 0.31 0.0 0 1 127.98 37.88
  L 141.06 37.93
  A 0.31 0.31 0.0 0 1 141.36 38.21
  L 141.43 39.07
  A 0.31 0.31 0.0 0 1 141.13 39.40
  L 135.67 39.45
  A 0.31 0.31 0.0 0 0 135.36 39.76
  L 135.29 48.67
  A 0.31 0.31 0.0 0 1 134.98 48.98
  L 133.99 48.98
  A 0.31 0.31 0.0 0 1 133.68 48.67
  L 133.69 39.75
  A 0.31 0.31 0.0 0 0 133.38 39.44
  Z"
/>
<path fill="#000000" d="
  M 150.47 46.09
  L 143.75 46.10
  Q 143.11 46.10 142.75 46.62
  L 141.58 48.37
  A 1.56 1.53 15.0 0 1 140.41 49.03
  L 140.01 49.06
  Q 139.05 49.12 139.58 48.31
  L 145.99 38.50
  A 1.32 1.32 0.0 0 1 148.20 38.50
  L 154.64 48.35
  Q 155.11 49.09 154.24 49.05
  L 153.83 49.04
  A 1.55 1.55 0.0 0 1 152.60 48.35
  L 151.44 46.62
  Q 151.09 46.09 150.47 46.09
  Z
  M 144.47 43.97
  A 0.30 0.30 0.0 0 0 144.72 44.43
  L 149.48 44.40
  A 0.30 0.30 0.0 0 0 149.73 43.94
  L 147.33 40.28
  A 0.30 0.30 0.0 0 0 146.82 40.29
  L 144.47 43.97
  Z"
/>
<path fill="#000000" d="
  M 103.72 47.51
  L 111.30 47.39
  A 0.32 0.32 0.0 0 1 111.63 47.70
  L 111.68 48.64
  A 0.32 0.32 0.0 0 1 111.36 48.98
  L 100.02 49.00
  A 0.32 0.32 0.0 0 1 99.78 48.46
  L 108.03 39.91
  A 0.32 0.32 0.0 0 0 107.79 39.37
  L 100.15 39.46
  A 0.32 0.32 0.0 0 1 99.83 39.12
  L 99.89 38.19
  A 0.32 0.32 0.0 0 1 100.21 37.89
  L 111.51 37.88
  A 0.32 0.32 0.0 0 1 111.74 38.42
  L 103.49 46.97
  A 0.32 0.32 0.0 0 0 103.72 47.51
  Z"
/>
<path fill="#00ae9e" d="
  M 41.58 38.99
  L 41.48 48.62
  A 1.12 1.11 -14.7 0 1 40.91 49.59
  L 36.27 52.14
  Q 36.39 50.43 34.08 49.31
  A 0.43 0.43 0.0 0 1 33.93 48.65
  Q 36.89 44.96 39.72 40.99
  Q 40.05 40.53 39.95 39.90
  Q 40.36 39.34 41.58 38.99
  Z"
/>
<path fill="#009185" d="
  M 39.95 39.90
  Q 40.05 40.53 39.72 40.99
  Q 36.89 44.96 33.93 48.65
  A 0.43 0.43 0.0 0 0 34.08 49.31
  Q 36.39 50.43 36.27 52.14
  L 23.52 59.34
  L 30.69 52.14
  A 0.77 0.77 0.0 0 0 30.62 50.99
  Q 29.83 50.37 29.12 49.78
  C 27.92 48.80 27.66 47.17 25.79 46.90
  L 31.62 43.55
  L 39.95 39.90
  Z"
/>
<path fill="#00ae9e" d="
  M 25.79 46.90
  C 27.66 47.17 27.92 48.80 29.12 49.78
  Q 29.83 50.37 30.62 50.99
  A 0.77 0.77 0.0 0 1 30.69 52.14
  L 23.52 59.34
  Q 23.38 60.01 22.40 60.13
  Q 21.91 60.20 21.91 59.70
  L 21.91 49.94
  Q 21.91 49.43 22.29 49.09
  Q 23.76 47.78 25.79 46.90
  Z"
/>
<path fill="#009185" d="
  M 11.96 48.37
  L 11.91 65.09
  Q 10.72 63.96 10.07 62.39
  Q 7.84 56.93 6.07 50.94
  Q 5.92 50.44 6.41 50.25
  Q 7.03 50.01 7.69 50.08
  Q 8.18 50.13 8.63 49.92
  L 11.96 48.37
  Z"
/>
</svg>
