<?xml version="1.0" encoding="UTF-8" standalone="no"?>
<!DOCTYPE svg PUBLIC "-//W3C//DTD SVG 1.1//EN" "http://www.w3.org/Graphics/SVG/1.1/DTD/svg11.dtd">
<svg xmlns="http://www.w3.org/2000/svg" version="1.1" viewBox="0.00 0.00 312.00 86.00">
<path fill="#0e133a" d="
  M 30.66 6.81
  Q 30.64 18.13 30.64 27.80
  C 30.65 31.67 27.88 33.81 24.18 33.76
  Q 15.33 33.63 7.34 33.77
  A 1.04 1.04 0.0 0 0 6.31 34.81
  L 6.31 54.74
  A 1.19 1.18 -90.0 0 0 7.49 55.93
  L 30.01 55.93
  Q 30.64 55.93 30.65 56.55
  C 30.77 66.71 29.79 75.60 34.24 85.17
  A 0.27 0.27 0.0 0 1 33.99 85.55
  L 1.75 85.55
  A 1.06 1.05 0.0 0 1 0.69 84.50
  L 0.69 1.76
  A 1.30 1.30 0.0 0 1 1.99 0.46
  L 85.57 0.45
  A 1.12 1.12 0.0 0 1 86.69 1.57
  L 86.69 84.25
  A 1.33 1.32 -89.0 0 1 85.32 85.58
  C 73.58 85.22 59.96 88.45 54.28 75.03
  Q 52.97 71.93 53.00 66.25
  Q 53.17 34.51 53.03 7.03
  A 0.97 0.97 0.0 0 0 52.06 6.07
  L 31.39 6.08
  A 0.73 0.73 0.0 0 0 30.66 6.81
  Z
  M 79.15 17.13
  A 9.28 9.28 0.0 0 0 69.87 7.85
  A 9.28 9.28 0.0 0 0 60.59 17.13
  A 9.28 9.28 0.0 0 0 69.87 26.41
  A 9.28 9.28 0.0 0 0 79.15 17.13
  Z
  M 81.0124 34.7405
  A 1.07 1.07 0.0 0 0 79.9405 33.6724
  L 59.7406 33.7076
  A 1.07 1.07 0.0 0 0 58.6724 34.7795
  L 58.7076 54.9195
  A 1.07 1.07 0.0 0 0 59.7795 55.9876
  L 79.9794 55.9524
  A 1.07 1.07 0.0 0 0 81.0476 54.8805
  L 81.0124 34.7405
  Z"
/>
<circle fill="#0e133a" cx="69.87" cy="17.13" r="3.70"/>
<path fill="#0e133a" d="
  M 237.46 38.81
  L 235.40 38.80
  Q 234.86 38.80 234.85 38.27
  L 234.83 36.03
  Q 234.82 35.39 235.47 35.39
  L 241.22 35.41
  Q 241.83 35.42 241.89 36.02
  C 242.21 39.12 242.11 42.52 239.07 44.01
  Q 234.38 46.31 230.26 43.62
  C 227.44 41.77 228.20 38.22 228.05 35.31
  C 227.86 31.30 229.27 28.39 233.70 27.81
  Q 239.71 27.01 241.88 31.87
  A 1.17 1.17 0.0 0 1 240.85 33.52
  L 238.98 33.58
  Q 238.32 33.60 238.09 32.99
  C 236.97 30.02 232.13 30.68 232.14 34.28
  Q 232.15 36.76 232.22 38.93
  C 232.33 42.22 237.12 42.56 237.89 39.35
  Q 238.02 38.81 237.46 38.81
  Z"
/>
<path fill="#0e133a" d="
  M 126.37 31.57
  L 122.97 31.59
  A 0.62 0.62 0.0 0 1 122.34 30.97
  L 122.36 28.63
  A 0.62 0.62 0.0 0 1 122.98 28.01
  L 135.06 28.00
  A 0.62 0.62 0.0 0 1 135.68 28.62
  L 135.70 30.96
  A 0.62 0.62 0.0 0 1 135.07 31.59
  L 131.67 31.56
  A 0.62 0.62 0.0 0 0 131.05 32.18
  L 131.06 44.02
  A 0.62 0.62 0.0 0 1 130.44 44.64
  L 127.63 44.65
  A 0.62 0.62 0.0 0 1 127.01 44.03
  L 126.99 32.18
  A 0.62 0.62 0.0 0 0 126.37 31.57
  Z"
/>
<path fill="#0e133a" d="
  M 152.11 41.93
  L 146.54 41.93
  A 0.52 0.52 0.0 0 0 146.05 42.27
  L 145.32 44.29
  A 0.52 0.52 0.0 0 1 144.84 44.63
  L 141.86 44.67
  A 0.52 0.52 0.0 0 1 141.37 43.97
  L 147.23 28.37
  A 0.52 0.52 0.0 0 1 147.72 28.03
  L 150.95 28.03
  A 0.52 0.52 0.0 0 1 151.44 28.37
  L 157.28 43.98
  A 0.52 0.52 0.0 0 1 156.79 44.68
  L 153.80 44.64
  A 0.52 0.52 0.0 0 1 153.32 44.30
  L 152.60 42.28
  A 0.52 0.52 0.0 0 0 152.11 41.93
  Z
  M 147.56 37.93
  A 0.33 0.33 0.0 0 0 147.87 38.37
  L 150.79 38.41
  A 0.33 0.33 0.0 0 0 151.11 37.97
  L 149.69 33.70
  A 0.33 0.33 0.0 0 0 149.07 33.69
  L 147.56 37.93
  Z"
/>
<path fill="#0e133a" d="
  M 169.88 32.23
  L 169.88 44.01
  Q 169.88 44.66 169.24 44.65
  L 166.52 44.65
  Q 165.89 44.65 165.89 44.02
  L 165.89 28.75
  A 0.69 0.69 0.0 0 1 166.58 28.06
  Q 170.55 28.07 174.20 28.10
  C 180.24 28.15 181.54 35.61 176.67 38.43
  Q 176.14 38.73 176.49 39.23
  L 179.57 43.66
  Q 180.25 44.65 179.05 44.66
  L 176.67 44.67
  Q 175.50 44.68 174.86 43.69
  C 173.21 41.14 171.63 40.05 172.04 36.32
  Q 172.10 35.76 172.66 35.80
  Q 174.98 35.98 175.60 34.05
  A 1.85 1.84 -80.7 0 0 173.87 31.63
  L 170.52 31.59
  Q 169.88 31.58 169.88 32.23
  Z"
/>
<path fill="#0e133a" d="
  M 188.82 28.74
  A 0.72 0.72 0.0 0 1 189.54 28.02
  L 195.68 28.03
  A 6.56 5.79 0.1 0 1 202.23 33.83
  L 202.23 38.89
  A 6.56 5.79 0.1 0 1 195.66 44.67
  L 189.52 44.66
  A 0.72 0.72 0.0 0 1 188.80 43.94
  L 188.82 28.74
  Z
  M 192.89 31.84
  L 192.85 40.84
  A 0.29 0.29 0.0 0 0 193.14 41.13
  L 195.68 41.14
  A 2.55 2.49 -89.8 0 0 198.18 38.60
  L 198.20 34.12
  A 2.55 2.49 -89.8 0 0 195.72 31.56
  L 193.18 31.55
  A 0.29 0.29 0.0 0 0 192.89 31.84
  Z"
/>
<path fill="#0e133a" d="
  M 217.11 31.97
  L 217.11 40.73
  A 0.46 0.46 0.0 0 0 217.56 41.19
  L 218.93 41.20
  A 0.46 0.46 0.0 0 1 219.38 41.66
  L 219.39 44.21
  A 0.46 0.46 0.0 0 1 218.93 44.67
  L 211.23 44.67
  A 0.46 0.46 0.0 0 1 210.77 44.21
  L 210.79 41.66
  A 0.46 0.46 0.0 0 1 211.24 41.21
  L 212.60 41.19
  A 0.46 0.46 0.0 0 0 213.06 40.73
  L 213.06 31.96
  A 0.46 0.46 0.0 0 0 212.61 31.50
  L 211.23 31.49
  A 0.46 0.46 0.0 0 1 210.78 31.03
  L 210.77 28.48
  A 0.46 0.46 0.0 0 1 211.23 28.02
  L 218.94 28.02
  A 0.46 0.46 0.0 0 1 219.40 28.48
  L 219.38 31.03
  A 0.46 0.46 0.0 0 1 218.93 31.49
  L 217.56 31.51
  A 0.46 0.46 0.0 0 0 217.11 31.97
  Z"
/>
<path fill="#0e133a" d="
  M 261.69 39.24
  L 264.79 43.70
  Q 265.46 44.67 264.28 44.67
  L 261.51 44.66
  A 1.52 1.51 73.1 0 1 260.25 43.98
  C 259.20 42.38 257.16 40.18 257.15 38.25
  Q 257.14 37.28 257.21 36.35
  Q 257.26 35.75 257.87 35.79
  Q 260.45 35.98 260.82 33.71
  A 1.79 1.79 0.0 0 0 259.09 31.63
  L 255.78 31.58
  Q 255.12 31.57 255.12 32.22
  L 255.12 44.01
  Q 255.12 44.64 254.49 44.65
  L 251.95 44.66
  Q 251.12 44.66 251.12 43.82
  L 251.12 28.76
  Q 251.12 28.10 251.79 28.08
  Q 256.07 28.00 259.95 28.16
  C 265.57 28.39 266.47 35.83 261.89 38.38
  Q 261.31 38.70 261.69 39.24
  Z"
/>
<path fill="#0e133a" d="
  M 283.79 41.93
  L 278.74 41.92
  A 0.82 0.81 -85.9 0 0 277.94 42.62
  Q 277.52 45.52 273.85 44.57
  Q 273.20 44.40 273.44 43.78
  L 279.13 28.64
  Q 279.37 28.00 280.05 28.01
  L 282.65 28.01
  Q 283.32 28.01 283.55 28.64
  L 289.21 43.78
  A 0.60 0.60 0.0 0 1 288.80 44.58
  Q 285.22 45.52 284.76 42.75
  Q 284.62 41.93 283.79 41.93
  Z
  M 279.58 37.94
  A 0.33 0.33 0.0 0 0 279.89 38.37
  L 282.79 38.41
  A 0.33 0.33 0.0 0 0 283.11 37.97
  L 281.70 33.67
  A 0.33 0.33 0.0 0 0 281.08 33.67
  L 279.58 37.94
  Z"
/>
<path fill="#0e133a" d="
  M 297.95 28.63
  A 0.62 0.62 0.0 0 1 298.57 28.01
  L 304.92 28.03
  A 6.43 5.89 0.2 0 1 311.33 33.94
  L 311.31 38.80
  A 6.43 5.89 0.2 0 1 304.86 44.67
  L 298.51 44.65
  A 0.62 0.62 0.0 0 1 297.89 44.03
  L 297.95 28.63
  Z
  M 301.95 31.90
  L 301.91 40.78
  A 0.37 0.37 0.0 0 0 302.28 41.15
  L 304.61 41.16
  A 2.68 2.66 0.2 0 0 307.30 38.51
  L 307.32 34.21
  A 2.68 2.66 0.2 0 0 304.65 31.54
  L 302.32 31.53
  A 0.37 0.37 0.0 0 0 301.95 31.90
  Z"
/>
<path fill="#0e133a" d="
  M 229.92 62.43
  Q 230.06 63.29 229.28 62.89
  L 228.63 62.55
  A 0.33 0.32 -76.6 0 1 228.46 62.26
  L 228.37 53.49
  Q 228.37 53.09 228.76 53.10
  L 229.20 53.10
  A 0.45 0.45 0.0 0 1 229.65 53.59
  Q 229.23 58.12 229.92 62.43
  Z"
/>
<path fill="#0e133a" d="
  M 274.67 56.00
  L 274.62 53.48
  Q 274.61 53.14 274.95 53.13
  L 275.37 53.12
  Q 275.78 53.10 275.78 53.50
  L 275.80 62.26
  Q 275.81 63.02 275.20 62.55
  Q 275.02 62.41 274.79 62.37
  Q 274.28 62.27 273.83 62.52
  C 269.14 65.03 268.06 54.30 274.26 56.30
  Q 274.68 56.43 274.67 56.00
  Z
  M 274.6795 58.5388
  A 1.60 1.60 0.0 0 0 273.0601 56.9585
  L 272.7801 56.9619
  A 1.60 1.60 0.0 0 0 271.1997 58.5813
  L 271.2205 60.2812
  A 1.60 1.60 0.0 0 0 272.8399 61.8615
  L 273.1199 61.8581
  A 1.60 1.60 0.0 0 0 274.7003 60.2387
  L 274.6795 58.5388
  Z"
/>
<path fill="#0e133a" d="
  M 286.32 62.55
  Q 286.40 63.11 285.88 62.90
  L 285.16 62.60
  A 0.49 0.48 -79.3 0 1 284.86 62.15
  L 284.81 53.30
  Q 284.81 53.08 285.03 53.08
  L 285.68 53.09
  Q 286.05 53.09 286.02 53.46
  Q 285.60 58.07 286.32 62.55
  Z"
/>
<circle fill="#0e133a" cx="161.27" cy="54.04" r="0.71"/>
<path fill="#0e133a" d="
  M 288.54 53.43
  Q 289.01 53.31 289.41 53.58
  A 0.56 0.56 0.0 0 1 289.47 54.45
  Q 289.02 54.87 288.48 54.61
  Q 287.95 54.34 288.16 53.77
  Q 288.26 53.50 288.54 53.43
  Z"
/>
<path fill="#0e133a" d="
  M 130.25 59.97
  L 128.05 59.97
  A 0.93 0.93 0.0 0 0 127.12 60.84
  Q 127.07 61.76 126.58 62.52
  Q 126.32 62.94 125.85 62.78
  Q 125.68 62.72 125.62 62.49
  Q 125.57 62.32 125.63 62.16
  L 128.12 54.87
  Q 129.14 51.91 130.14 54.87
  L 132.69 62.39
  Q 132.79 62.71 132.46 62.76
  L 131.99 62.83
  Q 131.69 62.87 131.60 62.58
  L 130.96 60.50
  Q 130.79 59.97 130.25 59.97
  Z
  M 130.27 58.44
  L 129.42 55.69
  Q 129.15 54.80 128.86 55.68
  L 128.04 58.18
  Q 127.75 59.04 128.66 59.05
  L 129.82 59.05
  A 0.47 0.47 0.0 0 0 130.27 58.44
  Z"
/>
<path fill="#0e133a" d="
  M 137.76 58.42
  L 139.85 59.39
  A 1.66 1.65 14.9 0 1 140.80 61.02
  Q 140.68 62.50 139.03 62.81
  Q 136.95 63.19 136.18 61.75
  Q 135.77 60.97 136.52 61.43
  Q 138.04 62.37 139.09 61.69
  Q 140.45 60.80 138.98 60.09
  L 137.09 59.19
  A 1.52 1.51 37.6 0 1 136.76 56.68
  Q 138.09 55.54 140.05 56.34
  Q 140.29 56.44 140.37 56.69
  Q 140.58 57.34 139.91 57.18
  Q 139.02 56.97 138.15 56.99
  Q 137.57 57.01 137.38 57.55
  Q 137.18 58.15 137.76 58.42
  Z"
/>
<path fill="#0e133a" d="
  M 143.17 60.29
  C 143.45 61.80 145.19 62.30 146.45 61.65
  Q 146.79 61.48 146.96 61.81
  L 147.09 62.06
  Q 147.19 62.25 147.00 62.34
  Q 144.03 63.82 142.48 61.34
  C 139.49 56.55 147.56 53.39 147.61 59.02
  A 0.64 0.64 0.0 0 1 146.97 59.66
  L 143.69 59.66
  Q 143.05 59.66 143.17 60.29
  Z
  M 143.42 58.90
  L 146.36 58.74
  A 0.22 0.22 0.0 0 0 146.57 58.50
  L 146.56 58.37
  A 1.56 1.51 -3.2 0 0 144.92 56.95
  L 144.66 56.97
  A 1.56 1.51 -3.2 0 0 143.19 58.56
  L 143.19 58.69
  A 0.22 0.22 0.0 0 0 143.42 58.90
  Z"
/>
<path fill="#0e133a" d="
  M 156.75 60.76
  L 158.22 56.39
  Q 158.27 56.25 158.42 56.24
  L 159.00 56.17
  A 0.25 0.25 0.0 0 1 159.27 56.50
  L 157.42 61.67
  Q 156.48 64.29 155.40 61.73
  Q 154.60 59.83 154.05 57.91
  Q 153.75 56.88 152.67 56.88
  C 149.58 56.87 150.29 60.46 150.35 62.47
  Q 150.36 62.92 149.92 62.84
  L 149.58 62.77
  Q 149.21 62.70 149.21 62.33
  L 149.12 56.57
  Q 149.11 55.88 149.67 56.29
  L 150.07 56.58
  A 0.54 0.53 44.4 0 0 150.72 56.58
  Q 152.02 55.57 153.45 56.56
  A 0.47 0.46 -49.6 0 0 154.05 56.51
  Q 154.23 56.33 154.41 56.35
  Q 154.65 56.37 154.73 56.60
  L 156.04 60.75
  Q 156.38 61.85 156.75 60.76
  Z"
/>
<path fill="#0e133a" d="
  M 165.50 57.43
  A 1.84 1.83 -19.5 0 0 164.71 59.08
  Q 164.96 62.83 168.08 61.59
  Q 168.46 61.44 168.63 61.81
  L 168.74 62.06
  Q 168.81 62.21 168.66 62.28
  C 161.92 65.54 161.99 53.47 168.48 56.48
  Q 168.62 56.54 168.58 56.69
  L 168.50 57.00
  A 0.37 0.36 -69.6 0 1 167.98 57.24
  Q 166.71 56.60 165.50 57.43
  Z"
/>
<path fill="#0e133a" d="
  M 170.75 60.29
  C 171.09 61.89 172.88 62.28 174.19 61.65
  Q 174.53 61.49 174.68 61.83
  L 174.80 62.09
  Q 174.87 62.26 174.71 62.33
  Q 170.87 63.97 169.70 60.47
  C 168.17 55.94 175.27 53.88 175.17 59.08
  A 0.61 0.61 0.0 0 1 174.55 59.68
  L 171.27 59.65
  Q 170.62 59.65 170.75 60.29
  Z
  M 171.06 58.87
  L 173.90 58.83
  A 0.25 0.25 0.0 0 0 174.15 58.58
  L 174.15 58.43
  A 1.52 1.52 0.0 0 0 172.61 56.93
  L 172.31 56.93
  A 1.52 1.52 0.0 0 0 170.81 58.47
  L 170.81 58.62
  A 0.25 0.25 0.0 0 0 171.06 58.87
  Z"
/>
<path fill="#0e133a" d="
  M 182.88 56.98
  Q 181.98 56.93 181.18 57.44
  Q 180.73 57.73 180.72 58.27
  L 180.66 62.45
  Q 180.65 62.93 180.18 62.84
  L 179.77 62.75
  Q 179.57 62.72 179.57 62.51
  L 179.52 56.95
  Q 179.51 56.29 180.15 56.46
  C 181.50 56.81 182.33 55.59 183.65 56.15
  C 185.43 56.91 184.86 60.54 184.84 62.23
  Q 184.83 62.86 184.20 62.80
  L 183.94 62.77
  Q 183.84 62.76 183.84 62.66
  L 183.68 57.79
  Q 183.66 57.02 182.88 56.98
  Z"
/>
<path fill="#0e133a" d="
  M 189.6058 62.8899
  A 3.46 3.09 90.4 0 1 186.5401 59.4084
  A 3.46 3.09 90.4 0 1 189.6542 55.9701
  A 3.46 3.09 90.4 0 1 192.7199 59.4516
  A 3.46 3.09 90.4 0 1 189.6058 62.8899
  Z
  M 189.6112 61.9500
  A 2.53 1.93 90.2 0 0 191.5500 59.4267
  A 2.53 1.93 90.2 0 0 189.6288 56.8900
  A 2.53 1.93 90.2 0 0 187.6900 59.4133
  A 2.53 1.93 90.2 0 0 189.6112 61.9500
  Z"
/>
<path fill="#0e133a" d="
  M 199.7018 62.8697
  A 3.45 3.10 90.8 0 1 196.6503 59.3767
  A 3.45 3.10 90.8 0 1 199.7982 55.9703
  A 3.45 3.10 90.8 0 1 202.8497 59.4633
  A 3.45 3.10 90.8 0 1 199.7018 62.8697
  Z
  M 199.7444 61.9500
  A 2.53 1.93 89.9 0 0 201.6700 59.4166
  A 2.53 1.93 89.9 0 0 199.7356 56.8900
  A 2.53 1.93 89.9 0 0 197.8100 59.4234
  A 2.53 1.93 89.9 0 0 199.7444 61.9500
  Z"
/>
<path fill="#0e133a" d="
  M 208.03 57.00
  Q 207.00 56.86 206.13 57.50
  Q 205.72 57.80 205.72 58.29
  L 205.66 62.35
  Q 205.66 62.78 205.23 62.77
  L 204.89 62.77
  Q 204.61 62.77 204.61 62.49
  L 204.58 57.13
  Q 204.57 56.45 205.26 56.43
  Q 206.65 56.40 207.96 56.07
  A 1.40 1.40 0.0 0 1 209.67 57.15
  Q 210.18 59.69 209.82 62.56
  Q 209.78 62.91 209.43 62.85
  L 209.15 62.80
  Q 208.82 62.74 208.81 62.40
  L 208.70 57.75
  A 0.78 0.78 0.0 0 0 208.03 57.00
  Z"
/>
<path fill="#0e133a" d="
  M 213.48 59.64
  Q 212.56 59.63 212.85 60.51
  Q 213.19 61.54 214.25 61.83
  A 2.80 2.70 49.1 0 0 215.26 61.92
  Q 215.77 61.88 216.23 61.65
  Q 216.54 61.49 216.68 61.81
  L 216.80 62.08
  Q 216.87 62.25 216.71 62.33
  C 213.25 64.04 210.60 61.10 211.94 57.81
  C 212.88 55.48 216.07 55.32 217.06 57.78
  Q 217.84 59.70 215.77 59.67
  L 213.48 59.64
  Z
  M 213.13 58.88
  L 215.95 58.82
  A 0.26 0.26 0.0 0 0 216.20 58.55
  L 216.20 58.40
  A 1.50 1.49 -1.2 0 0 214.67 56.95
  L 214.33 56.95
  A 1.50 1.49 -1.2 0 0 212.86 58.47
  L 212.86 58.62
  A 0.26 0.26 0.0 0 0 213.13 58.88
  Z"
/>
<path fill="#0e133a" d="
  M 223.00 59.68
  A 0.71 0.70 -20.5 0 0 222.47 60.84
  Q 223.89 62.53 225.76 61.60
  Q 226.08 61.44 226.27 61.74
  L 226.42 61.98
  Q 226.49 62.10 226.37 62.18
  C 222.87 64.46 219.79 60.70 221.73 57.37
  C 223.25 54.77 226.70 55.95 226.82 59.02
  A 0.60 0.60 0.0 0 1 226.23 59.64
  L 223.00 59.68
  Z
  M 222.60 58.84
  L 225.60 58.76
  A 0.22 0.22 0.0 0 0 225.82 58.53
  L 225.81 58.42
  A 1.57 1.51 -1.5 0 0 224.21 56.96
  L 223.91 56.96
  A 1.57 1.51 -1.5 0 0 222.38 58.51
  L 222.38 58.62
  A 0.22 0.22 0.0 0 0 222.60 58.84
  Z"
/>
<path fill="#0e133a" d="
  M 233.54 56.92
  Q 231.59 57.49 233.32 58.55
  Q 234.01 58.98 234.80 59.23
  A 1.78 1.78 0.0 0 1 235.07 62.50
  Q 233.21 63.46 231.38 62.05
  A 0.24 0.23 -54.9 0 1 231.33 61.73
  L 231.52 61.43
  Q 231.72 61.12 232.01 61.36
  Q 233.38 62.49 234.61 61.69
  A 0.85 0.84 40.8 0 0 234.50 60.22
  L 232.24 59.16
  A 1.49 1.49 0.0 0 1 232.04 56.57
  Q 233.71 55.46 235.63 56.53
  Q 235.77 56.62 235.71 56.77
  L 235.61 57.04
  A 0.27 0.26 19.9 0 1 235.28 57.19
  Q 234.02 56.79 233.54 56.92
  Z"
/>
<path fill="#0e133a" d="
  M 238.37 60.39
  Q 239.40 62.58 241.64 61.69
  Q 242.01 61.54 242.31 61.80
  Q 242.42 61.89 242.42 62.04
  Q 242.42 62.10 242.37 62.13
  C 239.43 64.52 236.20 61.20 237.46 57.91
  Q 238.30 55.72 240.77 56.08
  Q 242.20 56.28 242.57 57.68
  L 242.76 58.42
  Q 243.07 59.62 241.83 59.64
  L 238.80 59.70
  Q 238.05 59.71 238.37 60.39
  Z
  M 238.61 58.87
  L 241.61 58.74
  A 0.22 0.22 0.0 0 0 241.82 58.51
  L 241.81 58.40
  A 1.57 1.51 -2.5 0 0 240.18 56.96
  L 239.88 56.98
  A 1.57 1.51 -2.5 0 0 238.38 58.55
  L 238.38 58.66
  A 0.22 0.22 0.0 0 0 238.61 58.87
  Z"
/>
<path fill="#0e133a" d="
  M 251.29 57.32
  C 247.11 54.84 246.30 63.80 251.39 61.50
  A 0.23 0.23 0.0 0 1 251.72 61.69
  L 251.75 62.03
  Q 251.76 62.17 251.64 62.24
  C 245.40 66.09 244.98 53.03 251.54 56.54
  A 0.35 0.35 0.0 0 1 251.67 57.03
  L 251.54 57.26
  Q 251.45 57.41 251.29 57.32
  Z"
/>
<path fill="#0e133a" d="
  M 256.75 57.66
  Q 256.36 56.80 255.33 56.96
  Q 254.56 57.07 253.87 57.33
  Q 253.02 57.65 253.46 56.86
  Q 253.78 56.29 254.50 56.14
  C 259.02 55.17 258.15 59.74 258.06 62.35
  Q 258.03 63.12 257.46 62.61
  Q 256.72 61.97 255.90 62.54
  A 1.92 1.81 -20.8 0 1 252.94 61.31
  Q 252.71 58.98 256.10 58.74
  Q 257.19 58.66 256.75 57.66
  Z
  M 256.9487 59.8202
  A 1.64 1.13 -30.8 0 0 254.9614 59.6894
  A 1.64 1.13 -30.8 0 0 254.1313 61.4998
  A 1.64 1.13 -30.8 0 0 256.1186 61.6306
  A 1.64 1.13 -30.8 0 0 256.9487 59.8202
  Z"
/>
<path fill="#0e133a" d="
  M 264.33 58.01
  A 1.09 1.08 -6.5 0 0 263.01 56.96
  L 262.52 57.07
  Q 261.31 57.35 261.30 58.59
  L 261.30 62.29
  Q 261.30 62.76 260.83 62.76
  L 260.54 62.77
  Q 260.21 62.77 260.21 62.44
  L 260.13 56.75
  Q 260.11 55.71 260.84 56.40
  Q 260.93 56.49 261.05 56.56
  Q 261.47 56.81 261.88 56.52
  Q 263.25 55.54 264.69 56.40
  A 1.38 1.37 10.7 0 1 265.36 57.38
  Q 265.71 59.70 265.47 62.36
  Q 265.43 62.82 264.97 62.78
  L 264.63 62.74
  Q 264.38 62.71 264.38 62.47
  L 264.33 58.01
  Z"
/>
<path fill="#0e133a" d="
  M 278.75 60.21
  C 278.92 61.99 281.10 62.26 282.39 61.59
  Q 282.82 61.36 282.74 61.84
  L 282.67 62.31
  Q 282.65 62.42 282.55 62.45
  C 276.25 64.33 275.92 56.06 280.91 56.05
  A 2.06 2.05 82.8 0 1 282.91 57.61
  L 283.10 58.38
  Q 283.43 59.70 282.07 59.68
  L 279.27 59.65
  Q 278.69 59.64 278.75 60.21
  Z
  M 279.04 58.86
  L 281.88 58.86
  A 0.25 0.25 0.0 0 0 282.13 58.61
  L 282.13 58.46
  A 1.52 1.50 -0.1 0 0 280.61 56.96
  L 280.31 56.96
  A 1.52 1.50 -0.1 0 0 278.79 58.46
  L 278.79 58.61
  A 0.25 0.25 0.0 0 0 279.04 58.86
  Z"
/>
<path fill="#0e133a" d="
  M 294.03 60.99
  L 295.61 56.32
  Q 295.68 56.11 295.91 56.13
  L 296.40 56.16
  Q 296.77 56.18 296.64 56.53
  L 294.76 61.75
  Q 293.76 64.53 292.76 61.75
  L 290.86 56.47
  Q 290.75 56.16 291.07 56.16
  L 291.70 56.14
  Q 291.84 56.14 291.89 56.28
  L 293.50 60.99
  Q 293.77 61.77 294.03 60.99
  Z"
/>
<path fill="#0e133a" d="
  M 299.33 59.65
  Q 298.18 59.63 298.80 60.60
  L 299.13 61.12
  Q 299.56 61.79 300.34 61.87
  Q 301.29 61.97 302.19 61.72
  Q 303.20 61.44 302.52 62.24
  Q 301.86 63.01 300.78 62.88
  Q 296.96 62.42 297.67 58.44
  C 298.25 55.17 303.03 55.05 303.15 58.87
  A 0.79 0.79 0.0 0 1 302.35 59.69
  L 299.33 59.65
  Z
  M 299.06 58.86
  L 301.88 58.84
  A 0.25 0.25 0.0 0 0 302.12 58.59
  L 302.12 58.43
  A 1.52 1.51 -0.3 0 0 300.59 56.93
  L 300.31 56.93
  A 1.52 1.51 -0.3 0 0 298.80 58.45
  L 298.80 58.61
  A 0.25 0.25 0.0 0 0 299.06 58.86
  Z"
/>
<path fill="#0e133a" d="
  M 306.65 56.46
  Q 307.18 55.92 307.95 56.04
  Q 308.19 56.08 308.32 56.27
  Q 308.50 56.51 308.39 56.78
  Q 308.31 56.99 308.09 56.99
  C 305.05 57.01 306.06 60.55 305.84 62.51
  A 0.32 0.32 0.0 0 1 305.50 62.80
  L 305.15 62.77
  A 0.35 0.34 -89.1 0 1 304.83 62.43
  L 304.82 56.84
  Q 304.82 56.18 305.47 56.32
  Q 305.63 56.35 305.75 56.47
  Q 306.20 56.92 306.65 56.46
  Z"
/>
<rect fill="#0e133a" x="-0.57" y="-3.33" transform="translate(161.26,59.45) rotate(0.5)" width="1.14" height="6.66" rx="0.55"/>
<rect fill="#0e133a" x="-0.55" y="-3.31" transform="translate(288.85,59.50) rotate(-0.4)" width="1.10" height="6.62" rx="0.45"/>
</svg>
